<svg width="78" height="89" viewBox="0 0 78 89" fill="none" xmlns="http://www.w3.org/2000/svg">
<path opacity="0.3952" d="M13.6631 85.1394C13.6631 83.0071 25.9355 82.4896 41.075 82.4896C56.2135 82.4896 68.4869 83.0076 68.4869 85.1394C68.4869 87.2716 56.2135 89 41.075 89C25.936 89 13.6631 87.2716 13.6631 85.1394Z" fill="#2D1700"/>
<path d="M11.4733 27.648C11.1771 27.6142 10.8531 27.7931 10.5359 28.2449C9.81659 29.2695 9.89418 32.2073 9.9348 33.1087C9.14798 32.3725 8.11973 31.9066 6.84091 31.9066C3.70914 31.9066 1.98626 33.6336 1.15745 37.1606C0.329092 40.6889 2.88945 42.8103 6.02122 42.8103C6.46073 42.8103 6.88427 42.7564 7.29502 42.6679C7.78245 42.7058 8.26577 42.7135 8.66557 42.63L9.22876 44.0129L14.4075 41.4233L12.9739 38.8337C12.9739 38.8337 14.8173 35.7964 12.209 33.4994C12.209 33.4994 12.8443 30.8089 12.5623 29.2955C12.3856 28.3503 11.9671 27.7046 11.4733 27.648Z" fill="#FFC6B4"/>
<path d="M57.0487 79.6846C55.0794 80.5184 53.0927 81.0259 51.1179 81.2313C49.3946 81.4102 47.8209 81.3563 46.4476 81.156L46.5941 84.9226C46.5941 84.9226 58.2071 87.0051 63.4478 85.0193C68.6872 83.034 57.0446 79.722 57.0446 79.722L57.0487 79.6846Z" fill="#2D1700"/>
<path d="M26.951 78.8694V78.9151C26.951 78.9151 20.0846 82.3791 20.154 83.9044C20.2233 85.431 24.8288 87.3223 36.967 83.9231L37.0314 81.3956C36.3427 81.3915 35.6257 81.3458 34.8672 81.2395C33.0284 80.9853 31.0627 80.4554 29.0655 79.7302C28.3111 79.4573 27.6306 79.1615 26.951 78.8694Z" fill="#2D1700"/>
<path d="M43.0255 40.1787C34.8346 40.3147 26.741 42.0121 26.741 42.0121L26.8715 65.1827C27.2398 65.2283 27.5543 65.2726 27.9728 65.3173C31.728 65.7062 36.1062 65.8486 40.954 65.5985C46.5822 65.3077 52.3369 64.5049 58.1207 63.102L59.5077 41.4648C59.5077 41.4648 51.2173 40.0427 43.0255 40.1787Z" fill="white"/>
<path d="M57.9866 62.4521C52.2479 63.835 46.538 64.6259 40.954 64.9152C36.1048 65.1653 31.4902 64.7377 27.9728 64.6327C24.4554 64.5291 27.249 64.5437 26.8839 64.4981L26.9509 78.9909C27.631 79.2843 28.3133 79.5787 29.0695 79.853C31.0658 80.5768 33.0292 81.1067 34.8671 81.3623C35.6256 81.4673 36.3426 81.5143 37.0313 81.5184L37.1468 71.4887C37.1468 71.4887 41.828 72.2728 45.9844 71.2614L46.4471 81.2774C47.8204 81.4791 49.3891 81.533 51.1133 81.3541C53.0881 81.1482 55.0789 80.6371 57.0483 79.8019L57.9866 62.4521Z" fill="#EEAE53"/>
<path d="M57.7997 61.5279C52.0153 62.9322 46.2607 63.7355 40.6329 64.0257C35.7837 64.2758 31.4078 64.1334 27.6517 63.7432C27.2341 63.7003 26.9192 63.6542 26.5504 63.6086L26.5632 65.6733C26.9278 65.7176 27.2382 65.7646 27.6521 65.808C31.4074 66.1968 35.7851 66.3392 40.6333 66.0891C46.2187 65.8011 51.9273 65.0088 57.6659 63.6259L57.7997 61.5279Z" fill="#2D1700"/>
<path d="M40.5895 44.8116L41.578 49.229C41.578 49.229 44.7605 49.2062 46.769 48.3386" stroke="#CFCFCF" stroke-width="0.786" stroke-linecap="round" stroke-linejoin="round"/>
<path d="M37.376 44.3931L36.1382 49.3098L32.9886 48.1692" stroke="#CFCFCF" stroke-width="0.786" stroke-linecap="round" stroke-linejoin="round"/>
<path d="M27.4738 30.5493C27.4738 30.5493 21.6822 31.0924 22.0542 28.192C22.4261 25.2916 23.0085 23.1169 32.2619 13.5742C38.0001 7.65658 53.7694 14.3112 59.6788 20.4388L59.6842 41.5114C59.6842 41.5114 39.7339 50.1997 27.0832 41.9418L27.4738 30.5493Z" fill="#FFC6B4"/>
<path opacity="0.3952" d="M37.4685 45.6979L36.5698 48.099L37.7323 49.0811L36.4302 59.7913C36.4302 59.7913 37.5305 64.0526 38.8783 63.9399C40.226 63.8281 41.675 59.4631 41.675 59.4631L40.3543 48.9145L41.199 48.1409L40.7244 45.838L37.4685 45.6979Z" fill="#2D1700"/>
<path d="M37.2453 45.3428L36.6402 47.9027L37.5091 48.7247L36.207 59.4362C36.207 59.4362 37.3088 63.6976 38.6565 63.5849C40.0042 63.4717 41.4519 59.1067 41.4519 59.1067L40.1567 48.6749L41.1279 47.8233L40.6491 45.4318L37.2453 45.3428Z" fill="#FF3547"/>
<path d="M37.5383 48.7594C37.5383 48.7594 38.1732 49.2705 38.8217 49.2559C39.4716 49.2413 40.1347 48.7019 40.1347 48.7019" stroke="#94131E" stroke-width="0.786" stroke-linecap="round" stroke-linejoin="round"/>
<path d="M36.6374 64.1389L36.6241 66.2442C36.6241 66.2442 40.8841 66.1274 42.3304 65.9791L42.1743 63.9413L36.6374 64.1389Z" fill="#CFCFCF"/>
<path d="M50.6523 16.1829C50.6523 16.1829 33.9049 21.6094 28.1836 13.5221C23.2089 6.48958 29.2757 1.472 29.2757 1.472C29.2757 1.472 38.185 -3.91298 40.89 5.91636C40.89 5.91636 44.7639 2.20406 50.2242 9.05589C50.2242 9.05589 54.9821 8.25034 56.8506 12.5619C56.8506 12.5619 62.3711 13.4313 61.708 21.9508C61.0448 30.4703 61.0973 30.6479 60.4625 34.1192C59.9203 37.0862 59.2585 36.539 58.6666 34.0571C58.076 31.5757 58.0988 24.1926 58.0988 24.1926L54.2222 30.9409C53.3436 31.2786 51.8613 30.7683 51.6504 29.1897L53.4746 24.4628C53.4746 24.4628 49.7203 22.321 50.6523 16.1829Z" fill="#2D1700"/>
<path d="M55.5151 29.4507C55.5151 29.4507 55.9482 24.3382 58.4611 24.1214C60.9741 23.9046 62.0137 26.1145 60.5409 28.6274C59.0682 31.1403 56.8578 31.8336 56.8578 31.8336L55.5151 29.4507Z" fill="#FFC6B4"/>
<path d="M43.7909 21.844C42.9516 21.8385 42.1123 22.216 41.3159 22.8531C41.0548 23.0617 40.818 23.2858 40.6099 23.5089C40.4821 23.6445 40.3894 23.7527 40.3369 23.8197C40.1393 24.0717 40.185 24.4336 40.4378 24.6312C40.6893 24.8288 41.0512 24.7868 41.2488 24.5344C41.2543 24.5267 41.273 24.5052 41.2986 24.4756C41.3428 24.4231 41.3939 24.3633 41.4546 24.2989C41.6281 24.1141 41.8234 23.9288 42.0384 23.7568C42.9731 23.0092 43.8758 22.7828 44.6868 23.2816C45.1026 23.5377 45.5102 23.9827 45.8976 24.6522C46.0578 24.9292 46.4102 25.0269 46.6872 24.8667C46.9656 24.7065 47.0582 24.3496 46.8985 24.0721C46.4211 23.246 45.8858 22.6587 45.2924 22.294C44.7968 21.9896 44.2952 21.8472 43.7909 21.844Z" fill="#2D1700"/>
<path d="M26.9915 35.6805C26.9915 35.6805 34.8455 41.5981 50.6107 35.8918" stroke="#2D1700" stroke-width="3.3875" stroke-linecap="round" stroke-linejoin="round"/>
<path d="M59.4877 25.1159C59.3034 25.1196 59.1569 25.272 59.161 25.4564C59.161 25.4564 59.1582 25.6239 59.1514 25.7507C59.1404 25.9479 59.1204 26.1638 59.088 26.3938C59.0003 27.0323 58.8379 27.663 58.5836 28.2518C58.3924 28.6972 58.1533 29.102 57.8653 29.4539C57.7484 29.5968 57.774 29.8081 57.9164 29.9249C58.0588 30.0418 58.266 30.0212 58.3819 29.8788C58.7114 29.4763 58.9821 29.0167 59.1984 28.5169C59.4782 27.8684 59.6571 27.1802 59.7525 26.4865C59.7876 26.2373 59.8091 25.9999 59.8196 25.7845C59.8278 25.643 59.8291 25.534 59.8278 25.4568C59.8278 25.4486 59.8291 25.4472 59.8278 25.444C59.8255 25.2597 59.6721 25.1123 59.4877 25.1159Z" fill="#2D1700"/>
<path d="M33.6512 21.6665C32.8119 21.6615 31.9717 22.0384 31.1753 22.6756C30.9142 22.8841 30.6782 23.1082 30.4692 23.3314C30.3419 23.467 30.2488 23.5751 30.1958 23.6427C29.9987 23.8946 30.0448 24.2565 30.2967 24.4541C30.5491 24.6517 30.9106 24.6093 31.1082 24.3574C31.1141 24.3496 31.1333 24.3282 31.1588 24.2985C31.2036 24.246 31.2542 24.1862 31.3145 24.1219C31.4879 23.937 31.6837 23.7517 31.8986 23.5797C32.8333 22.8321 33.7356 22.6057 34.5471 23.1046C34.9629 23.3606 35.3704 23.8056 35.7579 24.4747C35.9181 24.7517 36.2704 24.8494 36.5475 24.6892C36.8259 24.529 36.9185 24.1721 36.7588 23.8946C36.2814 23.0685 35.746 22.4811 35.1527 22.1165C34.6571 21.8121 34.155 21.6697 33.6512 21.6665Z" fill="#2D1700"/>
<path opacity="0.3952" d="M34.2472 44.8613C34.2472 44.8613 37.3767 73.9153 27.0115 73.0815L26.3959 45.8366L27.6706 43.1398L34.2472 44.8613Z" fill="#2D1700"/>
<path d="M33.8086 44.0795C33.8086 44.0795 36.7031 70.8684 26.3379 70.0332L25.7218 42.7884L27.0508 41.9906L33.8086 44.0795Z" fill="#2A7EC9"/>
<path d="M25.7736 63.6154L25.7001 65.6359L29.8916 65.274L29.9678 63.2859L25.7736 63.6154Z" fill="#0046A2"/>
<path d="M27.0828 41.9906L25.7821 42.7373L30.2904 46.9799C30.2904 46.9799 27.8706 48.3883 28.4766 49.4928C29.0827 50.5986 34.0319 56.7955 34.0319 56.7955C34.5161 50.3937 33.8425 44.0795 33.8425 44.0795L27.0828 41.9906Z" fill="#0046A2"/>
<path opacity="0.3952" d="M45.1291 45.2766C45.1291 45.2766 36.8104 77.4487 57.4873 70.7068C57.4873 70.7068 58.7465 61.6689 58.5553 54.7869C58.3641 47.905 59.0505 42.3292 59.0505 42.3292L45.1291 45.2766Z" fill="#2D1700"/>
<path d="M46.2728 44.3798C46.2728 44.3798 39.0897 75.9052 59.7661 69.1629C61.6629 68.544 60.6497 60.3088 60.4589 53.4274C60.2668 46.5454 60.1536 41.0883 60.1536 41.0883L46.2728 44.3798Z" fill="#2A7EC9"/>
<path d="M60.2732 41.0988L46.2363 44.3784C46.2363 44.3784 44.4915 51.7487 45.2542 58.5686C45.5486 58.2971 46.3641 57.7211 46.6316 57.4683C47.6407 56.5199 48.6493 55.5473 49.5908 54.6016C49.8546 54.3379 50.1075 54.0768 50.3521 53.824C52.745 51.3581 54.0662 49.6712 53.875 49.1281C53.7002 48.6357 53.3839 48.188 52.9618 47.7831C52.7304 47.5613 52.4803 47.3687 52.2315 47.2035C52.1439 47.1456 52.0636 47.0944 51.9919 47.0529C51.9476 47.0273 51.9166 47.01 51.8993 46.9895C51.8993 46.9895 54.147 46.8279 56.24 45.3551C58.3349 43.8819 60.2732 41.0988 60.2732 41.0988Z" fill="#0046A2"/>
<path d="M52.0862 62.2207L57.7413 61.6205L57.8408 63.7245L52.0862 64.4023V62.2207Z" fill="#0046A2"/>
<path opacity="0.3952" d="M37.1487 71.4549L35.6057 71.1413L35.3113 81.5745C35.3113 81.5745 35.8439 81.6877 37.0063 81.627L37.1487 71.4549Z" fill="#2D1700"/>
<path d="M14.8483 40.574L7.44238 44.0124L13.9998 55.425C13.9998 55.425 15.1148 57.3551 17.4593 56.4797C19.8038 55.6039 26.9432 52.2033 26.9432 52.2033L27.096 42.1978L17.871 45.8138L14.8483 40.574Z" fill="#2A7EC9"/>
<path d="M9.87239 33.101C7.6461 36.4203 11.0006 40.0053 7.28235 42.5437" stroke="#2D1700" stroke-width="0.9117" stroke-linecap="round" stroke-linejoin="round"/>
<path d="M9.06675 35.189C9.06675 35.189 4.93365 36.3099 2.11633 34.6504" stroke="#2D1700" stroke-width="0.9117" stroke-linecap="round" stroke-linejoin="round"/>
<path d="M9.11729 38.219C9.11729 38.219 4.21426 39.2253 1.06287 38.145" stroke="#2D1700" stroke-width="0.9117" stroke-linecap="round" stroke-linejoin="round"/>
<path d="M8.70649 41.029C8.70649 41.029 5.44009 42.2986 2.77429 41.84" stroke="#2D1700" stroke-width="0.9117" stroke-linecap="round" stroke-linejoin="round"/>
<path opacity="0.3952" d="M25.9834 52.6282L25.9893 46.8845C25.9893 46.8845 21.6938 48.8146 18.2841 56.1475L25.9834 52.6282Z" fill="#2D1700"/>
<path opacity="0.3952" d="M59.5187 58.1743C59.3786 58.1661 59.2389 58.1647 59.1015 58.1875C59.0906 58.1889 59.0801 58.1848 59.0677 58.1875C59.065 58.1875 59.0636 58.1903 59.0595 58.1916C58.9021 58.2213 58.7501 58.2765 58.6022 58.356C58.5685 58.3733 58.5379 58.3975 58.5055 58.4194C58.3804 58.4961 58.2608 58.5942 58.1477 58.7124C58.1262 58.7366 58.102 58.7553 58.0806 58.7795C57.95 58.9328 57.8318 59.1186 57.7228 59.339C57.7095 59.3687 57.6958 59.4047 57.6812 59.4358C57.5922 59.632 57.5146 59.8593 57.4457 60.1126C57.4284 60.1797 57.4078 60.2472 57.3919 60.3184C57.3207 60.6279 57.2627 60.9642 57.2276 61.3567C57.2276 61.3567 54.8064 62.165 55.0793 64.9887C55.2701 66.9699 56.2481 66.9649 56.2481 66.9649C56.2481 66.9649 55.4435 68.7713 57.6767 69.382C57.6767 69.382 57.7182 69.5207 57.7949 69.701C58.4192 69.5595 59.0686 69.3861 59.7532 69.1629C61.1927 68.6933 60.9545 63.8359 60.6733 58.5161C60.4903 58.418 60.2968 58.3413 60.1015 58.2793C60.0344 58.2592 59.9641 58.2496 59.8956 58.2336C59.7701 58.2053 59.6451 58.1825 59.5187 58.1743Z" fill="#2D1700"/>
<path d="M63.6897 61.2143C63.5688 60.1299 59.9313 57.6216 59.5156 62.113C59.5156 62.113 57.4965 62.7665 57.7238 65.0467C57.8826 66.6459 58.6977 66.6395 58.6977 66.6395C58.6977 66.6395 58.0264 68.099 59.8894 68.5928C59.8894 68.5928 60.1367 69.8183 61.5858 69.8653C61.5858 69.8653 61.9034 71.1162 63.4743 70.8566C65.0361 70.5969 68.0465 69.6663 67.8338 65.3616L68.7767 64.1873L64.7869 60.0884L63.6897 61.2143Z" fill="#FFC6B4"/>
<path d="M59.322 51.3636L66.7462 56.5235L63.9238 60.3102L69.4914 65.9517C69.4914 65.9517 77.3984 56.0407 77.0269 53.8883C76.6559 51.7346 74.2059 50.6584 72.2758 49.0994C70.3458 47.5403 60.1006 41.2303 60.1006 41.2303L58.0222 45.9453L59.322 51.3636Z" fill="#2A7EC9"/>
<path d="M59.4878 62.1303C59.4878 62.1303 59.5804 62.5986 59.8899 63.1394" stroke="#2D1700" stroke-width="0.9117" stroke-linecap="round" stroke-linejoin="round"/>
<path d="M59.0505 63.4648C59.0505 63.4648 60.1819 63.426 60.9592 62.1669" stroke="#2D1700" stroke-width="0.9117" stroke-linecap="round" stroke-linejoin="round"/>
<path opacity="0.3952" d="M60.4063 52.0751L58.8902 50.7419C58.8902 50.7419 58.3913 54.5916 60.5971 57.1045L60.4063 52.0751Z" fill="#2D1700"/>
<path opacity="0.3952" d="M64.252 60.6361L68.3171 64.7605L67.8475 65.3388L63.9385 60.9551L64.252 60.6361Z" fill="#2D1700"/>
<path opacity="0.3952" d="M8.66504 42.6149C8.66504 42.6149 10.2227 42.4899 10.984 40.9468L11.3664 42.1846C11.3664 42.1846 11.3432 43.1813 10.7412 44.2936C10.1397 45.4058 8.95987 46.6339 8.95987 46.6339L7.46472 44.0366L8.94755 43.3169L8.66504 42.6149Z" fill="#2D1700"/>
</svg>
