<svg width="113" height="129" viewBox="0 0 113 129" fill="none" xmlns="http://www.w3.org/2000/svg">
<path d="M13.493 36.8338L11.018 38.2557L10.9482 81.0491L13.493 79.5872V36.8338Z" fill="#616161"/>
<path d="M75.2686 72.3223L72.7748 73.7551L72.7051 116.549L75.2686 115.076V72.3223Z" fill="#616161"/>
<path d="M11.0184 38.2557L10.9487 81.0491L8.63379 79.7132L8.70352 36.9191L11.0184 38.2557Z" fill="#898989"/>
<path d="M45.7899 18.263L43.3149 19.6849L43.2451 62.4783L45.7899 61.0164V18.263Z" fill="#616161"/>
<path d="M43.3143 19.685L43.2446 62.4784L40.9297 61.1418L40.9994 18.3483L43.3143 19.685Z" fill="#898989"/>
<path d="M72.7752 73.7551L72.7055 116.549L70.3906 115.213L70.4068 91.2604L70.4152 88.4115L70.4604 72.4185L72.7752 73.7551Z" fill="#898989"/>
<path d="M107.546 53.7716L105.052 55.2051L104.982 97.9985L107.546 96.525V53.7716Z" fill="#616161"/>
<path d="M105.053 55.205L104.983 97.9985L102.668 96.6619L102.684 72.7097L102.693 69.8615L102.738 53.8684L105.053 55.205Z" fill="#898989"/>
<path d="M76.4779 74.723L76.4637 76.892L5.01855 35.7987L5.03276 33.6298L76.4779 74.723Z" fill="#141314"/>
<path d="M76.4776 74.7231L112.72 53.8871L112.705 56.0561L76.4634 76.892L76.4776 74.7231Z" fill="#222122"/>
<path d="M5.03271 33.6298L41.2741 12.7932L112.72 53.8871L76.4778 74.7231L5.03271 33.6298Z" fill="#222122"/>
<mask id="mask0_447_3131" style="mask-type:luminance" maskUnits="userSpaceOnUse" x="21" y="122" width="5" height="3">
<path d="M21.1729 123.965L24.2148 122.166C24.5693 121.96 25.0607 121.989 25.6025 122.301L22.5605 124.101C22.0187 123.788 21.528 123.759 21.1729 123.965Z" fill="white"/>
</mask>
<g mask="url(#mask0_447_3131)">
<path d="M21.1729 123.965L24.2148 122.166C24.5693 121.96 25.0607 121.989 25.6025 122.301L22.5605 124.101C22.0187 123.788 21.528 123.759 21.1729 123.965Z" fill="#070707"/>
</g>
<mask id="mask1_447_3131" style="mask-type:luminance" maskUnits="userSpaceOnUse" x="22" y="122" width="6" height="7">
<path d="M26.9772 126.918L23.9353 128.718C24.2852 128.514 24.5022 128.082 24.5041 127.467C24.5074 126.23 23.6376 124.723 22.5605 124.101L25.6025 122.301C26.6796 122.923 27.5493 124.43 27.5461 125.667C27.5448 126.282 27.3272 126.715 26.9772 126.918Z" fill="white"/>
</mask>
<g mask="url(#mask1_447_3131)">
<path d="M22.5605 124.102L25.6025 122.302C26.6796 122.924 27.5493 124.431 27.5461 125.668C27.5442 126.283 27.3272 126.715 26.9772 126.919L23.9353 128.718C24.2852 128.515 24.5022 128.082 24.5041 127.468C24.5074 126.23 23.6376 124.723 22.5605 124.102Z" fill="#070707"/>
</g>
<path d="M22.5609 124.102C23.6379 124.723 24.5077 126.23 24.5045 127.468C24.5012 128.705 23.6257 129.205 22.5486 128.583C21.4715 127.961 20.6011 126.454 20.605 125.216C20.6082 123.979 21.4845 123.48 22.5609 124.102Z" fill="#121212"/>
<mask id="mask2_447_3131" style="mask-type:luminance" maskUnits="userSpaceOnUse" x="2" y="109" width="6" height="3">
<path d="M2.9248 111.164L5.96677 109.364C6.32126 109.158 6.81265 109.187 7.35441 109.5L4.31245 111.3C3.77069 110.987 3.2793 110.958 2.9248 111.164Z" fill="white"/>
</mask>
<g mask="url(#mask2_447_3131)">
<path d="M2.9248 111.164L5.96677 109.364C6.32126 109.158 6.81265 109.187 7.35441 109.5L4.31245 111.3C3.77069 110.987 3.2793 110.958 2.9248 111.164Z" fill="#070707"/>
</g>
<mask id="mask3_447_3131" style="mask-type:luminance" maskUnits="userSpaceOnUse" x="4" y="109" width="6" height="7">
<path d="M8.72902 114.117L5.68706 115.916C6.03704 115.713 6.254 115.28 6.25594 114.666C6.25981 113.428 5.38939 111.921 4.31299 111.3L7.35495 109.5C8.432 110.122 9.30178 111.629 9.29855 112.866C9.29596 113.481 9.079 113.913 8.72902 114.117Z" fill="white"/>
</mask>
<g mask="url(#mask3_447_3131)">
<path d="M4.31201 111.3L7.35397 109.5C8.43102 110.122 9.30081 111.629 9.29758 112.866C9.29564 113.481 9.07867 113.913 8.7287 114.117L5.68674 115.916C6.03671 115.713 6.25367 115.28 6.25561 114.666C6.25884 113.428 5.38906 111.921 4.31201 111.3Z" fill="#070707"/>
</g>
<path d="M4.312 111.3C5.38905 111.921 6.25883 113.428 6.25495 114.666C6.25173 115.904 5.37613 116.403 4.29908 115.781C3.22203 115.159 2.35161 113.652 2.35548 112.414C2.35936 111.177 3.23494 110.678 4.312 111.3Z" fill="#121212"/>
<mask id="mask4_447_3131" style="mask-type:luminance" maskUnits="userSpaceOnUse" x="49" y="112" width="6" height="3">
<path d="M49.8584 114.571L52.9004 112.772C53.2549 112.566 53.7462 112.595 54.288 112.907L51.246 114.707C50.7036 114.395 50.2129 114.365 49.8584 114.571Z" fill="white"/>
</mask>
<g mask="url(#mask4_447_3131)">
<path d="M49.8584 114.571L52.9004 112.772C53.2549 112.566 53.7462 112.595 54.288 112.907L51.246 114.707C50.7036 114.395 50.2129 114.365 49.8584 114.571Z" fill="#070707"/>
</g>
<mask id="mask5_447_3131" style="mask-type:luminance" maskUnits="userSpaceOnUse" x="51" y="112" width="6" height="8">
<path d="M55.6631 117.525L52.6211 119.324C52.9711 119.121 53.1881 118.688 53.19 118.074C53.1933 116.837 52.3235 115.329 51.2471 114.708L54.289 112.908C55.3661 113.53 56.2359 115.037 56.232 116.274C56.2301 116.889 56.0131 117.321 55.6631 117.525Z" fill="white"/>
</mask>
<g mask="url(#mask5_447_3131)">
<path d="M51.2456 114.708L54.2876 112.908C55.3646 113.53 56.2344 115.037 56.2305 116.274C56.2286 116.889 56.0116 117.321 55.6616 117.525L52.6197 119.324C52.9697 119.121 53.1866 118.688 53.1886 118.074C53.1918 116.837 52.322 115.329 51.2456 114.708Z" fill="#070707"/>
</g>
<path d="M51.2461 114.708C52.3231 115.329 53.1929 116.837 53.189 118.074C53.1858 119.312 52.3102 119.811 51.2332 119.189C50.1561 118.567 49.2857 117.06 49.2896 115.822C49.2928 114.585 50.169 114.086 51.2461 114.708Z" fill="#121212"/>
<mask id="mask6_447_3131" style="mask-type:luminance" maskUnits="userSpaceOnUse" x="13" y="94" width="5" height="3">
<path d="M13.8286 96.124L16.2843 94.6711C16.5703 94.5045 16.9668 94.5284 17.4046 94.7809L14.9489 96.2337C14.5118 95.9812 14.1153 95.9574 13.8286 96.124Z" fill="white"/>
</mask>
<g mask="url(#mask6_447_3131)">
<path d="M13.8286 96.124L16.2843 94.6711C16.5703 94.5045 16.9668 94.5284 17.4046 94.7809L14.9489 96.2337C14.5118 95.9812 14.1153 95.9574 13.8286 96.124Z" fill="#070707"/>
</g>
<mask id="mask7_447_3131" style="mask-type:luminance" maskUnits="userSpaceOnUse" x="14" y="94" width="5" height="6">
<path d="M18.5137 98.5073L16.0581 99.9602C16.3409 99.7962 16.5159 99.4468 16.5172 98.9503C16.5198 97.952 15.8179 96.7355 14.9487 96.2331L17.4044 94.7803C18.2735 95.282 18.976 96.4985 18.9728 97.4974C18.9715 97.994 18.7965 98.3433 18.5137 98.5073Z" fill="white"/>
</mask>
<g mask="url(#mask7_447_3131)">
<path d="M14.9487 96.2341L17.4044 94.7812C18.2735 95.283 18.976 96.4995 18.9728 97.4984C18.9715 97.995 18.7965 98.3443 18.5137 98.5083L16.0581 99.9612C16.3409 99.7972 16.5159 99.4478 16.5172 98.9513C16.5204 97.9524 15.8179 96.7358 14.9487 96.2341Z" fill="#070707"/>
</g>
<path d="M14.9486 96.2337C15.8177 96.7354 16.5202 97.9519 16.517 98.9508C16.5144 99.9498 15.8074 100.353 14.9382 99.851C14.0691 99.3493 13.3666 98.1327 13.3691 97.1338C13.3724 96.1349 14.0794 95.732 14.9486 96.2337Z" fill="#121212"/>
<mask id="mask8_447_3131" style="mask-type:luminance" maskUnits="userSpaceOnUse" x="42" y="98" width="5" height="2">
<path d="M46.4261 99.6011L43.9704 98.1482C43.6844 97.9816 43.2879 98.0055 42.8501 98.258L45.3057 99.7108C45.7435 99.4584 46.1394 99.4351 46.4261 99.6011Z" fill="white"/>
</mask>
<g mask="url(#mask8_447_3131)">
<path d="M46.4261 99.6011L43.9704 98.1482C43.6844 97.9816 43.2879 98.0055 42.8501 98.258L45.3057 99.7108C45.7435 99.4584 46.1394 99.4351 46.4261 99.6011Z" fill="#070707"/>
</g>
<mask id="mask9_447_3131" style="mask-type:luminance" maskUnits="userSpaceOnUse" x="41" y="98" width="5" height="6">
<path d="M41.7413 101.984L44.197 103.437C43.9142 103.273 43.7392 102.924 43.7379 102.427C43.7353 101.429 44.4372 100.213 45.3063 99.7102L42.8507 98.2574C41.9816 98.7591 41.279 99.9756 41.2822 100.975C41.2835 101.471 41.4585 101.82 41.7413 101.984Z" fill="white"/>
</mask>
<g mask="url(#mask9_447_3131)">
<path d="M45.3063 99.711L42.8507 98.2582C41.9816 98.7599 41.279 99.9764 41.2822 100.975C41.2835 101.472 41.4585 101.821 41.7413 101.985L44.197 103.438C43.9142 103.274 43.7392 102.925 43.7379 102.428C43.7347 101.429 44.4372 100.213 45.3063 99.711Z" fill="#070707"/>
</g>
<path d="M45.3067 99.7109C44.4376 100.213 43.7351 101.429 43.7383 102.428C43.7409 103.427 44.4479 103.83 45.3171 103.328C46.1862 102.826 46.8887 101.61 46.8862 100.611C46.8829 99.6121 46.1759 99.2092 45.3067 99.7109Z" fill="#121212"/>
<mask id="mask10_447_3131" style="mask-type:luminance" maskUnits="userSpaceOnUse" x="45" y="95" width="1" height="4">
<path d="M45.4812 95.8547L45.715 98.4853C45.7234 98.5802 45.6749 98.6803 45.5484 98.7765L45.3159 96.1394C45.4418 96.0451 45.4896 95.9477 45.4812 95.8547Z" fill="white"/>
</mask>
<g mask="url(#mask10_447_3131)">
<path d="M45.4812 95.8547L45.715 98.4853C45.7234 98.5802 45.6749 98.6803 45.5484 98.7765L45.3159 96.1394C45.4418 96.0451 45.4896 95.9477 45.4812 95.8547Z" fill="#BCB291"/>
</g>
<mask id="mask11_447_3131" style="mask-type:luminance" maskUnits="userSpaceOnUse" x="15" y="92" width="10" height="14">
<path d="M24.3057 102.883L24.2734 105.711C24.2753 105.556 24.2088 105.398 24.0642 105.248C20.884 101.954 17.8853 98.4285 15.6867 95.2651C15.6415 95.1993 15.6221 95.1354 15.6253 95.0753L15.7525 92.4866C15.75 92.5454 15.7687 92.6074 15.8133 92.6719C17.9893 95.7649 20.9551 99.2111 24.0991 102.429C24.2424 102.577 24.3076 102.732 24.3057 102.883Z" fill="white"/>
</mask>
<g mask="url(#mask11_447_3131)">
<path d="M24.3057 102.883L24.2734 105.711C24.2753 105.556 24.2088 105.398 24.0642 105.248C20.884 101.954 17.8853 98.4285 15.6867 95.2651C15.6415 95.1993 15.6221 95.1354 15.6253 95.0753L15.7525 92.4866C15.75 92.5454 15.7687 92.6074 15.8133 92.6719C17.9893 95.7649 20.9551 99.2111 24.0991 102.429C24.2424 102.577 24.3076 102.732 24.3057 102.883Z" fill="#BCB291"/>
</g>
<mask id="mask12_447_3131" style="mask-type:luminance" maskUnits="userSpaceOnUse" x="33" y="96" width="13" height="11">
<path d="M33.3578 106.527L33.2848 103.68C33.2784 103.432 33.4456 103.184 33.8021 102.989C38.4641 100.441 41.1064 99.2131 44.8935 96.4501C45.044 96.3435 45.177 96.2402 45.3165 96.1401L45.5489 98.7772C45.4081 98.8799 45.2732 98.9858 45.1215 99.0943C41.293 101.921 38.5965 103.213 33.8808 105.821C33.5199 106.018 33.3514 106.273 33.3578 106.527Z" fill="white"/>
</mask>
<g mask="url(#mask12_447_3131)">
<path d="M45.3169 96.1392L45.5494 98.7763C45.4086 98.8789 45.2737 98.9848 45.1219 99.0933C41.2935 101.92 38.597 103.212 33.8813 105.82C33.5204 106.018 33.3518 106.273 33.3583 106.527L33.2853 103.68C33.2789 103.432 33.4461 103.183 33.8026 102.989C38.4646 100.441 41.1069 99.2128 44.894 96.4498C45.0438 96.3432 45.1775 96.2399 45.3169 96.1392Z" fill="#BCB291"/>
</g>
<mask id="mask13_447_3131" style="mask-type:luminance" maskUnits="userSpaceOnUse" x="4" y="107" width="2" height="4">
<path d="M4.40886 110.141L4.73624 107.219C4.71945 107.368 4.8092 107.518 4.99581 107.625C5.16047 107.72 5.40133 107.781 5.82621 107.776L5.51109 110.712C5.08105 110.717 4.83762 110.654 4.67102 110.557C4.48183 110.447 4.39142 110.294 4.40886 110.141Z" fill="white"/>
</mask>
<g mask="url(#mask13_447_3131)">
<path d="M5.82556 107.775L5.51044 110.711C5.0804 110.716 4.83697 110.654 4.67037 110.556C4.48182 110.446 4.39142 110.293 4.40886 110.14L4.73624 107.218C4.71945 107.367 4.8092 107.517 4.99581 107.624C5.16047 107.719 5.40068 107.78 5.82556 107.775Z" fill="#4F4F4F"/>
</g>
<mask id="mask14_447_3131" style="mask-type:luminance" maskUnits="userSpaceOnUse" x="5" y="105" width="21" height="6">
<path d="M25.5508 106.743L25.5328 109.664C25.534 109.442 25.3674 109.24 25.1001 109.094C24.7663 108.911 24.2749 108.815 23.7551 108.875C18.9994 109.428 12.5913 111.017 5.51172 110.711L5.82683 107.775C12.8225 108.074 19.0943 106.513 23.7938 105.974C24.3072 105.915 24.7928 106.008 25.1234 106.187C25.3875 106.329 25.5521 106.526 25.5508 106.743Z" fill="white"/>
</mask>
<g mask="url(#mask14_447_3131)">
<path d="M25.5508 106.743L25.5328 109.664C25.534 109.442 25.3674 109.24 25.1001 109.094C24.7663 108.911 24.2749 108.815 23.7551 108.875C18.9994 109.428 12.5913 111.017 5.51172 110.711L5.82683 107.775C12.8225 108.074 19.0943 106.513 23.7938 105.974C24.3072 105.915 24.7928 106.008 25.1234 106.187C25.3875 106.329 25.5521 106.526 25.5508 106.743Z" fill="#4F4F4F"/>
</g>
<mask id="mask15_447_3131" style="mask-type:luminance" maskUnits="userSpaceOnUse" x="22" y="118" width="1" height="6">
<path d="M22.6075 121.671L22.6631 118.462C22.6534 119.007 22.6773 119.532 22.7412 120.024L22.6863 123.272C22.6217 122.767 22.5979 122.23 22.6075 121.671Z" fill="white"/>
</mask>
<g mask="url(#mask15_447_3131)">
<path d="M22.7407 120.025L22.6858 123.273C22.6212 122.768 22.5974 122.23 22.6071 121.672L22.6626 118.463C22.6535 119.008 22.6768 119.532 22.7407 120.025Z" fill="#BCB291"/>
</g>
<path d="M45.272 95.5693C45.4986 95.7249 45.5832 95.9393 45.3166 96.1394C45.1771 96.2395 45.0441 96.3428 44.8936 96.4494C41.1059 99.2124 38.4642 100.441 33.8022 102.989C33.0751 103.384 33.1364 104.008 33.8467 104.382C33.9681 104.446 34.1083 104.502 34.2665 104.549C38.091 105.675 46.3194 108.161 53.0025 110.591C53.0651 110.614 53.122 110.639 53.1723 110.665C53.9575 111.071 53.2576 111.815 52.1637 111.595C45.5787 110.248 38.4991 108.495 32.1634 106.724C31.0159 106.402 29.6451 106.783 29.4591 107.473C28.7346 110.238 26.9395 116.55 24.8958 120.143C24.5555 120.721 23.545 120.761 23.0368 120.469C22.8515 120.362 22.7333 120.212 22.7417 120.024C22.2013 115.836 24.5291 109.481 25.5222 106.9C25.6261 106.623 25.4518 106.362 25.1244 106.186C24.7945 106.008 24.3089 105.914 23.7949 105.973C19.0954 106.512 12.8236 108.074 5.82789 107.775C5.40301 107.78 5.16215 107.718 4.99749 107.623C4.54549 107.364 4.66366 106.854 5.48178 106.707L5.70842 106.665C11.8272 105.609 17.7523 104.261 22.7262 103.855C23.9834 103.75 24.6808 103.023 24.101 102.43C20.9563 99.2117 17.9906 95.7656 15.8152 92.6726C15.4619 92.167 16.7243 91.8009 17.3907 92.1457C17.4333 92.1676 17.474 92.1928 17.5115 92.2212C21.6072 95.3168 25.9994 99.3435 28.0715 101.292C28.1586 101.374 28.2632 101.446 28.3814 101.509C29.0775 101.874 30.2378 101.895 30.9649 101.505C35.6463 98.9974 38.4345 97.8738 43.5809 95.8037C43.7856 95.7242 43.9728 95.648 44.1659 95.5744C44.5385 95.4285 44.9524 95.4576 45.272 95.5693Z" fill="#737373"/>
<mask id="mask16_447_3131" style="mask-type:luminance" maskUnits="userSpaceOnUse" x="22" y="106" width="32" height="18">
<path d="M53.5043 111.049L53.8252 114.074C53.8639 114.44 53.2705 114.797 52.4673 114.633C45.8009 113.254 38.6348 111.458 32.2222 109.645C31.0612 109.315 29.6742 109.705 29.4856 110.412C28.7528 113.243 26.9357 119.711 24.8668 123.395C24.522 123.987 23.4986 124.028 22.9846 123.729C22.8006 123.622 22.6824 123.472 22.6856 123.285L22.7405 120.037C22.7373 120.219 22.8548 120.366 23.0363 120.47C23.5444 120.762 24.555 120.722 24.8953 120.145C26.9383 116.551 28.7334 110.239 29.4585 107.474C29.6445 106.784 31.0153 106.402 32.1628 106.725C38.4985 108.496 45.5781 110.25 52.1631 111.596C52.9554 111.755 53.5424 111.407 53.5043 111.049Z" fill="white"/>
</mask>
<g mask="url(#mask16_447_3131)">
<path d="M53.5043 111.049L53.8252 114.074C53.8639 114.44 53.2705 114.797 52.4673 114.633C45.8009 113.254 38.6348 111.458 32.2222 109.645C31.0612 109.315 29.6742 109.705 29.4856 110.412C28.7528 113.243 26.9357 119.711 24.8668 123.395C24.522 123.987 23.4986 124.028 22.9846 123.729C22.8006 123.622 22.6824 123.472 22.6856 123.285L22.7405 120.037C22.7373 120.219 22.8542 120.366 23.0363 120.47C23.5444 120.762 24.555 120.722 24.8953 120.145C26.9383 116.551 28.7334 110.239 29.4585 107.474C29.6445 106.784 31.0153 106.402 32.1628 106.725C38.4985 108.496 45.5781 110.25 52.1631 111.596C52.9554 111.755 53.5424 111.407 53.5043 111.049Z" fill="#4F4F4F"/>
</g>
<path d="M27.1744 82.2656C27.1905 82.2598 27.208 82.2559 27.2248 82.2514C27.2396 82.2476 27.2538 82.2424 27.2687 82.2392C27.2861 82.2353 27.3048 82.2346 27.3229 82.2321C27.3384 82.2301 27.3539 82.2269 27.3701 82.2262C27.3894 82.2256 27.4094 82.2269 27.4288 82.2275C27.4449 82.2282 27.4611 82.2269 27.4772 82.2288C27.4985 82.2308 27.5211 82.2353 27.5431 82.2392C27.5592 82.2418 27.5741 82.243 27.5902 82.2463C27.6141 82.2514 27.6387 82.2592 27.6632 82.2669C27.678 82.2715 27.6929 82.2747 27.7077 82.2798C27.7355 82.2895 27.7639 82.3018 27.793 82.3141C27.8053 82.3192 27.8175 82.3231 27.8298 82.3289C27.8711 82.3476 27.9131 82.3696 27.9557 82.3941C28.6311 82.7841 29.178 83.7308 29.1755 84.5069L29.1367 104.41C29.1367 104.459 29.1341 104.505 29.1303 104.55C29.1283 104.566 29.1251 104.581 29.1232 104.597C29.1193 104.624 29.1167 104.653 29.1115 104.678C29.1083 104.696 29.1032 104.711 29.0986 104.727C29.0928 104.75 29.0877 104.774 29.0812 104.795C29.076 104.811 29.0689 104.826 29.0631 104.842C29.0554 104.862 29.0489 104.882 29.0399 104.901C29.0328 104.915 29.0244 104.928 29.0166 104.942C29.0076 104.96 28.9985 104.977 28.9882 104.994C28.9798 105.007 28.9695 105.018 28.9604 105.031C28.9501 105.045 28.9404 105.06 28.9288 105.073L28.9275 105.074C28.9172 105.086 28.9062 105.095 28.8952 105.105C28.8823 105.117 28.8707 105.13 28.8571 105.141C28.8455 105.151 28.8326 105.158 28.821 105.167C28.8074 105.176 28.7951 105.186 28.7809 105.194C28.7809 105.194 29.0476 105.202 29.1122 105.194C30.5289 105.021 31.5007 104.394 31.5007 102.509L31.5162 101.917L31.553 83.1264C31.5556 82.3502 31.0086 81.403 30.3332 81.0129C30.1208 80.8903 29.9206 80.8373 29.7456 80.8457C29.641 80.8509 29.5455 80.8786 29.4622 80.9271L27.0859 82.3083L27.0879 82.3076C27.1027 82.2992 27.1182 82.2928 27.1344 82.2857C27.1473 82.2786 27.1602 82.2708 27.1744 82.2656Z" fill="#BCB291"/>
<path d="M27.6776 104.931C28.0734 105.193 28.3963 105.222 28.7805 105.193C29.0362 105.162 29.1078 104.694 29.1117 104.677C29.1169 104.651 29.1201 104.623 29.1233 104.596C29.1253 104.58 29.1285 104.565 29.1304 104.549C29.1349 104.504 29.1369 104.458 29.1369 104.409L29.1756 84.5056C29.1776 83.7294 28.6313 82.7828 27.9559 82.3928C27.9133 82.3682 27.8713 82.3463 27.8299 82.3276C27.8177 82.3218 27.8054 82.3179 27.7932 82.3127C27.7647 82.3004 27.7363 82.2882 27.7079 82.2785C27.6924 82.2733 27.6782 82.2701 27.6634 82.2656C27.6388 82.2585 27.6143 82.2501 27.5904 82.2449C27.5742 82.2417 27.5587 82.2404 27.5433 82.2378C27.5213 82.2339 27.4987 82.2294 27.4774 82.2275C27.4606 82.2262 27.4451 82.2268 27.429 82.2262C27.4096 82.2255 27.3896 82.2243 27.3702 82.2249C27.3541 82.2256 27.3386 82.2288 27.3231 82.2307C27.305 82.2327 27.2863 82.2339 27.2688 82.2378C27.2533 82.241 27.2391 82.2462 27.2249 82.2501C27.2081 82.2546 27.1907 82.2585 27.1746 82.2643C27.1604 82.2694 27.1474 82.2772 27.1332 82.2837C27.1177 82.2908 27.1016 82.2972 27.0867 82.3056C26.8659 82.4328 26.7284 82.7047 26.7277 83.0914L26.689 102.995C26.687 103.772 27.0254 104.498 27.6776 104.931Z" fill="#EFE1B6"/>
<path d="M2.15158 87.8717C2.16514 87.8666 2.17935 87.8633 2.19291 87.8601C2.20453 87.8569 2.21615 87.8524 2.22842 87.8498C2.24262 87.8472 2.25812 87.8459 2.27297 87.844C2.28588 87.8427 2.29816 87.8401 2.31172 87.8394C2.32722 87.8388 2.34335 87.8401 2.3595 87.8401C2.37306 87.8407 2.38597 87.8401 2.39953 87.8407C2.41696 87.842 2.43505 87.8459 2.45313 87.8491C2.46604 87.8511 2.47896 87.8524 2.49187 87.855C2.51124 87.8595 2.53126 87.8659 2.55127 87.8717C2.56354 87.8756 2.57581 87.8776 2.58808 87.8821C2.60939 87.8892 2.63134 87.8989 2.6533 87.9079C2.66492 87.9131 2.6759 87.9163 2.68753 87.9215C2.7211 87.937 2.75533 87.955 2.79019 87.9744L30.4436 72.6213C30.3047 72.5412 30.1724 72.4973 30.0516 72.4869C29.9315 72.4766 29.823 72.4992 29.732 72.5522L2.07861 87.9053L2.08055 87.9047C2.09282 87.8976 2.10574 87.8924 2.118 87.8866C2.12898 87.8821 2.13996 87.8763 2.15158 87.8717Z" fill="#152740"/>
<path d="M12.6175 93.6502L20.9511 98.4614L29.8774 103.615C30.1441 103.769 30.3837 104.029 30.5619 104.327C30.6575 104.277 58.214 89.116 58.2747 89.0818C58.0926 88.7389 57.8291 88.4341 57.5308 88.2617L48.8705 83.2619L42.527 79.5994L30.4424 72.6225L2.78906 87.9756L12.6175 93.6502Z" fill="#152740"/>
<path d="M30.8737 105.341L30.8711 106.418L58.5245 91.0648L58.5225 91.8184L58.5277 89.9878L30.8737 105.341Z" fill="#0E1928"/>
<path d="M30.8677 107.172L30.8703 106.418L30.8677 107.172Z" fill="#4F4F4F"/>
<path d="M30.8705 106.418L30.8686 107.171C30.8686 107.257 30.8641 107.339 30.857 107.418C30.8647 107.339 30.8686 107.257 30.8686 107.171L30.8705 106.418L19.6241 99.9253L1.78368 89.6248L1.78691 88.5478L1.78175 90.3784C1.77788 91.746 2.73999 93.4119 3.93004 94.099L28.7067 108.404C29.3441 108.772 29.9149 108.781 30.3107 108.505C30.2875 108.521 30.2649 108.54 30.2403 108.554L57.8937 93.2008C58.2805 92.9761 58.52 92.4976 58.5226 91.8183L58.5246 91.0648L30.8705 106.418ZM30.4411 108.396C30.4192 108.417 30.3979 108.44 30.3746 108.46C30.3979 108.441 30.4192 108.418 30.4411 108.396ZM30.4986 108.341C30.5199 108.317 30.538 108.29 30.5574 108.264C30.5386 108.289 30.5212 108.316 30.5012 108.338C30.4999 108.34 30.4993 108.34 30.4986 108.341ZM30.7382 107.93C30.7246 107.966 30.7123 108.003 30.6968 108.035C30.7123 108.002 30.7253 107.966 30.7382 107.93Z" fill="#1A1A1A"/>
<path d="M30.873 105.341L58.5271 89.9878L30.873 105.341Z" fill="#737373"/>
<path d="M30.8736 105.34C30.8736 105.268 30.8671 105.193 30.8555 105.118C30.8671 105.194 30.8742 105.268 30.8736 105.34Z" fill="#737373"/>
<path d="M58.3223 89.1761C58.3378 89.2091 58.3545 89.2414 58.3681 89.2743C58.3539 89.2407 58.3378 89.2084 58.3223 89.1761Z" fill="#737373"/>
<path d="M30.8509 105.084C30.8406 105.024 30.8264 104.964 30.8096 104.905C30.8257 104.964 30.8412 105.024 30.8509 105.084Z" fill="#737373"/>
<path d="M58.4917 89.6726C58.4969 89.6991 58.5046 89.7262 58.5091 89.7527C58.5046 89.7268 58.4969 89.6997 58.4917 89.6726Z" fill="#737373"/>
<path d="M30.7398 104.695C30.7449 104.708 30.7495 104.721 30.754 104.734C30.7746 104.791 30.794 104.848 30.8095 104.906C30.8263 104.966 30.8405 105.025 30.8508 105.085C30.8528 105.096 30.8541 105.107 30.856 105.119C30.8676 105.194 30.8741 105.269 30.8741 105.341L58.5274 89.9877C58.5274 89.9115 58.521 89.8327 58.5087 89.7533C58.5049 89.7268 58.4971 89.6997 58.4913 89.6732C58.4803 89.6203 58.47 89.5673 58.4545 89.5138C58.4454 89.4821 58.4325 89.4505 58.4222 89.4188C58.4054 89.3704 58.3893 89.3226 58.3693 89.2748C58.355 89.2419 58.3389 89.209 58.3234 89.1767C58.3085 89.1451 58.2924 89.1141 58.2763 89.0831C58.2156 89.1173 30.659 104.279 30.5635 104.328C30.6332 104.445 30.6913 104.569 30.7398 104.695Z" fill="#0E1928"/>
<path d="M19.6237 99.9246L30.8701 106.417L30.8733 105.34C30.8733 105.268 30.8662 105.193 30.8552 105.118C30.8533 105.106 30.852 105.095 30.85 105.084C30.8404 105.024 30.8249 104.964 30.8087 104.905C30.7932 104.848 30.7739 104.791 30.7532 104.733C30.7487 104.72 30.7442 104.707 30.739 104.694C30.6906 104.569 30.6324 104.445 30.5614 104.327C30.3832 104.029 30.143 103.769 29.877 103.615L20.9506 98.4614L12.617 93.6502L2.78923 87.9756C2.755 87.9556 2.72014 87.9382 2.68656 87.9227C2.67494 87.9175 2.66396 87.9137 2.65234 87.9091C2.63039 87.9001 2.60842 87.8904 2.58711 87.8833C2.57485 87.8788 2.56258 87.8769 2.55031 87.873C2.5303 87.8672 2.51028 87.8607 2.49091 87.8562C2.478 87.8536 2.46507 87.8523 2.45216 87.8504C2.43408 87.8471 2.41601 87.8439 2.39857 87.842C2.38501 87.8407 2.3721 87.8414 2.35854 87.8414C2.3424 87.8407 2.32625 87.8394 2.31075 87.8407C2.29719 87.8413 2.28493 87.8439 2.27201 87.8452C2.25716 87.8472 2.24231 87.8478 2.22746 87.851C2.21519 87.8536 2.20356 87.8575 2.19194 87.8614C2.17773 87.8652 2.16353 87.8685 2.15061 87.873C2.13899 87.8775 2.12801 87.8833 2.11704 87.8885C2.10412 87.8943 2.09121 87.8995 2.07959 87.9066C1.89879 88.0105 1.78708 88.2326 1.78643 88.549L1.7832 89.6261L19.6237 99.9246Z" fill="#0E1928"/>
<path d="M7.69675 74.6398L7.65283 86.2801L11.4774 88.4884L11.5213 76.8481L7.69675 74.6398Z" fill="#141314"/>
<path d="M23.9458 65.3667L23.9019 77.007L27.7271 79.2153L27.7703 67.575L23.9458 65.3667Z" fill="#1A1A1A"/>
<path d="M12.4621 77.6726C12.4628 77.3704 12.424 77.0553 12.3504 76.7383C12.3259 76.6324 12.2975 76.5265 12.2658 76.4206C12.2019 76.2088 12.1238 75.9977 12.0327 75.7891C11.5782 74.7488 10.8065 73.7913 9.92964 73.285L8.33022 72.3616C8.2424 72.3106 8.15522 72.2661 8.06934 72.2267C8.04029 72.2131 8.01187 72.2041 7.98282 72.1918C7.92664 72.1686 7.87046 72.1434 7.81622 72.1247C7.78265 72.113 7.74971 72.1066 7.71678 72.0969C7.66835 72.0827 7.61928 72.0665 7.57214 72.0562C7.53727 72.0485 7.50435 72.0459 7.47012 72.0401C7.42622 72.033 7.38101 72.0233 7.33775 72.02C7.30353 72.0168 7.27124 72.0188 7.23831 72.0175C7.19698 72.0162 7.15501 72.0129 7.11498 72.0149C7.08205 72.0168 7.05041 72.0226 7.01877 72.0265C6.98067 72.031 6.94193 72.0336 6.90512 72.0407C6.87348 72.0472 6.84378 72.0581 6.81278 72.0665C6.77791 72.0762 6.7424 72.084 6.70883 72.0969C6.67912 72.1079 6.65135 72.1234 6.62294 72.1369C6.5913 72.1518 6.55837 72.1647 6.52803 72.1821C6.06957 72.4462 5.78416 73.0106 5.78223 73.8139L7.21054 74.6384L11.0351 76.8468L12.4621 77.6726Z" fill="#3E3E3E"/>
<path d="M26.3025 63.7717L24.703 62.8483C24.0851 62.4919 23.5181 62.4183 23.0765 62.5849C23.0132 62.6088 22.9532 62.6378 22.8951 62.6714L6.52295 72.186C6.52424 72.1854 6.52618 72.1847 6.52747 72.1841C6.55782 72.1667 6.59074 72.1537 6.62238 72.1389C6.6508 72.1253 6.67857 72.1098 6.70827 72.0989C6.74185 72.0866 6.77736 72.0788 6.81223 72.0685C6.84322 72.0601 6.87293 72.0491 6.90457 72.0427C6.94137 72.0356 6.98011 72.033 7.01821 72.0285C7.0505 72.0246 7.08149 72.0181 7.11442 72.0168C7.15446 72.0149 7.19643 72.0181 7.23775 72.0194C7.27133 72.0201 7.30362 72.0188 7.3372 72.022C7.38046 72.0259 7.42501 72.0349 7.46957 72.042C7.50379 72.0478 7.53736 72.0504 7.57159 72.0582C7.61872 72.0685 7.6678 72.0847 7.71622 72.0989C7.7498 72.1085 7.78209 72.1157 7.81567 72.1266C7.87055 72.1454 7.92673 72.1699 7.98226 72.1938C8.01132 72.2061 8.03909 72.2151 8.06879 72.2286C8.15467 72.268 8.2412 72.3132 8.32966 72.3636L9.92909 73.287C10.806 73.7932 11.5776 74.7508 12.0322 75.7911C12.1232 75.999 12.2014 76.2108 12.2653 76.4226C12.2969 76.5285 12.3253 76.6344 12.3499 76.7403C12.4235 77.0573 12.4622 77.3718 12.4616 77.6746L27.4008 68.993L28.8337 68.16C28.8395 66.5457 27.7056 64.5815 26.3025 63.7717Z" fill="#353535"/>
<path d="M23.9616 89.1877L19.4307 89.7676L20.2746 96.2964L24.0766 93.9221C24.362 93.7478 24.5105 93.4269 24.4653 93.0801L23.9616 89.1877Z" fill="#141314"/>
<path d="M16.972 76.0339C17.6023 76.3639 18.1821 77.1678 18.2654 77.827L19.5323 87.8537L19.839 90.2835L20.4602 95.1987L20.5138 95.6229C20.5971 96.2822 20.1522 96.5463 19.522 96.2164L17.3692 95.0876C16.7389 94.757 16.1591 93.9557 16.0758 93.2964L16.0222 92.8722L15.4004 87.9512L15.0937 85.5227L13.8274 75.5005C13.7441 74.8413 14.189 74.5752 14.8192 74.9052L16.972 76.0339Z" fill="#404040"/>
<path d="M16.9718 76.0339L14.819 74.9052C14.2863 74.6256 13.8892 74.7767 13.8291 75.228C13.8543 75.2397 13.8782 75.2461 13.904 75.2597L16.0568 76.3884C16.687 76.719 17.2669 77.5222 17.3502 78.1815L18.6171 88.2082L18.9238 90.638L19.545 95.5532L19.5986 95.9774C19.6115 96.0781 19.6076 96.1666 19.5973 96.248C20.1862 96.5179 20.5936 96.2551 20.5142 95.6229L20.4606 95.1987L19.8394 90.2835L19.5327 87.8537L18.2658 77.827C18.1819 77.1678 17.602 76.3645 16.9718 76.0339Z" fill="#6E6E6E"/>
<path d="M30.5872 57.1454C25.9619 48.1849 17.8408 43.6875 17.4133 43.4505L17.022 43.2452C16.6636 43.0682 10.8612 40.1987 7.34401 42.3463L2.38428 45.3754C5.90084 43.2277 11.7039 46.0973 12.0623 46.2742L12.4536 46.4796C12.881 46.7165 21.0022 51.2139 25.6274 60.1745C30.2527 69.1351 25.3937 72.6207 26.5831 77.2666C27.4309 80.5784 29.8975 88.9553 26.4417 91.0661L31.4014 88.0371C34.8573 85.9262 32.3906 77.5494 31.5428 74.2375C30.3534 69.5916 35.2124 66.106 30.5872 57.1454Z" fill="#123E69"/>
<path d="M12.7042 48.8738C13.164 49.1386 20.1028 53.2285 23.7492 60.292C26.0421 64.7358 25.3415 67.5776 24.6616 70.3245C24.1838 72.2564 23.7318 74.0832 24.3361 76.4387L24.5227 77.1555C25.3137 80.1781 26.9597 86.4712 24.8482 88.2986C23.8725 89.1451 22.0852 88.9934 19.5327 87.8537L18.2658 77.827C18.1825 77.1677 17.602 76.3638 16.9724 76.0339L14.8196 74.9052C14.1894 74.5752 13.7445 74.8412 13.8278 75.5005L15.094 85.5227C12.5441 83.9813 10.5624 82.1585 9.22899 80.1103C6.32134 75.651 6.49762 70.3141 6.58285 67.7506L6.60158 67.1411C6.65388 65.129 5.64398 62.5365 4.57662 59.7942C3.05661 55.894 1.48558 51.859 2.90357 49.3626C5.24299 45.2359 12.3672 48.6982 12.4382 48.7337L12.7042 48.8738Z" fill="#1A1A1A"/>
<path d="M23.7493 60.292C20.1036 53.2285 13.1641 49.1385 12.7044 48.8738L12.4377 48.7343C12.3751 48.7033 6.76059 45.9778 3.86133 48.2462C6.88521 47.0987 11.3665 49.2742 11.4227 49.3019L11.6893 49.4414C12.1491 49.7061 19.0879 53.7961 22.7343 60.8596C25.0272 65.3034 24.3266 68.1451 23.6467 70.892C23.1688 72.824 22.7168 74.6507 23.3212 77.0063L23.5078 77.723C24.2833 80.6856 25.8776 86.7863 23.9527 88.7486C24.3027 88.6621 24.6017 88.5123 24.849 88.2979C26.9605 86.4705 25.3145 80.1774 24.5235 77.1548L24.3369 76.4381C23.7332 74.0819 24.1845 72.2558 24.6624 70.3238C25.3417 67.5776 26.0423 64.7358 23.7493 60.292Z" fill="#333333"/>
<path d="M12.4545 46.4801C12.882 46.7171 21.0031 51.2145 25.6284 60.1751C30.2537 69.1357 25.3947 72.6212 26.5841 77.2671C27.7444 81.7988 31.9338 95.8114 19.8402 90.2841L19.5335 87.8543C22.0867 88.9946 23.8733 89.1457 24.849 88.2992C26.9605 86.4718 25.3146 80.1787 24.5236 77.1561L24.337 76.4393C23.7332 74.0831 24.1846 72.257 24.6624 70.3251C25.3423 67.5775 26.0429 64.7364 23.75 60.2926C20.1043 53.2291 13.1648 49.1392 12.7051 48.8744L12.4384 48.7349C12.368 48.7001 5.24383 45.2371 2.90376 49.3639C1.48577 51.8602 3.05744 55.8946 4.57681 59.7954C5.64353 62.5377 6.65343 65.1303 6.60177 67.1423L6.58304 67.7519C6.49781 70.3147 6.32153 75.6522 9.22919 80.1115C10.5626 82.1597 12.5443 83.9819 15.0942 85.5239L15.4009 87.9524C3.17174 80.6817 4.16162 69.4282 4.25977 65.5642C4.36244 61.5956 -2.13152 52.1579 0.724475 47.12C3.58241 42.0828 11.639 46.0662 12.0626 46.2761L12.4545 46.4801Z" fill="#222122"/>
<path d="M30.7046 86.1077L30.6606 97.7479L34.4859 99.9557L34.5298 88.3153L30.7046 86.1077Z" fill="#141314"/>
<path d="M46.9541 76.834L46.9102 88.4743L50.7347 90.6826L50.7786 79.0423L46.9541 76.834Z" fill="#141314"/>
<path d="M35.4701 89.1399C35.4707 88.8377 35.432 88.5226 35.3584 88.2056C35.3339 88.0997 35.3055 87.9938 35.2738 87.8879C35.2099 87.6761 35.1318 87.4649 35.0407 87.2564C34.5861 86.2161 33.8145 85.2592 32.9376 84.7523L31.3382 83.8289C31.2504 83.7779 31.1632 83.7334 31.0773 83.694C31.0483 83.6804 31.0198 83.6714 30.9908 83.6591C30.9346 83.6358 30.8784 83.6107 30.8235 83.5926C30.79 83.581 30.757 83.5745 30.7241 83.5642C30.6757 83.55 30.6266 83.5338 30.5795 83.5235C30.5446 83.5157 30.5117 83.5132 30.4774 83.5074C30.4335 83.5003 30.3883 83.4912 30.3451 83.4873C30.3109 83.4841 30.2786 83.486 30.2456 83.4848C30.2043 83.4835 30.1623 83.4802 30.1223 83.4822C30.0894 83.4835 30.0577 83.4899 30.0261 83.4938C29.988 83.4983 29.9492 83.5009 29.9124 83.508C29.8808 83.5145 29.8511 83.5254 29.8201 83.5338C29.7852 83.5435 29.7497 83.5513 29.7161 83.5642C29.6864 83.5751 29.6587 83.5906 29.6303 83.6042C29.5986 83.6191 29.5657 83.632 29.5354 83.6494C29.0769 83.9135 28.7915 84.4779 28.7896 85.2811L30.2179 86.1057L34.0424 88.3141L35.4701 89.1399Z" fill="#152740"/>
<path d="M49.3093 75.239L47.7099 74.3156C47.0919 73.9592 46.525 73.8856 46.0833 74.0522C46.02 74.0761 45.96 74.1051 45.9019 74.1387L29.5298 83.6533C29.5311 83.6527 29.533 83.652 29.5343 83.6514C29.5646 83.6339 29.5976 83.621 29.6292 83.6062C29.6576 83.5926 29.6854 83.5771 29.7151 83.5661C29.7487 83.5539 29.7842 83.5461 29.8191 83.5358C29.8501 83.5274 29.8797 83.5164 29.9114 83.51C29.9482 83.5029 29.987 83.5003 30.025 83.4958C30.0573 83.4919 30.0883 83.4854 30.1213 83.4841C30.1613 83.4822 30.2033 83.4854 30.2446 83.4867C30.2782 83.4874 30.3104 83.4861 30.344 83.4893C30.3873 83.4932 30.4318 83.5022 30.4764 83.5093C30.5106 83.5151 30.5442 83.5177 30.5784 83.5255C30.6256 83.5358 30.6746 83.5519 30.7231 83.5661C30.7566 83.5758 30.7889 83.5829 30.8225 83.5946C30.8774 83.6133 30.9336 83.6378 30.9897 83.6611C31.0188 83.6733 31.0466 83.6824 31.0763 83.6959C31.1621 83.7353 31.2487 83.7805 31.3371 83.8309L32.9366 84.7543C33.8134 85.2605 34.5851 86.2181 35.0397 87.2583C35.1307 87.4663 35.2088 87.678 35.2728 87.8898C35.3044 87.9957 35.3328 88.1016 35.3574 88.2075C35.431 88.5246 35.4697 88.839 35.4691 89.1419L50.4083 80.4603L51.8412 79.6273C51.847 78.0136 50.7124 76.0487 49.3093 75.239Z" fill="#00538F"/>
<mask id="mask17_447_3131" style="mask-type:luminance" maskUnits="userSpaceOnUse" x="58" y="39" width="1" height="1">
<path d="M58.4546 39.2036L58.4552 39.0182C58.4546 39.2507 58.6096 39.4825 58.9156 39.6588L58.915 39.8441C58.6083 39.6685 58.4539 39.436 58.4546 39.2036Z" fill="white"/>
</mask>
<g mask="url(#mask17_447_3131)">
<path d="M58.9152 39.6588L58.9145 39.8441C58.6084 39.6678 58.4541 39.436 58.4541 39.2036L58.4548 39.0182C58.4548 39.2507 58.6091 39.4825 58.9152 39.6588Z" fill="#918D8E"/>
</g>
<path d="M66.0537 43.9005L66.0531 44.0858L58.9141 39.8441L58.9147 39.6588L66.0537 43.9005Z" fill="#918D8E"/>
<path d="M74.8352 40.0825L74.8345 40.4544L68.1895 44.1169L68.1901 43.9316L74.8352 40.0825Z" fill="#AAA4A4"/>
<path d="M74.8349 40.0824L68.1898 43.9315C67.579 44.2524 66.6407 44.2388 66.0538 43.9011L58.9148 39.6594C58.3278 39.3217 58.2988 38.778 58.8483 38.4222L65.2473 34.5641L74.8349 40.0824Z" fill="#D9D1D2"/>
<mask id="mask18_447_3131" style="mask-type:luminance" maskUnits="userSpaceOnUse" x="66" y="43" width="3" height="2">
<path d="M68.1909 43.9315L68.1902 44.1169C67.5794 44.4378 66.6412 44.4242 66.0542 44.0865L66.0548 43.9012C66.6418 44.2382 67.58 44.2518 68.1909 43.9315Z" fill="white"/>
</mask>
<g mask="url(#mask18_447_3131)">
<path d="M68.1909 43.9315L68.1902 44.1169C67.5794 44.4378 66.6412 44.4242 66.0542 44.0865L66.0548 43.9012C66.6418 44.2382 67.58 44.2518 68.1909 43.9315Z" fill="#AAA4A4"/>
</g>
<mask id="mask19_447_3131" style="mask-type:luminance" maskUnits="userSpaceOnUse" x="66" y="43" width="3" height="2">
<path d="M68.1909 43.9315L68.1902 44.1169C67.5794 44.4378 66.6412 44.4242 66.0542 44.0865L66.0548 43.9012C66.6418 44.2382 67.58 44.2518 68.1909 43.9315Z" fill="white"/>
</mask>
<g mask="url(#mask19_447_3131)">
<path d="M67.1616 44.1609C66.7613 44.1622 66.3603 44.0763 66.0548 43.9006L66.0542 44.086C66.3596 44.2622 66.7613 44.3475 67.1616 44.3462V44.1609Z" fill="#918D8E"/>
</g>
<path d="M74.8351 40.0824L70.9666 35.5069L62.5742 30.584L65.2481 34.5635L74.8351 40.0824Z" fill="#7A7776"/>
<mask id="mask20_447_3131" style="mask-type:luminance" maskUnits="userSpaceOnUse" x="83" y="42" width="2" height="2">
<path d="M83.1309 43.8372L84.5198 43.03C84.769 42.8854 84.924 42.5767 84.9253 42.1383L83.5364 42.9454C83.5351 43.3839 83.3801 43.6925 83.1309 43.8372Z" fill="white"/>
</mask>
<g mask="url(#mask20_447_3131)">
<path d="M83.1309 43.8372L84.5198 43.03C84.769 42.8854 84.924 42.5767 84.9253 42.1383L83.5364 42.9454C83.5351 43.3839 83.3801 43.6925 83.1309 43.8372Z" fill="#938E8E"/>
</g>
<path d="M83.5371 42.9454C83.5346 43.8281 82.9108 44.1839 82.1424 43.7403L52.4311 26.5863C51.664 26.1433 51.0428 25.0688 51.0454 24.1861L51.0519 21.8125L83.5436 40.5718L83.5371 42.9454Z" fill="#F1E8E9"/>
<path d="M83.543 40.5719L84.9319 39.7647L52.4396 21.0054L51.0513 21.8126L83.543 40.5719Z" fill="#A49E9E"/>
<path d="M83.5366 42.9455L84.9249 42.1384L84.932 39.7647L83.5431 40.5719L83.5366 42.9455Z" fill="#938E8E"/>
<mask id="mask21_447_3131" style="mask-type:luminance" maskUnits="userSpaceOnUse" x="52" y="19" width="3" height="3">
<path d="M52.7328 21.8578L54.1217 21.0506C53.7756 20.8511 53.496 20.3681 53.4973 19.9703L52.1084 20.7775C52.1078 21.1746 52.3874 21.6576 52.7328 21.8578Z" fill="white"/>
</mask>
<g mask="url(#mask21_447_3131)">
<path d="M52.7318 21.8578L54.1208 21.0507C54.0472 21.008 53.9768 20.9525 53.9109 20.8879L52.522 21.6951C52.5878 21.7597 52.6589 21.8152 52.7318 21.8578Z" fill="#1A1A1A"/>
<path d="M52.523 21.6951L53.912 20.888C53.8887 20.8647 53.8655 20.8402 53.8435 20.815L52.4546 21.6221C52.4765 21.6473 52.4991 21.6719 52.523 21.6951Z" fill="#1A1A1A"/>
<path d="M52.4543 21.6221L53.8433 20.8149C53.8258 20.7949 53.809 20.7742 53.7923 20.7529L52.4033 21.5601C52.4201 21.5814 52.4369 21.602 52.4543 21.6221Z" fill="#1A1A1A"/>
<path d="M52.4027 21.56L53.7916 20.7529C53.7774 20.7342 53.7632 20.7154 53.7503 20.6967L52.3613 21.5039C52.3742 21.5232 52.3884 21.542 52.4027 21.56Z" fill="#1A1A1A"/>
<path d="M52.3614 21.5039L53.7503 20.6968C53.738 20.6793 53.7258 20.6612 53.7141 20.6425L52.3252 21.4497C52.3368 21.4677 52.3491 21.4858 52.3614 21.5039Z" fill="#1A1A1A"/>
<path d="M52.3252 21.4497L53.7142 20.6425C53.7032 20.6251 53.6922 20.6077 53.6819 20.5896L52.293 21.3967C52.3033 21.4148 52.3143 21.4323 52.3252 21.4497Z" fill="#1A1A1A"/>
<path d="M52.2927 21.3967L53.6817 20.5896C53.6713 20.5721 53.6616 20.5547 53.6526 20.5366L52.2637 21.3438C52.2727 21.3618 52.2831 21.3793 52.2927 21.3967Z" fill="#1A1A1A"/>
<path d="M52.2639 21.3445L53.6529 20.5373C53.6438 20.5199 53.6348 20.5018 53.6257 20.4844L52.2368 21.2915C52.2452 21.309 52.2542 21.327 52.2639 21.3445Z" fill="#1A1A1A"/>
<path d="M52.2364 21.2909L53.6254 20.4838C53.617 20.4657 53.6086 20.4476 53.6008 20.4295L52.2119 21.2366C52.2197 21.2554 52.2281 21.2735 52.2364 21.2909Z" fill="#1A1A1A"/>
<path d="M52.2122 21.2366L53.6012 20.4295C53.5928 20.4107 53.5856 20.392 53.5779 20.3733L52.189 21.1804C52.1961 21.1998 52.2038 21.2185 52.2122 21.2366Z" fill="#1A1A1A"/>
<path d="M52.1893 21.1811L53.5782 20.3739C53.5705 20.3546 53.5634 20.3346 53.5569 20.3152L52.168 21.1223C52.1751 21.1417 52.1822 21.1611 52.1893 21.1811Z" fill="#1A1A1A"/>
<path d="M52.1678 21.1223L53.5567 20.3151C53.5496 20.2938 53.5432 20.2725 53.5374 20.2512L52.1484 21.0584C52.1542 21.0797 52.1607 21.101 52.1678 21.1223Z" fill="#1A1A1A"/>
<path d="M52.1488 21.0584L53.5377 20.2513C53.5313 20.2274 53.5254 20.2035 53.5203 20.1796L52.1313 20.9868C52.1365 21.0107 52.1423 21.0346 52.1488 21.0584Z" fill="#1A1A1A"/>
<path d="M52.1311 20.9867L53.52 20.1795C53.5135 20.1505 53.509 20.1214 53.5051 20.093L52.1162 20.9002C52.1201 20.9286 52.1253 20.9576 52.1311 20.9867Z" fill="#1A1A1A"/>
<path d="M52.1162 20.9002L53.5052 20.093C53.5 20.0517 53.4968 20.0104 53.4974 19.9703L52.1085 20.7775C52.1078 20.8175 52.1111 20.8582 52.1162 20.9002Z" fill="#1A1A1A"/>
</g>
<path d="M52.1084 20.7774L53.4967 19.9703L53.5445 3.09326L52.1562 3.9004L52.1084 20.7774Z" fill="#1A1A1A"/>
<mask id="mask22_447_3131" style="mask-type:luminance" maskUnits="userSpaceOnUse" x="52" y="2" width="2" height="2">
<path d="M53.727 2.69287L52.338 3.50001C52.2257 3.56523 52.1559 3.70405 52.1553 3.90099L53.5442 3.09385C53.5449 2.89626 53.6146 2.75809 53.727 2.69287Z" fill="white"/>
</mask>
<g mask="url(#mask22_447_3131)">
<path d="M52.1558 3.90033L53.5447 3.09319C53.5453 2.89625 53.6151 2.75742 53.7274 2.6922L52.3385 3.49934C52.2255 3.56521 52.1564 3.70339 52.1558 3.90033Z" fill="#1A1A1A"/>
</g>
<mask id="mask23_447_3131" style="mask-type:luminance" maskUnits="userSpaceOnUse" x="52" y="2" width="3" height="2">
<path d="M53.7278 2.69289L52.3389 3.50004C52.4525 3.43417 52.6107 3.44321 52.785 3.54394L54.174 2.7368C53.9996 2.63607 53.8414 2.62638 53.7278 2.69289Z" fill="white"/>
</mask>
<g mask="url(#mask23_447_3131)">
<path d="M52.7851 3.54338L54.174 2.73624C54.1443 2.7188 54.1153 2.70459 54.0862 2.69232L52.6973 3.49947C52.7257 3.51173 52.7554 3.52659 52.7851 3.54338Z" fill="#AFA9A9"/>
<path d="M52.6972 3.50005L54.0861 2.69291C54.0609 2.68258 54.0364 2.67418 54.0125 2.66772L52.6235 3.47487C52.6474 3.48068 52.672 3.48907 52.6972 3.50005Z" fill="#ADA6A6"/>
<path d="M52.6232 3.47428L54.0122 2.66713C53.9934 2.66197 53.9754 2.6581 53.9573 2.65552L52.5684 3.46266C52.5858 3.46524 52.6045 3.46911 52.6232 3.47428Z" fill="#ABA5A5"/>
<path d="M52.568 3.46261L53.9569 2.65546C53.9408 2.65288 53.9253 2.65159 53.9104 2.65094L52.5215 3.45808C52.537 3.45873 52.5525 3.46002 52.568 3.46261Z" fill="#A8A3A3"/>
<path d="M52.5208 3.45808L53.9097 2.65094C53.8955 2.65029 53.882 2.65029 53.8684 2.65158L52.4795 3.45872C52.4931 3.45743 52.5066 3.45744 52.5208 3.45808Z" fill="#A7A1A1"/>
<path d="M52.48 3.45808L53.8689 2.65094C53.856 2.65159 53.8431 2.65353 53.8308 2.65546L52.4419 3.46261C52.4542 3.46067 52.4671 3.45873 52.48 3.45808Z" fill="#A59FA0"/>
<path d="M52.4426 3.46266L53.8315 2.65552C53.8192 2.65745 53.8076 2.66003 53.7966 2.66326L52.4077 3.47041C52.4187 3.46718 52.4303 3.4646 52.4426 3.46266Z" fill="#A49E9E"/>
<path d="M52.407 3.47102L53.7959 2.66388C53.7843 2.66711 53.7733 2.67098 53.763 2.6755L52.374 3.48264C52.3844 3.47812 52.3953 3.47425 52.407 3.47102Z" fill="#A29D9D"/>
<path d="M52.3734 3.48262L53.7624 2.67548C53.7514 2.68 53.7411 2.68516 53.7307 2.69097L52.3418 3.49812C52.3521 3.49231 52.3631 3.48714 52.3734 3.48262Z" fill="#A09B9A"/>
<path d="M52.3427 3.49753L53.731 2.69104L53.7278 2.69298L52.3389 3.50012L52.3427 3.49753Z" fill="#9E7767"/>
</g>
<mask id="mask24_447_3131" style="mask-type:luminance" maskUnits="userSpaceOnUse" x="51" y="0" width="3" height="2">
<path d="M52.9002 0.944351L51.5112 1.75149C51.7644 1.60427 52.1143 1.62494 52.4998 1.84836L53.8888 1.04121C53.5033 0.817797 53.1533 0.797128 52.9002 0.944351Z" fill="white"/>
</mask>
<g mask="url(#mask24_447_3131)">
<path d="M52.501 1.84766L53.8899 1.04052C53.8241 1.00242 53.7589 0.970139 53.6956 0.943665L52.3066 1.75081C52.3699 1.77728 52.4351 1.80956 52.501 1.84766Z" fill="#1A1A1A"/>
<path d="M52.3064 1.75078L53.6954 0.943632C53.6398 0.920386 53.5849 0.901657 53.532 0.887451L52.1431 1.69459C52.196 1.7088 52.2509 1.72753 52.3064 1.75078Z" fill="#1A1A1A"/>
<path d="M52.143 1.69466L53.532 0.887519C53.4906 0.875896 53.4493 0.867506 53.4099 0.861694L52.021 1.66884C52.0604 1.67465 52.1011 1.68304 52.143 1.69466Z" fill="#1A1A1A"/>
<path d="M52.0203 1.6688L53.4092 0.861654C53.3737 0.856488 53.3395 0.85261 53.3059 0.851318L51.917 1.65846C51.9506 1.65975 51.9854 1.66299 52.0203 1.6688Z" fill="#1A1A1A"/>
<path d="M51.9169 1.65777L53.3058 0.85063C53.2748 0.849338 53.2438 0.849343 53.2141 0.85128L51.8252 1.65842C51.8549 1.65713 51.8852 1.65648 51.9169 1.65777Z" fill="#1A1A1A"/>
<path d="M51.8247 1.65907L53.2136 0.851929C53.1852 0.853866 53.1568 0.857104 53.1297 0.861624L51.7407 1.66877C51.7685 1.6636 51.7963 1.66036 51.8247 1.65907Z" fill="#1A1A1A"/>
<path d="M51.7407 1.66884L53.1297 0.861694C53.1032 0.866214 53.0767 0.872026 53.0515 0.879774L51.6626 1.68692C51.6884 1.67917 51.7143 1.67336 51.7407 1.66884Z" fill="#1A1A1A"/>
<path d="M51.6625 1.6869L53.0514 0.879761C53.0262 0.886864 53.0017 0.895899 52.9778 0.905585L51.5889 1.71273C51.6128 1.7024 51.6373 1.69401 51.6625 1.6869Z" fill="#1A1A1A"/>
<path d="M51.5902 1.71272L52.9792 0.905579C52.9553 0.91591 52.932 0.926883 52.9094 0.939797L51.5205 1.74694C51.5425 1.73403 51.5657 1.72241 51.5902 1.71272Z" fill="#1A1A1A"/>
<path d="M51.519 1.7469L52.9079 0.939758C52.9053 0.94105 52.9027 0.942989 52.9002 0.944281L51.5112 1.75142C51.5138 1.74949 51.5164 1.74819 51.519 1.7469Z" fill="#1A1A1A"/>
</g>
<path d="M81.8679 38.6792L83.2568 37.8721L54.1209 21.0506L52.7319 21.8577L81.8679 38.6792Z" fill="#1A1A1A"/>
<mask id="mask25_447_3131" style="mask-type:luminance" maskUnits="userSpaceOnUse" x="81" y="37" width="3" height="2">
<path d="M82.314 38.7224L83.703 37.9153C83.5893 37.9812 83.4318 37.9721 83.2581 37.8714L81.8691 38.6785C82.0428 38.7793 82.2004 38.789 82.314 38.7224Z" fill="white"/>
</mask>
<g mask="url(#mask25_447_3131)">
<path d="M82.3133 38.7225L83.7022 37.9153L83.699 37.9173L82.3101 38.7244L82.3133 38.7225Z" fill="#1A1A1A"/>
<path d="M82.3095 38.7244L83.6984 37.9172C83.6881 37.923 83.6777 37.9282 83.6668 37.9327L82.2778 38.7399C82.2888 38.7354 82.2991 38.7302 82.3095 38.7244Z" fill="#1A1A1A"/>
<path d="M82.278 38.7399L83.667 37.9327C83.656 37.9373 83.645 37.9411 83.6341 37.9444L82.2451 38.7515C82.2567 38.7483 82.2677 38.7444 82.278 38.7399Z" fill="#1A1A1A"/>
<path d="M82.2458 38.7515L83.6347 37.9444C83.6231 37.9476 83.6115 37.9502 83.5999 37.9522L82.2109 38.7593C82.2226 38.7574 82.2342 38.7548 82.2458 38.7515Z" fill="#1A1A1A"/>
<path d="M82.211 38.76L83.5999 37.9528C83.5876 37.9548 83.5747 37.9567 83.5618 37.9573L82.1729 38.7645C82.1858 38.7632 82.1987 38.7619 82.211 38.76Z" fill="#1A1A1A"/>
<path d="M82.1727 38.7639L83.5616 37.9567C83.548 37.9574 83.5345 37.9574 83.5203 37.9574L82.1313 38.7645C82.1456 38.7652 82.1591 38.7652 82.1727 38.7639Z" fill="#1A1A1A"/>
<path d="M82.131 38.7645L83.5199 37.9573C83.5044 37.9567 83.4889 37.9548 83.4734 37.9528L82.0845 38.76C82.1 38.7625 82.1161 38.7638 82.131 38.7645Z" fill="#1A1A1A"/>
<path d="M82.0842 38.7599L83.4731 37.9528C83.455 37.9502 83.437 37.9463 83.4182 37.9412L82.0293 38.7483C82.048 38.7528 82.0661 38.7567 82.0842 38.7599Z" fill="#1A1A1A"/>
<path d="M82.0302 38.7477L83.4191 37.9405C83.3952 37.9341 83.3707 37.9257 83.3455 37.9153L81.9565 38.7225C81.9811 38.7328 82.0056 38.7412 82.0302 38.7477Z" fill="#1A1A1A"/>
<path d="M81.9569 38.7224L83.3459 37.9153C83.3175 37.9037 83.2878 37.8888 83.2581 37.8714L81.8691 38.6785C81.8988 38.696 81.9279 38.7108 81.9569 38.7224Z" fill="#1A1A1A"/>
</g>
<mask id="mask26_447_3131" style="mask-type:luminance" maskUnits="userSpaceOnUse" x="82" y="37" width="2" height="2">
<path d="M82.313 38.7225L83.7019 37.9154C83.8143 37.8502 83.8834 37.7113 83.884 37.5144L82.4951 38.3215C82.4951 38.5191 82.4253 38.6573 82.313 38.7225Z" fill="white"/>
</mask>
<g mask="url(#mask26_447_3131)">
<path d="M82.313 38.7225L83.7019 37.9154C83.8143 37.8502 83.8834 37.7113 83.884 37.5144L82.4951 38.3215C82.4951 38.5191 82.4253 38.6573 82.313 38.7225Z" fill="#948F8F"/>
</g>
<path d="M82.4956 38.3215L83.8839 37.5144L83.9317 20.6373L82.5434 21.4445L82.4956 38.3215Z" fill="#958F90"/>
<path d="M81.92 20.3649L83.3089 19.5577L54.173 2.73621L52.7847 3.54335L81.92 20.3649Z" fill="#B5AFAF"/>
<mask id="mask27_447_3131" style="mask-type:luminance" maskUnits="userSpaceOnUse" x="81" y="19" width="3" height="3">
<path d="M82.544 21.4445L83.9329 20.6374C83.9342 20.2409 83.6546 19.7566 83.3098 19.5577L81.9209 20.3649C82.2657 20.5644 82.5447 21.048 82.544 21.4445Z" fill="white"/>
</mask>
<g mask="url(#mask27_447_3131)">
<path d="M82.5439 21.4445L83.9328 20.6374C83.9328 20.5973 83.9302 20.5566 83.9251 20.5153L82.5361 21.3225C82.5413 21.3638 82.5439 21.4045 82.5439 21.4445Z" fill="#948F8F"/>
<path d="M82.5354 21.3224L83.9243 20.5153C83.9204 20.4869 83.9159 20.4578 83.9094 20.4288L82.5205 21.2359C82.527 21.265 82.5321 21.294 82.5354 21.3224Z" fill="#969091"/>
<path d="M82.5199 21.2359L83.9088 20.4287C83.9036 20.4048 83.8978 20.3809 83.8914 20.3571L82.5024 21.1642C82.5089 21.1881 82.5147 21.212 82.5199 21.2359Z" fill="#989394"/>
<path d="M82.5037 21.1642L83.8927 20.3571C83.8869 20.3358 83.8804 20.3145 83.8733 20.2932L82.4844 21.1003C82.4915 21.1216 82.4979 21.1429 82.5037 21.1642Z" fill="#9B9596"/>
<path d="M82.4837 21.1003L83.8727 20.2932C83.8662 20.2732 83.8591 20.2538 83.8513 20.2338L82.4624 21.0409C82.4702 21.0609 82.4773 21.0809 82.4837 21.1003Z" fill="#9C9698"/>
<path d="M82.4627 21.0415L83.8516 20.2344C83.8445 20.2157 83.8368 20.1969 83.8284 20.1782L82.4395 20.9854C82.4478 21.0041 82.4556 21.0228 82.4627 21.0415Z" fill="#9E7767"/>
<path d="M82.4402 20.9853L83.8292 20.1782C83.8214 20.1601 83.813 20.142 83.804 20.124L82.415 20.9311C82.4234 20.9485 82.4318 20.9666 82.4402 20.9853Z" fill="#A09B9A"/>
<path d="M82.4148 20.9312L83.8037 20.1241C83.7953 20.106 83.7863 20.0885 83.7766 20.0711L82.3877 20.8782C82.3974 20.895 82.4064 20.9131 82.4148 20.9312Z" fill="#A29D9D"/>
<path d="M82.3881 20.8776L83.777 20.0705C83.7673 20.0524 83.7577 20.035 83.7473 20.0175L82.3584 20.8247C82.3687 20.8421 82.3791 20.8595 82.3881 20.8776Z" fill="#A49E9E"/>
<path d="M82.3585 20.8246L83.7474 20.0174C83.7371 19.9993 83.7261 19.9819 83.7151 19.9645L82.3262 20.7716C82.3371 20.7891 82.3475 20.8071 82.3585 20.8246Z" fill="#A59FA0"/>
<path d="M82.3262 20.7717L83.7151 19.9645C83.7035 19.9464 83.6912 19.9284 83.679 19.9103L82.29 20.7174C82.3023 20.7355 82.3139 20.7536 82.3262 20.7717Z" fill="#A7A1A1"/>
<path d="M82.289 20.7174L83.678 19.9103C83.6644 19.8909 83.6509 19.8722 83.636 19.8535L82.2471 20.6606C82.2619 20.6793 82.2755 20.6987 82.289 20.7174Z" fill="#A8A3A3"/>
<path d="M82.2488 20.6613L83.6377 19.8541C83.6215 19.8328 83.6041 19.8121 83.5867 19.7921L82.1978 20.5993C82.2152 20.6193 82.232 20.6399 82.2488 20.6613Z" fill="#ABA5A5"/>
<path d="M82.1974 20.5993L83.5863 19.7921C83.5643 19.767 83.5417 19.7424 83.5178 19.7192L82.1289 20.5263C82.1528 20.5496 82.1754 20.5741 82.1974 20.5993Z" fill="#ADA6A6"/>
<path d="M82.1285 20.5263L83.5174 19.7192C83.4522 19.6546 83.3818 19.5997 83.3089 19.5577L81.9199 20.3649C81.9935 20.4069 82.0633 20.4624 82.1285 20.5263Z" fill="#AFA9A9"/>
</g>
<path d="M82.2115 19.0017C82.9799 19.4453 83.5998 20.5198 83.5972 21.4025L83.543 40.5712L51.0513 21.8119L51.1055 2.64255C51.1081 1.75985 51.7325 1.40341 52.5002 1.84702L82.2115 19.0017ZM52.1083 20.7774C52.107 21.1752 52.3866 21.6582 52.7327 21.8577L81.868 38.6792C82.2128 38.8788 82.4943 38.7193 82.4956 38.3215L82.5434 21.4445C82.5447 21.048 82.2651 20.5637 81.9203 20.3648L52.785 3.54332C52.4389 3.3438 52.158 3.50393 52.1567 3.9004L52.1083 20.7774Z" fill="#383737"/>
<path d="M52.7845 3.54338C52.4384 3.34385 52.1575 3.50398 52.1562 3.90045L52.1084 20.7775C52.1071 21.1753 52.3867 21.6582 52.7328 21.8578L81.8681 38.6793C82.2129 38.8788 82.4944 38.7193 82.4957 38.3216L82.5435 21.4445C82.5448 21.048 82.2652 20.5638 81.9204 20.3649L52.7845 3.54338Z" fill="#7BCDF0"/>
<path d="M83.543 40.5719L84.9319 39.7647L84.9861 20.5954L83.5972 21.4025L83.543 40.5719Z" fill="#1A1A1A"/>
<path d="M82.2118 19.0017L83.6007 18.1946L53.8894 1.04053L52.5005 1.84767L82.2118 19.0017Z" fill="#1A1A1A"/>
<mask id="mask28_447_3131" style="mask-type:luminance" maskUnits="userSpaceOnUse" x="82" y="18" width="3" height="4">
<path d="M83.5971 21.4025L84.9861 20.5953C84.9886 19.7127 84.3688 18.6382 83.6004 18.1946L82.2114 19.0017C82.9798 19.4453 83.5997 20.5198 83.5971 21.4025Z" fill="white"/>
</mask>
<g mask="url(#mask28_447_3131)">
<path d="M83.6002 18.1946C83.7636 18.2889 83.9198 18.4115 84.0645 18.5542C84.1168 18.6059 84.1671 18.6595 84.2162 18.7157C84.255 18.7602 84.2924 18.8061 84.3292 18.8532C84.3608 18.8939 84.3918 18.9359 84.4215 18.9785C84.4493 19.0179 84.4758 19.0579 84.5023 19.0986C84.5268 19.1373 84.5507 19.1767 84.5739 19.2161C84.5965 19.2548 84.6185 19.2936 84.6392 19.333C84.6598 19.3724 84.6798 19.4118 84.6992 19.4511C84.7186 19.4912 84.7367 19.5312 84.7547 19.5719C84.7728 19.6132 84.7896 19.6552 84.8057 19.6965C84.8225 19.7404 84.838 19.7837 84.8529 19.8276C84.8684 19.8747 84.8832 19.9219 84.8962 19.9697C84.911 20.0232 84.9239 20.0762 84.9356 20.1291C84.9491 20.1937 84.9607 20.2583 84.9685 20.3222C84.9807 20.4146 84.9865 20.5056 84.9865 20.5947L83.5976 21.4019C83.5976 21.3127 83.5918 21.2217 83.5795 21.1294C83.5712 21.0654 83.5602 21.0009 83.5466 20.9363C83.535 20.8833 83.5221 20.8297 83.5072 20.7768C83.4943 20.7297 83.4794 20.6825 83.464 20.6347C83.4491 20.5908 83.4336 20.5469 83.4168 20.5037C83.4007 20.4617 83.3839 20.4204 83.3658 20.379C83.3484 20.3384 83.3296 20.2983 83.3103 20.2583C83.2909 20.2182 83.2709 20.1789 83.2502 20.1401C83.2296 20.1007 83.2076 20.0613 83.185 20.0232C83.1618 19.9839 83.1379 19.9445 83.1133 19.9057C83.0875 19.865 83.0604 19.825 83.0326 19.7856C83.0029 19.743 82.9719 19.701 82.9403 19.6604C82.9041 19.6132 82.866 19.5674 82.8279 19.5228C82.7789 19.4666 82.7285 19.4124 82.6762 19.3614C82.5309 19.218 82.3746 19.096 82.2119 19.0017L83.6002 18.1946Z" fill="#1F1F1F"/>
</g>
<path d="M55.3579 9.45227L61.5516 20.7775" stroke="#A3DCF5" stroke-miterlimit="10" stroke-linecap="round" stroke-linejoin="round"/>
<path d="M73.1768 19.7986L79.3704 31.1238" stroke="#A3DCF5" stroke-miterlimit="10" stroke-linecap="round" stroke-linejoin="round"/>
<path d="M62.8018 11.9357L74.6067 33.52" stroke="#A3DCF5" stroke-miterlimit="10" stroke-linecap="round" stroke-linejoin="round"/>
<path d="M48.1791 35.8207L48.1784 36.6582L47.9653 36.7816L47.966 35.9441L48.1791 35.8207Z" fill="#A4AAAA"/>
<mask id="mask29_447_3131" style="mask-type:luminance" maskUnits="userSpaceOnUse" x="37" y="42" width="1" height="1">
<path d="M37.7139 42.3269L37.7145 42.0209C37.7145 42.0964 37.7642 42.172 37.8643 42.2294L37.8637 42.5355C37.7636 42.478 37.7132 42.4025 37.7139 42.3269Z" fill="white"/>
</mask>
<g mask="url(#mask29_447_3131)">
<path d="M37.8643 42.2294L37.8637 42.5355C37.7642 42.478 37.7139 42.4025 37.7139 42.3269L37.7145 42.0209C37.7145 42.0964 37.7642 42.172 37.8643 42.2294Z" fill="#B2B7B8"/>
</g>
<path d="M73.0728 49.9044L73.0722 50.7418C73.0722 50.8161 73.0231 50.8904 72.9263 50.9465L72.9269 50.1091C73.0238 50.0522 73.0728 49.9786 73.0728 49.9044Z" fill="#C9C9C9"/>
<mask id="mask30_447_3131" style="mask-type:luminance" maskUnits="userSpaceOnUse" x="72" y="49" width="2" height="2">
<path d="M73.0728 49.9044L73.0722 50.7418C73.0722 50.8161 73.0231 50.8904 72.9263 50.9465L72.9269 50.1091C73.0238 50.0522 73.0728 49.9786 73.0728 49.9044Z" fill="white"/>
</mask>
<g mask="url(#mask30_447_3131)">
<path d="M73.0728 49.9044L73.0722 50.7418C73.0722 50.8161 73.0231 50.8904 72.9263 50.9465L72.9269 50.1091C73.0238 50.0522 73.0728 49.9786 73.0728 49.9044Z" fill="#C0B6C0"/>
</g>
<path d="M72.7143 50.233L72.7136 51.0699L47.9653 36.7815L47.966 35.944L72.7143 50.233Z" fill="#919797"/>
<path d="M72.9241 49.6971C73.1217 49.8114 73.1217 49.9954 72.9267 50.1091L72.7136 50.233L47.9653 35.9447L48.1784 35.8207C48.3734 35.707 48.6937 35.707 48.8913 35.8213L72.9241 49.6971Z" fill="#D7D7D7"/>
<path d="M72.9266 50.1091L72.9253 50.9466L72.7129 51.0699L72.7135 50.233L72.9266 50.1091Z" fill="#C0B6C0"/>
<path d="M72.7145 50.233L72.7138 51.0699L62.6084 56.4112L62.609 56.1052L72.7145 50.233Z" fill="#A4AAAA"/>
<path d="M61.8981 56.1051L61.8968 56.4112L37.8633 42.5354L37.8646 42.2294L61.8981 56.1051Z" fill="#99A09F"/>
<path d="M48.1792 35.8207L47.9661 35.9447L72.7144 50.2331L62.609 56.1059C62.4127 56.2202 62.095 56.2202 61.8974 56.1059L37.8639 42.2301C37.6663 42.1158 37.6638 41.9318 37.8607 41.8175L48.1792 35.8207Z" fill="#C9C9C9"/>
<mask id="mask31_447_3131" style="mask-type:luminance" maskUnits="userSpaceOnUse" x="61" y="56" width="2" height="1">
<path d="M62.6092 56.1052L62.6085 56.4112C62.4122 56.5255 62.0946 56.5255 61.897 56.4112L61.8976 56.1052C62.0958 56.2195 62.4129 56.2195 62.6092 56.1052Z" fill="white"/>
</mask>
<g mask="url(#mask31_447_3131)">
<path d="M62.6092 56.1052L62.6085 56.4112C62.4122 56.5255 62.0946 56.5255 61.897 56.4112L61.8976 56.1052C62.0958 56.2195 62.4129 56.2195 62.6092 56.1052Z" fill="#B2B7B8"/>
</g>
<path d="M84.0089 56.9001C84.0451 56.8775 84.08 56.8543 84.1135 56.8304C84.1174 56.8278 84.1213 56.8252 84.1252 56.8226C84.162 56.7961 84.1975 56.7697 84.2311 56.7419C84.2517 56.7251 84.2717 56.7083 84.2918 56.6915C84.2963 56.6877 84.3008 56.6844 84.3047 56.6806C84.3292 56.6586 84.3525 56.6366 84.3757 56.6147C84.3822 56.6082 84.388 56.6024 84.3944 56.596C84.4106 56.5798 84.4261 56.5637 84.4416 56.5469C84.4487 56.5392 84.4558 56.5314 84.4629 56.523C84.4771 56.5075 84.49 56.4914 84.5036 56.4752C84.51 56.4675 84.5158 56.4604 84.5216 56.4526C84.5378 56.4326 84.5526 56.4119 84.5675 56.3913C84.5694 56.388 84.572 56.3855 84.5739 56.3822C84.5901 56.359 84.6056 56.3351 84.6204 56.3112C84.625 56.3041 84.6288 56.297 84.6327 56.2899C84.643 56.2731 84.6521 56.2557 84.6611 56.2382C84.6656 56.2298 84.6695 56.2214 84.674 56.2131C84.6824 56.1963 84.6902 56.1795 84.6979 56.1621C84.7011 56.1543 84.705 56.1466 84.7083 56.1388C84.7179 56.1162 84.7263 56.0936 84.7341 56.0704C84.7347 56.0684 84.7354 56.0671 84.736 56.0652C84.7444 56.0407 84.7515 56.0161 84.758 55.9909C84.7599 55.9832 84.7612 55.9761 84.7631 55.9683C84.767 55.9509 84.7709 55.9328 84.7741 55.9154C84.7761 55.907 84.7773 55.898 84.7786 55.8896C84.7812 55.8721 84.7838 55.8547 84.7851 55.8366C84.7857 55.8289 84.787 55.8211 84.7877 55.8134C84.7896 55.7882 84.7909 55.763 84.7909 55.7385C84.7928 55.0082 84.7954 55.2296 84.798 54.4451V54.4238C84.798 54.3166 84.7986 54.2126 84.7986 54.1125C84.7986 54.1358 84.7974 54.1597 84.7961 54.1829C84.7961 54.1855 84.7954 54.1881 84.7954 54.1907C84.7948 54.1971 84.7941 54.2042 84.7935 54.2107C84.7915 54.2268 84.7903 54.2423 84.7877 54.2585C84.787 54.263 84.7864 54.2682 84.7857 54.2727C84.7851 54.2785 84.7838 54.2837 84.7825 54.2888C84.7799 54.3043 84.7767 54.3198 84.7728 54.3353C84.7715 54.3418 84.7702 54.3482 84.769 54.354C84.7683 54.3573 84.767 54.3605 84.7664 54.3637C84.7612 54.3831 84.7554 54.4025 84.7496 54.4218C84.7483 54.4264 84.747 54.4302 84.7457 54.4348C84.7451 54.436 84.7444 54.438 84.7444 54.438C84.7438 54.4399 84.7431 54.4412 84.7425 54.4432C84.7347 54.4651 84.727 54.4871 84.7179 54.5084C84.7166 54.511 84.716 54.5135 84.7147 54.5161C84.7121 54.5226 84.7089 54.5284 84.7063 54.5348C84.6992 54.551 84.6921 54.5665 84.6844 54.5826C84.6818 54.5871 84.6798 54.5923 84.6779 54.5968C84.6753 54.602 84.6727 54.6065 84.6701 54.611C84.6618 54.6272 84.6527 54.6427 84.6437 54.6582C84.6405 54.664 84.6372 54.6698 84.634 54.6756C84.6327 54.6782 84.6308 54.6808 84.6288 54.6834C84.6153 54.7053 84.6017 54.7266 84.5869 54.7479C84.5862 54.7492 84.5849 54.7505 84.5843 54.7525L84.583 54.7544C84.5811 54.7576 84.5785 54.7602 84.5765 54.7634C84.5623 54.7834 84.5475 54.8028 84.532 54.8228C84.53 54.8254 84.5281 54.828 84.5255 54.8306C84.521 54.8364 84.5165 54.8416 84.512 54.8467C84.4997 54.8622 84.4868 54.8771 84.4732 54.8926C84.4693 54.8971 84.4655 54.9016 84.4616 54.9061C84.4577 54.91 84.4538 54.9139 84.45 54.9184C84.4358 54.9339 84.4209 54.9494 84.4054 54.9649C84.4002 54.9701 84.3957 54.9752 84.3906 54.9804C84.3886 54.9823 84.3867 54.9843 84.3841 54.9862C84.3615 55.0082 84.3389 55.0295 84.3144 55.0508L84.3124 55.0527C84.3086 55.0559 84.304 55.0592 84.3002 55.0631C84.2834 55.0773 84.2666 55.0921 84.2492 55.1063C84.2466 55.1089 84.2427 55.1108 84.2401 55.1128C84.2356 55.116 84.2317 55.1199 84.2272 55.1231C84.2091 55.1373 84.1897 55.1515 84.1704 55.1657C84.1588 55.1741 84.1478 55.1832 84.1355 55.1916L84.1329 55.1935C84.129 55.1961 84.1252 55.1986 84.1213 55.2012C84.1045 55.2128 84.0877 55.2245 84.0703 55.2355C84.0593 55.2426 84.049 55.2503 84.0374 55.2574C84.0303 55.2619 84.0231 55.2658 84.016 55.2703C84.0115 55.2735 84.007 55.2768 84.0018 55.2794C83.9934 55.2845 83.9844 55.2897 83.9754 55.2955C83.9612 55.3045 83.947 55.3129 83.9321 55.3213L83.894 55.3433L83.6777 55.4692L81.1601 56.9324C81.1084 56.9627 81.0542 56.9905 80.9986 57.017C80.9806 57.026 80.9612 57.0338 80.9425 57.0415C80.9044 57.059 80.8662 57.0757 80.8269 57.0912C80.8043 57.1003 80.7804 57.108 80.7578 57.1164C80.721 57.13 80.6842 57.1429 80.6461 57.1545C80.6209 57.1623 80.5957 57.17 80.5705 57.1771C80.5331 57.1881 80.495 57.1984 80.4569 57.2075C80.431 57.2139 80.4046 57.2204 80.3781 57.2262C80.3387 57.2352 80.2993 57.243 80.2593 57.2501C80.2334 57.2546 80.2076 57.2598 80.1811 57.2643C80.1385 57.2714 80.0953 57.2772 80.0526 57.2824C80.0288 57.2856 80.0049 57.2888 79.981 57.2914C79.9274 57.2972 79.8738 57.3011 79.8195 57.305C79.806 57.3056 79.7918 57.3075 79.7782 57.3082C79.7763 57.3082 79.775 57.3082 79.7731 57.3088C79.7104 57.3121 79.6471 57.3134 79.5845 57.314C79.5748 57.314 79.5645 57.314 79.5548 57.314C79.4922 57.314 79.4295 57.3121 79.3669 57.3088C79.3553 57.3082 79.3443 57.3075 79.3333 57.3069C79.2707 57.303 79.2087 57.2979 79.1467 57.2914C79.137 57.2901 79.1273 57.2888 79.1176 57.2882C79.0537 57.2804 78.9898 57.272 78.9265 57.2611C78.9226 57.2604 78.9194 57.2598 78.9155 57.2591C78.8529 57.2481 78.7916 57.2359 78.7302 57.2217C78.7238 57.2204 78.7173 57.2191 78.7108 57.2172C78.6508 57.2029 78.5914 57.1868 78.5333 57.1694C78.5236 57.1668 78.5139 57.1636 78.5042 57.161C78.4474 57.1435 78.3919 57.1248 78.3376 57.1041C78.328 57.1003 78.3183 57.0964 78.3086 57.0932C78.2537 57.0719 78.2001 57.0493 78.1478 57.0254C78.1407 57.0221 78.1342 57.0189 78.1271 57.015C78.0729 56.9892 78.0193 56.9614 77.9683 56.9324L76.9461 56.3422C76.9184 56.3261 76.8912 56.3099 76.8654 56.2931C76.8564 56.2873 76.848 56.2815 76.8389 56.275C76.8228 56.2641 76.806 56.2531 76.7905 56.2421C76.7795 56.2344 76.7698 56.2266 76.7595 56.2189C76.7466 56.2092 76.733 56.1995 76.7201 56.1898C76.7098 56.1814 76.7001 56.173 76.6904 56.1653C76.6788 56.1556 76.6665 56.1459 76.6549 56.1362C76.6452 56.1278 76.6368 56.1194 76.6278 56.111C76.6168 56.1007 76.6052 56.091 76.5949 56.0807C76.5865 56.0723 76.5787 56.0639 76.5703 56.0555C76.56 56.0452 76.5496 56.0348 76.5406 56.0245C76.5329 56.0161 76.5257 56.0071 76.518 55.998C76.509 55.9877 76.4999 55.9774 76.4915 55.9664C76.4844 55.9574 76.478 55.9483 76.4715 55.9399C76.4631 55.9296 76.4547 55.9186 76.4476 55.9076C76.4412 55.8986 76.4354 55.8889 76.4295 55.8799C76.4224 55.8695 76.4153 55.8586 76.4089 55.8482C76.4031 55.8386 76.3979 55.8289 76.3927 55.8192C76.3869 55.8088 76.3805 55.7985 76.3753 55.7875C76.3701 55.7778 76.3663 55.7682 76.3617 55.7585C76.3566 55.7475 76.3514 55.7372 76.3469 55.7268C76.343 55.7171 76.3391 55.7075 76.3359 55.6971C76.332 55.6862 76.3275 55.6758 76.3236 55.6648C76.3204 55.6552 76.3178 55.6448 76.3146 55.6351C76.3114 55.6242 76.3075 55.6132 76.3049 55.6022C76.3023 55.5925 76.3004 55.5822 76.2985 55.5725C76.2959 55.5615 76.2933 55.5505 76.292 55.5396C76.2901 55.5292 76.2894 55.5196 76.2881 55.5092C76.2868 55.4982 76.2849 55.4873 76.2843 55.4763C76.2836 55.466 76.2836 55.4563 76.283 55.446C76.2823 55.435 76.2817 55.424 76.2817 55.413C76.2817 55.4117 76.2817 55.4111 76.2817 55.4098L76.2739 57.0351C76.2733 57.3721 76.4954 57.7092 76.9403 57.9662L77.9625 58.5564C78.0135 58.5861 78.0664 58.6132 78.1213 58.639C78.1284 58.6422 78.1349 58.6455 78.142 58.6493C78.1943 58.6739 78.2479 58.6965 78.3028 58.7178C78.3124 58.7217 78.3221 58.7255 78.3318 58.7288C78.3861 58.7494 78.4422 58.7682 78.4984 58.7856C78.5081 58.7888 78.5178 58.7914 78.5275 58.7946C78.5856 58.8121 78.645 58.8282 78.7051 58.8424C78.7115 58.8437 78.718 58.845 78.7244 58.8469C78.7851 58.8611 78.8471 58.8734 78.9097 58.8844C78.9136 58.885 78.9168 58.8857 78.9207 58.8863C78.984 58.8973 79.0473 58.9057 79.1118 58.9134C79.1215 58.9147 79.1312 58.916 79.1409 58.9167C79.2029 58.9231 79.2649 58.9283 79.3275 58.9322C79.3385 58.9328 79.3501 58.9335 79.3611 58.9341C79.4237 58.9373 79.4864 58.9393 79.549 58.9393C79.5587 58.9393 79.569 58.9393 79.5787 58.9393C79.6433 58.9393 79.7078 58.9373 79.7724 58.9341C79.786 58.9335 79.8002 58.9315 79.8137 58.9309C79.868 58.9276 79.9216 58.9231 79.9752 58.9173C79.9991 58.9147 80.0229 58.9115 80.0468 58.9083C80.0901 58.9031 80.1327 58.8973 80.1753 58.8902C80.2012 58.8857 80.2276 58.8812 80.2535 58.876C80.2935 58.8689 80.3329 58.8605 80.3723 58.8521C80.3988 58.8463 80.4246 58.8398 80.4504 58.8334C80.4885 58.8237 80.5266 58.8134 80.5641 58.803C80.5892 58.7959 80.6144 58.7882 80.6396 58.7804C80.6777 58.7682 80.7145 58.7552 80.7513 58.7423C80.7746 58.7339 80.7978 58.7255 80.8204 58.7171C80.8598 58.7017 80.8979 58.6849 80.936 58.6674C80.9547 58.659 80.9741 58.6513 80.9922 58.6429C81.0477 58.6164 81.1019 58.588 81.1536 58.5583L83.6712 57.0951L83.9256 56.9472C83.9541 56.9343 83.9818 56.9175 84.0089 56.9001Z" fill="#909395"/>
<path d="M81.4695 54.1991L79.4536 53.0349L81.5722 54.2578L81.4695 54.1991Z" fill="#ADB0B1"/>
<path d="M81.6833 54.0744L81.4696 54.199L83.8194 52.8333C82.648 52.2147 80.8349 52.2328 79.7081 52.8876L79.6416 52.9263C79.661 52.9147 81.6168 54.0311 81.6833 54.0744Z" fill="#ADB0B1"/>
<path d="M81.6318 54.292L81.8398 54.1713L83.8951 55.3478L83.9332 55.3258C83.948 55.3174 83.9622 55.3084 83.9764 55.2993C83.9971 55.2871 84.0177 55.2748 84.0378 55.2619C84.0487 55.2548 84.0597 55.247 84.0707 55.2399C84.0926 55.2251 84.1152 55.2109 84.1359 55.1954C84.1482 55.187 84.1591 55.1779 84.1708 55.1695C84.1901 55.1553 84.2095 55.1411 84.2276 55.1269C84.2321 55.1237 84.236 55.1198 84.2405 55.1166C84.265 55.0966 84.2896 55.0766 84.3122 55.0566L84.3141 55.0546C84.3406 55.0314 84.3658 55.0081 84.3897 54.9842C84.3948 54.9791 84.3994 54.9739 84.4045 54.9687C84.4239 54.9494 84.4426 54.93 84.4607 54.9106C84.4646 54.9061 84.4685 54.9016 84.4723 54.8971C84.4904 54.8764 84.5085 54.8557 84.5246 54.8351C84.5266 54.8325 84.5285 54.8299 84.5311 54.8273C84.5492 54.8041 84.5672 54.7808 84.5834 54.757C84.584 54.7557 84.5853 54.7544 84.586 54.7524C84.6028 54.7285 84.6183 54.704 84.6331 54.6801C84.6363 54.6743 84.6396 54.6685 84.6428 54.6627C84.6544 54.642 84.6661 54.6213 84.677 54.6007C84.6796 54.5962 84.6815 54.591 84.6835 54.5865C84.6944 54.5645 84.7048 54.5426 84.7138 54.5206C84.7151 54.518 84.7158 54.5154 84.7171 54.5129C84.7274 54.4883 84.7364 54.4638 84.7442 54.4393C84.7455 54.4347 84.7468 54.4308 84.748 54.4263C84.7552 54.4037 84.7616 54.3811 84.7674 54.3585C84.7687 54.3521 84.77 54.3456 84.7713 54.3398C84.7758 54.3185 84.7803 54.2978 84.7842 54.2765C84.7849 54.272 84.7855 54.2668 84.7861 54.2623C84.7894 54.2397 84.7926 54.2171 84.7939 54.1945C84.7939 54.1919 84.7945 54.1894 84.7945 54.1868C84.8288 53.7193 84.5363 53.2453 83.9183 52.8882C83.9409 52.9012 83.9609 52.9141 83.9822 52.927L81.6318 54.292Z" fill="#ADB0B1"/>
<path d="M81.8391 54.1713L81.6318 54.292L83.6781 55.4737L83.8944 55.3478L81.8391 54.1713Z" fill="#909395"/>
<path d="M79.6419 52.9263L79.5205 52.9967L79.6419 52.9263Z" fill="#909395"/>
<path d="M81.4695 54.1991L81.6833 54.0745C81.6161 54.0312 79.6603 52.9148 79.6415 52.9257L79.4536 53.0348L81.4695 54.1991Z" fill="#909395"/>
<path d="M81.4702 54.1991L81.5729 54.2585L81.6316 54.2927L83.9827 52.9263C83.9614 52.9134 83.9414 52.9005 83.9188 52.8876C83.9142 52.885 83.9091 52.8818 83.9046 52.8792C83.8768 52.8637 83.8484 52.8482 83.8206 52.8334L81.4702 54.1991Z" fill="#909395"/>
<path d="M76.2835 55.4518C76.2842 55.4621 76.2842 55.4718 76.2848 55.4821C76.2855 55.4931 76.2874 55.5041 76.2887 55.515C76.29 55.5254 76.2906 55.535 76.2926 55.5454C76.2945 55.5564 76.2971 55.5673 76.299 55.5783C76.301 55.588 76.3029 55.5983 76.3055 55.608C76.3081 55.619 76.3119 55.63 76.3152 55.6409C76.3177 55.6506 76.3203 55.661 76.3242 55.6706C76.3281 55.6816 76.3326 55.6926 76.3365 55.7029C76.3404 55.7126 76.3436 55.7223 76.3475 55.7326C76.352 55.7436 76.3571 55.754 76.3623 55.7643C76.3668 55.774 76.3713 55.7836 76.3759 55.7933C76.381 55.8037 76.3875 55.8146 76.3933 55.825C76.3985 55.8347 76.4036 55.8443 76.4094 55.854C76.4159 55.865 76.423 55.8753 76.4301 55.8857C76.4359 55.8947 76.4417 55.9044 76.4482 55.9134C76.4559 55.9244 76.4643 55.9348 76.4721 55.9457C76.4785 55.9548 76.485 55.9638 76.4921 55.9722C76.5005 55.9825 76.5095 55.9929 76.5186 56.0038C76.5263 56.0129 76.5334 56.0213 76.5412 56.0303C76.5508 56.0406 76.5612 56.051 76.5709 56.0613C76.5793 56.0697 76.587 56.0781 76.5954 56.0865C76.6057 56.0968 76.6174 56.1065 76.6283 56.1168C76.6374 56.1252 76.6458 56.1336 76.6555 56.142C76.6664 56.1517 76.6787 56.1614 76.691 56.1711C76.7006 56.1795 76.7103 56.1879 76.7207 56.1956C76.7336 56.2053 76.7472 56.215 76.7601 56.2247C76.7704 56.2324 76.7801 56.2402 76.791 56.2479C76.8065 56.2589 76.8233 56.2699 76.8395 56.2808C76.8485 56.2867 76.8569 56.2931 76.866 56.2989C76.8918 56.3157 76.9189 56.3319 76.9467 56.348L77.9688 56.9382C78.0198 56.9679 78.0728 56.995 78.1277 57.0208C78.1348 57.0241 78.1413 57.028 78.1484 57.0312C78.2007 57.0557 78.2542 57.0783 78.3091 57.099C78.3188 57.1028 78.3285 57.1067 78.3382 57.1099C78.3924 57.1306 78.4486 57.1493 78.5048 57.1668C78.5145 57.17 78.5241 57.1726 78.5338 57.1752C78.5919 57.1926 78.6514 57.2088 78.7114 57.223C78.7179 57.2242 78.7243 57.2255 78.7308 57.2275C78.7915 57.2417 78.8535 57.254 78.9161 57.2649C78.92 57.2656 78.9232 57.2662 78.9271 57.2669C78.9904 57.2778 79.0536 57.2862 79.1182 57.294C79.1279 57.2953 79.1376 57.2966 79.1473 57.2972C79.2093 57.3037 79.2712 57.3088 79.3339 57.3127C79.3449 57.3133 79.3565 57.314 79.3675 57.3146C79.4301 57.3179 79.4927 57.3198 79.5554 57.3198C79.565 57.3198 79.5747 57.3198 79.5851 57.3198C79.6496 57.3198 79.7142 57.3179 79.7788 57.3146C79.793 57.314 79.8065 57.3121 79.8201 57.3114C79.8737 57.3082 79.9279 57.3037 79.9815 57.2979C80.0054 57.2953 80.0293 57.2914 80.0532 57.2888C80.0965 57.283 80.1391 57.2778 80.1817 57.2707C80.2082 57.2662 80.234 57.2617 80.2598 57.2565C80.2999 57.2488 80.3392 57.241 80.3786 57.2326C80.4051 57.2268 80.4309 57.2204 80.4574 57.2139C80.4955 57.2042 80.5336 57.1939 80.5711 57.1836C80.5962 57.1765 80.6214 57.1687 80.6466 57.161C80.6847 57.1493 80.7215 57.1358 80.7583 57.1229C80.7816 57.1145 80.8048 57.1067 80.8274 57.0977C80.8668 57.0822 80.9049 57.0654 80.943 57.048C80.9617 57.0396 80.9811 57.0318 80.9992 57.0234C81.0547 56.9969 81.109 56.9685 81.1606 56.9388L83.6783 55.4756L81.632 54.294L81.5732 54.2598L79.4546 53.0368L79.6425 52.9277L79.5211 52.998L76.9376 54.4993C76.4998 54.7537 76.2816 55.0869 76.2822 55.4201C76.2829 55.4298 76.2835 55.4408 76.2835 55.4518Z" fill="#B8B8B8"/>
<path d="M39.1267 23.4553C39.5341 23.6645 40.4401 24.5194 40.4401 24.5194L40.4362 31.0076C40.4362 31.3711 40.3826 31.5932 40.1992 31.8728C40.0145 32.1557 39.722 32.4236 39.3204 32.6574C38.9155 32.8931 38.439 33.0713 37.9244 33.1907C37.4078 33.3108 36.8544 33.3709 36.2997 33.3709C35.7451 33.3709 35.191 33.3108 34.6725 33.1907C34.156 33.0713 33.6768 32.8931 33.2687 32.6574C32.8639 32.4236 32.5681 32.1557 32.3796 31.8728C32.193 31.5926 32.1323 31.3517 32.1323 31.0069C32.1291 30.7189 32.1323 24.4426 32.1323 24.4426C32.1323 24.4426 33.0188 23.6639 33.4244 23.454C33.8266 23.2467 34.2851 23.0918 34.7694 22.9891C35.2517 22.8871 35.7625 22.8361 36.272 22.8361C36.7814 22.8361 37.2928 22.8871 37.7765 22.9897C38.2627 23.0924 38.7225 23.2474 39.1267 23.4553Z" fill="#D6D8D9"/>
<path d="M39.1264 22.8883C39.5339 23.0976 39.8483 23.3416 40.0672 23.6044C40.2881 23.8698 40.412 24.1546 40.4359 24.4426C40.4605 24.7338 40.3823 25.0282 40.1989 25.3078C40.0143 25.5907 39.7218 25.8586 39.3201 26.0924C38.9153 26.3281 38.4387 26.5063 37.9241 26.6257C37.4075 26.7458 36.8541 26.8059 36.2995 26.8059C35.7448 26.8059 35.1908 26.7458 34.6723 26.6257C34.1557 26.5063 33.6766 26.3281 33.2685 26.0924C32.8636 25.8586 32.5679 25.5907 32.3793 25.3072C32.1927 25.0269 32.1114 24.7325 32.132 24.4413C32.1527 24.1533 32.2735 23.8679 32.4911 23.6025C32.7067 23.3397 33.0186 23.0956 33.4235 22.887C33.8258 22.6791 34.2842 22.5248 34.7685 22.4221C35.2508 22.3201 35.7616 22.2691 36.2711 22.2691C36.7805 22.2691 37.2919 22.3201 37.7756 22.4228C38.2625 22.5261 38.7222 22.6811 39.1264 22.8883Z" fill="white"/>
<path d="M36.2974 25.9813C35.8358 25.9813 35.3883 25.9322 34.9673 25.8347C34.5463 25.7372 34.1763 25.5977 33.8676 25.4195C33.5958 25.2626 33.3879 25.0825 33.2658 24.8991C33.1741 24.7615 33.1328 24.6253 33.1418 24.4942C33.1515 24.358 33.2148 24.2172 33.3304 24.0764C33.4757 23.8989 33.701 23.729 33.9819 23.5837C34.288 23.4255 34.6451 23.3029 35.0428 23.2189C35.4335 23.1363 35.8467 23.0943 36.271 23.0943C36.6971 23.0943 37.1117 23.1369 37.5043 23.2196C37.9033 23.3042 38.2624 23.4275 38.571 23.5857C38.8545 23.731 39.0831 23.9027 39.2316 24.081C39.3497 24.223 39.4156 24.3644 39.4272 24.502C39.4382 24.6324 39.3988 24.7673 39.3097 24.9036C39.1909 25.0857 38.9862 25.2639 38.7176 25.4202C38.4122 25.5977 38.0448 25.7378 37.6257 25.8347C37.206 25.9322 36.7591 25.9813 36.2974 25.9813Z" fill="#412D15"/>
<path d="M39.2332 24.081C39.0847 23.9027 38.8561 23.7316 38.5726 23.5857C38.264 23.4275 37.9056 23.3042 37.5059 23.2196C37.1133 23.1363 36.6988 23.0943 36.2726 23.0943C35.8484 23.0943 35.4351 23.1363 35.0444 23.2189C34.6467 23.3029 34.2896 23.4255 33.9835 23.5837C33.7027 23.7284 33.4773 23.8989 33.332 24.0764C33.2164 24.2172 33.1531 24.3573 33.1435 24.4942C33.1338 24.6253 33.1757 24.7615 33.2674 24.8991C33.2939 24.9385 33.3249 24.9772 33.3585 25.0166C33.3869 24.9572 33.4224 24.8978 33.4689 24.8384C33.6077 24.6595 33.8228 24.4877 34.0907 24.3418C34.3826 24.1823 34.7229 24.059 35.1026 23.9738C35.4751 23.8905 35.8697 23.8478 36.2739 23.8478C36.6807 23.8478 37.0759 23.8905 37.4504 23.9744C37.8314 24.0596 38.1736 24.1836 38.468 24.3431C38.7386 24.4897 38.9562 24.6627 39.0982 24.8422C39.1473 24.9049 39.1854 24.9669 39.2151 25.0289C39.2519 24.9875 39.2842 24.9449 39.312 24.9029C39.4011 24.7673 39.4405 24.6324 39.4295 24.5013C39.4172 24.3651 39.3514 24.223 39.2332 24.081Z" fill="#B5B8BA"/>
</svg>
