<svg width="166" height="44" viewBox="0 0 166 44" fill="none" xmlns="http://www.w3.org/2000/svg">
<path d="M28 27.4837C29.7924 27.4837 31.3888 26.6449 32.4182 25.3385C32.877 26.8116 33.6198 28.1596 34.5825 29.3184C32.8287 30.8678 30.5242 31.8081 28 31.8081C25.4759 31.8081 23.1714 30.8678 21.4176 29.3184C22.3803 28.1596 23.123 26.8116 23.5819 25.3385C24.6112 26.6449 26.2077 27.4837 28 27.4837Z" fill="#33658A"/>
<path d="M26.7027 12C21.8227 12.6357 18.0541 16.8088 18.0541 21.8621C18.0541 22.007 18.0572 22.1512 18.0633 22.2945H22.3948C22.3839 22.1518 22.3784 22.0076 22.3784 21.8621C22.3784 19.2039 24.2234 16.9766 26.7027 16.3909V12Z" fill="#33658A"/>
<path d="M29.2973 16.3909C31.7766 16.9766 33.6216 19.2039 33.6216 21.8621C33.6216 22.0076 33.6161 22.1518 33.6052 22.2945H37.9367C37.9428 22.1512 37.9459 22.007 37.9459 21.8621C37.9459 16.8088 34.1773 12.6357 29.2973 12V16.3909Z" fill="#33658A"/>
<path d="M44 27.4673C43.8573 27.4782 43.7131 27.4837 43.5676 27.4837C40.6083 27.4837 38.1831 25.1972 37.9623 22.2945H33.6309C33.8573 27.5869 38.2195 31.8081 43.5676 31.8081C43.7125 31.8081 43.8566 31.805 44 31.7988V27.4673Z" fill="#33658A"/>
<path d="M12 31.7988C12.1434 31.805 12.2875 31.8081 12.4324 31.8081C17.7805 31.8081 22.1428 27.5869 22.3692 22.2945H18.0377C17.8169 25.1972 15.3917 27.4837 12.4324 27.4837C12.2869 27.4837 12.1427 27.4782 12 27.4673V31.7988Z" fill="#33658A"/>
<path d="M50 31.808L53.584 22.016C53.7867 21.4827 54.1173 21.0827 54.576 20.816C55.0453 20.5387 55.5733 20.4 56.16 20.4C56.7467 20.4 57.2693 20.5334 57.728 20.8C58.1973 21.0667 58.5333 21.4667 58.736 22L62.32 31.808H58.656L58.048 29.856H54.224L53.584 31.808H50ZM54.944 27.216H57.328L56.288 23.616C56.2773 23.584 56.2613 23.5627 56.24 23.552C56.2187 23.5307 56.192 23.52 56.16 23.52C56.1387 23.52 56.1173 23.5307 56.096 23.552C56.0747 23.5627 56.0587 23.584 56.048 23.616L54.944 27.216ZM71.3101 32.016C70.6275 32.016 69.9821 31.8774 69.3741 31.6C68.7768 31.3227 68.2915 30.912 67.9181 30.368C67.5448 29.824 67.3581 29.1574 67.3581 28.368V24.032C67.3581 23.8934 67.3261 23.776 67.2621 23.68C67.2088 23.5734 67.1341 23.4934 67.0381 23.44C66.9421 23.3867 66.8301 23.36 66.7021 23.36C66.5741 23.36 66.4568 23.3867 66.3501 23.44C66.2541 23.4934 66.1741 23.5734 66.1101 23.68C66.0568 23.776 66.0301 23.8934 66.0301 24.032V31.808H62.7341V24.064C62.7341 23.2854 62.9155 22.624 63.2781 22.08C63.6515 21.536 64.1421 21.12 64.7501 20.832C65.3581 20.544 66.0088 20.4 66.7021 20.4C67.3955 20.4 68.0408 20.544 68.6381 20.832C69.2355 21.12 69.7208 21.536 70.0941 22.08C70.4675 22.624 70.6541 23.2854 70.6541 24.064V28.4C70.6541 28.5387 70.6861 28.6614 70.7501 28.768C70.8141 28.864 70.8941 28.9387 70.9901 28.992C71.0861 29.0454 71.1875 29.072 71.2941 29.072C71.4115 29.072 71.5235 29.0454 71.6301 28.992C71.7368 28.9387 71.8221 28.864 71.8861 28.768C71.9501 28.6614 71.9821 28.5387 71.9821 28.4V24.064C71.9821 23.2854 72.1688 22.624 72.5421 22.08C72.9155 21.536 73.4008 21.12 73.9981 20.832C74.6061 20.544 75.2515 20.4 75.9341 20.4C76.6168 20.4 77.2568 20.544 77.8541 20.832C78.4515 21.12 78.9368 21.536 79.3101 22.08C79.6835 22.624 79.8701 23.2854 79.8701 24.064V31.808H76.5901V23.984C76.5901 23.856 76.5581 23.7494 76.4941 23.664C76.4301 23.568 76.3501 23.4934 76.2541 23.44C76.1581 23.3867 76.0515 23.36 75.9341 23.36C75.8168 23.36 75.7048 23.3867 75.5981 23.44C75.4915 23.4934 75.4061 23.568 75.3421 23.664C75.2888 23.7494 75.2621 23.856 75.2621 23.984V28.368C75.2621 29.1574 75.0701 29.824 74.6861 30.368C74.3128 30.912 73.8275 31.3227 73.2301 31.6C72.6328 31.8774 71.9928 32.016 71.3101 32.016ZM80.5312 31.808L84.1153 22.016C84.3179 21.4827 84.6486 21.0827 85.1073 20.816C85.5766 20.5387 86.1046 20.4 86.6913 20.4C87.2779 20.4 87.8006 20.5334 88.2593 20.8C88.7286 21.0667 89.0646 21.4667 89.2673 22L92.8513 31.808H89.1873L88.5793 29.856H84.7552L84.1153 31.808H80.5312ZM85.4753 27.216H87.8593L86.8193 23.616C86.8086 23.584 86.7926 23.5627 86.7713 23.552C86.7499 23.5307 86.7233 23.52 86.6913 23.52C86.6699 23.52 86.6486 23.5307 86.6273 23.552C86.6059 23.5627 86.5899 23.584 86.5793 23.616L85.4753 27.216ZM93.7398 31.808V29.104H98.4918C98.6731 29.104 98.8224 29.0667 98.9398 28.992C99.0678 28.9174 99.1638 28.8214 99.2278 28.704C99.3024 28.576 99.3398 28.4427 99.3398 28.304C99.3398 28.1547 99.3024 28.0214 99.2278 27.904C99.1638 27.776 99.0678 27.6747 98.9398 27.6C98.8224 27.5254 98.6731 27.488 98.4918 27.488H97.0518C96.3584 27.488 95.7291 27.3547 95.1638 27.088C94.5984 26.8214 94.1451 26.4374 93.8038 25.936C93.4731 25.424 93.3078 24.8107 93.3078 24.096C93.3078 23.392 93.4678 22.7787 93.7878 22.256C94.1078 21.7334 94.5398 21.328 95.0838 21.04C95.6278 20.752 96.2304 20.608 96.8918 20.608H101.996V23.312H97.3558C97.2064 23.312 97.0731 23.344 96.9557 23.408C96.8491 23.472 96.7638 23.5574 96.6998 23.664C96.6464 23.7707 96.6198 23.888 96.6198 24.016C96.6198 24.144 96.6464 24.2614 96.6998 24.368C96.7638 24.4747 96.8491 24.5654 96.9557 24.64C97.0731 24.704 97.2064 24.736 97.3558 24.736H98.9078C99.6651 24.736 100.326 24.88 100.892 25.168C101.457 25.4454 101.894 25.8347 102.204 26.336C102.513 26.8374 102.668 27.4294 102.668 28.112C102.668 28.8907 102.502 29.5574 102.172 30.112C101.852 30.6667 101.42 31.088 100.876 31.376C100.332 31.664 99.7291 31.808 99.0678 31.808H93.7398ZM104.005 31.808V29.104H108.757C108.939 29.104 109.088 29.0667 109.205 28.992C109.333 28.9174 109.429 28.8214 109.493 28.704C109.568 28.576 109.605 28.4427 109.605 28.304C109.605 28.1547 109.568 28.0214 109.493 27.904C109.429 27.776 109.333 27.6747 109.205 27.6C109.088 27.5254 108.939 27.488 108.757 27.488H107.317C106.624 27.488 105.995 27.3547 105.429 27.088C104.864 26.8214 104.411 26.4374 104.069 25.936C103.739 25.424 103.573 24.8107 103.573 24.096C103.573 23.392 103.733 22.7787 104.053 22.256C104.373 21.7334 104.805 21.328 105.349 21.04C105.893 20.752 106.496 20.608 107.157 20.608H112.261V23.312H107.621C107.472 23.312 107.339 23.344 107.221 23.408C107.115 23.472 107.029 23.5574 106.965 23.664C106.912 23.7707 106.885 23.888 106.885 24.016C106.885 24.144 106.912 24.2614 106.965 24.368C107.029 24.4747 107.115 24.5654 107.221 24.64C107.339 24.704 107.472 24.736 107.621 24.736H109.173C109.931 24.736 110.592 24.88 111.157 25.168C111.723 25.4454 112.16 25.8347 112.469 26.336C112.779 26.8374 112.933 27.4294 112.933 28.112C112.933 28.8907 112.768 29.5574 112.437 30.112C112.117 30.6667 111.685 31.088 111.141 31.376C110.597 31.664 109.995 31.808 109.333 31.808H104.005ZM114.079 31.808V20.608H119.119C119.919 20.608 120.65 20.784 121.311 21.136C121.972 21.4774 122.5 21.9574 122.895 22.576C123.29 23.184 123.487 23.8934 123.487 24.704C123.487 25.5147 123.29 26.2347 122.895 26.864C122.5 27.4827 121.972 27.968 121.311 28.32C120.65 28.672 119.919 28.848 119.119 28.848H117.535V31.808H114.079ZM117.535 26.144H118.751C118.975 26.144 119.178 26.0907 119.359 25.984C119.551 25.8667 119.706 25.7067 119.823 25.504C119.94 25.2907 119.999 25.0347 119.999 24.736C119.999 24.4374 119.94 24.1814 119.823 23.968C119.706 23.7547 119.551 23.5947 119.359 23.488C119.178 23.3707 118.975 23.312 118.751 23.312H117.535V26.144ZM123.094 31.808L126.678 22.016C126.88 21.4827 127.211 21.0827 127.67 20.816C128.139 20.5387 128.667 20.4 129.254 20.4C129.84 20.4 130.363 20.5334 130.822 20.8C131.291 21.0667 131.627 21.4667 131.83 22L135.414 31.808H131.75L131.142 29.856H127.318L126.678 31.808H123.094ZM128.038 27.216H130.422L129.382 23.616C129.371 23.584 129.355 23.5627 129.334 23.552C129.312 23.5307 129.286 23.52 129.254 23.52C129.232 23.52 129.211 23.5307 129.19 23.552C129.168 23.5627 129.152 23.584 129.142 23.616L128.038 27.216ZM141.706 31.808C140.703 31.808 139.807 31.6747 139.018 31.408C138.229 31.1307 137.562 30.7467 137.018 30.256C136.474 29.7547 136.058 29.1627 135.77 28.48C135.482 27.7974 135.338 27.04 135.338 26.208C135.338 25.376 135.482 24.6187 135.77 23.936C136.058 23.2534 136.474 22.6667 137.018 22.176C137.573 21.6747 138.239 21.2907 139.018 21.024C139.807 20.7467 140.703 20.608 141.706 20.608H143.402V23.312H141.818C141.327 23.312 140.895 23.3867 140.522 23.536C140.149 23.6854 139.839 23.8934 139.594 24.16C139.349 24.416 139.162 24.72 139.034 25.072C138.917 25.424 138.858 25.8027 138.858 26.208C138.858 26.6134 138.917 26.992 139.034 27.344C139.162 27.696 139.349 28.0054 139.594 28.272C139.839 28.528 140.149 28.7307 140.522 28.88C140.895 29.0294 141.327 29.104 141.818 29.104H143.402V31.808H141.706ZM147.686 31.808C147.046 31.808 146.459 31.6694 145.926 31.392C145.403 31.1147 144.987 30.736 144.678 30.256C144.369 29.7654 144.214 29.2 144.214 28.56C144.214 28.0587 144.326 27.5894 144.55 27.152C144.785 26.704 145.105 26.3307 145.51 26.032C145.158 25.7547 144.875 25.4187 144.662 25.024C144.449 24.6187 144.342 24.2027 144.342 23.776C144.342 23.1467 144.491 22.5974 144.79 22.128C145.099 21.648 145.51 21.2747 146.022 21.008C146.545 20.7414 147.115 20.608 147.734 20.608H152.71V23.328L148.502 23.312C148.331 23.312 148.177 23.344 148.038 23.408C147.899 23.4614 147.787 23.5467 147.702 23.664C147.627 23.7707 147.59 23.9094 147.59 24.08C147.59 24.24 147.627 24.3787 147.702 24.496C147.787 24.6027 147.899 24.688 148.038 24.752C148.177 24.8054 148.331 24.832 148.502 24.832H152.15V27.52H148.518C148.337 27.52 148.177 27.552 148.038 27.616C147.899 27.68 147.787 27.7707 147.702 27.888C147.627 28.0054 147.59 28.1494 147.59 28.32C147.59 28.48 147.627 28.6187 147.702 28.736C147.787 28.8534 147.899 28.944 148.038 29.008C148.177 29.0614 148.337 29.088 148.518 29.088H152.71V31.808H147.686Z" fill="#33658A"/>
</svg>
