<svg width="1280" height="712" viewBox="0 0 1280 712" fill="none" xmlns="http://www.w3.org/2000/svg">
<rect x="-5" width="135.263" height="48" stroke="#464646" stroke-opacity="0.43"/>
<rect x="130.263" width="135.263" height="48" stroke="#464646" stroke-opacity="0.43"/>
<rect x="265.526" width="135.263" height="48" stroke="#464646" stroke-opacity="0.43"/>
<rect x="400.789" width="135.263" height="48" stroke="#464646" stroke-opacity="0.43"/>
<rect x="536.053" width="135.263" height="48" stroke="#464646" stroke-opacity="0.43"/>
<rect x="671.316" width="135.263" height="48" stroke="#464646" stroke-opacity="0.43"/>
<rect x="806.579" width="135.263" height="48" stroke="#464646" stroke-opacity="0.43"/>
<rect x="941.842" width="135.263" height="48" stroke="#464646" stroke-opacity="0.43"/>
<rect x="1077.11" width="135.263" height="48" stroke="#464646" stroke-opacity="0.43"/>
<rect x="1212.37" width="67.6316" height="48" stroke="#464646" stroke-opacity="0.43"/>
<rect x="-5" y="48" width="67.6316" height="48" stroke="#464646" stroke-opacity="0.43"/>
<rect x="62.6316" y="48" width="135.263" height="48" stroke="#464646" stroke-opacity="0.43"/>
<rect x="197.895" y="48" width="135.263" height="48" stroke="#464646" stroke-opacity="0.43"/>
<rect x="333.158" y="48" width="135.263" height="48" stroke="#464646" stroke-opacity="0.43"/>
<rect x="468.421" y="48" width="135.263" height="48" stroke="#464646" stroke-opacity="0.43"/>
<rect x="603.684" y="48" width="135.263" height="48" stroke="#464646" stroke-opacity="0.43"/>
<rect x="738.947" y="48" width="135.263" height="48" stroke="#464646" stroke-opacity="0.43"/>
<rect x="874.211" y="48" width="135.263" height="48" stroke="#464646" stroke-opacity="0.43"/>
<rect x="1009.47" y="48" width="135.263" height="48" stroke="#464646" stroke-opacity="0.43"/>
<rect x="1144.74" y="48" width="135.263" height="48" stroke="#464646" stroke-opacity="0.43"/>
<rect x="-5" y="96" width="135.263" height="48" stroke="#464646" stroke-opacity="0.43"/>
<rect x="130.263" y="96" width="135.263" height="48" stroke="#464646" stroke-opacity="0.43"/>
<rect x="265.526" y="96" width="135.263" height="48" stroke="#464646" stroke-opacity="0.43"/>
<rect x="400.789" y="96" width="135.263" height="48" stroke="#464646" stroke-opacity="0.43"/>
<rect x="536.053" y="96" width="135.263" height="48" stroke="#464646" stroke-opacity="0.43"/>
<rect x="671.316" y="96" width="135.263" height="48" stroke="#464646" stroke-opacity="0.43"/>
<rect x="806.579" y="96" width="135.263" height="48" stroke="#464646" stroke-opacity="0.43"/>
<rect x="941.842" y="96" width="135.263" height="48" stroke="#464646" stroke-opacity="0.43"/>
<rect x="1077.11" y="96" width="135.263" height="48" stroke="#464646" stroke-opacity="0.43"/>
<rect x="1212.37" y="96" width="67.6316" height="48" stroke="#464646" stroke-opacity="0.43"/>
<rect x="-5" y="144" width="67.6316" height="48" stroke="#464646" stroke-opacity="0.43"/>
<rect x="62.6316" y="144" width="135.263" height="48" stroke="#464646" stroke-opacity="0.43"/>
<rect x="197.895" y="144" width="135.263" height="48" stroke="#464646" stroke-opacity="0.43"/>
<rect x="333.158" y="144" width="135.263" height="48" stroke="#464646" stroke-opacity="0.43"/>
<rect x="468.421" y="144" width="135.263" height="48" stroke="#464646" stroke-opacity="0.43"/>
<rect x="603.684" y="144" width="135.263" height="48" stroke="#464646" stroke-opacity="0.43"/>
<rect x="738.947" y="144" width="135.263" height="48" stroke="#464646" stroke-opacity="0.43"/>
<rect x="874.211" y="144" width="135.263" height="48" stroke="#464646" stroke-opacity="0.43"/>
<rect x="1009.47" y="144" width="135.263" height="48" stroke="#464646" stroke-opacity="0.43"/>
<rect x="1144.74" y="144" width="135.263" height="48" stroke="#464646" stroke-opacity="0.43"/>
<rect x="-5" y="192" width="135.263" height="48" stroke="#464646" stroke-opacity="0.43"/>
<rect x="130.263" y="192" width="135.263" height="48" stroke="#464646" stroke-opacity="0.43"/>
<rect x="265.526" y="192" width="135.263" height="48" stroke="#464646" stroke-opacity="0.43"/>
<rect x="400.789" y="192" width="135.263" height="48" stroke="#464646" stroke-opacity="0.43"/>
<rect x="536.053" y="192" width="135.263" height="48" stroke="#464646" stroke-opacity="0.43"/>
<rect x="671.316" y="192" width="135.263" height="48" stroke="#464646" stroke-opacity="0.43"/>
<rect x="806.579" y="192" width="135.263" height="48" stroke="#464646" stroke-opacity="0.43"/>
<rect x="941.842" y="192" width="135.263" height="48" stroke="#464646" stroke-opacity="0.43"/>
<rect x="1077.11" y="192" width="135.263" height="48" stroke="#464646" stroke-opacity="0.43"/>
<rect x="1212.37" y="192" width="67.6316" height="48" stroke="#464646" stroke-opacity="0.43"/>
<rect x="-5" y="240" width="67.6316" height="48" stroke="#464646" stroke-opacity="0.43"/>
<rect x="62.6316" y="240" width="135.263" height="48" stroke="#464646" stroke-opacity="0.43"/>
<rect x="197.895" y="240" width="135.263" height="48" stroke="#464646" stroke-opacity="0.43"/>
<rect x="333.158" y="240" width="135.263" height="48" stroke="#464646" stroke-opacity="0.43"/>
<rect x="468.421" y="240" width="135.263" height="48" stroke="#464646" stroke-opacity="0.43"/>
<rect x="603.684" y="240" width="135.263" height="48" stroke="#464646" stroke-opacity="0.43"/>
<rect x="738.947" y="240" width="135.263" height="48" stroke="#464646" stroke-opacity="0.43"/>
<rect x="874.211" y="240" width="135.263" height="48" stroke="#464646" stroke-opacity="0.43"/>
<rect x="1009.47" y="240" width="135.263" height="48" stroke="#464646" stroke-opacity="0.43"/>
<rect x="1144.74" y="240" width="135.263" height="48" stroke="#464646" stroke-opacity="0.43"/>
<rect x="-5" y="288" width="135.263" height="48" stroke="#464646" stroke-opacity="0.43"/>
<rect x="130.263" y="288" width="135.263" height="48" stroke="#464646" stroke-opacity="0.43"/>
<rect x="265.526" y="288" width="135.263" height="48" stroke="#464646" stroke-opacity="0.43"/>
<rect x="400.789" y="288" width="135.263" height="48" stroke="#464646" stroke-opacity="0.43"/>
<rect x="536.053" y="288" width="135.263" height="48" stroke="#464646" stroke-opacity="0.43"/>
<rect x="671.316" y="288" width="135.263" height="48" stroke="#464646" stroke-opacity="0.43"/>
<rect x="806.579" y="288" width="135.263" height="48" stroke="#464646" stroke-opacity="0.43"/>
<rect x="941.842" y="288" width="135.263" height="48" stroke="#464646" stroke-opacity="0.43"/>
<rect x="1077.11" y="288" width="135.263" height="48" stroke="#464646" stroke-opacity="0.43"/>
<rect x="1212.37" y="288" width="67.6316" height="48" stroke="#464646" stroke-opacity="0.43"/>
<rect x="-5" y="336" width="67.6316" height="48" stroke="#464646" stroke-opacity="0.43"/>
<rect x="62.6316" y="336" width="135.263" height="48" stroke="#464646" stroke-opacity="0.43"/>
<rect x="197.895" y="336" width="135.263" height="48" stroke="#464646" stroke-opacity="0.43"/>
<rect x="333.158" y="336" width="135.263" height="48" stroke="#464646" stroke-opacity="0.43"/>
<rect x="468.421" y="336" width="135.263" height="48" stroke="#464646" stroke-opacity="0.43"/>
<rect x="603.684" y="336" width="135.263" height="48" stroke="#464646" stroke-opacity="0.43"/>
<rect x="738.947" y="336" width="135.263" height="48" stroke="#464646" stroke-opacity="0.43"/>
<rect x="874.211" y="336" width="135.263" height="48" stroke="#464646" stroke-opacity="0.43"/>
<rect x="1009.47" y="336" width="135.263" height="48" stroke="#464646" stroke-opacity="0.43"/>
<rect x="1144.74" y="336" width="135.263" height="48" stroke="#464646" stroke-opacity="0.43"/>
<rect x="-5" y="384" width="135.263" height="48" stroke="#464646" stroke-opacity="0.43"/>
<rect x="130.263" y="384" width="135.263" height="48" stroke="#464646" stroke-opacity="0.43"/>
<rect x="265.526" y="384" width="135.263" height="48" stroke="#464646" stroke-opacity="0.43"/>
<rect x="400.789" y="384" width="135.263" height="48" stroke="#464646" stroke-opacity="0.43"/>
<rect x="536.053" y="384" width="135.263" height="48" stroke="#464646" stroke-opacity="0.43"/>
<rect x="671.316" y="384" width="135.263" height="48" stroke="#464646" stroke-opacity="0.43"/>
<rect x="806.579" y="384" width="135.263" height="48" stroke="#464646" stroke-opacity="0.43"/>
<rect x="941.842" y="384" width="135.263" height="48" stroke="#464646" stroke-opacity="0.43"/>
<rect x="1077.11" y="384" width="135.263" height="48" stroke="#464646" stroke-opacity="0.43"/>
<rect x="1212.37" y="384" width="67.6316" height="48" stroke="#464646" stroke-opacity="0.43"/>
<rect x="-5" y="432" width="67.6316" height="48" stroke="#464646" stroke-opacity="0.43"/>
<rect x="62.6316" y="432" width="135.263" height="48" stroke="#464646" stroke-opacity="0.43"/>
<rect x="197.895" y="432" width="135.263" height="48" stroke="#464646" stroke-opacity="0.43"/>
<rect x="333.158" y="432" width="135.263" height="48" stroke="#464646" stroke-opacity="0.43"/>
<rect x="468.421" y="432" width="135.263" height="48" stroke="#464646" stroke-opacity="0.43"/>
<rect x="603.684" y="432" width="135.263" height="48" stroke="#464646" stroke-opacity="0.43"/>
<rect x="738.947" y="432" width="135.263" height="48" stroke="#464646" stroke-opacity="0.43"/>
<rect x="874.211" y="432" width="135.263" height="48" stroke="#464646" stroke-opacity="0.43"/>
<rect x="1009.47" y="432" width="135.263" height="48" stroke="#464646" stroke-opacity="0.43"/>
<rect x="1144.74" y="432" width="135.263" height="48" stroke="#464646" stroke-opacity="0.43"/>
<rect x="-5" y="480" width="135.263" height="48" stroke="#464646" stroke-opacity="0.43"/>
<rect x="130.263" y="480" width="135.263" height="48" stroke="#464646" stroke-opacity="0.43"/>
<rect x="265.526" y="480" width="135.263" height="48" stroke="#464646" stroke-opacity="0.43"/>
<rect x="400.789" y="480" width="135.263" height="48" stroke="#464646" stroke-opacity="0.43"/>
<rect x="536.053" y="480" width="135.263" height="48" stroke="#464646" stroke-opacity="0.43"/>
<rect x="671.316" y="480" width="135.263" height="48" stroke="#464646" stroke-opacity="0.43"/>
<rect x="806.579" y="480" width="135.263" height="48" stroke="#464646" stroke-opacity="0.43"/>
<rect x="941.842" y="480" width="135.263" height="48" stroke="#464646" stroke-opacity="0.43"/>
<rect x="1077.11" y="480" width="135.263" height="48" stroke="#464646" stroke-opacity="0.43"/>
<rect x="1212.37" y="480" width="67.6316" height="48" stroke="#464646" stroke-opacity="0.43"/>
<rect x="-5" y="528" width="67.6316" height="48" stroke="#464646" stroke-opacity="0.43"/>
<rect x="62.6316" y="528" width="135.263" height="48" stroke="#464646" stroke-opacity="0.43"/>
<rect x="197.895" y="528" width="135.263" height="48" stroke="#464646" stroke-opacity="0.43"/>
<rect x="333.158" y="528" width="135.263" height="48" stroke="#464646" stroke-opacity="0.43"/>
<rect x="468.421" y="528" width="135.263" height="48" stroke="#464646" stroke-opacity="0.43"/>
<rect x="603.684" y="528" width="135.263" height="48" stroke="#464646" stroke-opacity="0.43"/>
<rect x="738.947" y="528" width="135.263" height="48" stroke="#464646" stroke-opacity="0.43"/>
<rect x="874.211" y="528" width="135.263" height="48" stroke="#464646" stroke-opacity="0.43"/>
<rect x="1009.47" y="528" width="135.263" height="48" stroke="#464646" stroke-opacity="0.43"/>
<rect x="1144.74" y="528" width="135.263" height="48" stroke="#464646" stroke-opacity="0.43"/>
<rect x="-5" y="576" width="135.263" height="48" stroke="#464646" stroke-opacity="0.43"/>
<rect x="130.263" y="576" width="135.263" height="48" stroke="#464646" stroke-opacity="0.43"/>
<rect x="265.526" y="576" width="135.263" height="48" stroke="#464646" stroke-opacity="0.43"/>
<rect x="400.789" y="576" width="135.263" height="48" stroke="#464646" stroke-opacity="0.43"/>
<rect x="536.053" y="576" width="135.263" height="48" stroke="#464646" stroke-opacity="0.43"/>
<rect x="671.316" y="576" width="135.263" height="48" stroke="#464646" stroke-opacity="0.43"/>
<rect x="806.579" y="576" width="135.263" height="48" stroke="#464646" stroke-opacity="0.43"/>
<rect x="941.842" y="576" width="135.263" height="48" stroke="#464646" stroke-opacity="0.43"/>
<rect x="1077.11" y="576" width="135.263" height="48" stroke="#464646" stroke-opacity="0.43"/>
<rect x="1212.37" y="576" width="67.6316" height="48" stroke="#464646" stroke-opacity="0.43"/>
<rect x="-5" y="624" width="67.6316" height="48" stroke="#464646" stroke-opacity="0.43"/>
<rect x="62.6316" y="624" width="135.263" height="48" stroke="#464646" stroke-opacity="0.43"/>
<rect x="197.895" y="624" width="135.263" height="48" stroke="#464646" stroke-opacity="0.43"/>
<rect x="333.158" y="624" width="135.263" height="48" stroke="#464646" stroke-opacity="0.43"/>
<rect x="468.421" y="624" width="135.263" height="48" stroke="#464646" stroke-opacity="0.43"/>
<rect x="603.684" y="624" width="135.263" height="48" stroke="#464646" stroke-opacity="0.43"/>
<rect x="738.947" y="624" width="135.263" height="48" stroke="#464646" stroke-opacity="0.43"/>
<rect x="874.211" y="624" width="135.263" height="48" stroke="#464646" stroke-opacity="0.43"/>
<rect x="1009.47" y="624" width="135.263" height="48" stroke="#464646" stroke-opacity="0.43"/>
<rect x="1144.74" y="624" width="135.263" height="48" stroke="#464646" stroke-opacity="0.43"/>
<rect x="-5" y="672" width="135.263" height="48" stroke="#464646" stroke-opacity="0.43"/>
<rect x="130.263" y="672" width="135.263" height="48" stroke="#464646" stroke-opacity="0.43"/>
<rect x="265.526" y="672" width="135.263" height="48" stroke="#464646" stroke-opacity="0.43"/>
<rect x="400.789" y="672" width="135.263" height="48" stroke="#464646" stroke-opacity="0.43"/>
<rect x="536.053" y="672" width="135.263" height="48" stroke="#464646" stroke-opacity="0.43"/>
<rect x="671.316" y="672" width="135.263" height="48" stroke="#464646" stroke-opacity="0.43"/>
<rect x="806.579" y="672" width="135.263" height="48" stroke="#464646" stroke-opacity="0.43"/>
<rect x="941.842" y="672" width="135.263" height="48" stroke="#464646" stroke-opacity="0.43"/>
<rect x="1077.11" y="672" width="135.263" height="48" stroke="#464646" stroke-opacity="0.43"/>
<rect x="1212.37" y="672" width="67.6316" height="48" stroke="#464646" stroke-opacity="0.43"/>
</svg>
