<svg width="322" height="84" viewBox="0 0 322 84" fill="none" xmlns="http://www.w3.org/2000/svg">
<path d="M54.5001 52.9675C58.0848 52.9675 61.2776 51.2899 63.3364 48.6769C64.2541 51.6232 65.7396 54.3192 67.6649 56.6367C64.1574 59.7355 59.5484 61.6161 54.5001 61.6161C49.4518 61.6161 44.8427 59.7355 41.3352 56.6367C43.2605 54.3192 44.746 51.6232 45.6637 48.6769C47.7225 51.2899 50.9154 52.9675 54.5001 52.9675Z" fill="#F8F8F8"/>
<path d="M51.9054 22C42.1453 23.2714 34.6081 31.6176 34.6081 41.7242C34.6081 42.014 34.6143 42.3023 34.6266 42.5891H43.2895C43.2678 42.3036 43.2568 42.0152 43.2568 41.7242C43.2568 36.4077 46.9468 31.9531 51.9054 30.7818V22Z" fill="#F8F8F8"/>
<path d="M57.0946 30.7818C62.0532 31.9531 65.7432 36.4077 65.7432 41.7242C65.7432 42.0152 65.7322 42.3036 65.7105 42.5891H74.3734C74.3857 42.3023 74.3919 42.014 74.3919 41.7242C74.3919 31.6176 66.8547 23.2714 57.0946 22V30.7818Z" fill="#F8F8F8"/>
<path d="M86.5 52.9347C86.2146 52.9564 85.9261 52.9675 85.6352 52.9675C79.7167 52.9675 74.8663 48.3944 74.4247 42.5891H65.7617C66.2145 53.1738 74.9389 61.6161 85.6352 61.6161C85.9249 61.6161 86.2132 61.6099 86.5 61.5976V52.9347Z" fill="#F8F8F8"/>
<path d="M22.5 61.5976C22.7868 61.6099 23.0751 61.6161 23.3649 61.6161C34.0611 61.6161 42.7855 53.1738 43.2383 42.5891H34.5753C34.1337 48.3944 29.2833 52.9675 23.3649 52.9675C23.0739 52.9675 22.7854 52.9564 22.5 52.9347V61.5976Z" fill="#F8F8F8"/>
<path d="M92.5 61.6161L99.668 42.0321C100.073 40.9654 100.735 40.1654 101.652 39.6321C102.591 39.0774 103.647 38.8001 104.82 38.8001C105.993 38.8001 107.039 39.0668 107.956 39.6001C108.895 40.1334 109.567 40.9334 109.972 42.0001L117.14 61.6161H109.812L108.596 57.7121H100.948L99.668 61.6161H92.5ZM102.388 52.4321H107.156L105.076 45.2321C105.055 45.1681 105.023 45.1254 104.98 45.1041C104.937 45.0614 104.884 45.0401 104.82 45.0401C104.777 45.0401 104.735 45.0614 104.692 45.1041C104.649 45.1254 104.617 45.1681 104.596 45.2321L102.388 52.4321ZM135.12 62.0321C133.755 62.0321 132.464 61.7548 131.248 61.2001C130.054 60.6454 129.083 59.8241 128.336 58.7361C127.59 57.6481 127.216 56.3148 127.216 54.7361V46.0641C127.216 45.7868 127.152 45.5521 127.024 45.3601C126.918 45.1468 126.768 44.9868 126.576 44.8801C126.384 44.7734 126.16 44.7201 125.904 44.7201C125.648 44.7201 125.414 44.7734 125.2 44.8801C125.008 44.9868 124.848 45.1468 124.72 45.3601C124.614 45.5521 124.56 45.7868 124.56 46.0641V61.6161H117.968V46.1281C117.968 44.5708 118.331 43.2481 119.056 42.1601C119.803 41.0721 120.784 40.2401 122 39.6641C123.216 39.0881 124.518 38.8001 125.904 38.8001C127.291 38.8001 128.582 39.0881 129.776 39.6641C130.971 40.2401 131.942 41.0721 132.688 42.1601C133.435 43.2481 133.808 44.5708 133.808 46.1281V54.8001C133.808 55.0774 133.872 55.3228 134 55.5361C134.128 55.7281 134.288 55.8774 134.48 55.9841C134.672 56.0908 134.875 56.1441 135.088 56.1441C135.323 56.1441 135.547 56.0908 135.76 55.9841C135.974 55.8774 136.144 55.7281 136.272 55.5361C136.4 55.3228 136.464 55.0774 136.464 54.8001V46.1281C136.464 44.5708 136.838 43.2481 137.584 42.1601C138.331 41.0721 139.302 40.2401 140.496 39.6641C141.712 39.0881 143.003 38.8001 144.368 38.8001C145.734 38.8001 147.014 39.0881 148.208 39.6641C149.403 40.2401 150.374 41.0721 151.12 42.1601C151.867 43.2481 152.24 44.5708 152.24 46.1281V61.6161H145.68V45.9681C145.68 45.7121 145.616 45.4988 145.488 45.3281C145.36 45.1361 145.2 44.9868 145.008 44.8801C144.816 44.7734 144.603 44.7201 144.368 44.7201C144.134 44.7201 143.91 44.7734 143.696 44.8801C143.483 44.9868 143.312 45.1361 143.184 45.3281C143.078 45.4988 143.024 45.7121 143.024 45.9681V54.7361C143.024 56.3148 142.64 57.6481 141.872 58.7361C141.126 59.8241 140.155 60.6454 138.96 61.2001C137.766 61.7548 136.486 62.0321 135.12 62.0321ZM153.562 61.6161L160.731 42.0321C161.136 40.9654 161.797 40.1654 162.715 39.6321C163.653 39.0774 164.709 38.8001 165.883 38.8001C167.056 38.8001 168.101 39.0668 169.019 39.6001C169.957 40.1334 170.629 40.9334 171.035 42.0001L178.203 61.6161H170.875L169.659 57.7121H162.01L160.731 61.6161H153.562ZM163.451 52.4321H168.219L166.139 45.2321C166.117 45.1681 166.085 45.1254 166.043 45.1041C166 45.0614 165.947 45.0401 165.883 45.0401C165.84 45.0401 165.797 45.0614 165.755 45.1041C165.712 45.1254 165.68 45.1681 165.659 45.2321L163.451 52.4321ZM179.98 61.6161V56.2081H189.484C189.846 56.2081 190.145 56.1334 190.38 55.9841C190.636 55.8348 190.828 55.6428 190.956 55.4081C191.105 55.1521 191.18 54.8854 191.18 54.6081C191.18 54.3094 191.105 54.0428 190.956 53.8081C190.828 53.5521 190.636 53.3494 190.38 53.2001C190.145 53.0508 189.846 52.9761 189.484 52.9761H186.604C185.217 52.9761 183.958 52.7094 182.828 52.1761C181.697 51.6428 180.79 50.8748 180.108 49.8721C179.446 48.8481 179.116 47.6214 179.116 46.1921C179.116 44.7841 179.436 43.5574 180.076 42.5121C180.716 41.4668 181.58 40.6561 182.668 40.0801C183.756 39.5041 184.961 39.2161 186.284 39.2161H196.492V44.6241H187.212C186.913 44.6241 186.646 44.6881 186.411 44.8161C186.198 44.9441 186.028 45.1148 185.9 45.3281C185.793 45.5414 185.74 45.7761 185.74 46.0321C185.74 46.2881 185.793 46.5228 185.9 46.7361C186.028 46.9494 186.198 47.1308 186.411 47.2801C186.646 47.4081 186.913 47.4721 187.212 47.4721H190.316C191.83 47.4721 193.153 47.7601 194.284 48.3361C195.414 48.8908 196.289 49.6694 196.908 50.6721C197.526 51.6748 197.836 52.8588 197.836 54.2241C197.836 55.7814 197.505 57.1148 196.844 58.2241C196.204 59.3334 195.34 60.1761 194.252 60.7521C193.164 61.3281 191.958 61.6161 190.636 61.6161H179.98ZM200.511 61.6161V56.2081H210.015C210.377 56.2081 210.676 56.1334 210.911 55.9841C211.167 55.8348 211.359 55.6428 211.487 55.4081C211.636 55.1521 211.711 54.8854 211.711 54.6081C211.711 54.3094 211.636 54.0428 211.487 53.8081C211.359 53.5521 211.167 53.3494 210.911 53.2001C210.676 53.0508 210.377 52.9761 210.015 52.9761H207.135C205.748 52.9761 204.489 52.7094 203.359 52.1761C202.228 51.6428 201.321 50.8748 200.639 49.8721C199.977 48.8481 199.647 47.6214 199.647 46.1921C199.647 44.7841 199.967 43.5574 200.607 42.5121C201.247 41.4668 202.111 40.6561 203.199 40.0801C204.287 39.5041 205.492 39.2161 206.815 39.2161H217.023V44.6241H207.743C207.444 44.6241 207.177 44.6881 206.943 44.8161C206.729 44.9441 206.559 45.1148 206.431 45.3281C206.324 45.5414 206.271 45.7761 206.271 46.0321C206.271 46.2881 206.324 46.5228 206.431 46.7361C206.559 46.9494 206.729 47.1308 206.943 47.2801C207.177 47.4081 207.444 47.4721 207.743 47.4721H210.847C212.361 47.4721 213.684 47.7601 214.815 48.3361C215.945 48.8908 216.82 49.6694 217.439 50.6721C218.057 51.6748 218.367 52.8588 218.367 54.2241C218.367 55.7814 218.036 57.1148 217.375 58.2241C216.735 59.3334 215.871 60.1761 214.783 60.7521C213.695 61.3281 212.489 61.6161 211.167 61.6161H200.511ZM220.658 61.6161V39.2161H230.738C232.338 39.2161 233.799 39.5681 235.122 40.2721C236.445 40.9548 237.501 41.9148 238.29 43.1521C239.079 44.3681 239.474 45.7868 239.474 47.4081C239.474 49.0294 239.079 50.4694 238.29 51.7281C237.501 52.9654 236.445 53.9361 235.122 54.6401C233.799 55.3441 232.338 55.6961 230.738 55.6961H227.57V61.6161H220.658ZM227.57 50.2881H230.002C230.45 50.2881 230.855 50.1814 231.218 49.9681C231.602 49.7334 231.911 49.4134 232.146 49.0081C232.381 48.5814 232.498 48.0694 232.498 47.4721C232.498 46.8748 232.381 46.3628 232.146 45.9361C231.911 45.5094 231.602 45.1894 231.218 44.9761C230.855 44.7414 230.45 44.6241 230.002 44.6241H227.57V50.2881ZM238.688 61.6161L245.856 42.0321C246.261 40.9654 246.922 40.1654 247.84 39.6321C248.778 39.0774 249.834 38.8001 251.008 38.8001C252.181 38.8001 253.226 39.0668 254.144 39.6001C255.082 40.1334 255.754 40.9334 256.16 42.0001L263.328 61.6161H256L254.784 57.7121H247.135L245.856 61.6161H238.688ZM248.576 52.4321H253.344L251.264 45.2321C251.242 45.1681 251.21 45.1254 251.168 45.1041C251.125 45.0614 251.072 45.0401 251.008 45.0401C250.965 45.0401 250.922 45.0614 250.88 45.1041C250.837 45.1254 250.805 45.1681 250.784 45.2321L248.576 52.4321ZM275.912 61.6161C273.906 61.6161 272.114 61.3494 270.536 60.8161C268.957 60.2828 267.624 59.5148 266.536 58.5121C265.448 57.5094 264.616 56.3254 264.04 54.9601C263.464 53.5948 263.176 52.0801 263.176 50.4161C263.176 48.7521 263.464 47.2374 264.04 45.8721C264.616 44.5068 265.448 43.3228 266.536 42.3201C267.645 41.3174 268.978 40.5494 270.536 40.0161C272.114 39.4828 273.906 39.2161 275.912 39.2161H279.304V44.6241H276.136C275.154 44.6241 274.29 44.7734 273.544 45.0721C272.797 45.3708 272.178 45.7868 271.688 46.3201C271.197 46.8321 270.824 47.4401 270.568 48.1441C270.333 48.8481 270.216 49.6054 270.216 50.4161C270.216 51.2268 270.333 51.9841 270.568 52.6881C270.824 53.3921 271.197 54.0108 271.688 54.5441C272.178 55.0561 272.797 55.4614 273.544 55.7601C274.29 56.0588 275.154 56.2081 276.136 56.2081H279.304V61.6161H275.912ZM287.872 61.6161C286.592 61.6161 285.419 61.3388 284.352 60.7841C283.307 60.2294 282.475 59.4721 281.856 58.5121C281.237 57.5308 280.928 56.4001 280.928 55.1201C280.928 54.1174 281.152 53.1788 281.6 52.3041C282.069 51.4081 282.709 50.6614 283.52 50.0641C282.816 49.5094 282.251 48.8374 281.824 48.0481C281.397 47.2374 281.184 46.4054 281.184 45.5521C281.184 44.2934 281.483 43.1948 282.08 42.2561C282.699 41.2961 283.52 40.5494 284.544 40.0161C285.589 39.4828 286.731 39.2161 287.968 39.2161H297.92V44.6241H289.504C289.163 44.6241 288.853 44.6881 288.576 44.8161C288.299 44.9228 288.075 45.0934 287.904 45.3281C287.755 45.5414 287.68 45.8188 287.68 46.1601C287.68 46.4801 287.755 46.7574 287.904 46.9921C288.075 47.2054 288.299 47.3761 288.576 47.5041C288.853 47.6108 289.163 47.6641 289.504 47.6641H296.8V53.0401H289.536C289.173 53.0401 288.853 53.1041 288.576 53.2321C288.299 53.3601 288.075 53.5414 287.904 53.7761C287.755 54.0108 287.68 54.2988 287.68 54.6401C287.68 54.9601 287.755 55.2374 287.904 55.4721C288.075 55.7068 288.299 55.8881 288.576 56.0161C288.853 56.1228 289.173 56.1761 289.536 56.1761H297.92V61.6161H287.872Z" fill="#F8F8F8"/>
</svg>
