<svg width="632" height="408" viewBox="0 0 632 408" fill="none" xmlns="http://www.w3.org/2000/svg">
<g filter="url(#filter0_d_491_382)">
<rect x="450" width="178" height="346" rx="20" fill="url(#paint0_linear_491_382)"/>
<rect x="466" y="37" width="147" height="34" rx="10" fill="white"/>
<rect x="466" y="77" width="147" height="34" rx="10" fill="white"/>
<rect x="466" y="117" width="147" height="34" rx="10" fill="white"/>
<rect x="466" y="157" width="147" height="34" rx="10" fill="white"/>
<rect x="466" y="297" width="147" height="34" rx="10" fill="white"/>
<rect x="487.428" y="306" width="2.14286" height="15" rx="1.07143" fill="#33658A"/>
<rect x="481" y="314.572" width="2.14286" height="15" rx="1.07143" transform="rotate(-90 481 314.572)" fill="#33658A"/>
<path d="M501.892 318L505.636 309.6H507.556L511.312 318H509.272L506.2 310.584H506.968L503.884 318H501.892ZM503.764 316.2L504.28 314.724H508.6L509.128 316.2H503.764ZM514.765 318.096C514.157 318.096 513.609 317.96 513.121 317.688C512.633 317.408 512.245 317.02 511.957 316.524C511.677 316.028 511.537 315.444 511.537 314.772C511.537 314.092 511.677 313.504 511.957 313.008C512.245 312.512 512.633 312.128 513.121 311.856C513.609 311.584 514.157 311.448 514.765 311.448C515.309 311.448 515.785 311.568 516.193 311.808C516.601 312.048 516.917 312.412 517.141 312.9C517.365 313.388 517.477 314.012 517.477 314.772C517.477 315.524 517.369 316.148 517.153 316.644C516.937 317.132 516.625 317.496 516.217 317.736C515.817 317.976 515.333 318.096 514.765 318.096ZM515.089 316.56C515.393 316.56 515.669 316.488 515.917 316.344C516.165 316.2 516.361 315.996 516.505 315.732C516.657 315.46 516.733 315.14 516.733 314.772C516.733 314.396 516.657 314.076 516.505 313.812C516.361 313.548 516.165 313.344 515.917 313.2C515.669 313.056 515.393 312.984 515.089 312.984C514.777 312.984 514.497 313.056 514.249 313.2C514.001 313.344 513.801 313.548 513.649 313.812C513.505 314.076 513.433 314.396 513.433 314.772C513.433 315.14 513.505 315.46 513.649 315.732C513.801 315.996 514.001 316.2 514.249 316.344C514.497 316.488 514.777 316.56 515.089 316.56ZM516.781 318V316.68L516.817 314.76L516.697 312.852V309.096H518.569V318H516.781ZM523.074 318.096C522.466 318.096 521.918 317.96 521.43 317.688C520.942 317.408 520.554 317.02 520.266 316.524C519.986 316.028 519.846 315.444 519.846 314.772C519.846 314.092 519.986 313.504 520.266 313.008C520.554 312.512 520.942 312.128 521.43 311.856C521.918 311.584 522.466 311.448 523.074 311.448C523.618 311.448 524.094 311.568 524.502 311.808C524.91 312.048 525.226 312.412 525.45 312.9C525.674 313.388 525.786 314.012 525.786 314.772C525.786 315.524 525.678 316.148 525.462 316.644C525.246 317.132 524.934 317.496 524.526 317.736C524.126 317.976 523.642 318.096 523.074 318.096ZM523.398 316.56C523.702 316.56 523.978 316.488 524.226 316.344C524.474 316.2 524.67 315.996 524.814 315.732C524.966 315.46 525.042 315.14 525.042 314.772C525.042 314.396 524.966 314.076 524.814 313.812C524.67 313.548 524.474 313.344 524.226 313.2C523.978 313.056 523.702 312.984 523.398 312.984C523.086 312.984 522.806 313.056 522.558 313.2C522.31 313.344 522.11 313.548 521.958 313.812C521.814 314.076 521.742 314.396 521.742 314.772C521.742 315.14 521.814 315.46 521.958 315.732C522.11 315.996 522.31 316.2 522.558 316.344C522.806 316.488 523.086 316.56 523.398 316.56ZM525.09 318V316.68L525.126 314.76L525.006 312.852V309.096H526.878V318H525.09ZM534.649 318.096C533.889 318.096 533.297 317.904 532.873 317.52C532.449 317.128 532.237 316.548 532.237 315.78V310.116H534.109V315.756C534.109 316.028 534.181 316.24 534.325 316.392C534.469 316.536 534.665 316.608 534.913 316.608C535.209 316.608 535.461 316.528 535.669 316.368L536.173 317.688C535.981 317.824 535.749 317.928 535.477 318C535.213 318.064 534.937 318.096 534.649 318.096ZM531.241 313.128V311.688H535.717V313.128H531.241ZM541.183 318V316.74L541.063 316.464V314.208C541.063 313.808 540.939 313.496 540.691 313.272C540.451 313.048 540.079 312.936 539.575 312.936C539.231 312.936 538.891 312.992 538.555 313.104C538.227 313.208 537.947 313.352 537.715 313.536L537.043 312.228C537.395 311.98 537.819 311.788 538.315 311.652C538.811 311.516 539.315 311.448 539.827 311.448C540.811 311.448 541.575 311.68 542.119 312.144C542.663 312.608 542.935 313.332 542.935 314.316V318H541.183ZM539.215 318.096C538.711 318.096 538.279 318.012 537.919 317.844C537.559 317.668 537.283 317.432 537.091 317.136C536.899 316.84 536.803 316.508 536.803 316.14C536.803 315.756 536.895 315.42 537.079 315.132C537.271 314.844 537.571 314.62 537.979 314.46C538.387 314.292 538.919 314.208 539.575 314.208H541.291V315.3H539.779C539.339 315.3 539.035 315.372 538.867 315.516C538.707 315.66 538.627 315.84 538.627 316.056C538.627 316.296 538.719 316.488 538.903 316.632C539.095 316.768 539.355 316.836 539.683 316.836C539.995 316.836 540.275 316.764 540.523 316.62C540.771 316.468 540.951 316.248 541.063 315.96L541.351 316.824C541.215 317.24 540.967 317.556 540.607 317.772C540.247 317.988 539.783 318.096 539.215 318.096ZM546.802 318.096C546.25 318.096 545.718 318.032 545.206 317.904C544.702 317.768 544.302 317.6 544.006 317.4L544.63 316.056C544.926 316.24 545.274 316.392 545.674 316.512C546.082 316.624 546.482 316.68 546.874 316.68C547.306 316.68 547.61 316.628 547.786 316.524C547.97 316.42 548.062 316.276 548.062 316.092C548.062 315.94 547.99 315.828 547.846 315.756C547.71 315.676 547.526 315.616 547.294 315.576C547.062 315.536 546.806 315.496 546.526 315.456C546.254 315.416 545.978 315.364 545.698 315.3C545.418 315.228 545.162 315.124 544.93 314.988C544.698 314.852 544.51 314.668 544.366 314.436C544.23 314.204 544.162 313.904 544.162 313.536C544.162 313.128 544.278 312.768 544.51 312.456C544.75 312.144 545.094 311.9 545.542 311.724C545.99 311.54 546.526 311.448 547.15 311.448C547.59 311.448 548.038 311.496 548.494 311.592C548.95 311.688 549.33 311.828 549.634 312.012L549.01 313.344C548.698 313.16 548.382 313.036 548.062 312.972C547.75 312.9 547.446 312.864 547.15 312.864C546.734 312.864 546.43 312.92 546.238 313.032C546.046 313.144 545.95 313.288 545.95 313.464C545.95 313.624 546.018 313.744 546.154 313.824C546.298 313.904 546.486 313.968 546.718 314.016C546.95 314.064 547.202 314.108 547.474 314.148C547.754 314.18 548.034 314.232 548.314 314.304C548.594 314.376 548.846 314.48 549.07 314.616C549.302 314.744 549.49 314.924 549.634 315.156C549.778 315.38 549.85 315.676 549.85 316.044C549.85 316.444 549.73 316.8 549.49 317.112C549.25 317.416 548.902 317.656 548.446 317.832C547.998 318.008 547.45 318.096 546.802 318.096ZM552.553 316.68L552.601 314.4L555.613 311.544H557.845L554.953 314.484L553.981 315.276L552.553 316.68ZM551.005 318V309.096H552.877V318H551.005ZM555.817 318L553.633 315.288L554.809 313.836L558.085 318H555.817Z" fill="#33658A"/>
<path d="M521.996 24V15.6H525.812C526.724 15.6 527.528 15.776 528.224 16.128C528.92 16.472 529.464 16.956 529.856 17.58C530.248 18.204 530.444 18.944 530.444 19.8C530.444 20.648 530.248 21.388 529.856 22.02C529.464 22.644 528.92 23.132 528.224 23.484C527.528 23.828 526.724 24 525.812 24H521.996ZM523.94 22.404H525.716C526.276 22.404 526.76 22.3 527.168 22.092C527.584 21.876 527.904 21.572 528.128 21.18C528.36 20.788 528.476 20.328 528.476 19.8C528.476 19.264 528.36 18.804 528.128 18.42C527.904 18.028 527.584 17.728 527.168 17.52C526.76 17.304 526.276 17.196 525.716 17.196H523.94V22.404ZM534.85 24.096C534.162 24.096 533.55 23.952 533.014 23.664C532.486 23.376 532.066 22.984 531.754 22.488C531.45 21.984 531.298 21.412 531.298 20.772C531.298 20.124 531.45 19.552 531.754 19.056C532.066 18.552 532.486 18.16 533.014 17.88C533.55 17.592 534.162 17.448 534.85 17.448C535.53 17.448 536.138 17.592 536.674 17.88C537.21 18.16 537.63 18.548 537.934 19.044C538.238 19.54 538.39 20.116 538.39 20.772C538.39 21.412 538.238 21.984 537.934 22.488C537.63 22.984 537.21 23.376 536.674 23.664C536.138 23.952 535.53 24.096 534.85 24.096ZM534.85 22.56C535.162 22.56 535.442 22.488 535.69 22.344C535.938 22.2 536.134 21.996 536.278 21.732C536.422 21.46 536.494 21.14 536.494 20.772C536.494 20.396 536.422 20.076 536.278 19.812C536.134 19.548 535.938 19.344 535.69 19.2C535.442 19.056 535.162 18.984 534.85 18.984C534.538 18.984 534.258 19.056 534.01 19.2C533.762 19.344 533.562 19.548 533.41 19.812C533.266 20.076 533.194 20.396 533.194 20.772C533.194 21.14 533.266 21.46 533.41 21.732C533.562 21.996 533.762 22.2 534.01 22.344C534.258 22.488 534.538 22.56 534.85 22.56ZM543.565 17.448C544.077 17.448 544.533 17.552 544.933 17.76C545.341 17.96 545.661 18.272 545.893 18.696C546.125 19.112 546.241 19.648 546.241 20.304V24H544.369V20.592C544.369 20.072 544.253 19.688 544.021 19.44C543.797 19.192 543.477 19.068 543.061 19.068C542.765 19.068 542.497 19.132 542.257 19.26C542.025 19.38 541.841 19.568 541.705 19.824C541.577 20.08 541.513 20.408 541.513 20.808V24H539.641V17.544H541.429V19.332L541.093 18.792C541.325 18.36 541.657 18.028 542.089 17.796C542.521 17.564 543.013 17.448 543.565 17.448ZM551.189 24.096C550.453 24.096 549.805 23.952 549.245 23.664C548.693 23.376 548.265 22.984 547.961 22.488C547.657 21.984 547.505 21.412 547.505 20.772C547.505 20.124 547.653 19.552 547.949 19.056C548.253 18.552 548.665 18.16 549.185 17.88C549.705 17.592 550.293 17.448 550.949 17.448C551.581 17.448 552.149 17.584 552.653 17.856C553.165 18.12 553.569 18.504 553.865 19.008C554.161 19.504 554.309 20.1 554.309 20.796C554.309 20.868 554.305 20.952 554.297 21.048C554.289 21.136 554.281 21.22 554.273 21.3H549.029V20.208H553.289L552.569 20.532C552.569 20.196 552.501 19.904 552.365 19.656C552.229 19.408 552.041 19.216 551.801 19.08C551.561 18.936 551.281 18.864 550.961 18.864C550.641 18.864 550.357 18.936 550.109 19.08C549.869 19.216 549.681 19.412 549.545 19.668C549.409 19.916 549.341 20.212 549.341 20.556V20.844C549.341 21.196 549.417 21.508 549.569 21.78C549.729 22.044 549.949 22.248 550.229 22.392C550.517 22.528 550.853 22.596 551.237 22.596C551.581 22.596 551.881 22.544 552.137 22.44C552.401 22.336 552.641 22.18 552.857 21.972L553.853 23.052C553.557 23.388 553.185 23.648 552.737 23.832C552.289 24.008 551.773 24.096 551.189 24.096Z" fill="#33658A"/>
</g>
<g filter="url(#filter1_d_491_382)">
<rect x="4" width="178" height="346" rx="20" fill="url(#paint1_linear_491_382)"/>
<rect x="20" y="37" width="147" height="34" rx="10" fill="white"/>
<rect x="20" y="77" width="147" height="34" rx="10" fill="white"/>
<rect x="20" y="117" width="147" height="34" rx="10" fill="white"/>
<rect x="20" y="157" width="147" height="34" rx="10" fill="white"/>
<rect x="20" y="297" width="147" height="34" rx="10" fill="white"/>
<rect x="41.4282" y="306" width="2.14286" height="15" rx="1.07143" fill="#33658A"/>
<rect x="35" y="314.572" width="2.14286" height="15" rx="1.07143" transform="rotate(-90 35 314.572)" fill="#33658A"/>
<path d="M55.892 318L59.636 309.6H61.556L65.312 318H63.272L60.2 310.584H60.968L57.884 318H55.892ZM57.764 316.2L58.28 314.724H62.6L63.128 316.2H57.764ZM68.7649 318.096C68.1569 318.096 67.6089 317.96 67.1209 317.688C66.6329 317.408 66.2449 317.02 65.9569 316.524C65.6769 316.028 65.5369 315.444 65.5369 314.772C65.5369 314.092 65.6769 313.504 65.9569 313.008C66.2449 312.512 66.6329 312.128 67.1209 311.856C67.6089 311.584 68.1569 311.448 68.7649 311.448C69.3089 311.448 69.7849 311.568 70.1929 311.808C70.6009 312.048 70.9169 312.412 71.1409 312.9C71.3649 313.388 71.4769 314.012 71.4769 314.772C71.4769 315.524 71.3689 316.148 71.1529 316.644C70.9369 317.132 70.6249 317.496 70.2169 317.736C69.8169 317.976 69.3329 318.096 68.7649 318.096ZM69.0889 316.56C69.3929 316.56 69.6689 316.488 69.9169 316.344C70.1649 316.2 70.3609 315.996 70.5049 315.732C70.6569 315.46 70.7329 315.14 70.7329 314.772C70.7329 314.396 70.6569 314.076 70.5049 313.812C70.3609 313.548 70.1649 313.344 69.9169 313.2C69.6689 313.056 69.3929 312.984 69.0889 312.984C68.7769 312.984 68.4969 313.056 68.2489 313.2C68.0009 313.344 67.8009 313.548 67.6489 313.812C67.5049 314.076 67.4329 314.396 67.4329 314.772C67.4329 315.14 67.5049 315.46 67.6489 315.732C67.8009 315.996 68.0009 316.2 68.2489 316.344C68.4969 316.488 68.7769 316.56 69.0889 316.56ZM70.7809 318V316.68L70.8169 314.76L70.6969 312.852V309.096H72.5689V318H70.7809ZM77.0735 318.096C76.4655 318.096 75.9175 317.96 75.4295 317.688C74.9415 317.408 74.5535 317.02 74.2655 316.524C73.9855 316.028 73.8455 315.444 73.8455 314.772C73.8455 314.092 73.9855 313.504 74.2655 313.008C74.5535 312.512 74.9415 312.128 75.4295 311.856C75.9175 311.584 76.4655 311.448 77.0735 311.448C77.6175 311.448 78.0935 311.568 78.5015 311.808C78.9095 312.048 79.2255 312.412 79.4495 312.9C79.6735 313.388 79.7855 314.012 79.7855 314.772C79.7855 315.524 79.6775 316.148 79.4615 316.644C79.2455 317.132 78.9335 317.496 78.5255 317.736C78.1255 317.976 77.6415 318.096 77.0735 318.096ZM77.3975 316.56C77.7015 316.56 77.9775 316.488 78.2255 316.344C78.4735 316.2 78.6695 315.996 78.8135 315.732C78.9655 315.46 79.0415 315.14 79.0415 314.772C79.0415 314.396 78.9655 314.076 78.8135 313.812C78.6695 313.548 78.4735 313.344 78.2255 313.2C77.9775 313.056 77.7015 312.984 77.3975 312.984C77.0855 312.984 76.8055 313.056 76.5575 313.2C76.3095 313.344 76.1095 313.548 75.9575 313.812C75.8135 314.076 75.7415 314.396 75.7415 314.772C75.7415 315.14 75.8135 315.46 75.9575 315.732C76.1095 315.996 76.3095 316.2 76.5575 316.344C76.8055 316.488 77.0855 316.56 77.3975 316.56ZM79.0895 318V316.68L79.1255 314.76L79.0055 312.852V309.096H80.8775V318H79.0895ZM88.6485 318.096C87.8885 318.096 87.2965 317.904 86.8725 317.52C86.4485 317.128 86.2365 316.548 86.2365 315.78V310.116H88.1085V315.756C88.1085 316.028 88.1805 316.24 88.3245 316.392C88.4685 316.536 88.6645 316.608 88.9125 316.608C89.2085 316.608 89.4605 316.528 89.6685 316.368L90.1725 317.688C89.9805 317.824 89.7485 317.928 89.4765 318C89.2125 318.064 88.9365 318.096 88.6485 318.096ZM85.2405 313.128V311.688H89.7165V313.128H85.2405ZM95.1834 318V316.74L95.0634 316.464V314.208C95.0634 313.808 94.9394 313.496 94.6914 313.272C94.4514 313.048 94.0794 312.936 93.5754 312.936C93.2314 312.936 92.8914 312.992 92.5554 313.104C92.2274 313.208 91.9474 313.352 91.7154 313.536L91.0434 312.228C91.3954 311.98 91.8194 311.788 92.3154 311.652C92.8114 311.516 93.3154 311.448 93.8274 311.448C94.8114 311.448 95.5754 311.68 96.1194 312.144C96.6634 312.608 96.9354 313.332 96.9354 314.316V318H95.1834ZM93.2154 318.096C92.7114 318.096 92.2794 318.012 91.9194 317.844C91.5594 317.668 91.2834 317.432 91.0914 317.136C90.8994 316.84 90.8034 316.508 90.8034 316.14C90.8034 315.756 90.8954 315.42 91.0794 315.132C91.2714 314.844 91.5714 314.62 91.9794 314.46C92.3874 314.292 92.9194 314.208 93.5754 314.208H95.2914V315.3H93.7794C93.3394 315.3 93.0354 315.372 92.8674 315.516C92.7074 315.66 92.6274 315.84 92.6274 316.056C92.6274 316.296 92.7194 316.488 92.9034 316.632C93.0954 316.768 93.3554 316.836 93.6834 316.836C93.9954 316.836 94.2754 316.764 94.5234 316.62C94.7714 316.468 94.9514 316.248 95.0634 315.96L95.3514 316.824C95.2154 317.24 94.9674 317.556 94.6074 317.772C94.2474 317.988 93.7834 318.096 93.2154 318.096ZM100.802 318.096C100.25 318.096 99.7176 318.032 99.2056 317.904C98.7016 317.768 98.3016 317.6 98.0056 317.4L98.6296 316.056C98.9256 316.24 99.2736 316.392 99.6736 316.512C100.082 316.624 100.482 316.68 100.874 316.68C101.306 316.68 101.61 316.628 101.786 316.524C101.97 316.42 102.062 316.276 102.062 316.092C102.062 315.94 101.99 315.828 101.846 315.756C101.71 315.676 101.526 315.616 101.294 315.576C101.062 315.536 100.806 315.496 100.526 315.456C100.254 315.416 99.9776 315.364 99.6976 315.3C99.4176 315.228 99.1616 315.124 98.9296 314.988C98.6976 314.852 98.5096 314.668 98.3656 314.436C98.2296 314.204 98.1616 313.904 98.1616 313.536C98.1616 313.128 98.2776 312.768 98.5096 312.456C98.7496 312.144 99.0936 311.9 99.5416 311.724C99.9896 311.54 100.526 311.448 101.15 311.448C101.59 311.448 102.038 311.496 102.494 311.592C102.95 311.688 103.33 311.828 103.634 312.012L103.01 313.344C102.698 313.16 102.382 313.036 102.062 312.972C101.75 312.9 101.446 312.864 101.15 312.864C100.734 312.864 100.43 312.92 100.238 313.032C100.046 313.144 99.9496 313.288 99.9496 313.464C99.9496 313.624 100.018 313.744 100.154 313.824C100.298 313.904 100.486 313.968 100.718 314.016C100.95 314.064 101.202 314.108 101.474 314.148C101.754 314.18 102.034 314.232 102.314 314.304C102.594 314.376 102.846 314.48 103.07 314.616C103.302 314.744 103.49 314.924 103.634 315.156C103.778 315.38 103.85 315.676 103.85 316.044C103.85 316.444 103.73 316.8 103.49 317.112C103.25 317.416 102.902 317.656 102.446 317.832C101.998 318.008 101.45 318.096 100.802 318.096ZM106.553 316.68L106.601 314.4L109.613 311.544H111.845L108.953 314.484L107.981 315.276L106.553 316.68ZM105.005 318V309.096H106.877V318H105.005ZM109.817 318L107.633 315.288L108.809 313.836L112.085 318H109.817Z" fill="#33658A"/>
<path d="M77.736 24V17.184H75.048V15.6H82.368V17.184H79.68V24H77.736ZM85.6977 24.096C85.0097 24.096 84.3977 23.952 83.8617 23.664C83.3337 23.376 82.9137 22.984 82.6017 22.488C82.2977 21.984 82.1457 21.412 82.1457 20.772C82.1457 20.124 82.2977 19.552 82.6017 19.056C82.9137 18.552 83.3337 18.16 83.8617 17.88C84.3977 17.592 85.0097 17.448 85.6977 17.448C86.3777 17.448 86.9857 17.592 87.5217 17.88C88.0577 18.16 88.4777 18.548 88.7817 19.044C89.0857 19.54 89.2377 20.116 89.2377 20.772C89.2377 21.412 89.0857 21.984 88.7817 22.488C88.4777 22.984 88.0577 23.376 87.5217 23.664C86.9857 23.952 86.3777 24.096 85.6977 24.096ZM85.6977 22.56C86.0097 22.56 86.2897 22.488 86.5377 22.344C86.7857 22.2 86.9817 21.996 87.1257 21.732C87.2697 21.46 87.3417 21.14 87.3417 20.772C87.3417 20.396 87.2697 20.076 87.1257 19.812C86.9817 19.548 86.7857 19.344 86.5377 19.2C86.2897 19.056 86.0097 18.984 85.6977 18.984C85.3857 18.984 85.1057 19.056 84.8577 19.2C84.6097 19.344 84.4097 19.548 84.2577 19.812C84.1137 20.076 84.0417 20.396 84.0417 20.772C84.0417 21.14 84.1137 21.46 84.2577 21.732C84.4097 21.996 84.6097 22.2 84.8577 22.344C85.1057 22.488 85.3857 22.56 85.6977 22.56ZM94.0194 24V15.6H97.8354C98.7474 15.6 99.5514 15.776 100.247 16.128C100.943 16.472 101.487 16.956 101.879 17.58C102.271 18.204 102.467 18.944 102.467 19.8C102.467 20.648 102.271 21.388 101.879 22.02C101.487 22.644 100.943 23.132 100.247 23.484C99.5514 23.828 98.7474 24 97.8354 24H94.0194ZM95.9634 22.404H97.7394C98.2994 22.404 98.7834 22.3 99.1914 22.092C99.6074 21.876 99.9274 21.572 100.151 21.18C100.383 20.788 100.499 20.328 100.499 19.8C100.499 19.264 100.383 18.804 100.151 18.42C99.9274 18.028 99.6074 17.728 99.1914 17.52C98.7834 17.304 98.2994 17.196 97.7394 17.196H95.9634V22.404ZM106.874 24.096C106.186 24.096 105.574 23.952 105.038 23.664C104.51 23.376 104.09 22.984 103.778 22.488C103.474 21.984 103.322 21.412 103.322 20.772C103.322 20.124 103.474 19.552 103.778 19.056C104.09 18.552 104.51 18.16 105.038 17.88C105.574 17.592 106.186 17.448 106.874 17.448C107.554 17.448 108.162 17.592 108.698 17.88C109.234 18.16 109.654 18.548 109.958 19.044C110.262 19.54 110.414 20.116 110.414 20.772C110.414 21.412 110.262 21.984 109.958 22.488C109.654 22.984 109.234 23.376 108.698 23.664C108.162 23.952 107.554 24.096 106.874 24.096ZM106.874 22.56C107.186 22.56 107.466 22.488 107.714 22.344C107.962 22.2 108.158 21.996 108.302 21.732C108.446 21.46 108.518 21.14 108.518 20.772C108.518 20.396 108.446 20.076 108.302 19.812C108.158 19.548 107.962 19.344 107.714 19.2C107.466 19.056 107.186 18.984 106.874 18.984C106.562 18.984 106.282 19.056 106.034 19.2C105.786 19.344 105.586 19.548 105.434 19.812C105.29 20.076 105.218 20.396 105.218 20.772C105.218 21.14 105.29 21.46 105.434 21.732C105.586 21.996 105.786 22.2 106.034 22.344C106.282 22.488 106.562 22.56 106.874 22.56Z" fill="#33658A"/>
</g>
<g filter="url(#filter2_d_491_382)">
<rect x="213" width="206" height="400" rx="20" fill="url(#paint2_linear_491_382)"/>
<rect x="231.517" y="42.7747" width="170.124" height="39.3064" rx="10" fill="white"/>
<rect x="231.517" y="89.0173" width="170.124" height="39.3064" rx="10" fill="white"/>
<rect x="231.517" y="135.26" width="170.124" height="39.3064" rx="10" fill="white"/>
<rect x="231.517" y="181.503" width="170.124" height="39.3064" rx="10" fill="white"/>
<rect x="231.517" y="343.353" width="170.124" height="39.3064" rx="10" fill="white"/>
<rect x="257.392" y="353.757" width="2.83857" height="19.87" rx="1.41929" fill="#33658A"/>
<rect x="248.876" y="365.112" width="2.83857" height="19.87" rx="1.41929" transform="rotate(-90 248.876 365.112)" fill="#33658A"/>
<path d="M277.874 368L282.242 358.2H284.482L288.864 368H286.484L282.9 359.348H283.796L280.198 368H277.874ZM280.058 365.9L280.66 364.178H285.7L286.316 365.9H280.058ZM292.892 368.112C292.183 368.112 291.544 367.953 290.974 367.636C290.405 367.309 289.952 366.857 289.616 366.278C289.29 365.699 289.126 365.018 289.126 364.234C289.126 363.441 289.29 362.755 289.616 362.176C289.952 361.597 290.405 361.149 290.974 360.832C291.544 360.515 292.183 360.356 292.892 360.356C293.527 360.356 294.082 360.496 294.558 360.776C295.034 361.056 295.403 361.481 295.664 362.05C295.926 362.619 296.056 363.347 296.056 364.234C296.056 365.111 295.93 365.839 295.678 366.418C295.426 366.987 295.062 367.412 294.586 367.692C294.12 367.972 293.555 368.112 292.892 368.112ZM293.27 366.32C293.625 366.32 293.947 366.236 294.236 366.068C294.526 365.9 294.754 365.662 294.922 365.354C295.1 365.037 295.188 364.663 295.188 364.234C295.188 363.795 295.1 363.422 294.922 363.114C294.754 362.806 294.526 362.568 294.236 362.4C293.947 362.232 293.625 362.148 293.27 362.148C292.906 362.148 292.58 362.232 292.29 362.4C292.001 362.568 291.768 362.806 291.59 363.114C291.422 363.422 291.338 363.795 291.338 364.234C291.338 364.663 291.422 365.037 291.59 365.354C291.768 365.662 292.001 365.9 292.29 366.068C292.58 366.236 292.906 366.32 293.27 366.32ZM295.244 368V366.46L295.286 364.22L295.146 361.994V357.612H297.33V368H295.244ZM302.586 368.112C301.876 368.112 301.237 367.953 300.668 367.636C300.098 367.309 299.646 366.857 299.31 366.278C298.983 365.699 298.82 365.018 298.82 364.234C298.82 363.441 298.983 362.755 299.31 362.176C299.646 361.597 300.098 361.149 300.668 360.832C301.237 360.515 301.876 360.356 302.586 360.356C303.22 360.356 303.776 360.496 304.252 360.776C304.728 361.056 305.096 361.481 305.358 362.05C305.619 362.619 305.75 363.347 305.75 364.234C305.75 365.111 305.624 365.839 305.372 366.418C305.12 366.987 304.756 367.412 304.28 367.692C303.813 367.972 303.248 368.112 302.586 368.112ZM302.964 366.32C303.318 366.32 303.64 366.236 303.93 366.068C304.219 365.9 304.448 365.662 304.616 365.354C304.793 365.037 304.882 364.663 304.882 364.234C304.882 363.795 304.793 363.422 304.616 363.114C304.448 362.806 304.219 362.568 303.93 362.4C303.64 362.232 303.318 362.148 302.964 362.148C302.6 362.148 302.273 362.232 301.984 362.4C301.694 362.568 301.461 362.806 301.284 363.114C301.116 363.422 301.032 363.795 301.032 364.234C301.032 364.663 301.116 365.037 301.284 365.354C301.461 365.662 301.694 365.9 301.984 366.068C302.273 366.236 302.6 366.32 302.964 366.32ZM304.938 368V366.46L304.98 364.22L304.84 361.994V357.612H307.024V368H304.938ZM316.09 368.112C315.203 368.112 314.513 367.888 314.018 367.44C313.523 366.983 313.276 366.306 313.276 365.41V358.802H315.46V365.382C315.46 365.699 315.544 365.947 315.712 366.124C315.88 366.292 316.109 366.376 316.398 366.376C316.743 366.376 317.037 366.283 317.28 366.096L317.868 367.636C317.644 367.795 317.373 367.916 317.056 368C316.748 368.075 316.426 368.112 316.09 368.112ZM312.114 362.316V360.636H317.336V362.316H312.114ZM323.714 368V366.53L323.574 366.208V363.576C323.574 363.109 323.429 362.745 323.14 362.484C322.86 362.223 322.426 362.092 321.838 362.092C321.437 362.092 321.04 362.157 320.648 362.288C320.265 362.409 319.939 362.577 319.668 362.792L318.884 361.266C319.295 360.977 319.789 360.753 320.368 360.594C320.947 360.435 321.535 360.356 322.132 360.356C323.28 360.356 324.171 360.627 324.806 361.168C325.441 361.709 325.758 362.554 325.758 363.702V368H323.714ZM321.418 368.112C320.83 368.112 320.326 368.014 319.906 367.818C319.486 367.613 319.164 367.337 318.94 366.992C318.716 366.647 318.604 366.259 318.604 365.83C318.604 365.382 318.711 364.99 318.926 364.654C319.15 364.318 319.5 364.057 319.976 363.87C320.452 363.674 321.073 363.576 321.838 363.576H323.84V364.85H322.076C321.563 364.85 321.208 364.934 321.012 365.102C320.825 365.27 320.732 365.48 320.732 365.732C320.732 366.012 320.839 366.236 321.054 366.404C321.278 366.563 321.581 366.642 321.964 366.642C322.328 366.642 322.655 366.558 322.944 366.39C323.233 366.213 323.443 365.956 323.574 365.62L323.91 366.628C323.751 367.113 323.462 367.482 323.042 367.734C322.622 367.986 322.081 368.112 321.418 368.112ZM330.269 368.112C329.625 368.112 329.004 368.037 328.407 367.888C327.819 367.729 327.352 367.533 327.007 367.3L327.735 365.732C328.08 365.947 328.486 366.124 328.953 366.264C329.429 366.395 329.895 366.46 330.353 366.46C330.857 366.46 331.211 366.399 331.417 366.278C331.631 366.157 331.739 365.989 331.739 365.774C331.739 365.597 331.655 365.466 331.487 365.382C331.328 365.289 331.113 365.219 330.843 365.172C330.572 365.125 330.273 365.079 329.947 365.032C329.629 364.985 329.307 364.925 328.981 364.85C328.654 364.766 328.355 364.645 328.085 364.486C327.814 364.327 327.595 364.113 327.427 363.842C327.268 363.571 327.189 363.221 327.189 362.792C327.189 362.316 327.324 361.896 327.595 361.532C327.875 361.168 328.276 360.883 328.799 360.678C329.321 360.463 329.947 360.356 330.675 360.356C331.188 360.356 331.711 360.412 332.243 360.524C332.775 360.636 333.218 360.799 333.573 361.014L332.845 362.568C332.481 362.353 332.112 362.209 331.739 362.134C331.375 362.05 331.02 362.008 330.675 362.008C330.189 362.008 329.835 362.073 329.611 362.204C329.387 362.335 329.275 362.503 329.275 362.708C329.275 362.895 329.354 363.035 329.513 363.128C329.681 363.221 329.9 363.296 330.171 363.352C330.441 363.408 330.735 363.459 331.053 363.506C331.379 363.543 331.706 363.604 332.033 363.688C332.359 363.772 332.653 363.893 332.915 364.052C333.185 364.201 333.405 364.411 333.573 364.682C333.741 364.943 333.825 365.289 333.825 365.718C333.825 366.185 333.685 366.6 333.405 366.964C333.125 367.319 332.719 367.599 332.187 367.804C331.664 368.009 331.025 368.112 330.269 368.112ZM336.978 366.46L337.034 363.8L340.548 360.468H343.152L339.778 363.898L338.644 364.822L336.978 366.46ZM335.172 368V357.612H337.356V368H335.172ZM340.786 368L338.238 364.836L339.61 363.142L343.432 368H340.786Z" fill="#33658A"/>
<path d="M293.162 25V15.2H297.614C298.678 15.2 299.616 15.4053 300.428 15.816C301.24 16.2173 301.875 16.782 302.332 17.51C302.789 18.238 303.018 19.1013 303.018 20.1C303.018 21.0893 302.789 21.9527 302.332 22.69C301.875 23.418 301.24 23.9873 300.428 24.398C299.616 24.7993 298.678 25 297.614 25H293.162ZM295.43 23.138H297.502C298.155 23.138 298.72 23.0167 299.196 22.774C299.681 22.522 300.055 22.1673 300.316 21.71C300.587 21.2527 300.722 20.716 300.722 20.1C300.722 19.4747 300.587 18.938 300.316 18.49C300.055 18.0327 299.681 17.6827 299.196 17.44C298.72 17.188 298.155 17.062 297.502 17.062H295.43V23.138ZM308.158 25.112C307.356 25.112 306.642 24.944 306.016 24.608C305.4 24.272 304.91 23.8147 304.546 23.236C304.192 22.648 304.014 21.9807 304.014 21.234C304.014 20.478 304.192 19.8107 304.546 19.232C304.91 18.644 305.4 18.1867 306.016 17.86C306.642 17.524 307.356 17.356 308.158 17.356C308.952 17.356 309.661 17.524 310.286 17.86C310.912 18.1867 311.402 18.6393 311.756 19.218C312.111 19.7967 312.288 20.4687 312.288 21.234C312.288 21.9807 312.111 22.648 311.756 23.236C311.402 23.8147 310.912 24.272 310.286 24.608C309.661 24.944 308.952 25.112 308.158 25.112ZM308.158 23.32C308.522 23.32 308.849 23.236 309.138 23.068C309.428 22.9 309.656 22.662 309.824 22.354C309.992 22.0367 310.076 21.6633 310.076 21.234C310.076 20.7953 309.992 20.422 309.824 20.114C309.656 19.806 309.428 19.568 309.138 19.4C308.849 19.232 308.522 19.148 308.158 19.148C307.794 19.148 307.468 19.232 307.178 19.4C306.889 19.568 306.656 19.806 306.478 20.114C306.31 20.422 306.226 20.7953 306.226 21.234C306.226 21.6633 306.31 22.0367 306.478 22.354C306.656 22.662 306.889 22.9 307.178 23.068C307.468 23.236 307.794 23.32 308.158 23.32ZM313.748 25V17.468H315.932V25H313.748ZM314.84 16.418C314.439 16.418 314.112 16.3013 313.86 16.068C313.608 15.8347 313.482 15.5453 313.482 15.2C313.482 14.8547 313.608 14.5653 313.86 14.332C314.112 14.0987 314.439 13.982 314.84 13.982C315.242 13.982 315.568 14.094 315.82 14.318C316.072 14.5327 316.198 14.8127 316.198 15.158C316.198 15.522 316.072 15.8253 315.82 16.068C315.578 16.3013 315.251 16.418 314.84 16.418ZM322.537 17.356C323.135 17.356 323.667 17.4773 324.133 17.72C324.609 17.9533 324.983 18.3173 325.253 18.812C325.524 19.2973 325.659 19.9227 325.659 20.688V25H323.475V21.024C323.475 20.4173 323.34 19.9693 323.069 19.68C322.808 19.3907 322.435 19.246 321.949 19.246C321.604 19.246 321.291 19.3207 321.011 19.47C320.741 19.61 320.526 19.8293 320.367 20.128C320.218 20.4267 320.143 20.8093 320.143 21.276V25H317.959V17.468H320.045V19.554L319.653 18.924C319.924 18.42 320.311 18.0327 320.815 17.762C321.319 17.4913 321.893 17.356 322.537 17.356ZM331.236 27.828C330.526 27.828 329.84 27.7393 329.178 27.562C328.524 27.394 327.978 27.1373 327.54 26.792L328.408 25.224C328.725 25.4853 329.126 25.6907 329.612 25.84C330.106 25.9987 330.592 26.078 331.068 26.078C331.842 26.078 332.402 25.9053 332.748 25.56C333.102 25.2147 333.28 24.7013 333.28 24.02V22.886L333.42 20.996L333.392 19.092V17.468H335.464V23.74C335.464 25.14 335.1 26.1713 334.372 26.834C333.644 27.4967 332.598 27.828 331.236 27.828ZM330.9 24.636C330.2 24.636 329.565 24.4867 328.996 24.188C328.436 23.88 327.983 23.4553 327.638 22.914C327.302 22.3633 327.134 21.724 327.134 20.996C327.134 20.2587 327.302 19.6193 327.638 19.078C327.983 18.5273 328.436 18.1027 328.996 17.804C329.565 17.5053 330.2 17.356 330.9 17.356C331.534 17.356 332.094 17.4867 332.58 17.748C333.065 18 333.443 18.3967 333.714 18.938C333.984 19.47 334.12 20.156 334.12 20.996C334.12 21.8267 333.984 22.5127 333.714 23.054C333.443 23.586 333.065 23.9827 332.58 24.244C332.094 24.5053 331.534 24.636 330.9 24.636ZM331.334 22.844C331.716 22.844 332.057 22.7693 332.356 22.62C332.654 22.4613 332.888 22.242 333.056 21.962C333.224 21.682 333.308 21.36 333.308 20.996C333.308 20.6227 333.224 20.3007 333.056 20.03C332.888 19.75 332.654 19.5353 332.356 19.386C332.057 19.2273 331.716 19.148 331.334 19.148C330.951 19.148 330.61 19.2273 330.312 19.386C330.013 19.5353 329.775 19.75 329.598 20.03C329.43 20.3007 329.346 20.6227 329.346 20.996C329.346 21.36 329.43 21.682 329.598 21.962C329.775 22.242 330.013 22.4613 330.312 22.62C330.61 22.7693 330.951 22.844 331.334 22.844Z" fill="#33658A"/>
</g>
<defs>
<filter id="filter0_d_491_382" x="446" y="0" width="186" height="354" filterUnits="userSpaceOnUse" color-interpolation-filters="sRGB">
<feFlood flood-opacity="0" result="BackgroundImageFix"/>
<feColorMatrix in="SourceAlpha" type="matrix" values="0 0 0 0 0 0 0 0 0 0 0 0 0 0 0 0 0 0 127 0" result="hardAlpha"/>
<feOffset dy="4"/>
<feGaussianBlur stdDeviation="2"/>
<feComposite in2="hardAlpha" operator="out"/>
<feColorMatrix type="matrix" values="0 0 0 0 0 0 0 0 0 0 0 0 0 0 0 0 0 0 0.25 0"/>
<feBlend mode="normal" in2="BackgroundImageFix" result="effect1_dropShadow_491_382"/>
<feBlend mode="normal" in="SourceGraphic" in2="effect1_dropShadow_491_382" result="shape"/>
</filter>
<filter id="filter1_d_491_382" x="0" y="0" width="186" height="354" filterUnits="userSpaceOnUse" color-interpolation-filters="sRGB">
<feFlood flood-opacity="0" result="BackgroundImageFix"/>
<feColorMatrix in="SourceAlpha" type="matrix" values="0 0 0 0 0 0 0 0 0 0 0 0 0 0 0 0 0 0 127 0" result="hardAlpha"/>
<feOffset dy="4"/>
<feGaussianBlur stdDeviation="2"/>
<feComposite in2="hardAlpha" operator="out"/>
<feColorMatrix type="matrix" values="0 0 0 0 0 0 0 0 0 0 0 0 0 0 0 0 0 0 0.25 0"/>
<feBlend mode="normal" in2="BackgroundImageFix" result="effect1_dropShadow_491_382"/>
<feBlend mode="normal" in="SourceGraphic" in2="effect1_dropShadow_491_382" result="shape"/>
</filter>
<filter id="filter2_d_491_382" x="209" y="0" width="214" height="408" filterUnits="userSpaceOnUse" color-interpolation-filters="sRGB">
<feFlood flood-opacity="0" result="BackgroundImageFix"/>
<feColorMatrix in="SourceAlpha" type="matrix" values="0 0 0 0 0 0 0 0 0 0 0 0 0 0 0 0 0 0 127 0" result="hardAlpha"/>
<feOffset dy="4"/>
<feGaussianBlur stdDeviation="2"/>
<feComposite in2="hardAlpha" operator="out"/>
<feColorMatrix type="matrix" values="0 0 0 0 0 0 0 0 0 0 0 0 0 0 0 0 0 0 0.25 0"/>
<feBlend mode="normal" in2="BackgroundImageFix" result="effect1_dropShadow_491_382"/>
<feBlend mode="normal" in="SourceGraphic" in2="effect1_dropShadow_491_382" result="shape"/>
</filter>
<linearGradient id="paint0_linear_491_382" x1="475.5" y1="-89" x2="610" y2="394" gradientUnits="userSpaceOnUse">
<stop stop-color="#F8F8F8"/>
<stop offset="1" stop-color="#85BBD7"/>
</linearGradient>
<linearGradient id="paint1_linear_491_382" x1="29.5" y1="-89" x2="164" y2="394" gradientUnits="userSpaceOnUse">
<stop stop-color="#F8F8F8"/>
<stop offset="1" stop-color="#85BBD7"/>
</linearGradient>
<linearGradient id="paint2_linear_491_382" x1="242.511" y1="-102.89" x2="397.861" y2="455.577" gradientUnits="userSpaceOnUse">
<stop stop-color="#F8F8F8"/>
<stop offset="1" stop-color="#85BBD7"/>
</linearGradient>
</defs>
</svg>
