<svg width="32" height="21" viewBox="0 0 32 21" fill="none" xmlns="http://www.w3.org/2000/svg">
<g clip-path="url(#clip0_27_68)">
<path d="M16 16.2918C17.7924 16.2918 19.3888 15.453 20.4182 14.1465C20.877 15.6197 21.6198 16.9676 22.5825 18.1264C20.8287 19.6758 18.5242 20.6161 16 20.6161C13.4759 20.6161 11.1714 19.6758 9.4176 18.1264C10.3803 16.9676 11.123 15.6197 11.5819 14.1465C12.6112 15.453 14.2077 16.2918 16 16.2918Z" fill="#33658A"/>
<path d="M14.7027 0.808044C9.82267 1.44373 6.05405 5.61684 6.05405 10.6702C6.05405 10.815 6.05715 10.9592 6.06329 11.1026H10.3948C10.3839 10.9599 10.3784 10.8157 10.3784 10.6702C10.3784 8.01192 12.2234 5.78461 14.7027 5.19896V0.808044Z" fill="#33658A"/>
<path d="M17.2973 5.19896C19.7766 5.78461 21.6216 8.01192 21.6216 10.6702C21.6216 10.8157 21.6161 10.9599 21.6052 11.1026H25.9367C25.9428 10.9592 25.9459 10.815 25.9459 10.6702C25.9459 5.61684 22.1773 1.44373 17.2973 0.808044V5.19896Z" fill="#33658A"/>
<path d="M32 16.2754C31.8573 16.2862 31.7131 16.2918 31.5676 16.2918C28.6083 16.2918 26.1831 14.0053 25.9623 11.1026H21.6309C21.8573 16.395 26.2195 20.6161 31.5676 20.6161C31.7125 20.6161 31.8566 20.613 32 20.6069V16.2754Z" fill="#33658A"/>
<path d="M0 20.6069C0.143381 20.613 0.287548 20.6161 0.432438 20.6161C5.78054 20.6161 10.1428 16.395 10.3692 11.1026H6.03767C5.81686 14.0053 3.39167 16.2918 0.432438 16.2918C0.286935 16.2918 0.142723 16.2862 0 16.2754V20.6069Z" fill="#33658A"/>
</g>
<defs>
<clipPath id="clip0_27_68">
<rect width="32" height="19.8081" fill="white" transform="translate(0 0.808044)"/>
</clipPath>
</defs>
</svg>
