<svg width="173" height="128" viewBox="0 0 173 128" fill="none" xmlns="http://www.w3.org/2000/svg">
<path d="M70.633 3.49981L87.1391 103.837C87.5136 106.113 85.9712 108.262 83.6953 108.637L21.3621 118.891C19.0852 119.266 16.9366 117.724 16.5621 115.447L0.056053 15.1108C-0.318427 12.8339 1.22293 10.6853 3.49981 10.3108L65.8331 0.056053C68.1089 -0.318427 70.2586 1.22293 70.633 3.49981Z" fill="#F9C302"/>
<path d="M45.6024 97.8656L45.4741 97.0866C45.3107 96.0914 45.9903 95.1428 46.9855 94.9794L45.8403 88.0174L41.1655 88.786L42.7369 98.3373L45.6024 97.8656Z" fill="#FFAA24"/>
<path d="M45.5854 97.8633L42.7202 98.3345L44.2912 107.885L47.1564 107.414L45.5854 97.8633Z" fill="#FFAA24"/>
<path d="M41.1664 88.786L41.1157 88.7943C39.7274 89.0229 38.7871 90.3336 39.0157 91.7208L40.1733 98.7583L42.7367 98.3363L41.1664 88.786Z" fill="#FFAA24"/>
<path d="M52.0692 96.7965L49.2041 97.2677L50.7751 106.819L53.6402 106.347L52.0692 96.7965Z" fill="#FFAA24"/>
<path d="M46.986 94.9794C47.9811 94.8159 48.9298 95.4956 49.0932 96.4918L49.2215 97.2707L52.087 96.799L50.5156 87.2477L45.8408 88.0163L46.986 94.9794Z" fill="#FFAA24"/>
<path d="M54.6499 96.377L53.4924 89.3395C53.2637 87.9512 51.9531 87.0109 50.5658 87.2395L50.5151 87.2477L52.0865 96.799L54.6499 96.377Z" fill="#FFAA24"/>
<path d="M40.1733 98.7583L41.3309 105.796C41.5595 107.184 42.8702 108.124 44.2574 107.896L44.3081 107.888L42.7368 98.3362L40.1733 98.7583Z" fill="#FFAA24"/>
<path d="M53.6587 106.349L53.7094 106.341C55.0977 106.112 56.038 104.803 55.8094 103.415L54.6518 96.377L52.0884 96.799L53.6587 106.349Z" fill="#FFAA24"/>
<path d="M45.4752 97.0866L47.1748 107.417L50.7945 106.821L49.0948 96.4907C48.9314 95.4956 47.9828 94.8149 46.9876 94.9783C45.9914 95.1428 45.3107 96.0904 45.4752 97.0866Z" fill="#FFAA24"/>
<path d="M41.1655 88.786C41.7779 91.9546 42.3417 95.1325 42.8724 98.3145L42.7152 98.2018L45.5796 97.7249L45.4627 97.8883C45.4172 97.5821 45.3614 97.2956 45.3231 96.9728C45.2889 96.6449 45.351 96.3118 45.4803 96.0108C45.7389 95.4056 46.3182 94.9556 46.9668 94.8553L46.8634 94.9991C46.5024 92.6746 46.1589 90.3481 45.8424 88.0164C46.2893 90.3263 46.7093 92.6404 47.1117 94.9577C47.1231 95.0259 47.0775 95.0901 47.0103 95.1015H47.0082C46.4444 95.1956 45.9469 95.5908 45.7275 96.1163C45.6179 96.377 45.5672 96.6645 45.5993 96.9449C45.6355 97.2294 45.6965 97.5428 45.7451 97.8408C45.7575 97.9184 45.7048 97.9918 45.6272 98.0042L42.7617 98.4707C42.6872 98.4832 42.6159 98.4325 42.6034 98.358V98.357C42.0841 95.1739 41.6 91.9836 41.1655 88.786Z" fill="#002E5C"/>
<path d="M47.174 107.417C46.5544 104.249 45.9978 101.07 45.4651 97.8883L45.6254 98.0032L42.7599 98.4749L42.8748 98.3145C43.3889 101.5 43.8813 104.689 44.3075 107.889C43.6868 104.721 43.1313 101.542 42.5985 98.3601C42.5861 98.2845 42.6368 98.2121 42.7134 98.1997H42.7144L45.5799 97.729C45.6554 97.7166 45.7278 97.7673 45.7402 97.8439V97.8449C46.2544 101.028 46.7458 104.217 47.174 107.417Z" fill="#002E5C"/>
<path d="M40.1733 98.7583C41.0216 98.5773 41.8688 98.3942 42.7202 98.238L42.6385 98.3528C42.0488 95.1801 41.5264 91.996 41.1633 88.786L41.1664 88.7881L41.1157 88.7943L41.1654 88.7839L41.1685 88.786C41.8533 91.9432 42.3778 95.1263 42.8361 98.3207C42.8454 98.3735 42.8071 98.4252 42.7543 98.4356C41.8957 98.5607 41.034 98.658 40.1733 98.7583Z" fill="#002E5C"/>
<path d="M53.6584 106.349C53.0387 103.182 52.4822 100.003 51.9494 96.8207L52.1098 96.9356L49.2443 97.4073L49.3591 97.247C49.8733 100.432 50.3657 103.621 50.7919 106.821C50.1712 103.653 49.6157 100.474 49.0829 97.2924C49.0705 97.2169 49.1212 97.1445 49.1977 97.1321H49.1988L52.0643 96.6614C52.1398 96.649 52.2122 96.6997 52.2246 96.7752V96.7763C52.7398 99.9614 53.2301 103.151 53.6584 106.349Z" fill="#002E5C"/>
<path d="M45.8408 88.0163C46.2877 90.3263 46.7067 92.6404 47.1101 94.9576L46.9663 94.8542C47.6139 94.7425 48.3049 94.9825 48.7446 95.4728C48.9639 95.7159 49.1284 96.0128 49.2018 96.3335C49.2691 96.6511 49.3084 96.9407 49.3632 97.2459L49.1998 97.129L52.0652 96.6625L51.9515 96.8207C51.4353 93.6356 50.9501 90.4453 50.5166 87.2477C51.1301 90.4163 51.6928 93.5942 52.2235 96.7762C52.2359 96.8507 52.1852 96.9221 52.1108 96.9345L49.2453 97.4104C49.1677 97.4228 49.0942 97.37 49.0818 97.2935C49.0311 96.9966 48.9898 96.679 48.9329 96.3987C48.8729 96.1214 48.7332 95.8659 48.546 95.6539C48.1694 95.2256 47.5715 95.0114 47.0067 95.1025C46.9384 95.1139 46.8743 95.0694 46.8629 95.0011V94.999C46.5018 92.6746 46.1584 90.348 45.8408 88.0163Z" fill="#002E5C"/>
<path d="M50.5664 87.2394L50.5167 87.2498L50.5188 87.2467C51.2016 90.4039 51.7281 93.587 52.1864 96.7814L52.0715 96.6987C52.9291 96.5735 53.7898 96.4752 54.6515 96.3759C53.8032 96.5569 52.956 96.74 52.1046 96.8962C52.0508 96.9056 51.9991 96.8673 51.9898 96.8135C51.4002 93.6408 50.8788 90.4567 50.5146 87.2467L50.5167 87.2436L50.5664 87.2394Z" fill="#002E5C"/>
<path d="M44.258 107.896L44.3076 107.886L44.3056 107.889C43.6218 104.731 43.0952 101.548 42.638 98.3538L42.7528 98.4366C41.8953 98.5618 41.0346 98.6601 40.1729 98.7594C41.0211 98.5784 41.8684 98.3952 42.7197 98.239C42.7735 98.2297 42.8252 98.268 42.8346 98.3218C43.4242 101.495 43.9456 104.679 44.3097 107.889L44.3076 107.892L44.258 107.896Z" fill="#002E5C"/>
<path d="M54.6503 96.377C53.802 96.558 52.9548 96.7411 52.1024 96.8973L52.1841 96.7825C52.7738 99.9552 53.2962 103.139 53.6593 106.349L53.6562 106.347L53.7069 106.341L53.6572 106.351L53.6541 106.349C52.9693 103.192 52.4448 100.009 51.9865 96.8145C51.9762 96.7618 52.0155 96.71 52.0683 96.6997C52.9279 96.5745 53.7896 96.4773 54.6503 96.377Z" fill="#002E5C"/>
<path d="M50.7928 106.821C50.3759 104.635 49.9797 102.446 49.6135 100.252L49.0476 96.9635C48.9948 96.6873 48.971 96.41 48.8748 96.1752C48.7786 95.9352 48.6266 95.719 48.4362 95.5452C48.0566 95.1925 47.5135 95.0373 47.0086 95.1242C46.5038 95.2049 46.0383 95.5245 45.7921 95.9807C45.668 96.2063 45.5935 96.4597 45.579 96.7183C45.5635 96.9707 45.6297 97.2417 45.668 97.52L46.1852 100.817C46.5411 103.013 46.868 105.213 47.1721 107.418C46.7542 105.232 46.359 103.043 45.9928 100.849L45.4269 97.5604C45.3866 97.2904 45.3111 97.0142 45.3224 96.708C45.3349 96.4101 45.4155 96.1162 45.5562 95.8525C45.8324 95.3228 46.3683 94.937 46.9621 94.8356C47.5559 94.7425 48.1869 94.9359 48.6183 95.3487C48.8355 95.5525 49.0062 95.8059 49.1138 96.0842C49.2224 96.3707 49.239 96.6552 49.2876 96.9252L49.8048 100.222C50.1607 102.416 50.4876 104.617 50.7928 106.821Z" fill="#002E5C"/>
<path d="M56.8809 83.1205L60.519 105.238L67.7579 104.048L64.1198 81.9298L56.8809 83.1205Z" fill="#F1F1F1"/>
<path d="M52.9117 58.9904L56.5498 81.1082L63.7887 79.9175L60.1506 57.7996L52.9117 58.9904Z" fill="#F1F1F1"/>
<path d="M48.9439 34.861L52.582 56.9789L59.8209 55.7882L56.1828 33.6703L48.9439 34.861Z" fill="#F1F1F1"/>
<path d="M44.9752 10.7311L48.6133 32.849L55.8522 31.6583L52.2141 9.54038L44.9752 10.7311Z" fill="#F1F1F1"/>
<path d="M26.1516 105.522L26.8828 109.967L38.2433 108.099L37.5122 103.653L26.1516 105.522Z" fill="#F1F1F1"/>
<path d="M25.1729 99.5496L25.7666 103.159L37.1272 101.29L36.5335 97.6809L25.1729 99.5496Z" fill="#F1F1F1"/>
<path d="M24.0817 92.9379L24.7793 97.1789L36.1399 95.3103L35.4423 91.0692L24.0817 92.9379Z" fill="#F1F1F1"/>
<path d="M22.9859 86.2489L23.6978 90.5767L35.0583 88.708L34.3464 84.3802L22.9859 86.2489Z" fill="#F1F1F1"/>
<path d="M21.8607 79.4476L22.5894 83.8775L33.9499 82.0088L33.2212 77.5789L21.8607 79.4476Z" fill="#F1F1F1"/>
<path d="M20.88 73.4325L21.4814 77.0887L32.842 75.22L32.2406 71.5638L20.88 73.4325Z" fill="#F1F1F1"/>
<path d="M19.7903 66.841L20.4844 71.0607L31.8449 69.192L31.1509 64.9724L19.7903 66.841Z" fill="#F1F1F1"/>
<path d="M18.6517 59.9092L19.4028 64.4759L30.7634 62.6072L30.0122 58.0405L18.6517 59.9092Z" fill="#F1F1F1"/>
<path d="M17.3238 51.8332L18.2632 57.5441L29.6238 55.6755L28.6844 49.9646L17.3238 51.8332Z" fill="#F1F1F1"/>
<path d="M73.0024 89.3479L75.2183 102.819L77.8323 102.389L75.6164 88.9179L73.0024 89.3479Z" fill="#002E5C"/>
<path d="M69.8598 70.2452L72.0757 83.7166L74.6897 83.2866L72.4739 69.8152L69.8598 70.2452Z" fill="#002E5C"/>
<path d="M59.6743 8.31236L65.2637 42.293L67.8777 41.863L62.2883 7.88238L59.6743 8.31236Z" fill="#002E5C"/>
<path d="M30.8672 45.1831C39.547 42.3398 44.2785 32.9989 41.4354 24.3196C38.5922 15.6403 29.251 10.9094 20.5712 13.7527C11.8914 16.596 7.15982 25.937 10.003 34.6162C12.8461 43.2955 22.1874 48.0265 30.8672 45.1831Z" fill="#4D5DC0"/>
<mask id="mask0_498_384" style="mask-type:luminance" maskUnits="userSpaceOnUse" x="9" y="12" width="34" height="35">
<path d="M30.8675 45.1834C39.5474 42.34 44.279 32.999 41.4358 24.3197C38.5926 15.6403 29.2513 10.9093 20.5713 13.7527C11.8914 16.596 7.15985 25.9371 10.003 34.6164C12.8462 43.2958 22.1876 48.0268 30.8675 45.1834Z" fill="white"/>
</mask>
<g mask="url(#mask0_498_384)">
<path d="M10.6599 32.1858C10.4033 33.3496 11.3654 33.6806 11.6033 34.7378C11.8413 35.7951 11.7347 38.8106 13.4778 38.7775C13.4778 38.7775 13.2906 39.304 14.1099 38.0099C14.9281 36.7147 15.5105 35.8127 14.6333 35.2975C13.7561 34.7823 12.3337 34.2392 12.1382 33.091C11.9437 31.9406 10.9175 31.022 10.6599 32.1858ZM26.3104 43.3447C26.326 41.7361 25.8708 42.3619 24.3967 42.2967C22.9225 42.2316 23.3601 41.764 22.3267 40.6199C21.2932 39.4757 20.957 39.5999 20.0074 40.3323C19.0567 41.0647 19.6319 39.9371 19.1177 38.7526C18.6036 37.5692 18.194 37.4916 16.7188 37.4254C15.2447 37.3602 16.4488 39.5864 17.1295 41.014C17.8102 42.4416 16.5792 42.2098 15.7412 42.214C14.9033 42.2181 16.5398 45.2005 16.5398 45.2005L28.0432 47.2063C27.2156 46.8267 26.2949 44.9533 26.3104 43.3447ZM30.8994 33.2534C30.8735 35.2478 30.0459 34.8661 29.3187 36.2037C28.5915 37.5413 30.0852 38.8975 29.9652 39.3992C29.8452 39.9009 31.4911 41.0481 31.1352 41.9429C30.7794 42.8378 30.1525 42.3826 29.1232 42.0764C28.0939 41.7702 27.8601 41.5509 27.6491 42.0112C27.437 42.4716 28.6504 42.8626 29.1677 43.4347C29.6849 44.0067 28.998 43.8029 29.1594 45.2698C29.3197 46.7367 29.7625 47.1081 29.7625 47.1081L32.4976 46.2495C32.4976 46.2495 31.88 43.9591 31.6318 43.2878C31.3835 42.6164 31.8883 42.124 32.0259 41.463C32.1635 40.8019 33.5704 40.8919 34.6742 41.3999C35.778 41.9078 35.749 41.0026 36.02 40.2919C36.291 39.5812 36.68 38.9792 37.4983 37.6851C38.3176 36.3899 39.049 35.8913 41.4365 34.0923C43.8251 32.2934 44.0755 32.3534 44.33 31.802C44.5834 31.2506 44.4799 30.1437 44.4799 30.1437C44.4799 30.1437 42.8786 30.3537 42.1151 30.5596C41.3517 30.7655 39.8807 30.0879 38.8265 29.7144C37.7724 29.341 37.0266 29.3875 36.0666 30.5058C35.1055 31.6241 34.6917 30.7086 32.9094 30.2234C31.1249 29.7351 30.9252 31.2589 30.8994 33.2534ZM8.52783 23.5252C8.52783 23.5252 10.6237 23.2086 10.7354 24.541C10.8461 25.8734 10.4933 26.1569 11.8061 26.8169C13.1188 27.4769 13.7447 27.932 14.3012 29.0234C14.8578 30.1158 15.5157 30.8637 16.0878 30.3475C16.6598 29.8303 17.6002 29.4837 16.7354 27.9713C15.8716 26.4589 16.0371 26.7031 16.0857 25.3872C16.1333 24.0724 13.7716 23.8769 15.3895 22.0573C15.5261 21.9031 15.6574 21.7324 15.7826 21.5473C16.1364 21.0228 16.9598 21.2824 16.9495 21.9145C16.9495 21.9228 16.9495 21.93 16.9495 21.9383C16.9091 23.4797 16.6402 23.579 17.3653 24.3031C18.0905 25.0272 18.1702 26.0669 17.8733 26.7103C17.5774 27.3538 17.0147 27.4851 18.1009 28.1524C19.187 28.8196 18.9005 29.0782 20.1036 29.8541C21.3067 30.631 21.7567 31.2279 22.5294 30.6361C23.3032 30.0444 23.9043 30.4334 24.4049 29.103C24.9056 27.7727 24.7422 26.9182 25.1508 25.5455C25.5594 24.1738 24.4949 24.1852 26.4449 22.8538C28.3949 21.5224 29.3746 21.6941 30.3945 20.3255C31.4145 18.9559 32.658 18.1914 32.3114 17.2511C31.9638 16.3107 31.3628 15.9228 30.2983 15.9342C29.2339 15.9456 28.637 16.3956 27.558 15.9549C26.4791 15.5142 25.3101 16.4804 24.1143 15.9301C22.9184 15.3797 21.9698 14.0515 21.257 15.8411C20.5453 17.6307 20.8701 17.8925 20.3726 18.6104C19.875 19.3283 19.8471 19.8735 18.6264 19.2559C17.9767 18.9269 17.4005 18.6797 16.8864 18.6093C17.0964 17.0783 16.726 15.6115 15.344 15.1263L8.52783 23.5252Z" fill="#002E5C"/>
</g>
<path d="M41.5946 34.1166C44.1688 25.3516 39.1502 16.1595 30.3853 13.5852C21.6203 11.011 12.4281 16.0296 9.8539 24.7945C7.27968 33.5595 12.2983 42.7517 21.0632 45.3259C29.8281 47.9001 39.0203 42.8815 41.5946 34.1166Z" stroke="#F9C302" stroke-width="0.4252" stroke-miterlimit="10"/>
<path d="M27.8117 42.2561C36.8251 40.7735 43.1902 33.8464 42.0285 26.7841C40.8668 19.7217 32.6183 15.1984 23.6049 16.681C14.5915 18.1636 8.22639 25.0907 9.38806 32.153C10.5497 39.2154 18.7983 43.7387 27.8117 42.2561Z" stroke="#F9C302" stroke-width="0.4252" stroke-miterlimit="10"/>
<path d="M24.9663 24.8752C33.9797 23.3917 41.6255 24.2462 42.0424 26.7827C42.4593 29.3192 35.491 32.5768 26.4766 34.0602C17.4633 35.5426 9.81748 34.6892 9.40058 32.1527C8.98369 29.6162 15.9529 26.3586 24.9663 24.8752Z" stroke="#F9C302" stroke-width="0.4252" stroke-miterlimit="10"/>
<path d="M28.4069 45.7891L23.0493 13.2208" stroke="#F9C302" stroke-width="0.4252" stroke-miterlimit="10"/>
<path d="M20.0815 45.0277L15.4067 16.6087" stroke="#F9C302" stroke-width="0.4252" stroke-miterlimit="10"/>
<path d="M36.0494 42.4002L31.3735 13.9821" stroke="#F9C302" stroke-width="0.4252" stroke-miterlimit="10"/>
<path d="M154.23 49.1534H145.691V2.60519H154.23C166.392 2.60519 172.854 13.0255 172.854 25.8788C172.854 38.7332 166.391 49.1534 154.23 49.1534Z" fill="#002E5C"/>
<path d="M100.908 128H150.628C156.837 128 161.871 122.966 161.871 116.757V13.8479C161.871 7.63894 156.837 2.60519 150.628 2.60519H100.908C94.6993 2.60519 89.6655 7.63894 89.6655 13.8479V116.757C89.6655 122.966 94.6983 128 100.908 128Z" fill="#002E5C"/>
<path d="M161.869 47.2541C161.743 38.9918 161.775 30.7305 161.723 22.4681L161.747 16.2716C161.744 15.2403 161.778 14.2006 161.716 13.1827C161.615 12.1668 161.444 11.1489 161.092 10.1838C159.787 6.30862 156.263 3.16485 152.115 2.67244C153.141 2.79347 154.15 3.05104 155.111 3.44208C156.065 3.85173 156.953 4.40208 157.764 5.05069C159.363 6.38309 160.582 8.15618 161.277 10.1186C161.641 11.0962 161.824 12.1296 161.934 13.1641C162.006 14.2089 161.98 15.2361 161.991 16.2706L162.015 22.4671C161.963 30.7294 161.995 38.9918 161.869 47.2541Z" fill="#4D5DC0"/>
<path d="M92.2197 128H141.94C148.149 128 153.182 122.966 153.182 116.757V13.8479C153.182 7.63894 148.149 2.60519 141.94 2.60519H92.2197C86.0108 2.60519 80.9771 7.63894 80.9771 13.8479V116.757C80.9771 122.966 86.0108 128 92.2197 128Z" fill="#4D5DC0"/>
<path d="M89.6656 55.4866L144.493 55.4866V16.5386L89.6656 16.5386V55.4866Z" fill="white"/>
<path d="M112.194 44.0721C113.327 44.6235 115.038 45.1748 116.745 45.1748C118.584 45.1748 119.476 44.4135 119.356 43.258C119.243 42.1552 118.336 41.5252 116.131 40.7638C113.084 39.7397 110.999 38.1115 110.732 35.5387C110.42 32.5191 112.701 30.2081 116.876 30.2081C118.871 30.2081 120.385 30.6281 121.484 31.1008L120.926 34.3304C120.182 33.9891 118.869 33.4905 117.136 33.4905C115.404 33.4905 114.644 34.2787 114.74 35.1973C114.856 36.3259 115.905 36.8256 118.28 37.6914C121.524 38.847 123.162 40.4742 123.421 42.9693C123.728 45.9362 121.707 48.4831 116.85 48.4831C114.829 48.4831 112.775 47.9317 111.721 47.3803L112.194 44.0721Z" fill="#D3D1E8"/>
<path d="M117.658 27.8474H116.5V50.8448H117.658V27.8474Z" fill="#D3D1E8"/>
<path d="M117.079 21.1802V24.9674" stroke="#E3E2EF" stroke-miterlimit="10"/>
<path d="M110.866 22.2757L112.161 25.8343" stroke="#E3E2EF" stroke-miterlimit="10"/>
<path d="M105.401 25.4298L107.835 28.3315" stroke="#E3E2EF" stroke-miterlimit="10"/>
<path d="M101.347 30.2629L104.626 32.157" stroke="#E3E2EF" stroke-miterlimit="10"/>
<path d="M129.532 32.157L132.811 30.2629" stroke="#E3E2EF" stroke-miterlimit="10"/>
<path d="M126.322 28.3315L128.756 25.4298" stroke="#E3E2EF" stroke-miterlimit="10"/>
<path d="M121.997 25.8343L123.292 22.2757" stroke="#E3E2EF" stroke-miterlimit="10"/>
<path d="M137.455 65.3026H142.542C143.619 65.3026 144.493 64.4295 144.493 63.3516V63.2419C144.493 62.164 143.62 61.2909 142.542 61.2909H137.455C136.379 61.2909 135.504 62.164 135.504 63.2419V63.3516C135.505 64.4295 136.379 65.3026 137.455 65.3026Z" fill="white"/>
<path d="M127.069 65.3026H132.156C133.233 65.3026 134.107 64.4295 134.107 63.3516V63.2419C134.107 62.164 133.234 61.2909 132.156 61.2909H127.069C125.992 61.2909 125.118 62.164 125.118 63.2419V63.3516C125.119 64.4295 125.992 65.3026 127.069 65.3026Z" fill="white"/>
<path d="M102.003 65.3026H107.089C108.166 65.3026 109.04 64.4295 109.04 63.3516V63.2419C109.04 62.164 108.167 61.2909 107.089 61.2909H102.003C100.926 61.2909 100.052 62.164 100.052 63.2419V63.3516C100.052 64.4295 100.925 65.3026 102.003 65.3026Z" fill="white"/>
<path d="M91.6166 65.3026H96.7031C97.781 65.3026 98.6541 64.4295 98.6541 63.3516V63.2419C98.6541 62.164 97.781 61.2909 96.7031 61.2909H91.6166C90.5397 61.2909 89.6655 62.164 89.6655 63.2419V63.3516C89.6655 64.4295 90.5386 65.3026 91.6166 65.3026Z" fill="white"/>
<path d="M112.791 66.7809H120.669C121.803 66.7809 122.722 65.8612 122.722 64.7274V61.8681C122.722 60.7344 121.803 59.8147 120.669 59.8147H112.791C111.657 59.8147 110.738 60.7344 110.738 61.8681V64.7274C110.738 65.8612 111.657 66.7809 112.791 66.7809Z" fill="#F9C302"/>
<path d="M131.204 80.08H142.902C143.781 80.08 144.493 79.3673 144.493 78.489V72.8056C144.493 71.9263 143.78 71.2146 142.902 71.2146H131.204C130.325 71.2146 129.613 71.9274 129.613 72.8056V78.489C129.613 79.3673 130.325 80.08 131.204 80.08Z" fill="#B4B4D5"/>
<path d="M91.2566 80.08H102.954C103.834 80.08 104.545 79.3673 104.545 78.489V72.8056C104.545 71.9263 103.833 71.2146 102.954 71.2146H91.2566C90.3773 71.2146 89.6655 71.9274 89.6655 72.8056V78.489C89.6655 79.3673 90.3783 80.08 91.2566 80.08Z" fill="#B4B4D5"/>
<path d="M111.231 80.08H122.929C123.808 80.08 124.52 79.3673 124.52 78.489V72.8056C124.52 71.9263 123.807 71.2146 122.929 71.2146H111.231C110.351 71.2146 109.64 71.9274 109.64 72.8056V78.489C109.64 79.3673 110.352 80.08 111.231 80.08Z" fill="#B4B4D5"/>
<path d="M131.204 91.902H142.902C143.781 91.902 144.493 91.1893 144.493 90.311V84.6276C144.493 83.7483 143.78 83.0366 142.902 83.0366H131.204C130.325 83.0366 129.613 83.7494 129.613 84.6276V90.311C129.613 91.1893 130.325 91.902 131.204 91.902Z" fill="#B4B4D5"/>
<path d="M91.2566 91.902H102.954C103.834 91.902 104.545 91.1893 104.545 90.311V84.6276C104.545 83.7483 103.833 83.0366 102.954 83.0366H91.2566C90.3773 83.0366 89.6655 83.7494 89.6655 84.6276V90.311C89.6655 91.1893 90.3783 91.902 91.2566 91.902Z" fill="#B4B4D5"/>
<path d="M111.231 91.902H122.929C123.808 91.902 124.52 91.1893 124.52 90.311V84.6276C124.52 83.7483 123.807 83.0366 122.929 83.0366H111.231C110.351 83.0366 109.64 83.7494 109.64 84.6276V90.311C109.64 91.1893 110.352 91.902 111.231 91.902Z" fill="#B4B4D5"/>
<path d="M131.204 103.723H142.902C143.781 103.723 144.493 103.01 144.493 102.132V96.4485C144.493 95.5692 143.78 94.8575 142.902 94.8575H131.204C130.325 94.8575 129.613 95.5703 129.613 96.4485V102.132C129.613 103.011 130.325 103.723 131.204 103.723Z" fill="#B4B4D5"/>
<path d="M91.2566 103.723H102.954C103.834 103.723 104.545 103.01 104.545 102.132V96.4485C104.545 95.5692 103.833 94.8575 102.954 94.8575H91.2566C90.3773 94.8575 89.6655 95.5703 89.6655 96.4485V102.132C89.6655 103.011 90.3783 103.723 91.2566 103.723Z" fill="#B4B4D5"/>
<path d="M111.231 103.723H122.929C123.808 103.723 124.52 103.01 124.52 102.132V96.4485C124.52 95.5692 123.807 94.8575 122.929 94.8575H111.231C110.351 94.8575 109.64 95.5703 109.64 96.4485V102.132C109.64 103.011 110.352 103.723 111.231 103.723Z" fill="#B4B4D5"/>
<path d="M131.204 115.545H142.902C143.781 115.545 144.493 114.832 144.493 113.954V108.27C144.493 107.391 143.78 106.679 142.902 106.679H131.204C130.325 106.679 129.613 107.392 129.613 108.27V113.954C129.613 114.832 130.325 115.545 131.204 115.545Z" fill="white"/>
<path d="M91.2566 115.545H102.954C103.834 115.545 104.545 114.832 104.545 113.954V108.27C104.545 107.391 103.833 106.679 102.954 106.679H91.2566C90.3773 106.679 89.6655 107.392 89.6655 108.27V113.954C89.6655 114.832 90.3783 115.545 91.2566 115.545Z" fill="#F9C302"/>
<path d="M111.231 115.545H122.929C123.808 115.545 124.52 114.832 124.52 113.954V108.27C124.52 107.391 123.807 106.679 122.929 106.679H111.231C110.351 106.679 109.64 107.392 109.64 108.27V113.954C109.64 114.832 110.352 115.545 111.231 115.545Z" fill="#002E5C"/>
<path d="M88.8946 9.1503H145.276C145.728 9.1503 146.097 8.78099 146.097 8.32892V8.28342C146.097 7.83135 145.728 7.46204 145.276 7.46204H88.8946C88.4426 7.46204 88.0732 7.83135 88.0732 8.28342V8.32892C88.0732 8.77995 88.4426 9.1503 88.8946 9.1503Z" fill="#002E5C"/>
</svg>
