<svg width="143" height="128" viewBox="0 0 143 128" fill="none" xmlns="http://www.w3.org/2000/svg">
<path d="M136.039 36.7885L8.93624 34.6406C3.81903 34.5542 -0.288259 38.9431 0.0158672 44.1728L4.39083 119.409C4.63019 123.526 7.94215 126.752 11.9716 126.791L134.148 128C137.166 128.03 139.659 125.596 139.774 122.509L142.697 43.9867C142.842 40.1009 139.837 36.8527 136.039 36.7885Z" fill="url(#paint0_linear_498_385)"/>
<path d="M134.09 38.7052L10.3051 36.6617C5.32146 36.5794 1.32134 40.7551 1.6175 45.7307L5.87828 117.31C6.11152 121.228 9.33696 124.296 13.2612 124.334L132.249 125.484C135.188 125.512 137.616 123.197 137.728 120.26L140.575 45.5536C140.716 41.8565 137.79 38.7662 134.09 38.7052Z" fill="url(#paint1_linear_498_385)"/>
<path d="M10.0193 36.6025L134.323 38.6546C138.038 38.7159 140.976 41.8191 140.835 45.5317L140.634 50.7979H1.59817L1.2953 45.7094C0.997937 40.713 5.01474 36.5199 10.0193 36.6025Z" fill="url(#paint2_linear_498_385)"/>
<g opacity="0.85">
<path d="M130.414 41.2C130.414 41.8175 130.915 42.318 131.532 42.318C132.15 42.318 132.65 41.8175 132.65 41.2C132.65 40.5826 132.15 40.082 131.532 40.082C130.915 40.082 130.414 40.5826 130.414 41.2Z" fill="white"/>
<path d="M130.414 44.476C130.414 45.0935 130.915 45.5941 131.532 45.5941C132.15 45.5941 132.65 45.0935 132.65 44.476C132.65 43.8586 132.15 43.358 131.532 43.358C130.915 43.358 130.414 43.8586 130.414 44.476Z" fill="white"/>
<path d="M130.414 47.7519C130.414 48.3694 130.915 48.8699 131.532 48.8699C132.15 48.8699 132.65 48.3694 132.65 47.7519C132.65 47.1344 132.15 46.634 131.532 46.634C130.915 46.634 130.414 47.1344 130.414 47.7519Z" fill="white"/>
</g>
<path d="M113.413 94.3385H126.82C128.652 94.3385 130.111 95.3877 130.021 96.6404L128.496 117.975C128.412 119.144 127.003 120.062 125.294 120.062H113.413C111.643 120.062 110.208 119.079 110.208 117.867V96.5331C110.208 95.321 111.643 94.3385 113.413 94.3385Z" fill="#91B3FA"/>
<path d="M53.9117 54.2206L127.707 55.3877C130.549 55.4327 132.789 57.8795 132.65 60.7866L131.422 86.4843C131.29 89.226 129.081 91.3803 126.401 91.3803H53.834C51.0578 91.3803 48.8071 89.0755 48.8071 86.2325V59.3678C48.8071 56.4935 51.1053 54.1762 53.9117 54.2206Z" fill="#91B3FA"/>
<path d="M81.1164 94.3385H103.028C104.799 94.3385 106.234 95.3211 106.234 96.5332V117.867C106.234 119.079 104.799 120.062 103.028 120.062H81.1164C79.3462 120.062 77.9111 119.079 77.9111 117.867V96.5332C77.9111 95.321 79.3462 94.3385 81.1164 94.3385Z" fill="#91B3FA"/>
<path d="M15.8395 54.3033H41.2799C43.3352 54.3033 45.0013 55.7079 45.0013 57.4406V87.9384C45.0013 89.671 43.3352 91.0756 41.2799 91.0756H15.8395C13.7843 91.0756 12.1182 89.671 12.1182 87.9384V57.4406C12.1182 55.7079 13.7843 54.3033 15.8395 54.3033Z" fill="#91B3FA"/>
<path d="M16.9012 94.0874H51.5858C54.3879 94.0874 56.6594 95.129 56.6594 96.4139V119.03C56.6594 120.314 54.3879 121.356 51.5858 121.356H16.9012C14.0992 121.356 11.8276 120.314 11.8276 119.03V96.4139C11.8276 95.129 14.0992 94.0874 16.9012 94.0874Z" fill="#91B3FA"/>
<path d="M54.1849 56.5991L98.2445 57.6066C99.9413 57.6454 101.279 59.7575 101.196 62.2669L100.462 84.4494C100.384 86.8161 99.0649 88.6757 97.4645 88.6757H54.1385C52.4809 88.6757 51.1372 86.6862 51.1372 84.2321V61.0422C51.1372 58.5611 52.5094 56.5608 54.1849 56.5991Z" fill="#BDD0FB"/>
<g opacity="0.6">
<path d="M37.9125 111.584C37.8576 112.012 37.813 112.443 37.7785 112.874C37.7703 112.977 37.7903 113.117 37.8897 113.127C37.9495 113.133 37.9992 113.083 38.0395 113.037C38.2107 112.841 38.3945 112.588 38.3117 112.339C38.2809 112.246 38.2153 112.168 38.1901 112.073C38.1521 111.93 38.2116 111.779 38.1963 111.632C38.181 111.485 38.0045 111.341 37.9057 111.447L37.9125 111.584Z" fill="white"/>
<path d="M26.9038 97.474C26.2308 97.1182 25.8075 97.0702 25.0829 97.149C24.3995 97.2234 23.9377 97.5668 23.4684 98.0561C23.3617 98.1674 23.258 98.2892 23.1196 98.3531C22.5396 98.6208 21.8042 98.5668 21.212 98.8311C20.5071 99.1457 20.3082 100.124 19.6645 100.557C19.2918 100.807 18.8222 100.839 18.4129 101.018C17.8071 101.283 17.5277 101.834 17.1837 102.37C16.9722 102.7 16.193 103.265 16.2372 103.651C16.2452 103.721 16.2747 103.787 16.3115 103.846C16.5261 104.192 16.8466 104.229 17.1846 104.327C17.6313 104.458 17.9008 104.658 18.296 104.938C18.7081 105.23 19.2688 105.484 19.3045 106C19.3211 106.239 19.2095 106.465 19.155 106.698C18.9088 107.748 19.8222 108.692 20.7112 109.26C21.6002 109.828 22.6491 110.389 22.9318 111.43C22.9576 111.525 22.9793 111.628 23.0483 111.696C23.3078 111.951 23.5022 111.374 23.5808 111.19C23.6314 111.072 23.5856 110.93 23.5065 110.83C23.4274 110.73 23.3194 110.659 23.2221 110.578C22.8937 110.304 22.6808 109.888 22.6471 109.453C22.6428 109.397 22.6424 109.338 22.6726 109.292C22.8267 109.058 23.2109 108.963 23.3992 108.68C23.6688 108.276 23.7303 107.892 23.7762 107.412C23.9447 105.649 25.5499 106.273 26.5575 105.491C26.7451 105.346 26.8861 105.116 26.9184 104.881C26.9362 104.752 26.9209 104.621 26.8622 104.502C26.763 104.301 26.5602 104.171 26.3491 104.113C26.1379 104.055 25.9161 104.059 25.6977 104.064C25.495 104.068 25.2923 104.072 25.0896 104.077C25.0296 104.078 24.9679 104.08 24.913 104.104C24.8353 104.139 24.7828 104.215 24.7407 104.291C24.6051 104.536 24.5382 104.821 24.5502 105.103C24.283 105.197 24.0236 104.943 23.8778 104.693C23.7096 104.404 23.5886 104.086 23.5217 103.756C23.4958 103.629 23.4799 103.488 23.5437 103.376C23.5788 103.314 23.6347 103.268 23.691 103.226C23.918 103.057 24.1798 102.929 24.4579 102.898C24.933 102.846 25.3946 103.081 25.784 103.368C26.158 103.644 26.7679 103.974 27.1875 103.578C27.4042 103.373 27.408 103 27.2571 102.74C27.0119 102.317 26.3868 102.096 25.9795 101.883C25.7888 101.783 25.6664 101.577 25.6122 101.363C25.5581 101.149 25.5633 100.925 25.5688 100.704C26.1325 100.473 26.795 100.519 27.3248 100.823C27.3999 100.867 27.4802 100.927 27.489 101.015C27.4981 101.106 27.4286 101.182 27.3738 101.254C26.8862 101.892 27.3245 102.407 27.8983 102.767C27.912 101.149 27.9156 99.5235 27.9166 97.9042C27.5685 97.7894 27.2292 97.646 26.9038 97.474Z" fill="white"/>
<path d="M32.0004 98.8438C31.9219 98.7379 31.766 98.7646 31.637 98.7655C31.2249 98.7681 30.8976 98.4089 30.5015 98.2914C30.294 98.2297 30.0742 98.2368 29.8583 98.2335C29.2 98.2235 28.5435 98.111 27.9162 97.9042C27.9153 99.5234 27.9116 101.149 27.8979 102.767C28.2556 102.991 28.6658 103.155 28.9374 103.251C29.2255 103.353 29.5006 103.521 29.8086 103.458C30.0945 103.4 30.3517 103.077 30.648 102.995C30.8626 102.935 31.0917 102.967 31.3096 102.921C31.5275 102.876 31.7545 102.707 31.7455 102.478C31.7382 102.291 31.5792 102.15 31.4212 102.059C31.4212 102.077 31.1473 101.853 31.1213 101.804C30.8823 101.325 31.2299 100.903 31.3628 100.49C31.5554 99.8907 31.2703 99.5387 31.8625 99.2071C31.9885 99.1366 32.0876 98.9614 32.0004 98.8438Z" fill="white"/>
<path d="M23.9972 114.006C24.1003 114.223 24.185 114.428 24.2075 114.603C24.3052 115.362 23.673 116.297 23.4043 116.99C23.3295 117.183 23.2533 117.388 23.287 117.593C23.3012 117.68 23.3344 117.761 23.3675 117.842C23.6115 118.436 24.0911 118.974 24.5171 119.433C24.6628 119.04 24.652 118.096 24.612 117.677C24.5988 117.539 24.5758 117.394 24.625 117.265C24.7827 116.851 25.2962 116.281 25.6502 116.034C25.9973 115.792 26.4533 115.597 26.5433 115.174C26.5779 115.012 26.5487 114.838 26.5997 114.68C26.6302 114.585 26.6875 114.503 26.7333 114.415C26.9578 113.983 27.0852 113.15 26.6357 112.843C26.1332 112.5 25.4222 113.002 24.9911 112.443C24.926 112.359 24.8776 112.261 24.8036 112.185C24.6662 112.044 24.4553 111.999 24.2644 112.032C22.9936 112.252 23.6195 113.211 23.9972 114.006Z" fill="white"/>
<path d="M31.9772 107.732C32.3785 107.997 33.0711 107.415 33.3258 106.734C33.3577 106.649 33.3872 106.56 33.4456 106.491C33.5644 106.352 33.7689 106.334 33.947 106.359C34.1251 106.385 34.3027 106.444 34.4811 106.421C34.7371 106.387 34.9486 106.183 35.0681 105.947C35.1876 105.71 35.2306 105.441 35.272 105.178C35.4614 105.13 35.6661 105.148 35.8444 105.23C35.9821 105.293 36.1181 105.432 36.0796 105.583C36.062 105.652 36.0109 105.706 35.9628 105.757C35.8126 105.918 35.6727 106.089 35.5442 106.269C35.465 106.379 35.3872 106.524 35.4467 106.648C35.6088 106.984 35.9052 106.809 35.82 107.29C35.7128 107.892 34.9217 108.139 35.3736 108.858C35.539 109.122 35.8398 109.279 36.1431 109.293C36.3607 109.304 36.6287 109.187 36.6315 108.962C36.6323 108.895 36.6085 108.826 36.6287 108.763C36.6551 108.68 36.7455 108.64 36.8285 108.627C37.1003 108.584 37.363 108.725 37.6138 108.842C37.6895 108.877 37.7799 108.909 37.8518 108.867C38.0863 108.728 37.9769 108.613 38.2957 108.582C38.5676 108.556 38.8857 108.773 39.0397 108.987C39.0767 109.039 39.1101 109.105 39.0867 109.165C39.0663 109.216 39.0099 109.243 38.9815 109.29C38.9346 109.368 38.9818 109.476 39.0558 109.527C39.1297 109.578 39.2216 109.59 39.3087 109.608C39.7171 109.695 39.7267 110.098 40.0154 110.299C40.2497 110.462 40.8466 110.494 40.7939 110.025C40.7747 109.853 40.6082 109.712 40.6354 109.542C40.6595 109.392 40.8225 109.312 40.9683 109.293C41.1141 109.274 41.2698 109.288 41.4001 109.218C41.487 109.171 41.5526 109.091 41.6318 109.032C42.1193 108.665 43.2741 108.976 43.6482 109.388C43.9977 109.773 44.0368 110.435 44.4866 110.684C44.434 110.173 44.1847 109.687 43.8054 109.355C43.7357 109.294 43.659 109.234 43.6224 109.148C43.5916 109.075 43.5934 108.993 43.5973 108.913C43.6172 108.509 43.694 108.132 43.8008 107.754C43.788 107.799 44.0862 106.978 43.8718 107.133C44.2556 106.855 45.0932 106.399 45.5742 106.429C45.8246 106.444 46.0719 106.594 46.177 106.83C46.2822 107.065 46.2188 107.379 46.0117 107.525C45.8135 107.666 45.5384 107.639 45.3371 107.774C45.1432 107.905 45.0604 108.186 45.1513 108.406C45.2774 108.226 45.4682 108.096 45.6777 108.047C45.9588 107.98 46.2781 108.05 46.5209 107.889C46.7 107.77 46.7941 107.543 46.7963 107.323C46.7984 107.103 46.7197 106.889 46.6142 106.698C46.538 106.56 46.4462 106.427 46.4054 106.274C46.34 106.028 46.4175 105.76 46.5552 105.548C47.0673 104.76 48.0151 104.419 48.892 104.709C48.9504 104.728 49.0126 104.754 49.043 104.809C49.0871 104.889 49.0446 104.991 49.0633 105.081C49.0927 105.223 49.3015 105.276 49.3915 105.165C49.4537 105.088 49.4499 104.978 49.4734 104.881C49.5347 104.628 49.7835 104.473 50.0254 104.401C50.3211 104.313 51.1157 103.907 51.1974 104.444C51.2046 104.491 51.2031 104.541 51.2228 104.584C51.2782 104.705 51.464 104.688 51.5523 104.59C51.7344 104.388 51.7664 104.055 51.9428 103.829C52.0989 103.629 52.3293 103.51 52.46 103.286C52.7837 102.733 52.5371 102.01 51.9739 101.742C51.4343 101.486 50.8064 101.6 50.2218 101.708C49.8193 101.783 48.4371 102.07 48.3387 101.396C48.3306 101.34 48.3324 101.281 48.3065 101.232C48.2745 101.172 48.2075 101.14 48.1666 101.085C48.1145 101.015 48.1124 100.919 48.0843 100.836C47.9823 100.533 47.5981 100.477 47.2879 100.473C47.3192 100.286 47.3362 100.057 47.1901 99.9402C47.1075 99.8745 46.9961 99.8672 46.892 99.8626C46.6215 99.8507 45.9691 99.9511 45.7448 99.7874C45.4478 99.5706 45.6524 99.2012 45.5229 98.9021C45.3853 98.5845 44.8737 98.5404 44.8168 98.1973C44.8045 98.1231 44.8179 98.0466 44.8093 97.9719C44.7884 97.7895 44.6449 97.6521 44.5106 97.5321C44.2672 97.3145 43.9914 97.0843 43.6698 97.0928C43.6094 97.1422 43.6637 97.246 43.7318 97.2831C43.8 97.3203 43.8871 97.3396 43.9216 97.4109C43.9877 97.5476 43.798 97.6598 43.6528 97.6884C43.6458 97.8882 43.84 98.0206 43.99 98.1466C44.2433 98.3595 44.4233 98.6639 44.4912 98.9942C43.9801 99.0892 43.4563 99.1114 42.9394 99.0602C42.3165 98.9984 41.9165 100.021 41.1782 99.7377C41.0691 99.6958 40.9716 99.6206 40.8574 99.5983C40.57 99.542 40.3384 99.8236 40.0802 99.9656C39.6869 100.182 39.2048 100.07 38.7834 99.9208C38.2798 99.7429 37.6675 99.4875 37.1599 99.7944C36.9702 99.9091 36.8186 100.088 36.6178 100.18C36.1963 100.373 35.7179 100.136 35.2589 100.09C34.1262 99.9778 33.4445 101.124 33.0765 102.079C33.0207 102.224 32.9706 102.376 32.9779 102.532C32.9852 102.688 33.0617 102.849 33.1992 102.913C33.4028 103.008 33.6395 102.858 33.7725 102.672C33.9054 102.486 33.9863 102.259 34.1489 102.1C34.3116 101.942 34.6106 101.891 34.739 102.08C34.8023 102.173 34.8049 102.295 34.8051 102.409C34.8055 102.625 34.806 102.841 34.8064 103.057C34.8066 103.175 34.8061 103.298 34.7594 103.407C34.6815 103.588 34.4957 103.688 34.3231 103.775C33.9483 103.962 33.5734 104.15 33.1985 104.338C33.072 104.401 32.944 104.465 32.8365 104.559C32.3468 104.987 32.6759 105.579 32.2981 105.99C32.1456 106.156 31.8926 106.206 31.7676 106.396C31.6751 106.535 31.6756 106.717 31.6795 106.886C31.6904 107.357 31.8079 107.62 31.9772 107.732Z" fill="white"/>
<path d="M45.0467 111.325C44.8949 111.609 44.9159 111.98 44.5729 112.137C44.3447 112.241 44.0526 112.193 43.8668 112.365C43.6548 112.562 43.7101 112.91 43.7511 113.201C43.7584 113.254 43.7644 113.309 43.7438 113.357C43.6891 113.485 43.4933 113.482 43.4261 113.603C43.3684 113.707 43.4399 113.838 43.5259 113.919C43.7878 114.164 44.2137 114.196 44.5073 113.993C44.5854 113.939 44.67 113.866 44.7613 113.89C44.8678 113.917 44.9035 114.05 44.9325 114.16C44.9941 114.393 45.1157 114.617 45.3078 114.754C45.9123 115.187 46.7627 114.661 47.434 115.27C47.5164 115.345 47.5949 115.434 47.619 115.545C47.645 115.665 47.6061 115.802 47.6711 115.905C47.7526 116.033 47.9531 116.016 48.0627 115.912C48.1723 115.809 48.2163 115.653 48.2621 115.507C48.3079 115.36 48.3679 115.206 48.4938 115.124C48.7058 114.987 48.9475 115.039 49.0648 114.76C49.2112 114.403 48.7745 114.107 48.9131 113.782C48.975 113.637 49.074 113.478 49.0119 113.333C48.9803 113.26 48.9134 113.21 48.8581 113.153C48.5994 112.886 48.5554 112.634 48.2107 112.471C47.9907 112.367 47.535 112.501 47.4447 112.122C47.4211 112.023 47.4548 111.899 47.3811 111.831C47.3393 111.793 47.2782 111.79 47.2224 111.791C46.8367 111.792 46.3779 111.798 46.1581 111.47C45.9151 111.108 45.8866 110.846 45.3932 111.026C45.2138 111.092 45.1136 111.2 45.0467 111.325Z" fill="white"/>
<path d="M33.5486 109.331C33.4682 109.446 33.4229 109.585 33.3382 109.697C33.0996 110.012 32.996 109.733 32.7264 109.84C32.6334 109.876 32.551 109.941 32.454 109.965C32.2577 110.011 32.0627 109.876 31.8613 109.875C31.0856 109.872 31.4928 111.162 31.8684 111.409C31.9379 111.455 32.0255 111.456 32.1079 111.455C32.3637 111.452 32.6194 111.45 32.8752 111.447C32.9481 111.446 33.0262 111.447 33.0863 111.49C33.2713 111.621 33.095 111.947 33.2063 112.148C33.2826 112.287 33.46 112.313 33.6117 112.341C33.9323 112.401 34.0025 112.762 34.1988 112.985C34.4511 113.271 34.6918 113.387 34.834 113.802C34.9184 114.049 34.9477 114.316 35.0591 114.551C35.2881 115.034 35.8823 115.295 36.3773 115.129C36.8723 114.963 37.2059 114.391 37.1174 113.861C37.0657 113.551 36.8932 113.28 36.7734 112.991C36.5312 112.406 36.695 111.694 37.3663 111.583C37.5357 111.554 37.7509 111.545 37.8141 111.379C37.9052 111.142 37.5537 110.864 37.6994 110.657C37.7519 110.582 37.8534 110.556 37.8995 110.477C37.9615 110.371 37.891 110.234 37.8047 110.149C37.7183 110.063 37.6095 109.989 37.5738 109.87C37.3731 109.205 36.7139 109.621 36.274 109.709C35.8816 109.787 35.6579 109.736 35.3314 109.541C34.8261 109.238 34.0602 108.597 33.5486 109.331Z" fill="white"/>
<path d="M35.2197 98.9229C35.2776 98.8109 35.4193 98.7847 35.5419 98.7761C35.964 98.7465 36.39 98.7749 36.8049 98.8605C36.4614 99.1399 36.0779 99.4337 35.6412 99.4185C35.443 99.4116 35.2374 99.3409 35.0521 99.4137C35.0087 99.2786 35.0326 99.1223 35.1142 99.0077L35.2197 98.9229Z" fill="white"/>
<path d="M30.3395 104.062C30.7703 104.414 32.29 103.944 31.581 103.488C31.4665 103.415 31.3291 103.392 31.1958 103.371C31.0167 103.343 30.8329 103.314 30.6555 103.352C30.478 103.391 30.3052 103.509 30.252 103.689C30.2008 103.861 30.2426 103.982 30.3395 104.062Z" fill="white"/>
<path d="M49.1079 100.958C49.3744 101.2 49.7475 101.26 50.0987 101.309C50.274 101.334 50.5034 101.327 50.564 101.155C50.6278 100.974 50.4217 100.806 50.2363 100.785C50.0509 100.764 49.8539 100.815 49.6821 100.74C49.5297 100.673 49.4098 100.512 49.2443 100.513C49.0516 100.515 48.935 100.806 49.07 100.948L49.1079 100.958Z" fill="white"/>
</g>
<path d="M102.457 118.506H104.787V107.135H102.457V118.506Z" fill="#BDD0FB"/>
<path d="M98.5642 118.506H100.894V109.723H98.5642V118.506Z" fill="#BDD0FB"/>
<path d="M94.6721 118.506H97.0015V99.4217H94.6721V118.506Z" fill="#BDD0FB"/>
<path d="M90.7804 118.506H93.1099V101.441H90.7804V118.506Z" fill="#BDD0FB"/>
<path d="M86.8878 118.506H89.2173V104.495H86.8878V118.506Z" fill="#BDD0FB"/>
<path d="M82.9958 118.506H85.3252V115.046H82.9958V118.506Z" fill="#BDD0FB"/>
<path d="M79.1032 118.506H81.4326V108.325H79.1032V118.506Z" fill="#BDD0FB"/>
<path d="M62.1804 97.8159H74.1277C74.6525 97.8159 75.078 98.2415 75.078 98.7663C75.078 99.2911 74.6524 99.7166 74.1277 99.7166H62.1803C61.6555 99.7166 61.23 99.2911 61.23 98.7663C61.23 98.2414 61.6555 97.8159 62.1804 97.8159Z" fill="#91B3FA"/>
<path d="M62.1804 94.842H74.1277C74.6525 94.842 75.078 95.2675 75.078 95.7923C75.078 96.3172 74.6524 96.7427 74.1277 96.7427H62.1803C61.6555 96.7427 61.23 96.3171 61.23 95.7923C61.23 95.2675 61.6555 94.842 62.1804 94.842Z" fill="#91B3FA"/>
<path d="M62.1804 116.264H74.1277C74.6525 116.264 75.078 116.69 75.078 117.214C75.078 117.739 74.6525 118.165 74.1277 118.165H62.1804C61.6555 118.165 61.23 117.739 61.23 117.214C61.23 116.69 61.6555 116.264 62.1804 116.264Z" fill="#91B3FA"/>
<path d="M62.1804 113.29H74.1277C74.6525 113.29 75.078 113.716 75.078 114.241C75.078 114.765 74.6525 115.191 74.1277 115.191H62.1804C61.6555 115.191 61.23 114.765 61.23 114.241C61.23 113.716 61.6555 113.29 62.1804 113.29Z" fill="#91B3FA"/>
<path d="M72.5273 69.0534V76.5471C72.5273 77.234 73.2522 77.679 73.8647 77.3682L80.3821 74.0615C81.0167 73.7396 81.0618 72.8503 80.4632 72.4657L73.9458 68.2787C73.333 67.885 72.5273 68.325 72.5273 69.0534Z" fill="white"/>
<path d="M127.81 63.2609H105.225C104.34 63.2609 103.622 62.5428 103.622 61.657V59.98C103.622 59.0942 104.34 58.3761 105.225 58.3761H127.753C128.45 58.3761 129.015 58.9414 129.015 59.6388V62.0555C129.015 62.7212 128.476 63.2609 127.81 63.2609Z" fill="#BDD0FB"/>
<path d="M41.5943 75.5949H15.3461C14.4603 75.5949 13.7422 74.8768 13.7422 73.991V58.2024C13.7422 57.3166 14.4603 56.5985 15.3461 56.5985H41.5369C42.2343 56.5985 42.7997 57.1639 42.7997 57.8612V74.3896C42.7997 75.0553 42.26 75.5949 41.5943 75.5949Z" fill="#BDD0FB"/>
<path d="M41.6153 80.9233H15.3671C14.4813 80.9233 13.7632 80.2052 13.7632 79.3194V78.2622C13.7632 77.3764 14.4813 76.6583 15.3671 76.6583H41.5579C42.2553 76.6583 42.8206 77.2236 42.8206 77.921V79.7179C42.8206 80.3836 42.281 80.9233 41.6153 80.9233Z" fill="#BDD0FB"/>
<path d="M41.5973 89.042H15.349C14.4632 89.042 13.7451 88.3239 13.7451 87.4381V87.2334C13.7451 86.3475 14.4632 85.6295 15.349 85.6295H41.5399C42.2372 85.6295 42.8026 86.1948 42.8026 86.8922V87.8366C42.8026 88.5023 42.2629 89.042 41.5973 89.042Z" fill="#BDD0FB"/>
<path d="M127.753 69.489H105.225C104.34 69.489 103.622 68.7709 103.622 67.8851V66.2081C103.622 65.3223 104.34 64.6042 105.225 64.6042H127.81C128.476 64.6042 129.015 65.1438 129.015 65.8095V68.2262C129.015 68.9236 128.45 69.489 127.753 69.489Z" fill="#BDD0FB"/>
<path d="M125.9 88.6756H107.075C105.168 88.6756 103.622 87.1294 103.622 85.2221V73.5765C103.622 72.3307 104.632 71.3207 105.877 71.3207H126.76C128.005 71.3207 129.015 72.3306 129.015 73.5765L128.398 86.2954C128.334 87.6282 127.234 88.6756 125.9 88.6756Z" fill="#BDD0FB"/>
<path d="M21.3867 84.0821H15.5227C15.1439 84.0821 14.834 83.7722 14.834 83.3934V83.3054C14.834 82.9266 15.1439 82.6167 15.5227 82.6167H21.3867C21.7655 82.6167 22.0754 82.9266 22.0754 83.3054V83.3934C22.0755 83.7722 21.7655 84.0821 21.3867 84.0821Z" fill="#BDD0FB"/>
<g opacity="0.64">
<path d="M17.7599 37.3699C17.6144 37.3699 17.4803 37.2748 17.4372 37.1282C17.3862 36.9542 17.3368 36.7797 17.2888 36.6045C17.2399 36.4253 17.3455 36.2403 17.5246 36.1913C17.7038 36.1424 17.8889 36.2479 17.9378 36.4271C17.9846 36.5982 18.0329 36.7688 18.0828 36.9386C18.1351 37.1168 18.033 37.3038 17.8547 37.3562C17.8231 37.3655 17.7912 37.3699 17.7599 37.3699Z" fill="url(#paint3_linear_498_385)"/>
<path d="M17.2058 35.1544C17.0497 35.1544 16.9098 35.0452 16.8768 34.8864C16.8032 34.5325 16.7354 34.173 16.6755 33.8179C16.6446 33.6346 16.7681 33.4611 16.9512 33.4301C17.1354 33.3999 17.3081 33.5227 17.339 33.7059C17.3975 34.0528 17.4636 34.4038 17.5355 34.7493C17.5733 34.9312 17.4565 35.1094 17.2746 35.1473C17.2516 35.1521 17.2285 35.1544 17.2058 35.1544ZM16.7691 32.3687C16.5992 32.3687 16.4533 32.2406 16.435 32.0679C16.3969 31.7097 16.365 31.3453 16.3403 30.9848C16.3276 30.7994 16.4676 30.6388 16.6529 30.6262C16.8392 30.6145 16.9989 30.7535 17.0115 30.9388C17.0357 31.291 17.0668 31.6469 17.104 31.9967C17.1236 32.1814 16.9898 32.3472 16.8051 32.3668C16.793 32.3681 16.781 32.3687 16.7691 32.3687ZM16.6096 29.5536C16.425 29.5536 16.2746 29.4046 16.2733 29.2196C16.2728 29.146 16.2725 29.0724 16.2725 28.9987C16.2725 28.7114 16.2768 28.42 16.2853 28.1326C16.2908 27.9469 16.4471 27.8046 16.6316 27.8063C16.8173 27.8118 16.9633 27.9668 16.9579 28.1526C16.9495 28.4334 16.9453 28.7181 16.9453 28.9987C16.9453 29.0708 16.9456 29.1427 16.9461 29.2147C16.9474 29.4005 16.798 29.5521 16.6121 29.5535C16.6112 29.5536 16.6105 29.5536 16.6096 29.5536ZM16.7258 26.7362C16.7157 26.7362 16.7056 26.7358 16.6953 26.7348C16.5103 26.7183 16.3738 26.5548 16.3904 26.3697C16.4226 26.0103 16.462 25.6468 16.5075 25.2894C16.531 25.1051 16.6994 24.9748 16.8837 24.9982C17.068 25.0216 17.1984 25.19 17.175 25.3743C17.1305 25.7235 17.0921 26.0786 17.0606 26.4299C17.0448 26.6047 16.8981 26.7362 16.7258 26.7362ZM17.114 23.9445C17.0933 23.9445 17.0722 23.9426 17.051 23.9385C16.8684 23.904 16.7485 23.728 16.783 23.5454C16.85 23.1915 16.9248 22.8335 17.0052 22.4815C17.0466 22.3003 17.2271 22.1869 17.4081 22.2285C17.5892 22.2698 17.7025 22.4503 17.6611 22.6313C17.5826 22.9751 17.5096 23.3248 17.4441 23.6705C17.4136 23.832 17.2725 23.9445 17.114 23.9445ZM17.7741 21.2041C17.7427 21.2041 17.7108 21.1997 17.6791 21.1903C17.5008 21.1379 17.3988 20.951 17.4512 20.7727C17.5529 20.4266 17.6627 20.0778 17.7774 19.7359C17.8366 19.5597 18.0275 19.4648 18.2033 19.5239C18.3794 19.5829 18.4744 19.7737 18.4153 19.9498C18.3032 20.2838 18.1961 20.6244 18.0967 20.9625C18.0537 21.109 17.9195 21.2041 17.7741 21.2041ZM18.702 18.5422C18.6599 18.5422 18.6171 18.5343 18.5757 18.5175C18.4036 18.4477 18.3205 18.2515 18.3903 18.0794C18.5263 17.7438 18.6705 17.4066 18.8189 17.0772C18.8952 16.9078 19.0944 16.8322 19.2637 16.9086C19.4332 16.9849 19.5087 17.1841 19.4323 17.3534C19.2875 17.6752 19.1466 18.0045 19.0139 18.3321C18.9608 18.4629 18.835 18.5422 18.702 18.5422ZM19.8916 15.9807C19.8388 15.9807 19.7852 15.9682 19.7352 15.9419C19.5708 15.8554 19.5076 15.652 19.5942 15.4876C19.7625 15.1677 19.9393 14.8466 20.1196 14.5334C20.2123 14.3725 20.4179 14.317 20.5791 14.4098C20.74 14.5025 20.7954 14.7081 20.7027 14.8692C20.5266 15.175 20.354 15.4885 20.1896 15.8008C20.1294 15.9153 20.0125 15.9807 19.8916 15.9807ZM21.3284 13.5508C21.2648 13.5508 21.2005 13.5328 21.1434 13.4951C20.9883 13.3927 20.9456 13.184 21.048 13.029C21.2467 12.728 21.4541 12.4263 21.6646 12.1321C21.7726 11.9809 21.9827 11.9462 22.1339 12.0543C22.2851 12.1623 22.3198 12.3725 22.2118 12.5236C22.0062 12.811 21.8035 13.1057 21.6095 13.3997C21.5448 13.4977 21.4377 13.5508 21.3284 13.5508ZM22.9972 11.2754C22.9227 11.2754 22.8477 11.2508 22.7853 11.2002C22.6411 11.0831 22.6191 10.8712 22.7362 10.727C22.9635 10.4471 23.1994 10.1673 23.4376 9.89546C23.56 9.75565 23.7725 9.74171 23.9123 9.86413C24.0521 9.98654 24.0661 10.1991 23.9436 10.3388C23.711 10.6044 23.4805 10.8776 23.2585 11.1511C23.192 11.2329 23.095 11.2754 22.9972 11.2754ZM24.8807 9.17572C24.7951 9.17572 24.7096 9.14334 24.644 9.07842C24.512 8.94774 24.5109 8.73469 24.6416 8.60266C24.896 8.3456 25.1581 8.0905 25.4206 7.84432C25.5561 7.71725 25.769 7.72407 25.8961 7.85961C26.0232 7.99516 26.0164 8.20805 25.8808 8.33512C25.6244 8.57554 25.3684 8.82478 25.1198 9.07597C25.054 9.14244 24.9674 9.17572 24.8807 9.17572ZM26.9597 7.27106C26.863 7.27106 26.7671 7.22965 26.7006 7.1495C26.582 7.00653 26.6017 6.79444 26.7446 6.67574C27.0226 6.44505 27.3083 6.21687 27.5937 5.99746C27.7411 5.88437 27.9523 5.91204 28.0655 6.05922C28.1787 6.20654 28.151 6.41768 28.0037 6.53097C27.7249 6.74522 27.4459 6.96814 27.1743 7.19346C27.1115 7.24559 27.0354 7.27106 26.9597 7.27106ZM29.2142 5.57929C29.1063 5.57929 29.0003 5.52746 28.9353 5.43131C28.8312 5.27737 28.8715 5.06824 29.0254 4.96412C29.3242 4.762 29.6306 4.56289 29.9362 4.37241C30.094 4.27416 30.3013 4.32223 30.3997 4.47988C30.498 4.63759 30.4498 4.84507 30.2922 4.94337C29.9937 5.12944 29.6943 5.32394 29.4025 5.52139C29.3446 5.56059 29.2791 5.57929 29.2142 5.57929ZM59.6341 4.54675C59.5766 4.54675 59.5184 4.53197 59.4651 4.50094C59.1607 4.32369 58.8485 4.14969 58.5375 3.98387C58.3736 3.89655 58.3115 3.69277 58.3988 3.52881C58.4862 3.36479 58.69 3.30293 58.8539 3.3901C59.1724 3.55989 59.492 3.73794 59.8037 3.91955C59.9642 4.01304 60.0186 4.21897 59.9251 4.37958C59.8626 4.48685 59.7499 4.54675 59.6341 4.54675ZM31.6223 4.11701C31.5028 4.11701 31.3871 4.0532 31.3261 3.94086C31.2376 3.77744 31.2983 3.57332 31.4616 3.48479C31.7792 3.31271 32.1035 3.14478 32.4255 2.98557C32.5922 2.90336 32.7938 2.97159 32.8761 3.13806C32.9585 3.30464 32.8902 3.5064 32.7237 3.58876C32.4091 3.74421 32.0923 3.90827 31.7823 4.07635C31.7313 4.10392 31.6764 4.11701 31.6223 4.11701ZM57.1301 3.25025C57.0833 3.25025 57.0359 3.24047 56.9905 3.21977C56.6712 3.07395 56.3434 2.93178 56.0163 2.79714C55.8445 2.72646 55.7625 2.52981 55.8332 2.35802C55.9039 2.18613 56.1005 2.10432 56.2723 2.1749C56.6074 2.31275 56.943 2.45842 57.2701 2.60776C57.439 2.6849 57.5135 2.88451 57.4363 3.05349C57.3798 3.17721 57.2578 3.25025 57.1301 3.25025ZM34.1608 2.89875C34.0294 2.89875 33.9047 2.82135 33.8505 2.69267C33.7784 2.52144 33.8589 2.32418 34.0302 2.2521C34.3612 2.11289 34.7002 1.9778 35.0377 1.85052C35.2115 1.78496 35.4056 1.87288 35.4712 2.04667C35.5367 2.22052 35.4489 2.41456 35.275 2.48013C34.9454 2.6044 34.6143 2.73639 34.291 2.87238C34.2485 2.89028 34.2043 2.89875 34.1608 2.89875ZM54.5101 2.20799C54.474 2.20799 54.4374 2.20222 54.4014 2.18994C54.0676 2.076 53.7273 1.96697 53.3899 1.86591C53.2119 1.81258 53.1108 1.62505 53.1641 1.44709C53.2175 1.26904 53.405 1.16828 53.5829 1.22132C53.9284 1.32488 54.2769 1.43647 54.6187 1.55306C54.7946 1.61312 54.8885 1.80426 54.8285 1.9801C54.7807 2.12001 54.65 2.20799 54.5101 2.20799ZM36.8054 1.93719C36.6616 1.93719 36.5286 1.84441 36.4841 1.69989C36.4293 1.52234 36.5288 1.33405 36.7063 1.27932C37.0522 1.17254 37.4036 1.07133 37.751 0.978598C37.9309 0.930425 38.1149 1.03735 38.1628 1.21671C38.2109 1.39621 38.1042 1.58058 37.9247 1.62856C37.5857 1.71924 37.2424 1.81799 36.9046 1.92221C36.8717 1.93233 36.8383 1.93719 36.8054 1.93719ZM51.7997 1.4306C51.7743 1.4306 51.7486 1.42769 51.7227 1.42168C51.3798 1.34147 51.0303 1.26653 50.684 1.19921C50.5017 1.16372 50.3826 0.98712 50.4181 0.804704C50.4536 0.622289 50.6301 0.503185 50.8126 0.538725C51.1671 0.607702 51.5249 0.684397 51.8761 0.766607C52.057 0.808915 52.1693 0.989926 52.127 1.17084C52.0907 1.32593 51.9524 1.4306 51.7997 1.4306ZM39.5368 1.24082C39.38 1.24082 39.2398 1.13069 39.2075 0.971178C39.1705 0.789114 39.2883 0.61156 39.4703 0.574666C39.8238 0.503033 40.1835 0.437165 40.5396 0.378917C40.7233 0.348539 40.8959 0.473358 40.9259 0.656676C40.9559 0.839994 40.8315 1.01294 40.6482 1.04296C40.3005 1.09981 39.9492 1.16412 39.604 1.2341C39.5815 1.23861 39.559 1.24082 39.5368 1.24082ZM49.0254 0.924009C49.0107 0.924009 48.9958 0.923005 48.9808 0.92105C48.6322 0.874883 48.277 0.834581 47.9251 0.801245C47.7402 0.783751 47.6044 0.619631 47.622 0.434659C47.6395 0.249637 47.8022 0.11354 47.9886 0.131436C48.3487 0.165523 48.7123 0.206727 49.0692 0.253998C49.2533 0.27836 49.3829 0.447493 49.3586 0.631663C49.3362 0.800895 49.1916 0.924009 49.0254 0.924009ZM42.3238 0.818439C42.1532 0.818439 42.007 0.689258 41.9895 0.515866C41.9708 0.331044 42.1054 0.166024 42.2904 0.147326C42.648 0.111133 43.0124 0.0811573 43.3735 0.0581486C43.5604 0.0460678 43.7188 0.187178 43.7306 0.372551C43.7424 0.557974 43.6017 0.717832 43.4162 0.729662C43.0634 0.75207 42.7074 0.781394 42.358 0.816735C42.3465 0.817887 42.3351 0.818439 42.3238 0.818439ZM46.2142 0.690162C46.2103 0.690162 46.2064 0.690112 46.2024 0.689961C45.8732 0.678582 45.5403 0.672817 45.2131 0.672817L45.1406 0.672868C45.1402 0.672868 45.1399 0.672868 45.1397 0.672868C44.9543 0.672868 44.8038 0.522835 44.8033 0.337362C44.8028 0.151537 44.953 0.000551762 45.1388 5.04829e-05L45.2132 0C45.548 0 45.8887 0.0059154 46.2257 0.0175451C46.4114 0.0239615 46.5568 0.179709 46.5503 0.365383C46.544 0.547096 46.3947 0.690162 46.2142 0.690162Z" fill="url(#paint4_linear_498_385)"/>
<path d="M61.5701 5.78136C61.5039 5.78136 61.4369 5.76186 61.3784 5.72115C61.233 5.62004 61.0865 5.52014 60.9391 5.42169C60.7846 5.31848 60.7431 5.10954 60.8463 4.95505C60.9495 4.80055 61.1585 4.7591 61.3129 4.86226C61.4638 4.96312 61.6136 5.06523 61.7625 5.16869C61.9151 5.27481 61.9527 5.4845 61.8466 5.63699C61.7813 5.73103 61.6766 5.78136 61.5701 5.78136Z" fill="url(#paint5_linear_498_385)"/>
</g>
<g opacity="0.64">
<path d="M73.4074 24.1219C73.2481 24.1219 73.1066 24.0083 73.0769 23.846C73.0449 23.6715 73.0113 23.4975 72.9761 23.324C72.939 23.142 73.0566 22.9643 73.2387 22.9274C73.4205 22.8905 73.5983 23.0079 73.6353 23.19C73.6715 23.3676 73.7058 23.5458 73.7386 23.7247C73.7721 23.9074 73.6511 24.0827 73.4684 24.1162C73.4479 24.12 73.4275 24.1219 73.4074 24.1219Z" fill="url(#paint6_linear_498_385)"/>
<path d="M45.4695 57.9389C45.2847 57.9389 45.1344 57.7898 45.1331 57.6047C45.1319 57.419 45.2815 57.2673 45.4674 57.266C45.8133 57.2637 46.1647 57.2549 46.5114 57.2398C46.6991 57.2328 46.8541 57.3756 46.8622 57.5612C46.8702 57.7468 46.7264 57.9039 46.5407 57.9119C46.1858 57.9274 45.8261 57.9365 45.4718 57.9388C45.4711 57.9389 45.4703 57.9389 45.4695 57.9389ZM43.7518 57.8998C43.7459 57.8998 43.7399 57.8996 43.7339 57.8993C43.5705 57.8907 43.4069 57.8809 43.2432 57.8695C43.0501 57.8561 42.8576 57.8409 42.6657 57.8238C42.4806 57.8073 42.344 57.6439 42.3605 57.4589C42.377 57.2738 42.5399 57.1365 42.7254 57.1536C42.9129 57.1703 43.101 57.1851 43.2896 57.1982C43.4498 57.2093 43.6096 57.2191 43.7691 57.2274C43.9547 57.2371 44.0972 57.3955 44.0875 57.5809C44.0781 57.7605 43.9295 57.8998 43.7518 57.8998ZM48.2388 57.786C48.0686 57.786 47.9226 57.6574 47.9046 57.4844C47.8854 57.2996 48.0196 57.1342 48.2044 57.115C48.5505 57.0789 48.8994 57.0361 49.2414 56.9876C49.4261 56.9608 49.5956 57.0894 49.6218 57.2734C49.6478 57.4574 49.5199 57.6276 49.3359 57.6537C48.9856 57.7034 48.6284 57.7473 48.2741 57.7842C48.2622 57.7854 48.2505 57.786 48.2388 57.786ZM40.9889 57.6223C40.9724 57.6223 40.9557 57.6211 40.9389 57.6186C40.5861 57.566 40.231 57.5063 39.8834 57.4413C39.7008 57.4071 39.5805 57.2313 39.6147 57.0487C39.6489 56.8661 39.8247 56.7462 40.0073 56.7799C40.3467 56.8436 40.6935 56.9018 41.0381 56.9531C41.2219 56.9806 41.3487 57.1517 41.3213 57.3355C41.2964 57.5024 41.1528 57.6223 40.9889 57.6223ZM50.9812 57.3648C50.8247 57.3648 50.6844 57.2549 50.6519 57.0956C50.6148 56.9135 50.7323 56.7358 50.9143 56.6987C51.2547 56.6293 51.5977 56.5526 51.9341 56.4709C52.1144 56.4269 52.2965 56.5377 52.3404 56.7183C52.3843 56.8989 52.2735 57.0808 52.093 57.1247C51.7486 57.2084 51.3973 57.2869 51.0489 57.358C51.0261 57.3625 51.0035 57.3648 50.9812 57.3648ZM38.2663 57.0806C38.2392 57.0806 38.2118 57.0773 38.1844 57.0705C37.8391 56.9842 37.4913 56.8904 37.151 56.7918C36.9726 56.74 36.8699 56.5534 36.9216 56.3749C36.9734 56.1966 37.1599 56.0937 37.3384 56.1455C37.6707 56.2419 38.0102 56.3334 38.3476 56.4178C38.5278 56.4628 38.6375 56.6455 38.5924 56.8258C38.5542 56.9786 38.417 57.0806 38.2663 57.0806ZM53.6698 56.6782C53.526 56.6782 53.393 56.5854 53.3484 56.4408C53.2937 56.2632 53.3933 56.0749 53.5708 56.0202C53.9017 55.9183 54.2347 55.8088 54.5608 55.695C54.7363 55.6338 54.9281 55.7263 54.9894 55.9017C55.0506 56.0772 54.9581 56.269 54.7826 56.3302C54.4487 56.4468 54.1077 56.5589 53.769 56.6632C53.736 56.6734 53.7026 56.6782 53.6698 56.6782ZM35.6091 56.2772C35.5716 56.2772 35.5335 56.2709 35.4962 56.2576C35.1619 56.1384 34.825 56.0111 34.4949 55.8794C34.3224 55.8105 34.2383 55.6148 34.3072 55.4422C34.3759 55.2697 34.5712 55.1852 34.7443 55.2545C35.0667 55.3832 35.3956 55.5074 35.7221 55.6237C35.8971 55.6862 35.9884 55.8786 35.926 56.0536C35.8769 56.1913 35.7473 56.2772 35.6091 56.2772ZM56.2739 55.7349C56.1423 55.7349 56.0174 55.6572 55.9635 55.5282C55.8918 55.3568 55.9726 55.1598 56.144 55.0881C56.4631 54.9546 56.7843 54.8132 57.0986 54.6678C57.2671 54.5898 57.4673 54.6633 57.5451 54.8319C57.6231 55.0006 57.5497 55.2005 57.381 55.2785C57.0592 55.4273 56.7304 55.5721 56.4037 55.7087C56.3612 55.7265 56.3172 55.7349 56.2739 55.7349ZM33.0431 55.2183C32.995 55.2183 32.9462 55.2079 32.8999 55.1861C32.5779 55.0344 32.255 54.8749 31.9404 54.7121C31.7754 54.6267 31.7108 54.4237 31.7962 54.2587C31.8816 54.0937 32.0846 54.0291 32.2496 54.1145C32.5568 54.2735 32.8722 54.4293 33.1867 54.5774C33.3547 54.6566 33.4268 54.857 33.3476 55.0252C33.2903 55.1469 33.1693 55.2183 33.0431 55.2183ZM58.7757 54.5426C58.6558 54.5426 58.5399 54.4784 58.4791 54.3654C58.3911 54.2018 58.4524 53.9978 58.6161 53.9098C58.9212 53.7458 59.2274 53.5739 59.5263 53.3988C59.6864 53.3049 59.8927 53.3586 59.9866 53.519C60.0805 53.6793 60.0267 53.8854 59.8664 53.9793C59.5605 54.1585 59.2471 54.3345 58.9346 54.5025C58.884 54.5297 58.8295 54.5426 58.7757 54.5426ZM30.5928 53.9145C30.5342 53.9145 30.4748 53.8991 30.4207 53.8669C30.1161 53.6852 29.8103 53.4951 29.512 53.3018C29.356 53.2008 29.3115 52.9925 29.4125 52.8366C29.5136 52.6806 29.7219 52.6363 29.8777 52.7372C30.1691 52.9259 30.4678 53.1116 30.7654 53.2891C30.9249 53.3842 30.9772 53.5908 30.8819 53.7504C30.8191 53.8559 30.7074 53.9145 30.5928 53.9145ZM61.1518 53.1134C61.0433 53.1134 60.9367 53.061 60.8719 52.964C60.7685 52.8096 60.81 52.6006 60.9644 52.4974C61.2516 52.3052 61.54 52.1044 61.8215 51.9006C61.9718 51.7918 62.1822 51.8254 62.2913 51.9759C62.4002 52.1265 62.3665 52.3368 62.216 52.4457C61.9278 52.6543 61.6327 52.8598 61.3386 53.0565C61.2811 53.095 61.216 53.1134 61.1518 53.1134ZM63.3798 51.4613C63.2824 51.4613 63.1857 51.4192 63.1193 51.338C63.0016 51.1942 63.0227 50.9822 63.1665 50.8645C63.4341 50.6455 63.7018 50.4179 63.9625 50.1878C64.1018 50.0649 64.3144 50.0782 64.4374 50.2174C64.5603 50.3568 64.5471 50.5693 64.4077 50.6923C64.1409 50.9278 63.8666 51.1609 63.5927 51.3852C63.5302 51.4364 63.4548 51.4613 63.3798 51.4613ZM65.4393 49.6018C65.3529 49.6018 65.2665 49.5687 65.2008 49.5026C65.0697 49.3708 65.0703 49.1579 65.2021 49.0269C65.4483 48.782 65.6931 48.5294 65.9297 48.2762C66.0565 48.1404 66.2693 48.1331 66.4051 48.26C66.5409 48.3868 66.5482 48.5997 66.4213 48.7355C66.1791 48.9947 65.9285 49.2533 65.6764 49.5039C65.6108 49.5692 65.5251 49.6018 65.4393 49.6018ZM67.3107 47.5518C67.2351 47.5518 67.159 47.5264 67.0963 47.4744C66.9531 47.356 66.9332 47.1439 67.0518 47.0008C67.2737 46.7329 67.4931 46.4578 67.704 46.183C67.8171 46.0357 68.0282 46.0078 68.1757 46.1211C68.3231 46.2342 68.3508 46.4454 68.2377 46.5928C68.0218 46.874 67.7971 47.1556 67.57 47.43C67.5034 47.5103 67.4074 47.5518 67.3107 47.5518ZM68.9763 45.3299C68.9114 45.3299 68.8459 45.3111 68.7881 45.2721C68.6342 45.168 68.5938 44.9588 68.6979 44.805C68.8929 44.5166 69.0847 44.2214 69.2681 43.9274C69.3664 43.7698 69.574 43.7217 69.7316 43.82C69.8892 43.9183 69.9373 44.1258 69.839 44.2835C69.6512 44.5844 69.4548 44.8867 69.2552 45.1818C69.1903 45.278 69.0842 45.3299 68.9763 45.3299ZM70.4191 42.9559C70.365 42.9559 70.31 42.9428 70.2589 42.9151C70.0957 42.8264 70.0352 42.6222 70.1238 42.4589C70.2894 42.154 70.4517 41.8414 70.6063 41.5295C70.6887 41.3631 70.8904 41.2948 71.0571 41.3775C71.2235 41.46 71.2916 41.6619 71.2091 41.8283C71.0509 42.1476 70.8847 42.4678 70.7151 42.78C70.6542 42.8922 70.5385 42.9559 70.4191 42.9559ZM71.6247 40.4513C71.581 40.4513 71.5367 40.4428 71.494 40.4247C71.3228 40.3524 71.2426 40.1551 71.3149 39.9839C71.4502 39.6637 71.5813 39.3364 71.7046 39.0111C71.7705 38.8373 71.9645 38.7501 72.1384 38.8157C72.3122 38.8817 72.3996 39.0758 72.3338 39.2496C72.2075 39.5826 72.0733 39.9178 71.9348 40.2457C71.8805 40.3742 71.7559 40.4513 71.6247 40.4513ZM72.5793 37.8427C72.5461 37.8427 72.5125 37.8378 72.4791 37.8275C72.3017 37.7722 72.2027 37.5836 72.2579 37.4062C72.3611 37.0748 72.4594 36.7373 72.5499 36.403C72.5985 36.2237 72.7834 36.1181 72.9626 36.1663C73.1419 36.2149 73.2479 36.3997 73.1994 36.579C73.1066 36.9213 73.006 37.2668 72.9004 37.6063C72.8556 37.7504 72.7227 37.8427 72.5793 37.8427ZM73.2743 35.1568C73.2517 35.1568 73.2287 35.1544 73.2057 35.1497C73.0237 35.112 72.9069 34.9339 72.9446 34.752C73.015 34.4121 73.08 34.0666 73.1378 33.7251C73.1689 33.5419 73.3425 33.4187 73.5256 33.4495C73.7088 33.4805 73.8322 33.6542 73.8012 33.8373C73.742 34.187 73.6755 34.5407 73.6033 34.8886C73.5704 35.0474 73.4304 35.1568 73.2743 35.1568ZM73.7059 32.416C73.6937 32.416 73.6815 32.4154 73.6691 32.414C73.4844 32.394 73.351 32.228 73.371 32.0433C73.4083 31.7001 73.4399 31.3498 73.4649 31.0024C73.4782 30.8172 73.6381 30.6776 73.8246 30.691C74.0099 30.7043 74.1494 30.8655 74.136 31.0507C74.1104 31.4063 74.0781 31.7646 74.0399 32.1159C74.0212 32.2883 73.8754 32.416 73.7059 32.416ZM73.8734 29.6461C73.872 29.6461 73.8705 29.6461 73.8691 29.6461C73.6833 29.6436 73.5346 29.4911 73.5369 29.3053C73.5385 29.1836 73.5393 29.062 73.5393 28.9406C73.5393 28.7131 73.5366 28.4862 73.5312 28.26C73.5268 28.0742 73.6737 27.9201 73.8595 27.9156C74.0496 27.9125 74.1994 28.0582 74.2039 28.244C74.2094 28.4755 74.2122 28.7077 74.2122 28.9406C74.2122 29.0649 74.2114 29.1894 74.2098 29.314C74.2074 29.4983 74.0572 29.6461 73.8734 29.6461ZM73.7746 26.8725C73.6016 26.8725 73.4545 26.7399 73.4397 26.5643C73.4107 26.2186 73.3747 25.8688 73.3329 25.5245C73.3105 25.3401 73.4419 25.1724 73.6263 25.15C73.8108 25.1276 73.9784 25.259 74.0008 25.4435C74.0436 25.796 74.0804 26.1541 74.1102 26.5079C74.1257 26.693 73.9882 26.8557 73.8031 26.8713C73.7936 26.8721 73.784 26.8725 73.7746 26.8725Z" fill="url(#paint7_linear_498_385)"/>
<path d="M28.271 52.3715C28.2017 52.3715 28.1318 52.3501 28.0717 52.3059C27.9256 52.1981 27.7805 52.0892 27.6366 51.9788C27.4892 51.8658 27.4613 51.6547 27.5743 51.5072C27.6873 51.3598 27.8986 51.3317 28.046 51.4449C28.1866 51.5527 28.3282 51.6591 28.4709 51.7642C28.6204 51.8745 28.6523 52.0851 28.5421 52.2346C28.4762 52.3241 28.3743 52.3715 28.271 52.3715Z" fill="url(#paint8_linear_498_385)"/>
</g>
<path d="M29.7804 44.6147C29.8731 44.7283 30.0277 44.7706 30.1653 44.7199L34.0908 43.2763C35.6383 44.4681 37.3871 45.4218 39.2881 46.0751L40.2455 50.1439C40.279 50.2866 40.3995 50.3923 40.5454 50.4071L45.5368 50.9127C45.6827 50.9275 45.8218 50.848 45.8833 50.7151L47.6373 46.9209C49.6307 46.662 51.5351 46.0785 53.2901 45.2212L56.8465 47.4227C56.9712 47.4998 57.131 47.4894 57.2446 47.3968L61.1317 44.2248C61.2453 44.1321 61.2876 43.9775 61.2369 43.84L59.7933 39.9145C60.9852 38.367 61.9388 36.6182 62.5922 34.7172L66.661 33.7598C66.8037 33.7262 66.9094 33.6058 66.9242 33.4599L67.4298 28.4684C67.4446 28.3226 67.3652 28.1834 67.2321 28.1219L63.438 26.368C63.1791 24.3746 62.5956 22.4701 61.7383 20.7151L63.9398 17.1587C64.0169 17.0341 64.0065 16.8742 63.9138 16.7606L60.7419 12.8736C60.6492 12.76 60.4946 12.7178 60.357 12.7684L56.4315 14.212C54.884 13.0201 53.1352 12.0665 51.2342 11.4131L50.2768 7.34429C50.2432 7.20157 50.1228 7.0959 49.977 7.08106L44.9855 6.57547C44.8397 6.56063 44.7005 6.64009 44.639 6.77318L42.885 10.5673C40.8916 10.8261 38.9872 11.4097 37.2321 12.2671L33.6758 10.0656C33.5512 9.98838 33.3912 9.99886 33.2777 10.0915L29.3907 13.2635C29.2772 13.3562 29.2348 13.5107 29.2854 13.6484L30.729 17.5739C29.5372 19.1214 28.5835 20.8702 27.9302 22.7712L23.8613 23.7286C23.7187 23.7621 23.6129 23.8826 23.5982 24.0285L23.0926 29.0199C23.0778 29.1657 23.1572 29.3049 23.2902 29.3664L27.0844 31.1204C27.3433 33.1137 27.9269 35.0181 28.7841 36.7732L26.5827 40.3296C26.5055 40.4543 26.516 40.6141 26.6086 40.7278L29.7804 44.6147Z" fill="url(#paint9_linear_498_385)"/>
<path d="M45.251 33.469C44.2436 33.469 43.2667 33.1476 42.4434 32.5358C41.4306 31.7831 40.7714 30.6812 40.5876 29.4328C40.4036 28.1846 40.7167 26.9393 41.4693 25.9265C42.2219 24.9137 43.3238 24.2547 44.5722 24.0707C45.8207 23.8868 47.0658 24.1998 48.0786 24.9525C49.0914 25.7051 49.7505 26.807 49.9344 28.0554C50.3141 30.6323 48.5266 33.0378 45.9497 33.4176C45.7162 33.452 45.4828 33.469 45.251 33.469ZM45.2698 24.5576C45.0643 24.5576 44.8576 24.5727 44.6507 24.6032C43.5446 24.7662 42.5682 25.3502 41.9013 26.2475C41.2345 27.145 40.957 28.2483 41.12 29.3544C41.283 30.4605 41.867 31.4368 42.7644 32.1037C43.6617 32.7706 44.7652 33.048 45.8712 32.8851C48.1545 32.5485 49.7383 30.4172 49.4019 28.1338C49.2388 27.0278 48.6549 26.0514 47.7575 25.3845C47.0281 24.8424 46.1623 24.5576 45.2698 24.5576Z" fill="url(#paint10_linear_498_385)"/>
<path d="M45.3467 40.9111C44.9355 40.9111 44.5215 40.8904 44.1039 40.8481C43.2348 40.7601 42.3767 40.5802 41.5533 40.3134C41.4964 40.295 41.4602 40.2422 41.4601 40.1855C41.4601 40.1717 41.4623 40.1577 41.4667 40.1439C41.4896 40.0733 41.5655 40.0343 41.6362 40.0574C42.4415 40.3182 43.2808 40.4942 44.1309 40.5803C50.6997 41.2453 56.5824 36.4439 57.2477 29.8765C57.2891 29.4676 57.3094 29.0615 57.3093 28.659C57.3082 22.5967 52.7024 17.3836 46.5439 16.7598C39.9753 16.0949 34.0924 20.8962 33.4271 27.4635C33.3861 27.8684 33.3658 28.2738 33.3659 28.6781C33.3663 30.4303 33.75 32.1629 34.4956 33.7502C34.5043 33.7688 34.5084 33.7883 34.5083 33.8075C34.5083 33.858 34.4798 33.9064 34.431 33.9293C34.3637 33.9608 34.2836 33.932 34.2519 33.8647C33.4895 32.2416 33.0971 30.4699 33.0967 28.6783C33.0965 28.2649 33.1173 27.8504 33.1592 27.4365C33.8396 20.7215 39.8563 15.8126 46.5709 16.492C52.8679 17.1299 57.5773 22.4603 57.5784 28.6588C57.5784 29.0703 57.5577 29.4856 57.5154 29.9037C56.8776 36.2011 51.5457 40.9111 45.3467 40.9111Z" fill="url(#paint11_linear_498_385)"/>
<g opacity="0.64">
<path d="M65.7986 60.8802C65.7108 60.8802 65.6298 60.8228 65.6038 60.7342C65.5556 60.5702 65.5099 60.4052 65.4666 60.2393C65.4383 60.1307 65.5034 60.0198 65.6118 59.9914C65.7202 59.963 65.8313 60.0282 65.8597 60.1367C65.9018 60.2986 65.9465 60.4597 65.9936 60.6198C66.0252 60.7273 65.9635 60.8402 65.8559 60.8718C65.8369 60.8775 65.8175 60.8802 65.7986 60.8802Z" fill="url(#paint12_linear_498_385)"/>
<path d="M65.4407 59.4231C65.3458 59.4231 65.2609 59.3563 65.2417 59.2596C65.1767 58.9327 65.1205 58.5991 65.0748 58.268C65.0594 58.1569 65.137 58.0544 65.2482 58.039C65.3577 58.0241 65.4617 58.1012 65.4772 58.2124C65.5218 58.5356 65.5767 58.8613 65.6401 59.1803C65.6619 59.2904 65.5905 59.3973 65.4806 59.4192C65.4671 59.4218 65.4538 59.4231 65.4407 59.4231ZM65.1687 57.4556C65.0637 57.4556 64.9748 57.3748 64.9664 57.2683C64.9403 56.9358 64.9237 56.5981 64.917 56.2643C64.9148 56.1521 65.0039 56.0594 65.116 56.0571C65.2294 56.0579 65.3209 56.144 65.3232 56.2561C65.3297 56.5821 65.3459 56.9119 65.3714 57.2366C65.3801 57.3483 65.2966 57.4461 65.1848 57.455C65.1794 57.4554 65.1741 57.4556 65.1687 57.4556ZM65.1294 55.4697C65.1268 55.4697 65.1242 55.4697 65.1216 55.4696C65.0095 55.4654 64.9221 55.3711 64.9263 55.2589C64.9331 55.0792 64.9427 54.899 64.9553 54.7184C64.966 54.5637 64.9788 54.4096 64.9934 54.2561C65.004 54.1445 65.1017 54.0629 65.2149 54.0732C65.3266 54.084 65.4084 54.1831 65.3978 54.2948C65.3834 54.4447 65.371 54.5953 65.3605 54.7465C65.3484 54.9228 65.339 55.0988 65.3323 55.2744C65.3281 55.3837 65.238 55.4697 65.1294 55.4697ZM65.3192 53.4931C65.3087 53.4931 65.2984 53.4923 65.2877 53.4907C65.1769 53.4736 65.101 53.3698 65.1181 53.2589C65.1693 52.9288 65.2308 52.5963 65.3009 52.2707C65.3245 52.1609 65.4323 52.0915 65.5422 52.1149C65.6519 52.1385 65.7216 52.2465 65.698 52.3561C65.6295 52.674 65.5695 52.9986 65.5196 53.3212C65.504 53.4214 65.4176 53.4931 65.3192 53.4931ZM65.737 51.5521C65.719 51.5521 65.7007 51.5496 65.6825 51.5446C65.5745 51.5146 65.5112 51.4027 65.5412 51.2946C65.6304 50.9734 65.7305 50.6503 65.8385 50.3344C65.8748 50.2282 65.9907 50.1718 66.0965 50.208C66.2026 50.2444 66.2592 50.3598 66.2229 50.466C66.1173 50.7744 66.0196 51.0897 65.9326 51.4033C65.9077 51.493 65.8259 51.5521 65.737 51.5521ZM66.3799 49.6734C66.3543 49.6734 66.3282 49.6684 66.3029 49.6581C66.1992 49.6155 66.1495 49.4969 66.192 49.3931C66.3189 49.0836 66.4565 48.7741 66.6012 48.4731C66.65 48.372 66.7716 48.3298 66.8722 48.378C66.9734 48.4266 67.0159 48.548 66.9673 48.6491C66.8261 48.9428 66.6917 49.245 66.5678 49.5472C66.5357 49.6258 66.4599 49.6734 66.3799 49.6734ZM67.2412 47.8809C67.2078 47.8809 67.1739 47.8726 67.1427 47.8553C67.0447 47.8009 67.0093 47.6772 67.0639 47.5791C67.2259 47.2876 67.399 46.9965 67.5782 46.7141C67.6382 46.6194 67.7639 46.5915 67.8586 46.6516C67.9533 46.7118 67.9813 46.8372 67.9211 46.932C67.746 47.2077 67.577 47.4918 67.4189 47.7765C67.3818 47.8432 67.3125 47.8809 67.2412 47.8809ZM68.3069 46.2029C68.2658 46.2029 68.2243 46.1906 68.1884 46.1645C68.0974 46.099 68.0767 45.972 68.1424 45.8811C68.3379 45.6098 68.5437 45.3411 68.7543 45.0826C68.8253 44.9957 68.9532 44.9827 69.04 45.0534C69.127 45.1241 69.1401 45.2521 69.0692 45.339C68.8638 45.5914 68.6627 45.8537 68.4719 46.1185C68.4322 46.1737 68.37 46.2029 68.3069 46.2029ZM69.5612 44.6619C69.5122 44.6619 69.4631 44.6442 69.4241 44.6085C69.3414 44.5328 69.3358 44.4043 69.4116 44.3216C69.637 44.0755 69.8727 43.8327 70.1121 43.6003C70.1925 43.522 70.3212 43.5242 70.3993 43.6045C70.4774 43.685 70.4755 43.8135 70.3951 43.8916C70.1614 44.1186 69.9312 44.3556 69.7111 44.5959C69.671 44.6396 69.6162 44.6619 69.5612 44.6619ZM70.986 43.2777C70.929 43.2777 70.8724 43.2539 70.8322 43.2074C70.7589 43.1225 70.7682 42.9943 70.8531 42.9209C71.1057 42.7027 71.3678 42.4891 71.6324 42.2861C71.7214 42.218 71.8489 42.2347 71.9172 42.3236C71.9854 42.4127 71.9687 42.5401 71.8797 42.6085C71.6213 42.8066 71.3654 43.0152 71.1187 43.2283C71.0803 43.2615 71.0329 43.2777 70.986 43.2777ZM72.5613 42.0692C72.4963 42.0692 72.4323 42.0381 72.3931 41.9802C72.3301 41.8873 72.3543 41.761 72.4471 41.698C72.7239 41.5102 73.0091 41.3286 73.2947 41.1584C73.3911 41.101 73.5159 41.1324 73.5732 41.2288C73.6306 41.3252 73.599 41.4499 73.5027 41.5073C73.2239 41.6735 72.9454 41.8508 72.6752 42.0342C72.6403 42.0579 72.6006 42.0692 72.5613 42.0692ZM90.4607 41.3683C90.4265 41.3683 90.392 41.3596 90.3602 41.3416C90.0782 41.1806 89.7868 41.0255 89.4937 40.8807C89.3932 40.8309 89.352 40.7091 89.4017 40.6086C89.4513 40.5081 89.5729 40.4667 89.6738 40.5165C89.9739 40.665 90.2726 40.8239 90.5615 40.9888C90.659 41.0444 90.6928 41.1685 90.6373 41.2658C90.5998 41.3315 90.5312 41.3683 90.4607 41.3683ZM74.2658 41.0525C74.1925 41.0525 74.1216 41.0126 74.0854 40.943C74.0337 40.8436 74.0724 40.7209 74.172 40.6692C74.4678 40.5155 74.7721 40.3685 75.0762 40.2324C75.1786 40.1863 75.2987 40.2324 75.3445 40.3348C75.3904 40.4372 75.3445 40.5573 75.2422 40.6031C74.9451 40.7361 74.6481 40.8796 74.3592 41.0296C74.3294 41.0452 74.2974 41.0525 74.2658 41.0525ZM88.6804 40.488C88.654 40.488 88.6272 40.4827 88.6013 40.4718C88.3016 40.345 87.9938 40.2253 87.6864 40.1162C87.5808 40.0786 87.5255 39.9625 87.563 39.8567C87.6005 39.7509 87.7168 39.6958 87.8225 39.7334C88.1372 39.8453 88.4526 39.9678 88.7596 40.0977C88.8629 40.1413 88.9112 40.2605 88.8675 40.3639C88.8348 40.4413 88.7595 40.488 88.6804 40.488ZM76.0764 40.2424C75.9945 40.2424 75.9172 40.1923 75.8865 40.1111C75.8467 40.0062 75.8996 39.889 76.0045 39.8493C76.3163 39.7312 76.6355 39.621 76.9532 39.5216C77.0597 39.4887 77.1742 39.5479 77.2077 39.6549C77.2411 39.762 77.1815 39.8759 77.0744 39.9094C76.7642 40.0063 76.4527 40.1138 76.1483 40.2291C76.1246 40.2381 76.1003 40.2424 76.0764 40.2424ZM86.8089 39.8233C86.7902 39.8233 86.7711 39.8206 86.7522 39.8152C86.4403 39.7247 86.1206 39.642 85.8018 39.5697C85.6925 39.5448 85.6238 39.4361 85.6488 39.3267C85.6737 39.2172 85.7828 39.1484 85.8917 39.1736C86.2183 39.2477 86.5458 39.3324 86.8655 39.4251C86.9731 39.4564 87.0351 39.5691 87.0039 39.6768C86.9781 39.7655 86.8969 39.8233 86.8089 39.8233ZM77.9699 39.6503C77.8789 39.6503 77.7961 39.5886 77.773 39.4963C77.7459 39.3874 77.8122 39.2772 77.921 39.2501C78.2455 39.1693 78.5759 39.0973 78.9033 39.0361C79.0138 39.0153 79.1196 39.0882 79.1402 39.1985C79.1608 39.3087 79.0881 39.4148 78.9779 39.4354C78.6585 39.4952 78.3359 39.5654 78.0192 39.6442C78.0027 39.6484 77.9861 39.6503 77.9699 39.6503ZM84.872 39.3831C84.861 39.3831 84.8498 39.3822 84.8386 39.3803C84.5169 39.327 84.1896 39.2822 83.8656 39.2475C83.7541 39.2357 83.6734 39.1356 83.6854 39.024C83.6972 38.9125 83.7957 38.8305 83.9089 38.8437C84.2406 38.8792 84.5758 38.9249 84.905 38.9797C85.0157 38.998 85.0906 39.1026 85.0721 39.2132C85.0557 39.3127 84.9696 39.3831 84.872 39.3831ZM79.9215 39.285C79.8208 39.285 79.7333 39.21 79.7203 39.1075C79.7062 38.9961 79.785 38.8946 79.8963 38.8804C80.2272 38.8385 80.5639 38.8059 80.8969 38.7836C81.0069 38.773 81.1056 38.8606 81.1131 38.9726C81.1206 39.0844 81.036 39.1813 80.924 39.1888C80.5991 39.2107 80.2704 39.2425 79.9474 39.2835C79.9387 39.2845 79.9301 39.285 79.9215 39.285ZM82.8966 39.1715C82.8932 39.1715 82.8898 39.1714 82.8863 39.1713C82.6103 39.1576 82.3304 39.1508 82.0541 39.1508L81.9046 39.1514C81.7868 39.1488 81.7008 39.0621 81.6999 38.9499C81.699 38.8377 81.7892 38.7461 81.9014 38.7452L82.0542 38.7446C82.3371 38.7446 82.6238 38.7517 82.9064 38.7655C83.0184 38.7711 83.1048 38.8664 83.0993 38.9784C83.0939 39.087 83.0041 39.1715 82.8966 39.1715Z" fill="url(#paint13_linear_498_385)"/>
<path d="M91.7404 42.1757C91.7004 42.1757 91.66 42.1639 91.6246 42.1393C91.4875 42.044 91.349 41.9506 91.2089 41.8593C91.115 41.798 91.0884 41.6722 91.1496 41.5783C91.2109 41.4842 91.3369 41.4578 91.4307 41.519C91.5742 41.6125 91.7162 41.7082 91.8565 41.8059C91.9486 41.8698 91.9713 41.9964 91.9073 42.0885C91.8678 42.1453 91.8047 42.1757 91.7404 42.1757Z" fill="url(#paint14_linear_498_385)"/>
</g>
<g opacity="0.64">
<path d="M98.7828 53.2217C98.6857 53.2217 98.5998 53.1519 98.5829 53.053C98.5544 52.888 98.5237 52.7237 98.4904 52.5601C98.4681 52.4502 98.5391 52.3429 98.649 52.3206C98.7594 52.2981 98.8662 52.3693 98.8885 52.4792C98.9225 52.6467 98.9541 52.8149 98.9831 52.9841C99.0021 53.0946 98.928 53.1996 98.8174 53.2187C98.8058 53.2208 98.7942 53.2217 98.7828 53.2217Z" fill="url(#paint15_linear_498_385)"/>
<path d="M81.7967 73.0576C81.7955 73.0576 81.7943 73.0576 81.7931 73.0576C81.4921 73.0525 81.1872 73.0393 80.8872 73.0185L80.7539 73.0088C80.6421 73.0001 80.5584 72.9025 80.567 72.7907C80.5755 72.6789 80.6742 72.5941 80.7851 72.6038L80.9155 72.6133C81.2083 72.6337 81.506 72.6465 81.8 72.6515C81.9122 72.6535 82.0015 72.7459 81.9996 72.8581C81.9978 72.969 81.9072 73.0576 81.7967 73.0576ZM82.824 73.0443C82.7159 73.0443 82.6259 72.959 82.6213 72.8499C82.6164 72.7378 82.7034 72.6431 82.8155 72.6382C83.1518 72.6236 83.4925 72.5986 83.8279 72.5636C83.9407 72.5525 84.0394 72.6331 84.051 72.7446C84.0625 72.8561 83.9815 72.956 83.87 72.9676C83.5265 73.0034 83.1775 73.0291 82.8329 73.044C82.8299 73.0442 82.827 73.0443 82.824 73.0443ZM79.7474 72.9001C79.7381 72.9001 79.7288 72.8995 79.7194 72.8982C79.3762 72.8511 79.031 72.793 78.6934 72.7255C78.5834 72.7036 78.512 72.5966 78.534 72.4866C78.5559 72.3766 78.663 72.3052 78.7729 72.3273C79.1025 72.393 79.4395 72.4497 79.7747 72.4958C79.8858 72.511 79.9636 72.6135 79.9483 72.7246C79.9343 72.8264 79.8472 72.9001 79.7474 72.9001ZM84.8671 72.8313C84.7695 72.8313 84.6835 72.7608 84.667 72.6615C84.6486 72.5508 84.7234 72.4462 84.8341 72.4278C85.167 72.3724 85.5021 72.3062 85.8298 72.2308C85.9397 72.2063 86.0482 72.2739 86.0733 72.3832C86.0983 72.4926 86.0301 72.6016 85.9208 72.6267C85.585 72.7038 85.2417 72.7718 84.9007 72.8285C84.8893 72.8304 84.8782 72.8313 84.8671 72.8313ZM77.7318 72.4979C77.7147 72.4979 77.6973 72.4957 77.6799 72.4911C77.3449 72.4028 77.0093 72.3033 76.6824 72.1954C76.5759 72.1602 76.5181 72.0454 76.5532 71.9388C76.5884 71.8322 76.7033 71.7746 76.8098 71.8096C77.1288 71.915 77.4564 72.0121 77.7834 72.0984C77.8919 72.127 77.9567 72.238 77.928 72.3465C77.904 72.4377 77.8218 72.4979 77.7318 72.4979ZM86.8692 72.3713C86.7816 72.3713 86.7007 72.314 86.6745 72.2256C86.6428 72.118 86.7042 72.0051 86.8118 71.9733C87.1342 71.8781 87.4582 71.7717 87.7748 71.6569C87.8802 71.6188 87.9967 71.6731 88.0349 71.7785C88.0732 71.8839 88.0187 72.0004 87.9133 72.0386C87.589 72.1562 87.2571 72.2653 86.9269 72.3628C86.9077 72.3685 86.8883 72.3713 86.8692 72.3713ZM75.78 71.8541C75.755 71.8541 75.7296 71.8494 75.7049 71.8395C75.385 71.7119 75.064 71.5722 74.7509 71.4245C74.6494 71.3767 74.606 71.2556 74.6539 71.1542C74.7016 71.0527 74.8228 71.0093 74.9242 71.0572C75.2299 71.2013 75.5432 71.3377 75.8554 71.4623C75.9596 71.5038 76.0103 71.622 75.9687 71.7261C75.937 71.8057 75.8608 71.8541 75.78 71.8541ZM88.7981 71.672C88.7195 71.672 88.6448 71.6261 88.6116 71.5495C88.567 71.4465 88.6143 71.327 88.7173 71.2824C89.0264 71.1484 89.3353 71.0034 89.6353 70.8512C89.7354 70.8002 89.8575 70.8405 89.9083 70.9403C89.959 71.0404 89.9191 71.1626 89.8191 71.2133C89.5117 71.3693 89.1953 71.5179 88.8787 71.655C88.8524 71.6665 88.8251 71.672 88.7981 71.672ZM73.9216 70.977C73.8885 70.977 73.855 70.969 73.8241 70.9519C73.5209 70.7855 73.2193 70.6078 72.9278 70.4238C72.8329 70.3639 72.8045 70.2385 72.8644 70.1436C72.9244 70.0488 73.0498 70.0205 73.1446 70.0803C73.4293 70.26 73.7236 70.4334 74.0195 70.5959C74.1179 70.6498 74.1538 70.7733 74.0998 70.8716C74.0629 70.9389 73.9933 70.977 73.9216 70.977ZM90.6287 70.7433C90.559 70.7433 90.4911 70.7074 90.4533 70.6429C90.3965 70.5462 90.4291 70.4217 90.5259 70.365C90.8167 70.1945 91.1061 70.0131 91.3857 69.8258C91.4786 69.7633 91.6048 69.7881 91.6674 69.8815C91.7299 69.9747 91.705 70.1008 91.6118 70.1632C91.3254 70.3551 91.0291 70.5408 90.7312 70.7155C90.699 70.7344 90.6636 70.7433 90.6287 70.7433ZM92.3349 69.6002C92.2736 69.6002 92.213 69.5726 92.173 69.5201C92.1051 69.4308 92.1224 69.3034 92.2116 69.2354C92.4797 69.0315 92.745 68.8165 93.0005 68.5964C93.0856 68.5231 93.2138 68.5328 93.287 68.6177C93.3602 68.7027 93.3507 68.831 93.2657 68.9042C93.004 69.1295 92.7322 69.3497 92.4576 69.5587C92.4209 69.5867 92.3777 69.6002 92.3349 69.6002ZM93.8915 68.2597C93.8385 68.2597 93.7857 68.2391 93.7458 68.1981C93.6677 68.1177 93.6696 67.989 93.75 67.9109C93.9913 67.6764 94.229 67.4309 94.4566 67.1814C94.5322 67.0987 94.6606 67.0927 94.7435 67.1683C94.8264 67.2438 94.8323 67.3722 94.7567 67.4551C94.5237 67.7107 94.2802 67.962 94.0329 68.2023C93.9935 68.2405 93.9425 68.2597 93.8915 68.2597ZM95.2761 66.7412C95.2312 66.7412 95.1862 66.7264 95.1486 66.6962C95.0614 66.6258 95.0477 66.4978 95.1181 66.4106C95.3296 66.1485 95.5361 65.8761 95.7319 65.6009C95.797 65.5094 95.9237 65.488 96.0151 65.553C96.1065 65.618 96.1278 65.7449 96.0629 65.8363C95.8624 66.1181 95.6508 66.3971 95.4343 66.6656C95.3941 66.7154 95.3354 66.7412 95.2761 66.7412ZM96.4677 65.0659C96.431 65.0659 96.3939 65.056 96.3605 65.0352C96.2653 64.9759 96.2362 64.8505 96.2955 64.7554C96.4743 64.4687 96.6463 64.173 96.8067 63.8769C96.8602 63.7784 96.9832 63.7416 97.0821 63.7951C97.1807 63.8485 97.2173 63.9718 97.1639 64.0705C96.9995 64.3739 96.8233 64.6765 96.6402 64.9702C96.6017 65.0321 96.5355 65.0659 96.4677 65.0659ZM97.4477 63.2576C97.419 63.2576 97.3899 63.2516 97.3622 63.2387C97.2605 63.1914 97.2164 63.0706 97.2637 62.9688C97.406 62.663 97.5408 62.3486 97.6643 62.0341C97.7054 61.9297 97.8231 61.8782 97.9276 61.9194C98.032 61.9605 98.0834 62.0784 98.0423 62.1827C97.9158 62.5047 97.7776 62.8268 97.632 63.1402C97.5976 63.2142 97.5243 63.2576 97.4477 63.2576ZM98.1997 61.3442C98.1789 61.3442 98.1578 61.341 98.137 61.3342C98.0303 61.2996 97.9719 61.1851 98.0065 61.0784C98.1102 60.7583 98.2055 60.4304 98.2898 60.1036C98.3178 59.995 98.4289 59.9295 98.5371 59.9577C98.6457 59.9856 98.7111 60.0964 98.6831 60.205C98.5968 60.5398 98.4991 60.8758 98.3928 61.2037C98.365 61.2896 98.2853 61.3442 98.1997 61.3442ZM98.7129 59.3552C98.7001 59.3552 98.6872 59.354 98.674 59.3515C98.564 59.3301 98.492 59.2235 98.5133 59.1134C98.5773 58.7834 98.6323 58.4462 98.6765 58.1114C98.6912 58.0002 98.7945 57.9221 98.9044 57.9366C99.0156 57.9513 99.0938 58.0533 99.0791 58.1645C99.0339 58.5074 98.9777 58.8526 98.9121 59.1907C98.8933 59.2878 98.8083 59.3552 98.7129 59.3552ZM98.9819 57.3188C98.9767 57.3188 98.9717 57.3186 98.9664 57.3182C98.8545 57.3098 98.7708 57.2123 98.7792 57.1005L98.7822 57.0584C98.8046 56.7365 98.8178 56.4095 98.8216 56.0865C98.8229 55.9751 98.9136 55.8858 99.0246 55.8858C99.0255 55.8858 99.0263 55.8858 99.0271 55.8858C99.1393 55.8872 99.2291 55.9791 99.2278 56.0912C99.2239 56.4222 99.2103 56.7569 99.1874 57.0864L99.1842 57.131C99.1762 57.2376 99.0871 57.3188 98.9819 57.3188ZM99.0058 55.264C98.8981 55.264 98.8083 55.1794 98.8031 55.0706C98.7869 54.7344 98.76 54.3938 98.7232 54.0584C98.711 53.9469 98.7914 53.8466 98.903 53.8344C99.0116 53.8221 99.1147 53.9026 99.127 54.0142C99.1647 54.3577 99.1922 54.7066 99.2088 55.0512C99.2142 55.1632 99.1277 55.2584 99.0156 55.2638C99.0124 55.264 99.0092 55.264 99.0058 55.264Z" fill="url(#paint16_linear_498_385)"/>
<path d="M72.1752 69.8744C72.1341 69.8744 72.0927 69.862 72.0567 69.8361C71.9177 69.736 71.7803 69.6339 71.6445 69.5298C71.5555 69.4616 71.5386 69.3342 71.6069 69.2451C71.6752 69.1562 71.8028 69.1394 71.8916 69.2075C72.0242 69.3091 72.1583 69.4087 72.2941 69.5064C72.385 69.572 72.4058 69.6989 72.3402 69.7898C72.3005 69.845 72.2383 69.8744 72.1752 69.8744Z" fill="url(#paint17_linear_498_385)"/>
</g>
<path d="M72.9162 65.1661C72.9711 65.2334 73.0626 65.2584 73.1441 65.2284L75.4685 64.3736C76.3849 65.0793 77.4203 65.6441 78.5459 66.0309L79.1129 68.4401C79.1327 68.5247 79.2041 68.5872 79.2904 68.5959L82.246 68.8954C82.3324 68.9041 82.4148 68.8571 82.4512 68.7783L83.4898 66.5317C84.6701 66.3783 85.7977 66.0329 86.837 65.5252L88.9428 66.8288C89.0166 66.8744 89.1113 66.8683 89.1786 66.8134L91.4802 64.9352C91.5475 64.8803 91.5725 64.7888 91.5425 64.7074L90.6877 62.3829C91.3934 61.4666 91.9582 60.4311 92.345 59.3055L94.7543 58.7386C94.8388 58.7187 94.9013 58.6474 94.9101 58.5611L95.2095 55.6055C95.2183 55.5191 95.1713 55.4367 95.0925 55.4003L92.8458 54.3618C92.6926 53.1814 92.347 52.0538 91.8394 51.0145L93.143 48.9086C93.1886 48.8349 93.1824 48.7402 93.1276 48.6729L91.2494 46.3714C91.1945 46.304 91.1029 46.2791 91.0215 46.3091L88.6971 47.1638C87.7808 46.4581 86.7453 45.8934 85.6196 45.5066L85.0527 43.0973C85.0328 43.0128 84.9615 42.9502 84.8751 42.9415L81.9196 42.6421C81.8332 42.6333 81.7508 42.6803 81.7144 42.7591L80.6758 45.0058C79.4955 45.159 78.3678 45.5046 77.3286 46.0122L75.2228 44.7087C75.149 44.663 75.0543 44.6692 74.9871 44.7241L72.6855 46.6023C72.6183 46.6571 72.5932 46.7486 72.6231 46.8301L73.4779 49.1546C72.7722 50.0709 72.2075 51.1064 71.8206 52.232L69.4113 52.7989C69.3269 52.8188 69.2643 52.8901 69.2555 52.9765L68.9561 55.932C68.9474 56.0184 68.9944 56.1008 69.0732 56.1372L71.3197 57.1758C71.473 58.3561 71.8186 59.4838 72.3262 60.523L71.0227 62.6288C70.977 62.7026 70.9831 62.7972 71.038 62.8646L72.9162 65.1661Z" fill="url(#paint18_linear_498_385)"/>
<path d="M82.0762 58.6102C81.4703 58.6102 80.8829 58.4169 80.3877 58.049C79.7787 57.5964 79.3824 56.9336 79.2717 56.1829C79.161 55.4322 79.3493 54.6833 79.8019 54.0742C80.2545 53.4652 80.9173 53.0688 81.668 52.9581C82.4188 52.8475 83.1676 53.0358 83.7767 53.4884C84.3857 53.941 84.7821 54.6037 84.8928 55.3545C85.0035 56.1052 84.8151 56.8541 84.3625 57.4632C83.9099 58.0722 83.2472 58.4685 82.4965 58.5792C82.3559 58.5999 82.2156 58.6102 82.0762 58.6102ZM82.0874 53.3335C81.9679 53.3335 81.8477 53.3422 81.7273 53.36C81.0839 53.4547 80.5159 53.7945 80.128 54.3164C79.7401 54.8385 79.5787 55.4803 79.6735 56.1236C79.7683 56.767 80.1081 57.3351 80.63 57.7229C81.152 58.1109 81.7938 58.2723 82.4372 58.1774C83.0805 58.0826 83.6486 57.7428 84.0364 57.2209C84.4244 56.6989 84.5857 56.0571 84.4909 55.4138C84.3961 54.7704 84.0563 54.2023 83.5344 53.8145C83.1101 53.4991 82.6065 53.3335 82.0874 53.3335Z" fill="url(#paint19_linear_498_385)"/>
<path d="M82.1332 63.0965C81.8857 63.0965 81.6364 63.084 81.3849 63.0586C81.2256 63.0425 81.0669 63.0211 80.9092 62.9949C80.6032 62.9438 80.301 62.8738 80.0056 62.7853C79.9987 62.7832 79.9918 62.7812 79.9849 62.7791C79.9395 62.7654 79.8942 62.7512 79.849 62.7365C79.7632 62.7087 79.7085 62.6291 79.7084 62.5435C79.7084 62.5227 79.7117 62.5016 79.7185 62.4808C79.7531 62.3741 79.8674 62.3158 79.9742 62.3502C80.4428 62.5019 80.9312 62.6042 81.4259 62.6544C81.4651 62.6584 81.5044 62.662 81.5435 62.6654C81.5444 62.6654 81.5449 62.6655 81.5463 62.6656C82.7233 62.7651 83.8832 62.568 84.9382 62.1011C84.939 62.1008 84.9398 62.1004 84.9407 62.1C84.9461 62.0976 84.9518 62.0951 84.9572 62.0927C85.4756 61.8614 85.9682 61.5649 86.4254 61.206C86.4401 61.1945 86.4545 61.1831 86.469 61.1715C86.4757 61.1662 86.4824 61.1609 86.489 61.1555C86.5031 61.1441 86.5173 61.1327 86.5314 61.1212C87.9728 59.945 88.8699 58.2778 89.0573 56.4269C89.0816 56.1873 89.0936 55.9485 89.0936 55.711C89.0934 54.1129 88.5482 52.5762 87.5241 51.3212C86.3479 49.8798 84.6807 48.9827 82.8298 48.7953C79.0079 48.4081 75.5852 51.2021 75.1982 55.0229C75.1743 55.2586 75.1625 55.4944 75.1625 55.7296C75.1627 56.749 75.386 57.7571 75.8198 58.6805C75.8329 58.7085 75.8392 58.738 75.8391 58.7669C75.8391 58.8432 75.7959 58.9162 75.7224 58.9508C75.6209 58.9984 75.4998 58.9549 75.4521 58.8533C74.9929 57.8757 74.7565 56.8086 74.7563 55.7299C74.7562 55.4808 74.7688 55.2312 74.794 54.9821C74.9925 53.0231 75.9419 51.2587 77.4674 50.0138C78.993 48.7691 80.913 48.1934 82.8707 48.3911C84.8297 48.5895 86.594 49.539 87.8388 51.0645C88.9227 52.3926 89.4996 54.019 89.4998 55.7102C89.4999 55.9616 89.4872 56.2144 89.4615 56.4678C89.0773 60.26 85.8665 63.0965 82.1332 63.0965Z" fill="url(#paint20_linear_498_385)"/>
<defs>
<linearGradient id="paint0_linear_498_385" x1="123.173" y1="131.003" x2="14.0062" y2="22.1798" gradientUnits="userSpaceOnUse">
<stop stop-color="#09005D"/>
<stop offset="1" stop-color="#1A0F91"/>
</linearGradient>
<linearGradient id="paint1_linear_498_385" x1="13.6631" y1="115.435" x2="156.227" y2="29.6902" gradientUnits="userSpaceOnUse">
<stop stop-color="#4F52FF"/>
<stop offset="1" stop-color="#4042E2"/>
</linearGradient>
<linearGradient id="paint2_linear_498_385" x1="81.6476" y1="84.7563" x2="48.9671" y2="-31.7463" gradientUnits="userSpaceOnUse">
<stop stop-color="#09005D"/>
<stop offset="1" stop-color="#1A0F91"/>
</linearGradient>
<linearGradient id="paint3_linear_498_385" x1="5.37458" y1="19.8" x2="63.5742" y2="100.04" gradientUnits="userSpaceOnUse">
<stop stop-color="#FF928E"/>
<stop offset="1" stop-color="#FE7062"/>
</linearGradient>
<linearGradient id="paint4_linear_498_385" x1="27.1645" y1="3.99581" x2="85.3642" y2="84.2356" gradientUnits="userSpaceOnUse">
<stop stop-color="#FF928E"/>
<stop offset="1" stop-color="#FE7062"/>
</linearGradient>
<linearGradient id="paint5_linear_498_385" x1="48.9472" y1="-11.804" x2="107.147" y2="68.4356" gradientUnits="userSpaceOnUse">
<stop stop-color="#FF928E"/>
<stop offset="1" stop-color="#FE7062"/>
</linearGradient>
<linearGradient id="paint6_linear_498_385" x1="48.1526" y1="-11.2276" x2="106.352" y2="69.0122" gradientUnits="userSpaceOnUse">
<stop stop-color="#FF928E"/>
<stop offset="1" stop-color="#FE7062"/>
</linearGradient>
<linearGradient id="paint7_linear_498_385" x1="26.4729" y1="4.49752" x2="84.6725" y2="84.7372" gradientUnits="userSpaceOnUse">
<stop stop-color="#FF928E"/>
<stop offset="1" stop-color="#FE7062"/>
</linearGradient>
<linearGradient id="paint8_linear_498_385" x1="4.99341" y1="20.0765" x2="63.1933" y2="100.316" gradientUnits="userSpaceOnUse">
<stop stop-color="#FF928E"/>
<stop offset="1" stop-color="#FE7062"/>
</linearGradient>
<linearGradient id="paint9_linear_498_385" x1="-97.7621" y1="44.7089" x2="-196.272" y2="55.705" gradientUnits="userSpaceOnUse">
<stop stop-color="#FF928E"/>
<stop offset="1" stop-color="#FE7062"/>
</linearGradient>
<linearGradient id="paint10_linear_498_385" x1="48.5353" y1="12.7305" x2="60.9328" y2="-47.8799" gradientUnits="userSpaceOnUse">
<stop stop-color="#FEBBBA"/>
<stop offset="1" stop-color="#FF928E"/>
</linearGradient>
<linearGradient id="paint11_linear_498_385" x1="48.5953" y1="12.7428" x2="60.9928" y2="-47.8676" gradientUnits="userSpaceOnUse">
<stop stop-color="#FEBBBA"/>
<stop offset="1" stop-color="#FF928E"/>
</linearGradient>
<linearGradient id="paint12_linear_498_385" x1="25.6119" y1="5.12084" x2="83.8114" y2="85.361" gradientUnits="userSpaceOnUse">
<stop stop-color="#FF928E"/>
<stop offset="1" stop-color="#FE7062"/>
</linearGradient>
<linearGradient id="paint13_linear_498_385" x1="38.4864" y1="-4.21699" x2="96.6861" y2="76.0228" gradientUnits="userSpaceOnUse">
<stop stop-color="#FF928E"/>
<stop offset="1" stop-color="#FE7062"/>
</linearGradient>
<linearGradient id="paint14_linear_498_385" x1="51.3589" y1="-13.5533" x2="109.558" y2="66.6864" gradientUnits="userSpaceOnUse">
<stop stop-color="#FF928E"/>
<stop offset="1" stop-color="#FE7062"/>
</linearGradient>
<linearGradient id="paint15_linear_498_385" x1="50.8815" y1="-13.2072" x2="109.081" y2="67.0332" gradientUnits="userSpaceOnUse">
<stop stop-color="#FF928E"/>
<stop offset="1" stop-color="#FE7062"/>
</linearGradient>
<linearGradient id="paint16_linear_498_385" x1="38.0674" y1="-3.91325" x2="96.2671" y2="76.3265" gradientUnits="userSpaceOnUse">
<stop stop-color="#FF928E"/>
<stop offset="1" stop-color="#FE7062"/>
</linearGradient>
<linearGradient id="paint17_linear_498_385" x1="25.3826" y1="5.28787" x2="83.5819" y2="85.5275" gradientUnits="userSpaceOnUse">
<stop stop-color="#FF928E"/>
<stop offset="1" stop-color="#FE7062"/>
</linearGradient>
<linearGradient id="paint18_linear_498_385" x1="38.5436" y1="-4.25861" x2="96.7432" y2="75.981" gradientUnits="userSpaceOnUse">
<stop stop-color="#FF928E"/>
<stop offset="1" stop-color="#FE7062"/>
</linearGradient>
<linearGradient id="paint19_linear_498_385" x1="89.1847" y1="21.0452" x2="101.582" y2="-39.5648" gradientUnits="userSpaceOnUse">
<stop stop-color="#FEBBBA"/>
<stop offset="1" stop-color="#FF928E"/>
</linearGradient>
<linearGradient id="paint20_linear_498_385" x1="89.2196" y1="21.0524" x2="101.617" y2="-39.5579" gradientUnits="userSpaceOnUse">
<stop stop-color="#FEBBBA"/>
<stop offset="1" stop-color="#FF928E"/>
</linearGradient>
</defs>
</svg>
