<svg width="113" height="128" viewBox="0 0 113 128" fill="none" xmlns="http://www.w3.org/2000/svg">
<path d="M112.407 19.2008C78.4853 14.5754 57.9401 1.037 56.4922 0.0585515V0C56.4922 0 56.4753 0.0112606 56.4494 0.0292757C56.4235 0.0112606 56.4066 0 56.4066 0V0.0585515C54.9586 1.03587 34.4135 14.5754 0.492033 19.2008C0.492033 19.2008 -9.09879 91.1376 56.4066 127.952V128C56.4212 127.992 56.4348 127.984 56.4494 127.975C56.464 127.983 56.4775 127.991 56.4922 128V127.952C121.998 91.1365 112.407 19.2008 112.407 19.2008Z" fill="white"/>
<path d="M107.664 22.9975C76.6173 18.764 57.814 6.3729 56.4887 5.47777V5.42484C56.4887 5.42484 56.473 5.43497 56.4493 5.45186C56.4257 5.4361 56.4099 5.42484 56.4099 5.42484V5.47777C55.9032 5.82006 52.8339 7.8445 47.5093 10.4488C50.6631 12.4935 69.0363 23.708 98.2692 27.6938C98.2692 27.6938 106.194 87.1754 55.4923 121.999C55.7996 122.176 56.098 122.357 56.4099 122.531V122.576C56.4234 122.568 56.4358 122.562 56.4493 122.554C56.4628 122.562 56.4752 122.568 56.4887 122.576V122.531C116.442 88.8373 107.664 22.9975 107.664 22.9975Z" fill="#FF7F00"/>
<path d="M47.0939 10.174V10.1211C47.0939 10.1211 47.0781 10.1313 47.0545 10.1481C47.0308 10.1324 47.0151 10.1211 47.0151 10.1211V10.174C46.7144 10.3767 45.5086 11.1728 43.4751 12.328C44.94 11.6794 46.281 11.0489 47.5094 10.4488C47.3146 10.3215 47.1716 10.227 47.0939 10.174Z" fill="#FF9A00"/>
<path d="M98.2703 27.6938C69.0373 23.7079 50.6641 12.4924 47.5103 10.4488C46.283 11.0489 44.9409 11.6795 43.476 12.328C34.679 16.226 21.6743 20.7557 5.23435 22.9975C5.23435 22.9975 5.08459 24.1302 4.95849 26.1591C4.11966 39.5804 4.29869 92.5957 55.4933 122C106.194 87.1765 98.2703 27.6938 98.2703 27.6938Z" fill="#FF9A00"/>
<path d="M68.265 90.3956H44.6336C38.996 90.3956 34.4258 85.8254 34.4258 80.1877V56.2625C34.4258 50.6248 38.996 46.0546 44.6336 46.0546H68.2661C73.9038 46.0546 78.474 50.6248 78.474 56.2625V80.1877C78.474 85.8254 73.9038 90.3956 68.265 90.3956Z" fill="white"/>
<path d="M44.72 48.9416C43.9296 42.3368 46.3571 30.9264 54.1318 29.4909C64.3656 27.6015 68.0834 41.6117 67.3088 48.9416" stroke="white" stroke-width="2.2366" stroke-miterlimit="10"/>
</svg>
