<svg width="128" height="128" viewBox="0 0 128 128" fill="none" xmlns="http://www.w3.org/2000/svg">
<path d="M72.9069 119.093C103.334 114.174 124.012 85.5202 119.093 55.0931C114.174 24.666 85.5202 3.98772 55.0931 8.90685C24.666 13.826 3.98774 42.4798 8.90687 72.9068C13.826 103.334 42.4798 124.012 72.9069 119.093Z" fill="white"/>
<path d="M62.8091 51.4845L58.4853 47.1606L57.5457 48.1002L36.9611 27.5156C34.4216 24.9761 30.2888 24.9761 27.7493 27.5156C25.2099 30.0551 25.2099 34.1878 27.7493 36.7273L48.334 57.3119L47.3944 58.2516L51.7182 62.5754L55.0837 59.2099L85.2449 88.251L85.2396 88.2564L87.8258 93.7791L94.0343 96.1115L95.0033 95.1424L95.3267 94.819L96.2957 93.85L93.9634 87.6416L88.593 85.1261L59.4423 54.8513L62.8091 51.4845Z" fill="#537EB1"/>
<path d="M102.576 37.2833L92.8134 47.0457L84.4558 38.6881L94.2181 28.9257C89.5642 27.3619 84.2326 28.3817 80.5262 32.0894C76.1449 36.4707 75.4954 43.1175 78.4746 48.2299L49.3145 77.39C44.2021 74.4108 37.5566 75.0577 33.1753 79.439C29.4676 83.1466 28.4492 88.4782 30.0116 93.1322L39.774 83.3698L48.1316 91.7275L38.3692 101.49C43.0232 103.052 48.3548 102.034 52.0611 98.3261C56.4424 93.9448 57.092 87.298 54.1128 82.1856L83.2729 53.0255C88.3853 56.0048 95.0308 55.3579 99.4107 50.9765C103.118 47.2689 104.138 41.9373 102.576 37.2833Z" fill="#E1721B"/>
</svg>
