<svg width="480" height="232" viewBox="0 0 480 232" fill="none" xmlns="http://www.w3.org/2000/svg">
<g clip-path="url(#clip0_471_806)">
<rect width="480" height="232" fill="white"/>
<rect width="480" height="232" fill="white"/>
<ellipse cx="465" cy="116" rx="164" ry="116" fill="url(#paint0_linear_471_806)"/>
<path d="M399 130.935C406.17 130.935 412.555 127.58 416.673 122.354C418.508 128.246 421.479 133.638 425.33 138.273C418.315 144.471 409.097 148.232 399 148.232C388.904 148.232 379.685 144.471 372.67 138.273C376.521 133.638 379.492 128.246 381.327 122.354C385.445 127.58 391.831 130.935 399 130.935Z" fill="#F8F8F8"/>
<path d="M393.811 69C374.291 71.5427 359.216 88.2352 359.216 108.448C359.216 109.028 359.229 109.605 359.253 110.178H376.579C376.536 109.607 376.514 109.03 376.514 108.448C376.514 97.8155 383.894 88.9063 393.811 86.5637V69Z" fill="#F8F8F8"/>
<path d="M404.189 86.5637C414.106 88.9063 421.486 97.8155 421.486 108.448C421.486 109.03 421.464 109.607 421.421 110.178H438.747C438.771 109.605 438.784 109.028 438.784 108.448C438.784 88.2352 423.709 71.5427 404.189 69V86.5637Z" fill="#F8F8F8"/>
<path d="M463 130.869C462.429 130.913 461.852 130.935 461.27 130.935C449.433 130.935 439.733 121.789 438.849 110.178H421.523C422.429 131.348 439.878 148.232 461.27 148.232C461.85 148.232 462.426 148.22 463 148.195V130.869Z" fill="#F8F8F8"/>
<path d="M335 148.195C335.574 148.22 336.15 148.232 336.73 148.232C358.122 148.232 375.571 131.348 376.477 110.178H359.151C358.267 121.789 348.567 130.935 336.73 130.935C336.148 130.935 335.571 130.913 335 130.869V148.195Z" fill="#F8F8F8"/>
<path d="M48.386 49.6H51.95V65H48.386V49.6ZM41.39 65H37.826V49.6H41.39V65ZM48.65 58.686H41.126V55.672H48.65V58.686ZM60.9836 65.176C59.7222 65.176 58.6002 64.912 57.6176 64.384C56.6496 63.856 55.8796 63.1373 55.3076 62.228C54.7502 61.304 54.4716 60.2553 54.4716 59.082C54.4716 57.894 54.7502 56.8453 55.3076 55.936C55.8796 55.012 56.6496 54.2933 57.6176 53.78C58.6002 53.252 59.7222 52.988 60.9836 52.988C62.2302 52.988 63.3449 53.252 64.3276 53.78C65.3102 54.2933 66.0802 55.0047 66.6376 55.914C67.1949 56.8233 67.4736 57.8793 67.4736 59.082C67.4736 60.2553 67.1949 61.304 66.6376 62.228C66.0802 63.1373 65.3102 63.856 64.3276 64.384C63.3449 64.912 62.2302 65.176 60.9836 65.176ZM60.9836 62.36C61.5556 62.36 62.0689 62.228 62.5236 61.964C62.9782 61.7 63.3376 61.326 63.6016 60.842C63.8656 60.3433 63.9976 59.7567 63.9976 59.082C63.9976 58.3927 63.8656 57.806 63.6016 57.322C63.3376 56.838 62.9782 56.464 62.5236 56.2C62.0689 55.936 61.5556 55.804 60.9836 55.804C60.4116 55.804 59.8982 55.936 59.4436 56.2C58.9889 56.464 58.6222 56.838 58.3436 57.322C58.0796 57.806 57.9476 58.3927 57.9476 59.082C57.9476 59.7567 58.0796 60.3433 58.3436 60.842C58.6222 61.326 58.9889 61.7 59.4436 61.964C59.8982 62.228 60.4116 62.36 60.9836 62.36ZM72.1513 65L67.8833 53.164H71.1173L74.6593 63.35H73.1193L76.8153 53.164H79.7193L83.3053 63.35H81.7653L85.4173 53.164H88.4533L84.1633 65H80.8413L77.6953 56.266H78.7073L75.4513 65H72.1513ZM94.4973 65L101.361 49.6H104.881L111.767 65H108.027L102.395 51.404H103.803L98.1493 65H94.4973ZM97.9293 61.7L98.8753 58.994H106.795L107.763 61.7H97.9293ZM128.281 52.988C129.22 52.988 130.048 53.1787 130.767 53.56C131.5 53.9267 132.072 54.4987 132.483 55.276C132.908 56.0387 133.121 57.0213 133.121 58.224V65H129.689V58.752C129.689 57.7987 129.491 57.0947 129.095 56.64C128.699 56.1853 128.142 55.958 127.423 55.958C126.924 55.958 126.477 56.0753 126.081 56.31C125.685 56.53 125.377 56.8673 125.157 57.322C124.937 57.7767 124.827 58.356 124.827 59.06V65H121.395V58.752C121.395 57.7987 121.197 57.0947 120.801 56.64C120.42 56.1853 119.87 55.958 119.151 55.958C118.652 55.958 118.205 56.0753 117.809 56.31C117.413 56.53 117.105 56.8673 116.885 57.322C116.665 57.7767 116.555 58.356 116.555 59.06V65H113.123V53.164H116.401V56.398L115.785 55.452C116.196 54.6453 116.775 54.0367 117.523 53.626C118.286 53.2007 119.151 52.988 120.119 52.988C121.204 52.988 122.15 53.2667 122.957 53.824C123.778 54.3667 124.321 55.2027 124.585 56.332L123.375 56.002C123.771 55.078 124.402 54.3447 125.267 53.802C126.147 53.2593 127.152 52.988 128.281 52.988ZM143.457 65V62.69L143.237 62.184V58.048C143.237 57.3147 143.01 56.7427 142.555 56.332C142.115 55.9213 141.433 55.716 140.509 55.716C139.879 55.716 139.255 55.8187 138.639 56.024C138.038 56.2147 137.525 56.4787 137.099 56.816L135.867 54.418C136.513 53.9633 137.29 53.6113 138.199 53.362C139.109 53.1127 140.033 52.988 140.971 52.988C142.775 52.988 144.176 53.4133 145.173 54.264C146.171 55.1147 146.669 56.442 146.669 58.246V65H143.457ZM139.849 65.176C138.925 65.176 138.133 65.022 137.473 64.714C136.813 64.3913 136.307 63.9587 135.955 63.416C135.603 62.8733 135.427 62.2647 135.427 61.59C135.427 60.886 135.596 60.27 135.933 59.742C136.285 59.214 136.835 58.8033 137.583 58.51C138.331 58.202 139.307 58.048 140.509 58.048H143.655V60.05H140.883C140.077 60.05 139.519 60.182 139.211 60.446C138.918 60.71 138.771 61.04 138.771 61.436C138.771 61.876 138.94 62.228 139.277 62.492C139.629 62.7413 140.106 62.866 140.707 62.866C141.279 62.866 141.793 62.734 142.247 62.47C142.702 62.1913 143.032 61.788 143.237 61.26L143.765 62.844C143.516 63.6067 143.061 64.186 142.401 64.582C141.741 64.978 140.891 65.176 139.849 65.176ZM153.757 65.176C152.745 65.176 151.77 65.0587 150.831 64.824C149.907 64.5747 149.174 64.2667 148.631 63.9L149.775 61.436C150.318 61.7733 150.956 62.052 151.689 62.272C152.437 62.4773 153.171 62.58 153.889 62.58C154.681 62.58 155.239 62.4847 155.561 62.294C155.899 62.1033 156.067 61.8393 156.067 61.502C156.067 61.2233 155.935 61.018 155.671 60.886C155.422 60.7393 155.085 60.6293 154.659 60.556C154.234 60.4827 153.765 60.4093 153.251 60.336C152.753 60.2627 152.247 60.1673 151.733 60.05C151.22 59.918 150.751 59.7273 150.325 59.478C149.9 59.2287 149.555 58.8913 149.291 58.466C149.042 58.0407 148.917 57.4907 148.917 56.816C148.917 56.068 149.13 55.408 149.555 54.836C149.995 54.264 150.626 53.8167 151.447 53.494C152.269 53.1567 153.251 52.988 154.395 52.988C155.202 52.988 156.023 53.076 156.859 53.252C157.695 53.428 158.392 53.6847 158.949 54.022L157.805 56.464C157.233 56.1267 156.654 55.8993 156.067 55.782C155.495 55.65 154.938 55.584 154.395 55.584C153.633 55.584 153.075 55.6867 152.723 55.892C152.371 56.0973 152.195 56.3613 152.195 56.684C152.195 56.9773 152.32 57.1973 152.569 57.344C152.833 57.4907 153.178 57.608 153.603 57.696C154.029 57.784 154.491 57.8647 154.989 57.938C155.503 57.9967 156.016 58.092 156.529 58.224C157.043 58.356 157.505 58.5467 157.915 58.796C158.341 59.0307 158.685 59.3607 158.949 59.786C159.213 60.1967 159.345 60.7393 159.345 61.414C159.345 62.1473 159.125 62.8 158.685 63.372C158.245 63.9293 157.607 64.3693 156.771 64.692C155.95 65.0147 154.945 65.176 153.757 65.176ZM165.445 65.176C164.433 65.176 163.458 65.0587 162.519 64.824C161.595 64.5747 160.862 64.2667 160.319 63.9L161.463 61.436C162.006 61.7733 162.644 62.052 163.377 62.272C164.125 62.4773 164.858 62.58 165.577 62.58C166.369 62.58 166.926 62.4847 167.249 62.294C167.586 62.1033 167.755 61.8393 167.755 61.502C167.755 61.2233 167.623 61.018 167.359 60.886C167.11 60.7393 166.772 60.6293 166.347 60.556C165.922 60.4827 165.452 60.4093 164.939 60.336C164.44 60.2627 163.934 60.1673 163.421 60.05C162.908 59.918 162.438 59.7273 162.013 59.478C161.588 59.2287 161.243 58.8913 160.979 58.466C160.73 58.0407 160.605 57.4907 160.605 56.816C160.605 56.068 160.818 55.408 161.243 54.836C161.683 54.264 162.314 53.8167 163.135 53.494C163.956 53.1567 164.939 52.988 166.083 52.988C166.89 52.988 167.711 53.076 168.547 53.252C169.383 53.428 170.08 53.6847 170.637 54.022L169.493 56.464C168.921 56.1267 168.342 55.8993 167.755 55.782C167.183 55.65 166.626 55.584 166.083 55.584C165.32 55.584 164.763 55.6867 164.411 55.892C164.059 56.0973 163.883 56.3613 163.883 56.684C163.883 56.9773 164.008 57.1973 164.257 57.344C164.521 57.4907 164.866 57.608 165.291 57.696C165.716 57.784 166.178 57.8647 166.677 57.938C167.19 57.9967 167.704 58.092 168.217 58.224C168.73 58.356 169.192 58.5467 169.603 58.796C170.028 59.0307 170.373 59.3607 170.637 59.786C170.901 60.1967 171.033 60.7393 171.033 61.414C171.033 62.1473 170.813 62.8 170.373 63.372C169.933 63.9293 169.295 64.3693 168.459 64.692C167.638 65.0147 166.633 65.176 165.445 65.176ZM180.146 65.176C179.149 65.176 178.276 64.956 177.528 64.516C176.78 64.076 176.194 63.4087 175.768 62.514C175.358 61.6047 175.152 60.4607 175.152 59.082C175.152 57.6887 175.35 56.5447 175.746 55.65C176.142 54.7553 176.714 54.088 177.462 53.648C178.21 53.208 179.105 52.988 180.146 52.988C181.261 52.988 182.258 53.2447 183.138 53.758C184.033 54.2567 184.737 54.9607 185.25 55.87C185.778 56.7793 186.042 57.85 186.042 59.082C186.042 60.3287 185.778 61.4067 185.25 62.316C184.737 63.2253 184.033 63.9293 183.138 64.428C182.258 64.9267 181.261 65.176 180.146 65.176ZM173.15 69.268V53.164H176.428V55.584L176.362 59.104L176.582 62.602V69.268H173.15ZM179.552 62.36C180.124 62.36 180.63 62.228 181.07 61.964C181.525 61.7 181.884 61.326 182.148 60.842C182.427 60.3433 182.566 59.7567 182.566 59.082C182.566 58.3927 182.427 57.806 182.148 57.322C181.884 56.838 181.525 56.464 181.07 56.2C180.63 55.936 180.124 55.804 179.552 55.804C178.98 55.804 178.467 55.936 178.012 56.2C177.558 56.464 177.198 56.838 176.934 57.322C176.67 57.806 176.538 58.3927 176.538 59.082C176.538 59.7567 176.67 60.3433 176.934 60.842C177.198 61.326 177.558 61.7 178.012 61.964C178.467 62.228 178.98 62.36 179.552 62.36ZM195.407 65V62.69L195.187 62.184V58.048C195.187 57.3147 194.959 56.7427 194.505 56.332C194.065 55.9213 193.383 55.716 192.459 55.716C191.828 55.716 191.205 55.8187 190.589 56.024C189.987 56.2147 189.474 56.4787 189.049 56.816L187.817 54.418C188.462 53.9633 189.239 53.6113 190.149 53.362C191.058 53.1127 191.982 52.988 192.921 52.988C194.725 52.988 196.125 53.4133 197.123 54.264C198.12 55.1147 198.619 56.442 198.619 58.246V65H195.407ZM191.799 65.176C190.875 65.176 190.083 65.022 189.423 64.714C188.763 64.3913 188.257 63.9587 187.905 63.416C187.553 62.8733 187.377 62.2647 187.377 61.59C187.377 60.886 187.545 60.27 187.883 59.742C188.235 59.214 188.785 58.8033 189.533 58.51C190.281 58.202 191.256 58.048 192.459 58.048H195.605V60.05H192.833C192.026 60.05 191.469 60.182 191.161 60.446C190.867 60.71 190.721 61.04 190.721 61.436C190.721 61.876 190.889 62.228 191.227 62.492C191.579 62.7413 192.055 62.866 192.657 62.866C193.229 62.866 193.742 62.734 194.197 62.47C194.651 62.1913 194.981 61.788 195.187 61.26L195.715 62.844C195.465 63.6067 195.011 64.186 194.351 64.582C193.691 64.978 192.84 65.176 191.799 65.176ZM207.531 65.176C206.255 65.176 205.118 64.9193 204.121 64.406C203.123 63.878 202.339 63.152 201.767 62.228C201.209 61.304 200.931 60.2553 200.931 59.082C200.931 57.894 201.209 56.8453 201.767 55.936C202.339 55.012 203.123 54.2933 204.121 53.78C205.118 53.252 206.255 52.988 207.531 52.988C208.777 52.988 209.863 53.252 210.787 53.78C211.711 54.2933 212.393 55.034 212.833 56.002L210.171 57.432C209.863 56.8747 209.474 56.464 209.005 56.2C208.55 55.936 208.051 55.804 207.509 55.804C206.922 55.804 206.394 55.936 205.925 56.2C205.455 56.464 205.081 56.838 204.803 57.322C204.539 57.806 204.407 58.3927 204.407 59.082C204.407 59.7713 204.539 60.358 204.803 60.842C205.081 61.326 205.455 61.7 205.925 61.964C206.394 62.228 206.922 62.36 207.509 62.36C208.051 62.36 208.55 62.2353 209.005 61.986C209.474 61.722 209.863 61.304 210.171 60.732L212.833 62.184C212.393 63.1373 211.711 63.878 210.787 64.406C209.863 64.9193 208.777 65.176 207.531 65.176ZM220.532 65.176C219.183 65.176 217.995 64.912 216.968 64.384C215.956 63.856 215.172 63.1373 214.614 62.228C214.057 61.304 213.778 60.2553 213.778 59.082C213.778 57.894 214.05 56.8453 214.592 55.936C215.15 55.012 215.905 54.2933 216.858 53.78C217.812 53.252 218.89 52.988 220.092 52.988C221.251 52.988 222.292 53.2373 223.216 53.736C224.155 54.22 224.896 54.924 225.438 55.848C225.981 56.7573 226.252 57.85 226.252 59.126C226.252 59.258 226.245 59.412 226.23 59.588C226.216 59.7493 226.201 59.9033 226.186 60.05H216.572V58.048H224.382L223.062 58.642C223.062 58.026 222.938 57.4907 222.688 57.036C222.439 56.5813 222.094 56.2293 221.654 55.98C221.214 55.716 220.701 55.584 220.114 55.584C219.528 55.584 219.007 55.716 218.552 55.98C218.112 56.2293 217.768 56.5887 217.518 57.058C217.269 57.5127 217.144 58.0553 217.144 58.686V59.214C217.144 59.8593 217.284 60.4313 217.562 60.93C217.856 61.414 218.259 61.788 218.772 62.052C219.3 62.3013 219.916 62.426 220.62 62.426C221.251 62.426 221.801 62.3307 222.27 62.14C222.754 61.9493 223.194 61.6633 223.59 61.282L225.416 63.262C224.874 63.878 224.192 64.3547 223.37 64.692C222.549 65.0147 221.603 65.176 220.532 65.176ZM41.016 99V86.504H36.088V83.6H49.508V86.504H44.58V99H41.016ZM50.9258 99V87.164H54.2038V90.508L53.7418 89.54C54.0938 88.704 54.6585 88.0733 55.4358 87.648C56.2131 87.208 57.1591 86.988 58.2738 86.988V90.156C58.1271 90.1413 57.9951 90.134 57.8778 90.134C57.7605 90.1193 57.6358 90.112 57.5038 90.112C56.5651 90.112 55.8025 90.3833 55.2158 90.926C54.6438 91.454 54.3578 92.2827 54.3578 93.412V99H50.9258ZM66.801 99V96.69L66.581 96.184V92.048C66.581 91.3147 66.3537 90.7427 65.899 90.332C65.459 89.9213 64.777 89.716 63.853 89.716C63.2224 89.716 62.599 89.8187 61.983 90.024C61.3817 90.2147 60.8684 90.4787 60.443 90.816L59.211 88.418C59.8564 87.9633 60.6337 87.6113 61.543 87.362C62.4524 87.1127 63.3764 86.988 64.315 86.988C66.119 86.988 67.5197 87.4133 68.517 88.264C69.5144 89.1147 70.013 90.442 70.013 92.246V99H66.801ZM63.193 99.176C62.269 99.176 61.477 99.022 60.817 98.714C60.157 98.3913 59.651 97.9587 59.299 97.416C58.947 96.8733 58.771 96.2647 58.771 95.59C58.771 94.886 58.9397 94.27 59.277 93.742C59.629 93.214 60.179 92.8033 60.927 92.51C61.675 92.202 62.6504 92.048 63.853 92.048H66.999V94.05H64.227C63.4204 94.05 62.863 94.182 62.555 94.446C62.2617 94.71 62.115 95.04 62.115 95.436C62.115 95.876 62.2837 96.228 62.621 96.492C62.973 96.7413 63.4497 96.866 64.051 96.866C64.623 96.866 65.1364 96.734 65.591 96.47C66.0457 96.1913 66.3757 95.788 66.581 95.26L67.109 96.844C66.8597 97.6067 66.405 98.186 65.745 98.582C65.085 98.978 64.2344 99.176 63.193 99.176ZM80.3132 86.988C81.2518 86.988 82.0878 87.1787 82.8212 87.56C83.5692 87.9267 84.1558 88.4987 84.5812 89.276C85.0065 90.0387 85.2192 91.0213 85.2192 92.224V99H81.7872V92.752C81.7872 91.7987 81.5745 91.0947 81.1492 90.64C80.7385 90.1853 80.1518 89.958 79.3892 89.958C78.8465 89.958 78.3552 90.0753 77.9152 90.31C77.4898 90.53 77.1525 90.8747 76.9032 91.344C76.6685 91.8133 76.5512 92.4147 76.5512 93.148V99H73.1192V87.164H76.3972V90.442L75.7812 89.452C76.2065 88.66 76.8152 88.0513 77.6072 87.626C78.3992 87.2007 79.3012 86.988 80.3132 86.988ZM92.3121 99.176C91.3001 99.176 90.3248 99.0587 89.3861 98.824C88.4621 98.5747 87.7288 98.2667 87.1861 97.9L88.3301 95.436C88.8728 95.7733 89.5108 96.052 90.2441 96.272C90.9921 96.4773 91.7254 96.58 92.4441 96.58C93.2361 96.58 93.7934 96.4847 94.1161 96.294C94.4534 96.1033 94.6221 95.8393 94.6221 95.502C94.6221 95.2233 94.4901 95.018 94.2261 94.886C93.9768 94.7393 93.6394 94.6293 93.2141 94.556C92.7888 94.4827 92.3194 94.4093 91.8061 94.336C91.3074 94.2627 90.8014 94.1673 90.2881 94.05C89.7748 93.918 89.3054 93.7273 88.8801 93.478C88.4548 93.2287 88.1101 92.8913 87.8461 92.466C87.5968 92.0407 87.4721 91.4907 87.4721 90.816C87.4721 90.068 87.6848 89.408 88.1101 88.836C88.5501 88.264 89.1808 87.8167 90.0021 87.494C90.8234 87.1567 91.8061 86.988 92.9501 86.988C93.7568 86.988 94.5781 87.076 95.4141 87.252C96.2501 87.428 96.9468 87.6847 97.5041 88.022L96.3601 90.464C95.7881 90.1267 95.2088 89.8993 94.6221 89.782C94.0501 89.65 93.4928 89.584 92.9501 89.584C92.1874 89.584 91.6301 89.6867 91.2781 89.892C90.9261 90.0973 90.7501 90.3613 90.7501 90.684C90.7501 90.9773 90.8748 91.1973 91.1241 91.344C91.3881 91.4907 91.7328 91.608 92.1581 91.696C92.5834 91.784 93.0454 91.8647 93.5441 91.938C94.0574 91.9967 94.5708 92.092 95.0841 92.224C95.5974 92.356 96.0594 92.5467 96.4701 92.796C96.8954 93.0307 97.2401 93.3607 97.5041 93.786C97.7681 94.1967 97.9001 94.7393 97.9001 95.414C97.9001 96.1473 97.6801 96.8 97.2401 97.372C96.8001 97.9293 96.1621 98.3693 95.3261 98.692C94.5048 99.0147 93.5001 99.176 92.3121 99.176ZM100.436 99V86.9C100.436 85.5653 100.832 84.502 101.624 83.71C102.416 82.9033 103.545 82.5 105.012 82.5C105.51 82.5 105.987 82.5513 106.442 82.654C106.911 82.7567 107.307 82.918 107.63 83.138L106.728 85.624C106.537 85.492 106.324 85.3893 106.09 85.316C105.855 85.2427 105.606 85.206 105.342 85.206C104.843 85.206 104.454 85.3527 104.176 85.646C103.912 85.9247 103.78 86.35 103.78 86.922V88.022L103.868 89.496V99H100.436ZM98.6096 90.068V87.428H106.816V90.068H98.6096ZM114.007 99.176C112.746 99.176 111.624 98.912 110.641 98.384C109.673 97.856 108.903 97.1373 108.331 96.228C107.774 95.304 107.495 94.2553 107.495 93.082C107.495 91.894 107.774 90.8453 108.331 89.936C108.903 89.012 109.673 88.2933 110.641 87.78C111.624 87.252 112.746 86.988 114.007 86.988C115.254 86.988 116.368 87.252 117.351 87.78C118.334 88.2933 119.104 89.0047 119.661 89.914C120.218 90.8233 120.497 91.8793 120.497 93.082C120.497 94.2553 120.218 95.304 119.661 96.228C119.104 97.1373 118.334 97.856 117.351 98.384C116.368 98.912 115.254 99.176 114.007 99.176ZM114.007 96.36C114.579 96.36 115.092 96.228 115.547 95.964C116.002 95.7 116.361 95.326 116.625 94.842C116.889 94.3433 117.021 93.7567 117.021 93.082C117.021 92.3927 116.889 91.806 116.625 91.322C116.361 90.838 116.002 90.464 115.547 90.2C115.092 89.936 114.579 89.804 114.007 89.804C113.435 89.804 112.922 89.936 112.467 90.2C112.012 90.464 111.646 90.838 111.367 91.322C111.103 91.806 110.971 92.3927 110.971 93.082C110.971 93.7567 111.103 94.3433 111.367 94.842C111.646 95.326 112.012 95.7 112.467 95.964C112.922 96.228 113.435 96.36 114.007 96.36ZM122.791 99V87.164H126.069V90.508L125.607 89.54C125.959 88.704 126.524 88.0733 127.301 87.648C128.078 87.208 129.024 86.988 130.139 86.988V90.156C129.992 90.1413 129.86 90.134 129.743 90.134C129.626 90.1193 129.501 90.112 129.369 90.112C128.43 90.112 127.668 90.3833 127.081 90.926C126.509 91.454 126.223 92.2827 126.223 93.412V99H122.791ZM147.359 86.988C148.298 86.988 149.127 87.1787 149.845 87.56C150.579 87.9267 151.151 88.4987 151.561 89.276C151.987 90.0387 152.199 91.0213 152.199 92.224V99H148.767V92.752C148.767 91.7987 148.569 91.0947 148.173 90.64C147.777 90.1853 147.22 89.958 146.501 89.958C146.003 89.958 145.555 90.0753 145.159 90.31C144.763 90.53 144.455 90.8673 144.235 91.322C144.015 91.7767 143.905 92.356 143.905 93.06V99H140.473V92.752C140.473 91.7987 140.275 91.0947 139.879 90.64C139.498 90.1853 138.948 89.958 138.229 89.958C137.731 89.958 137.283 90.0753 136.887 90.31C136.491 90.53 136.183 90.8673 135.963 91.322C135.743 91.7767 135.633 92.356 135.633 93.06V99H132.201V87.164H135.479V90.398L134.863 89.452C135.274 88.6453 135.853 88.0367 136.601 87.626C137.364 87.2007 138.229 86.988 139.197 86.988C140.283 86.988 141.229 87.2667 142.035 87.824C142.857 88.3667 143.399 89.2027 143.663 90.332L142.453 90.002C142.849 89.078 143.48 88.3447 144.345 87.802C145.225 87.2593 146.23 86.988 147.359 86.988ZM161.235 99.176C159.886 99.176 158.698 98.912 157.671 98.384C156.659 97.856 155.875 97.1373 155.317 96.228C154.76 95.304 154.481 94.2553 154.481 93.082C154.481 91.894 154.753 90.8453 155.295 89.936C155.853 89.012 156.608 88.2933 157.561 87.78C158.515 87.252 159.593 86.988 160.795 86.988C161.954 86.988 162.995 87.2373 163.919 87.736C164.858 88.22 165.599 88.924 166.141 89.848C166.684 90.7573 166.955 91.85 166.955 93.126C166.955 93.258 166.948 93.412 166.933 93.588C166.919 93.7493 166.904 93.9033 166.889 94.05H157.275V92.048H165.085L163.765 92.642C163.765 92.026 163.641 91.4907 163.391 91.036C163.142 90.5813 162.797 90.2293 162.357 89.98C161.917 89.716 161.404 89.584 160.817 89.584C160.231 89.584 159.71 89.716 159.255 89.98C158.815 90.2293 158.471 90.5887 158.221 91.058C157.972 91.5127 157.847 92.0553 157.847 92.686V93.214C157.847 93.8593 157.987 94.4313 158.265 94.93C158.559 95.414 158.962 95.788 159.475 96.052C160.003 96.3013 160.619 96.426 161.323 96.426C161.954 96.426 162.504 96.3307 162.973 96.14C163.457 95.9493 163.897 95.6633 164.293 95.282L166.119 97.262C165.577 97.878 164.895 98.3547 164.073 98.692C163.252 99.0147 162.306 99.176 161.235 99.176ZM174.322 99.176C173.208 99.176 172.203 98.9267 171.308 98.428C170.414 97.9147 169.702 97.2033 169.174 96.294C168.661 95.3847 168.404 94.314 168.404 93.082C168.404 91.8353 168.661 90.7573 169.174 89.848C169.702 88.9387 170.414 88.2347 171.308 87.736C172.203 87.2373 173.208 86.988 174.322 86.988C175.32 86.988 176.192 87.208 176.94 87.648C177.688 88.088 178.268 88.7553 178.678 89.65C179.089 90.5447 179.294 91.6887 179.294 93.082C179.294 94.4607 179.096 95.6047 178.7 96.514C178.304 97.4087 177.732 98.076 176.984 98.516C176.251 98.956 175.364 99.176 174.322 99.176ZM174.916 96.36C175.474 96.36 175.98 96.228 176.434 95.964C176.889 95.7 177.248 95.326 177.512 94.842C177.791 94.3433 177.93 93.7567 177.93 93.082C177.93 92.3927 177.791 91.806 177.512 91.322C177.248 90.838 176.889 90.464 176.434 90.2C175.98 89.936 175.474 89.804 174.916 89.804C174.344 89.804 173.831 89.936 173.376 90.2C172.922 90.464 172.555 90.838 172.276 91.322C172.012 91.806 171.88 92.3927 171.88 93.082C171.88 93.7567 172.012 94.3433 172.276 94.842C172.555 95.326 172.922 95.7 173.376 95.964C173.831 96.228 174.344 96.36 174.916 96.36ZM178.018 99V96.58L178.084 93.06L177.864 89.562V82.676H181.296V99H178.018ZM190.945 99V83.6H197.611C198.99 83.6 200.178 83.8273 201.175 84.282C202.172 84.722 202.942 85.36 203.485 86.196C204.028 87.032 204.299 88.0293 204.299 89.188C204.299 90.332 204.028 91.322 203.485 92.158C202.942 92.9793 202.172 93.61 201.175 94.05C200.178 94.49 198.99 94.71 197.611 94.71H192.925L194.509 93.148V99H190.945ZM200.735 99L196.885 93.412H200.691L204.585 99H200.735ZM194.509 93.544L192.925 91.872H197.413C198.513 91.872 199.334 91.6373 199.877 91.168C200.42 90.684 200.691 90.024 200.691 89.188C200.691 88.3373 200.42 87.6773 199.877 87.208C199.334 86.7387 198.513 86.504 197.413 86.504H192.925L194.509 84.81V93.544ZM212.755 99.176C211.406 99.176 210.218 98.912 209.191 98.384C208.179 97.856 207.394 97.1373 206.837 96.228C206.28 95.304 206.001 94.2553 206.001 93.082C206.001 91.894 206.272 90.8453 206.815 89.936C207.372 89.012 208.128 88.2933 209.081 87.78C210.034 87.252 211.112 86.988 212.315 86.988C213.474 86.988 214.515 87.2373 215.439 87.736C216.378 88.22 217.118 88.924 217.661 89.848C218.204 90.7573 218.475 91.85 218.475 93.126C218.475 93.258 218.468 93.412 218.453 93.588C218.438 93.7493 218.424 93.9033 218.409 94.05H208.795V92.048H216.605L215.285 92.642C215.285 92.026 215.16 91.4907 214.911 91.036C214.662 90.5813 214.317 90.2293 213.877 89.98C213.437 89.716 212.924 89.584 212.337 89.584C211.75 89.584 211.23 89.716 210.775 89.98C210.335 90.2293 209.99 90.5887 209.741 91.058C209.492 91.5127 209.367 92.0553 209.367 92.686V93.214C209.367 93.8593 209.506 94.4313 209.785 94.93C210.078 95.414 210.482 95.788 210.995 96.052C211.523 96.3013 212.139 96.426 212.843 96.426C213.474 96.426 214.024 96.3307 214.493 96.14C214.977 95.9493 215.417 95.6633 215.813 95.282L217.639 97.262C217.096 97.878 216.414 98.3547 215.593 98.692C214.772 99.0147 213.826 99.176 212.755 99.176ZM235.918 86.988C236.856 86.988 237.685 87.1787 238.404 87.56C239.137 87.9267 239.709 88.4987 240.12 89.276C240.545 90.0387 240.758 91.0213 240.758 92.224V99H237.326V92.752C237.326 91.7987 237.128 91.0947 236.732 90.64C236.336 90.1853 235.778 89.958 235.06 89.958C234.561 89.958 234.114 90.0753 233.718 90.31C233.322 90.53 233.014 90.8673 232.794 91.322C232.574 91.7767 232.464 92.356 232.464 93.06V99H229.032V92.752C229.032 91.7987 228.834 91.0947 228.438 90.64C228.056 90.1853 227.506 89.958 226.788 89.958C226.289 89.958 225.842 90.0753 225.446 90.31C225.05 90.53 224.742 90.8673 224.522 91.322C224.302 91.7767 224.192 92.356 224.192 93.06V99H220.76V87.164H224.038V90.398L223.422 89.452C223.832 88.6453 224.412 88.0367 225.16 87.626C225.922 87.2007 226.788 86.988 227.756 86.988C228.841 86.988 229.787 87.2667 230.594 87.824C231.415 88.3667 231.958 89.2027 232.222 90.332L231.012 90.002C231.408 89.078 232.038 88.3447 232.904 87.802C233.784 87.2593 234.788 86.988 235.918 86.988ZM249.552 99.176C248.291 99.176 247.169 98.912 246.186 98.384C245.218 97.856 244.448 97.1373 243.876 96.228C243.319 95.304 243.04 94.2553 243.04 93.082C243.04 91.894 243.319 90.8453 243.876 89.936C244.448 89.012 245.218 88.2933 246.186 87.78C247.169 87.252 248.291 86.988 249.552 86.988C250.799 86.988 251.913 87.252 252.896 87.78C253.879 88.2933 254.649 89.0047 255.206 89.914C255.763 90.8233 256.042 91.8793 256.042 93.082C256.042 94.2553 255.763 95.304 255.206 96.228C254.649 97.1373 253.879 97.856 252.896 98.384C251.913 98.912 250.799 99.176 249.552 99.176ZM249.552 96.36C250.124 96.36 250.637 96.228 251.092 95.964C251.547 95.7 251.906 95.326 252.17 94.842C252.434 94.3433 252.566 93.7567 252.566 93.082C252.566 92.3927 252.434 91.806 252.17 91.322C251.906 90.838 251.547 90.464 251.092 90.2C250.637 89.936 250.124 89.804 249.552 89.804C248.98 89.804 248.467 89.936 248.012 90.2C247.557 90.464 247.191 90.838 246.912 91.322C246.648 91.806 246.516 92.3927 246.516 93.082C246.516 93.7567 246.648 94.3433 246.912 94.842C247.191 95.326 247.557 95.7 248.012 95.964C248.467 96.228 248.98 96.36 249.552 96.36ZM263.176 99.176C261.783 99.176 260.697 98.824 259.92 98.12C259.143 97.4013 258.754 96.338 258.754 94.93V84.546H262.186V94.886C262.186 95.3847 262.318 95.7733 262.582 96.052C262.846 96.316 263.205 96.448 263.66 96.448C264.203 96.448 264.665 96.3013 265.046 96.008L265.97 98.428C265.618 98.6773 265.193 98.868 264.694 99C264.21 99.1173 263.704 99.176 263.176 99.176ZM256.928 90.068V87.428H265.134V90.068H256.928ZM273.405 99.176C272.056 99.176 270.868 98.912 269.841 98.384C268.829 97.856 268.045 97.1373 267.487 96.228C266.93 95.304 266.651 94.2553 266.651 93.082C266.651 91.894 266.923 90.8453 267.465 89.936C268.023 89.012 268.778 88.2933 269.731 87.78C270.685 87.252 271.763 86.988 272.965 86.988C274.124 86.988 275.165 87.2373 276.089 87.736C277.028 88.22 277.769 88.924 278.311 89.848C278.854 90.7573 279.125 91.85 279.125 93.126C279.125 93.258 279.118 93.412 279.103 93.588C279.089 93.7493 279.074 93.9033 279.059 94.05H269.445V92.048H277.255L275.935 92.642C275.935 92.026 275.811 91.4907 275.561 91.036C275.312 90.5813 274.967 90.2293 274.527 89.98C274.087 89.716 273.574 89.584 272.987 89.584C272.401 89.584 271.88 89.716 271.425 89.98C270.985 90.2293 270.641 90.5887 270.391 91.058C270.142 91.5127 270.017 92.0553 270.017 92.686V93.214C270.017 93.8593 270.157 94.4313 270.435 94.93C270.729 95.414 271.132 95.788 271.645 96.052C272.173 96.3013 272.789 96.426 273.493 96.426C274.124 96.426 274.674 96.3307 275.143 96.14C275.627 95.9493 276.067 95.6633 276.463 95.282L278.289 97.262C277.747 97.878 277.065 98.3547 276.243 98.692C275.422 99.0147 274.476 99.176 273.405 99.176ZM45.196 133.264C44.008 133.264 42.9007 133.073 41.874 132.692C40.862 132.296 39.982 131.739 39.234 131.02C38.486 130.301 37.8993 129.458 37.474 128.49C37.0633 127.522 36.858 126.459 36.858 125.3C36.858 124.141 37.0633 123.078 37.474 122.11C37.8993 121.142 38.486 120.299 39.234 119.58C39.9967 118.861 40.884 118.311 41.896 117.93C42.908 117.534 44.0153 117.336 45.218 117.336C46.5527 117.336 47.7553 117.571 48.826 118.04C49.9113 118.495 50.8207 119.169 51.554 120.064L49.266 122.176C48.738 121.575 48.1513 121.127 47.506 120.834C46.8607 120.526 46.1567 120.372 45.394 120.372C44.6753 120.372 44.0153 120.489 43.414 120.724C42.8127 120.959 42.292 121.296 41.852 121.736C41.412 122.176 41.0673 122.697 40.818 123.298C40.5833 123.899 40.466 124.567 40.466 125.3C40.466 126.033 40.5833 126.701 40.818 127.302C41.0673 127.903 41.412 128.424 41.852 128.864C42.292 129.304 42.8127 129.641 43.414 129.876C44.0153 130.111 44.6753 130.228 45.394 130.228C46.1567 130.228 46.8607 130.081 47.506 129.788C48.1513 129.48 48.738 129.018 49.266 128.402L51.554 130.514C50.8207 131.409 49.9113 132.091 48.826 132.56C47.7553 133.029 46.5453 133.264 45.196 133.264ZM58.9426 133.176C57.6812 133.176 56.5592 132.912 55.5766 132.384C54.6086 131.856 53.8386 131.137 53.2666 130.228C52.7092 129.304 52.4306 128.255 52.4306 127.082C52.4306 125.894 52.7092 124.845 53.2666 123.936C53.8386 123.012 54.6086 122.293 55.5766 121.78C56.5592 121.252 57.6812 120.988 58.9426 120.988C60.1892 120.988 61.3039 121.252 62.2866 121.78C63.2692 122.293 64.0392 123.005 64.5966 123.914C65.1539 124.823 65.4326 125.879 65.4326 127.082C65.4326 128.255 65.1539 129.304 64.5966 130.228C64.0392 131.137 63.2692 131.856 62.2866 132.384C61.3039 132.912 60.1892 133.176 58.9426 133.176ZM58.9426 130.36C59.5146 130.36 60.0279 130.228 60.4826 129.964C60.9372 129.7 61.2966 129.326 61.5606 128.842C61.8246 128.343 61.9566 127.757 61.9566 127.082C61.9566 126.393 61.8246 125.806 61.5606 125.322C61.2966 124.838 60.9372 124.464 60.4826 124.2C60.0279 123.936 59.5146 123.804 58.9426 123.804C58.3706 123.804 57.8572 123.936 57.4026 124.2C56.9479 124.464 56.5812 124.838 56.3026 125.322C56.0386 125.806 55.9066 126.393 55.9066 127.082C55.9066 127.757 56.0386 128.343 56.3026 128.842C56.5812 129.326 56.9479 129.7 57.4026 129.964C57.8572 130.228 58.3706 130.36 58.9426 130.36ZM67.7266 133V116.676H71.1586V133H67.7266ZM74.3438 133V116.676H77.7758V133H74.3438ZM88.221 133V130.69L88.001 130.184V126.048C88.001 125.315 87.7736 124.743 87.319 124.332C86.879 123.921 86.197 123.716 85.273 123.716C84.6423 123.716 84.019 123.819 83.403 124.024C82.8016 124.215 82.2883 124.479 81.863 124.816L80.631 122.418C81.2763 121.963 82.0536 121.611 82.963 121.362C83.8723 121.113 84.7963 120.988 85.735 120.988C87.539 120.988 88.9396 121.413 89.937 122.264C90.9343 123.115 91.433 124.442 91.433 126.246V133H88.221ZM84.613 133.176C83.689 133.176 82.897 133.022 82.237 132.714C81.577 132.391 81.071 131.959 80.719 131.416C80.367 130.873 80.191 130.265 80.191 129.59C80.191 128.886 80.3596 128.27 80.697 127.742C81.049 127.214 81.599 126.803 82.347 126.51C83.095 126.202 84.0703 126.048 85.273 126.048H88.419V128.05H85.647C84.8403 128.05 84.283 128.182 83.975 128.446C83.6816 128.71 83.535 129.04 83.535 129.436C83.535 129.876 83.7036 130.228 84.041 130.492C84.393 130.741 84.8696 130.866 85.471 130.866C86.043 130.866 86.5563 130.734 87.011 130.47C87.4656 130.191 87.7956 129.788 88.001 129.26L88.529 130.844C88.2796 131.607 87.825 132.186 87.165 132.582C86.505 132.978 85.6543 133.176 84.613 133.176ZM101.535 133.176C100.494 133.176 99.5991 132.956 98.8511 132.516C98.1031 132.076 97.5311 131.409 97.1351 130.514C96.7391 129.605 96.5411 128.461 96.5411 127.082C96.5411 125.689 96.7464 124.545 97.1571 123.65C97.5824 122.755 98.1691 122.088 98.9171 121.648C99.6651 121.208 100.538 120.988 101.535 120.988C102.65 120.988 103.647 121.237 104.527 121.736C105.422 122.235 106.126 122.939 106.639 123.848C107.167 124.757 107.431 125.835 107.431 127.082C107.431 128.314 107.167 129.385 106.639 130.294C106.126 131.203 105.422 131.915 104.527 132.428C103.647 132.927 102.65 133.176 101.535 133.176ZM94.5391 133V116.676H97.9711V123.562L97.7511 127.06L97.8171 130.58V133H94.5391ZM100.941 130.36C101.513 130.36 102.019 130.228 102.459 129.964C102.914 129.7 103.273 129.326 103.537 128.842C103.816 128.343 103.955 127.757 103.955 127.082C103.955 126.393 103.816 125.806 103.537 125.322C103.273 124.838 102.914 124.464 102.459 124.2C102.019 123.936 101.513 123.804 100.941 123.804C100.369 123.804 99.8557 123.936 99.4011 124.2C98.9464 124.464 98.5871 124.838 98.3231 125.322C98.0591 125.806 97.9271 126.393 97.9271 127.082C97.9271 127.757 98.0591 128.343 98.3231 128.842C98.5871 129.326 98.9464 129.7 99.4011 129.964C99.8557 130.228 100.369 130.36 100.941 130.36ZM115.361 133.176C114.099 133.176 112.977 132.912 111.995 132.384C111.027 131.856 110.257 131.137 109.685 130.228C109.127 129.304 108.849 128.255 108.849 127.082C108.849 125.894 109.127 124.845 109.685 123.936C110.257 123.012 111.027 122.293 111.995 121.78C112.977 121.252 114.099 120.988 115.361 120.988C116.607 120.988 117.722 121.252 118.705 121.78C119.687 122.293 120.457 123.005 121.015 123.914C121.572 124.823 121.851 125.879 121.851 127.082C121.851 128.255 121.572 129.304 121.015 130.228C120.457 131.137 119.687 131.856 118.705 132.384C117.722 132.912 116.607 133.176 115.361 133.176ZM115.361 130.36C115.933 130.36 116.446 130.228 116.901 129.964C117.355 129.7 117.715 129.326 117.979 128.842C118.243 128.343 118.375 127.757 118.375 127.082C118.375 126.393 118.243 125.806 117.979 125.322C117.715 124.838 117.355 124.464 116.901 124.2C116.446 123.936 115.933 123.804 115.361 123.804C114.789 123.804 114.275 123.936 113.821 124.2C113.366 124.464 112.999 124.838 112.721 125.322C112.457 125.806 112.325 126.393 112.325 127.082C112.325 127.757 112.457 128.343 112.721 128.842C112.999 129.326 113.366 129.7 113.821 129.964C114.275 130.228 114.789 130.36 115.361 130.36ZM124.145 133V121.164H127.423V124.508L126.961 123.54C127.313 122.704 127.877 122.073 128.655 121.648C129.432 121.208 130.378 120.988 131.493 120.988V124.156C131.346 124.141 131.214 124.134 131.097 124.134C130.979 124.119 130.855 124.112 130.723 124.112C129.784 124.112 129.021 124.383 128.435 124.926C127.863 125.454 127.577 126.283 127.577 127.412V133H124.145ZM140.02 133V130.69L139.8 130.184V126.048C139.8 125.315 139.572 124.743 139.118 124.332C138.678 123.921 137.996 123.716 137.072 123.716C136.441 123.716 135.818 123.819 135.202 124.024C134.6 124.215 134.087 124.479 133.662 124.816L132.43 122.418C133.075 121.963 133.852 121.611 134.762 121.362C135.671 121.113 136.595 120.988 137.534 120.988C139.338 120.988 140.738 121.413 141.736 122.264C142.733 123.115 143.232 124.442 143.232 126.246V133H140.02ZM136.412 133.176C135.488 133.176 134.696 133.022 134.036 132.714C133.376 132.391 132.87 131.959 132.518 131.416C132.166 130.873 131.99 130.265 131.99 129.59C131.99 128.886 132.158 128.27 132.496 127.742C132.848 127.214 133.398 126.803 134.146 126.51C134.894 126.202 135.869 126.048 137.072 126.048H140.218V128.05H137.446C136.639 128.05 136.082 128.182 135.774 128.446C135.48 128.71 135.334 129.04 135.334 129.436C135.334 129.876 135.502 130.228 135.84 130.492C136.192 130.741 136.668 130.866 137.27 130.866C137.842 130.866 138.355 130.734 138.81 130.47C139.264 130.191 139.594 129.788 139.8 129.26L140.328 130.844C140.078 131.607 139.624 132.186 138.964 132.582C138.304 132.978 137.453 133.176 136.412 133.176ZM151.178 133.176C149.785 133.176 148.699 132.824 147.922 132.12C147.145 131.401 146.756 130.338 146.756 128.93V118.546H150.188V128.886C150.188 129.385 150.32 129.773 150.584 130.052C150.848 130.316 151.207 130.448 151.662 130.448C152.205 130.448 152.667 130.301 153.048 130.008L153.972 132.428C153.62 132.677 153.195 132.868 152.696 133C152.212 133.117 151.706 133.176 151.178 133.176ZM144.93 124.068V121.428H153.136V124.068H144.93ZM155.898 133V121.164H159.33V133H155.898ZM157.614 119.514C156.984 119.514 156.47 119.331 156.074 118.964C155.678 118.597 155.48 118.143 155.48 117.6C155.48 117.057 155.678 116.603 156.074 116.236C156.47 115.869 156.984 115.686 157.614 115.686C158.245 115.686 158.758 115.862 159.154 116.214C159.55 116.551 159.748 116.991 159.748 117.534C159.748 118.106 159.55 118.583 159.154 118.964C158.773 119.331 158.26 119.514 157.614 119.514ZM168.148 133.176C166.886 133.176 165.764 132.912 164.782 132.384C163.814 131.856 163.044 131.137 162.472 130.228C161.914 129.304 161.636 128.255 161.636 127.082C161.636 125.894 161.914 124.845 162.472 123.936C163.044 123.012 163.814 122.293 164.782 121.78C165.764 121.252 166.886 120.988 168.148 120.988C169.394 120.988 170.509 121.252 171.492 121.78C172.474 122.293 173.244 123.005 173.802 123.914C174.359 124.823 174.638 125.879 174.638 127.082C174.638 128.255 174.359 129.304 173.802 130.228C173.244 131.137 172.474 131.856 171.492 132.384C170.509 132.912 169.394 133.176 168.148 133.176ZM168.148 130.36C168.72 130.36 169.233 130.228 169.688 129.964C170.142 129.7 170.502 129.326 170.766 128.842C171.03 128.343 171.162 127.757 171.162 127.082C171.162 126.393 171.03 125.806 170.766 125.322C170.502 124.838 170.142 124.464 169.688 124.2C169.233 123.936 168.72 123.804 168.148 123.804C167.576 123.804 167.062 123.936 166.608 124.2C166.153 124.464 165.786 124.838 165.508 125.322C165.244 125.806 165.112 126.393 165.112 127.082C165.112 127.757 165.244 128.343 165.508 128.842C165.786 129.326 166.153 129.7 166.608 129.964C167.062 130.228 167.576 130.36 168.148 130.36ZM184.126 120.988C185.064 120.988 185.9 121.179 186.634 121.56C187.382 121.927 187.968 122.499 188.394 123.276C188.819 124.039 189.032 125.021 189.032 126.224V133H185.6V126.752C185.6 125.799 185.387 125.095 184.962 124.64C184.551 124.185 183.964 123.958 183.202 123.958C182.659 123.958 182.168 124.075 181.728 124.31C181.302 124.53 180.965 124.875 180.716 125.344C180.481 125.813 180.364 126.415 180.364 127.148V133H176.932V121.164H180.21V124.442L179.594 123.452C180.019 122.66 180.628 122.051 181.42 121.626C182.212 121.201 183.114 120.988 184.126 120.988ZM201.915 124.53H209.307V127.39H201.915V124.53ZM202.179 133H198.615V117.6H210.253V120.46H202.179V133ZM217.777 133.176C216.515 133.176 215.393 132.912 214.411 132.384C213.443 131.856 212.673 131.137 212.101 130.228C211.543 129.304 211.265 128.255 211.265 127.082C211.265 125.894 211.543 124.845 212.101 123.936C212.673 123.012 213.443 122.293 214.411 121.78C215.393 121.252 216.515 120.988 217.777 120.988C219.023 120.988 220.138 121.252 221.121 121.78C222.103 122.293 222.873 123.005 223.431 123.914C223.988 124.823 224.267 125.879 224.267 127.082C224.267 128.255 223.988 129.304 223.431 130.228C222.873 131.137 222.103 131.856 221.121 132.384C220.138 132.912 219.023 133.176 217.777 133.176ZM217.777 130.36C218.349 130.36 218.862 130.228 219.317 129.964C219.771 129.7 220.131 129.326 220.395 128.842C220.659 128.343 220.791 127.757 220.791 127.082C220.791 126.393 220.659 125.806 220.395 125.322C220.131 124.838 219.771 124.464 219.317 124.2C218.862 123.936 218.349 123.804 217.777 123.804C217.205 123.804 216.691 123.936 216.237 124.2C215.782 124.464 215.415 124.838 215.137 125.322C214.873 125.806 214.741 126.393 214.741 127.082C214.741 127.757 214.873 128.343 215.137 128.842C215.415 129.326 215.782 129.7 216.237 129.964C216.691 130.228 217.205 130.36 217.777 130.36ZM226.561 133V121.164H229.839V124.508L229.377 123.54C229.729 122.704 230.293 122.073 231.071 121.648C231.848 121.208 232.794 120.988 233.909 120.988V124.156C233.762 124.141 233.63 124.134 233.513 124.134C233.395 124.119 233.271 124.112 233.139 124.112C232.2 124.112 231.437 124.383 230.851 124.926C230.279 125.454 229.993 126.283 229.993 127.412V133H226.561ZM45.196 167.264C44.008 167.264 42.9007 167.073 41.874 166.692C40.862 166.296 39.982 165.739 39.234 165.02C38.486 164.301 37.8993 163.458 37.474 162.49C37.0633 161.522 36.858 160.459 36.858 159.3C36.858 158.141 37.0633 157.078 37.474 156.11C37.8993 155.142 38.486 154.299 39.234 153.58C39.9967 152.861 40.884 152.311 41.896 151.93C42.908 151.534 44.0153 151.336 45.218 151.336C46.5527 151.336 47.7553 151.571 48.826 152.04C49.9113 152.495 50.8207 153.169 51.554 154.064L49.266 156.176C48.738 155.575 48.1513 155.127 47.506 154.834C46.8607 154.526 46.1567 154.372 45.394 154.372C44.6753 154.372 44.0153 154.489 43.414 154.724C42.8127 154.959 42.292 155.296 41.852 155.736C41.412 156.176 41.0673 156.697 40.818 157.298C40.5833 157.899 40.466 158.567 40.466 159.3C40.466 160.033 40.5833 160.701 40.818 161.302C41.0673 161.903 41.412 162.424 41.852 162.864C42.292 163.304 42.8127 163.641 43.414 163.876C44.0153 164.111 44.6753 164.228 45.394 164.228C46.1567 164.228 46.8607 164.081 47.506 163.788C48.1513 163.48 48.738 163.018 49.266 162.402L51.554 164.514C50.8207 165.409 49.9113 166.091 48.826 166.56C47.7553 167.029 46.5453 167.264 45.196 167.264ZM53.7188 167V155.164H56.9968V158.508L56.5348 157.54C56.8868 156.704 57.4514 156.073 58.2288 155.648C59.0061 155.208 59.9521 154.988 61.0668 154.988V158.156C60.9201 158.141 60.7881 158.134 60.6708 158.134C60.5534 158.119 60.4288 158.112 60.2968 158.112C59.3581 158.112 58.5954 158.383 58.0088 158.926C57.4368 159.454 57.1508 160.283 57.1508 161.412V167H53.7188ZM68.8955 167.176C67.5462 167.176 66.3582 166.912 65.3315 166.384C64.3195 165.856 63.5348 165.137 62.9775 164.228C62.4202 163.304 62.1415 162.255 62.1415 161.082C62.1415 159.894 62.4128 158.845 62.9555 157.936C63.5128 157.012 64.2682 156.293 65.2215 155.78C66.1748 155.252 67.2528 154.988 68.4555 154.988C69.6142 154.988 70.6555 155.237 71.5795 155.736C72.5182 156.22 73.2588 156.924 73.8015 157.848C74.3442 158.757 74.6155 159.85 74.6155 161.126C74.6155 161.258 74.6082 161.412 74.5935 161.588C74.5788 161.749 74.5642 161.903 74.5495 162.05H64.9355V160.048H72.7455L71.4255 160.642C71.4255 160.026 71.3008 159.491 71.0515 159.036C70.8022 158.581 70.4575 158.229 70.0175 157.98C69.5775 157.716 69.0642 157.584 68.4775 157.584C67.8908 157.584 67.3702 157.716 66.9155 157.98C66.4755 158.229 66.1308 158.589 65.8815 159.058C65.6322 159.513 65.5075 160.055 65.5075 160.686V161.214C65.5075 161.859 65.6468 162.431 65.9255 162.93C66.2188 163.414 66.6222 163.788 67.1355 164.052C67.6635 164.301 68.2795 164.426 68.9835 164.426C69.6142 164.426 70.1642 164.331 70.6335 164.14C71.1175 163.949 71.5575 163.663 71.9535 163.282L73.7795 165.262C73.2368 165.878 72.5548 166.355 71.7335 166.692C70.9122 167.015 69.9662 167.176 68.8955 167.176ZM83.8381 167V164.69L83.6181 164.184V160.048C83.6181 159.315 83.3908 158.743 82.9361 158.332C82.4961 157.921 81.8141 157.716 80.8901 157.716C80.2595 157.716 79.6361 157.819 79.0201 158.024C78.4188 158.215 77.9055 158.479 77.4801 158.816L76.2481 156.418C76.8935 155.963 77.6708 155.611 78.5801 155.362C79.4895 155.113 80.4135 154.988 81.3521 154.988C83.1561 154.988 84.5568 155.413 85.5541 156.264C86.5515 157.115 87.0501 158.442 87.0501 160.246V167H83.8381ZM80.2301 167.176C79.3061 167.176 78.5141 167.022 77.8541 166.714C77.1941 166.391 76.6881 165.959 76.3361 165.416C75.9841 164.873 75.8081 164.265 75.8081 163.59C75.8081 162.886 75.9768 162.27 76.3141 161.742C76.6661 161.214 77.2161 160.803 77.9641 160.51C78.7121 160.202 79.6875 160.048 80.8901 160.048H84.0361V162.05H81.2641C80.4575 162.05 79.9001 162.182 79.5921 162.446C79.2988 162.71 79.1521 163.04 79.1521 163.436C79.1521 163.876 79.3208 164.228 79.6581 164.492C80.0101 164.741 80.4868 164.866 81.0881 164.866C81.6601 164.866 82.1735 164.734 82.6281 164.47C83.0828 164.191 83.4128 163.788 83.6181 163.26L84.1461 164.844C83.8968 165.607 83.4421 166.186 82.7821 166.582C82.1221 166.978 81.2715 167.176 80.2301 167.176ZM94.9963 167.176C93.6029 167.176 92.5176 166.824 91.7403 166.12C90.9629 165.401 90.5743 164.338 90.5743 162.93V152.546H94.0063V162.886C94.0063 163.385 94.1383 163.773 94.4023 164.052C94.6663 164.316 95.0256 164.448 95.4803 164.448C96.0229 164.448 96.4849 164.301 96.8663 164.008L97.7903 166.428C97.4383 166.677 97.0129 166.868 96.5143 167C96.0303 167.117 95.5243 167.176 94.9963 167.176ZM88.7483 158.068V155.428H96.9543V158.068H88.7483ZM99.7168 167V155.164H103.149V167H99.7168ZM101.433 153.514C100.802 153.514 100.289 153.331 99.8928 152.964C99.4968 152.597 99.2988 152.143 99.2988 151.6C99.2988 151.057 99.4968 150.603 99.8928 150.236C100.289 149.869 100.802 149.686 101.433 149.686C102.063 149.686 102.577 149.862 102.973 150.214C103.369 150.551 103.567 150.991 103.567 151.534C103.567 152.106 103.369 152.583 102.973 152.964C102.591 153.331 102.078 153.514 101.433 153.514ZM109.546 167L104.574 155.164H108.116L112.252 165.35H110.492L114.782 155.164H118.082L113.088 167H109.546ZM125.034 167.176C123.685 167.176 122.497 166.912 121.47 166.384C120.458 165.856 119.674 165.137 119.116 164.228C118.559 163.304 118.28 162.255 118.28 161.082C118.28 159.894 118.552 158.845 119.094 157.936C119.652 157.012 120.407 156.293 121.36 155.78C122.314 155.252 123.392 154.988 124.594 154.988C125.753 154.988 126.794 155.237 127.718 155.736C128.657 156.22 129.398 156.924 129.94 157.848C130.483 158.757 130.754 159.85 130.754 161.126C130.754 161.258 130.747 161.412 130.732 161.588C130.718 161.749 130.703 161.903 130.688 162.05H121.074V160.048H128.884L127.564 160.642C127.564 160.026 127.44 159.491 127.19 159.036C126.941 158.581 126.596 158.229 126.156 157.98C125.716 157.716 125.203 157.584 124.616 157.584C124.03 157.584 123.509 157.716 123.054 157.98C122.614 158.229 122.27 158.589 122.02 159.058C121.771 159.513 121.646 160.055 121.646 160.686V161.214C121.646 161.859 121.786 162.431 122.064 162.93C122.358 163.414 122.761 163.788 123.274 164.052C123.802 164.301 124.418 164.426 125.122 164.426C125.753 164.426 126.303 164.331 126.772 164.14C127.256 163.949 127.696 163.663 128.092 163.282L129.918 165.262C129.376 165.878 128.694 166.355 127.872 166.692C127.051 167.015 126.105 167.176 125.034 167.176ZM142.702 167V154.504H137.774V151.6H151.194V154.504H146.266V167H142.702ZM157.54 167.176C156.191 167.176 155.003 166.912 153.976 166.384C152.964 165.856 152.179 165.137 151.622 164.228C151.065 163.304 150.786 162.255 150.786 161.082C150.786 159.894 151.057 158.845 151.6 157.936C152.157 157.012 152.913 156.293 153.866 155.78C154.819 155.252 155.897 154.988 157.1 154.988C158.259 154.988 159.3 155.237 160.224 155.736C161.163 156.22 161.903 156.924 162.446 157.848C162.989 158.757 163.26 159.85 163.26 161.126C163.26 161.258 163.253 161.412 163.238 161.588C163.223 161.749 163.209 161.903 163.194 162.05H153.58V160.048H161.39L160.07 160.642C160.07 160.026 159.945 159.491 159.696 159.036C159.447 158.581 159.102 158.229 158.662 157.98C158.222 157.716 157.709 157.584 157.122 157.584C156.535 157.584 156.015 157.716 155.56 157.98C155.12 158.229 154.775 158.589 154.526 159.058C154.277 159.513 154.152 160.055 154.152 160.686V161.214C154.152 161.859 154.291 162.431 154.57 162.93C154.863 163.414 155.267 163.788 155.78 164.052C156.308 164.301 156.924 164.426 157.628 164.426C158.259 164.426 158.809 164.331 159.278 164.14C159.762 163.949 160.202 163.663 160.598 163.282L162.424 165.262C161.881 165.878 161.199 166.355 160.378 166.692C159.557 167.015 158.611 167.176 157.54 167.176ZM172.483 167V164.69L172.263 164.184V160.048C172.263 159.315 172.035 158.743 171.581 158.332C171.141 157.921 170.459 157.716 169.535 157.716C168.904 157.716 168.281 157.819 167.665 158.024C167.063 158.215 166.55 158.479 166.125 158.816L164.893 156.418C165.538 155.963 166.315 155.611 167.225 155.362C168.134 155.113 169.058 154.988 169.997 154.988C171.801 154.988 173.201 155.413 174.199 156.264C175.196 157.115 175.695 158.442 175.695 160.246V167H172.483ZM168.875 167.176C167.951 167.176 167.159 167.022 166.499 166.714C165.839 166.391 165.333 165.959 164.981 165.416C164.629 164.873 164.453 164.265 164.453 163.59C164.453 162.886 164.621 162.27 164.959 161.742C165.311 161.214 165.861 160.803 166.609 160.51C167.357 160.202 168.332 160.048 169.535 160.048H172.681V162.05H169.909C169.102 162.05 168.545 162.182 168.237 162.446C167.943 162.71 167.797 163.04 167.797 163.436C167.797 163.876 167.965 164.228 168.303 164.492C168.655 164.741 169.131 164.866 169.733 164.866C170.305 164.866 170.818 164.734 171.273 164.47C171.727 164.191 172.057 163.788 172.263 163.26L172.791 164.844C172.541 165.607 172.087 166.186 171.427 166.582C170.767 166.978 169.916 167.176 168.875 167.176ZM193.959 154.988C194.897 154.988 195.726 155.179 196.445 155.56C197.178 155.927 197.75 156.499 198.161 157.276C198.586 158.039 198.799 159.021 198.799 160.224V167H195.367V160.752C195.367 159.799 195.169 159.095 194.773 158.64C194.377 158.185 193.819 157.958 193.101 157.958C192.602 157.958 192.155 158.075 191.759 158.31C191.363 158.53 191.055 158.867 190.835 159.322C190.615 159.777 190.505 160.356 190.505 161.06V167H187.073V160.752C187.073 159.799 186.875 159.095 186.479 158.64C186.097 158.185 185.547 157.958 184.829 157.958C184.33 157.958 183.883 158.075 183.487 158.31C183.091 158.53 182.783 158.867 182.563 159.322C182.343 159.777 182.233 160.356 182.233 161.06V167H178.801V155.164H182.079V158.398L181.463 157.452C181.873 156.645 182.453 156.037 183.201 155.626C183.963 155.201 184.829 154.988 185.797 154.988C186.882 154.988 187.828 155.267 188.635 155.824C189.456 156.367 189.999 157.203 190.263 158.332L189.053 158.002C189.449 157.078 190.079 156.345 190.945 155.802C191.825 155.259 192.829 154.988 193.959 154.988ZM205.857 167.176C204.845 167.176 203.87 167.059 202.931 166.824C202.007 166.575 201.274 166.267 200.731 165.9L201.875 163.436C202.418 163.773 203.056 164.052 203.789 164.272C204.537 164.477 205.27 164.58 205.989 164.58C206.781 164.58 207.338 164.485 207.661 164.294C207.998 164.103 208.167 163.839 208.167 163.502C208.167 163.223 208.035 163.018 207.771 162.886C207.522 162.739 207.184 162.629 206.759 162.556C206.334 162.483 205.864 162.409 205.351 162.336C204.852 162.263 204.346 162.167 203.833 162.05C203.32 161.918 202.85 161.727 202.425 161.478C202 161.229 201.655 160.891 201.391 160.466C201.142 160.041 201.017 159.491 201.017 158.816C201.017 158.068 201.23 157.408 201.655 156.836C202.095 156.264 202.726 155.817 203.547 155.494C204.368 155.157 205.351 154.988 206.495 154.988C207.302 154.988 208.123 155.076 208.959 155.252C209.795 155.428 210.492 155.685 211.049 156.022L209.905 158.464C209.333 158.127 208.754 157.899 208.167 157.782C207.595 157.65 207.038 157.584 206.495 157.584C205.732 157.584 205.175 157.687 204.823 157.892C204.471 158.097 204.295 158.361 204.295 158.684C204.295 158.977 204.42 159.197 204.669 159.344C204.933 159.491 205.278 159.608 205.703 159.696C206.128 159.784 206.59 159.865 207.089 159.938C207.602 159.997 208.116 160.092 208.629 160.224C209.142 160.356 209.604 160.547 210.015 160.796C210.44 161.031 210.785 161.361 211.049 161.786C211.313 162.197 211.445 162.739 211.445 163.414C211.445 164.147 211.225 164.8 210.785 165.372C210.345 165.929 209.707 166.369 208.871 166.692C208.05 167.015 207.045 167.176 205.857 167.176Z" fill="black"/>
<rect x="36" y="174" width="176" height="4" rx="2" fill="#F2641A"/>
</g>
<defs>
<linearGradient id="paint0_linear_471_806" x1="551.5" y1="8.26728e-06" x2="448.5" y2="264" gradientUnits="userSpaceOnUse">
<stop stop-color="#D9D9D9"/>
<stop offset="1" stop-color="#4498E6"/>
</linearGradient>
<clipPath id="clip0_471_806">
<rect width="480" height="232" fill="white"/>
</clipPath>
</defs>
</svg>
