<svg width="120" height="165" viewBox="0 0 120 165" fill="none" xmlns="http://www.w3.org/2000/svg">
<path d="M92.8173 161.452C92.8173 163.454 88.7144 163.204 82.4435 163.204C76.1721 163.204 73.6371 162.136 72.7031 161.336C71.7692 160.535 72.7031 155.198 72.7031 155.198L68.8337 132.248C67.6716 132.626 66.5208 132.832 65.3813 132.846C64.1693 132.866 62.9686 132.671 61.7786 132.248L57.9092 155.198C57.9092 155.198 58.8431 160.535 57.9092 161.336C56.9753 162.136 54.4402 163.204 48.1688 163.204C41.8979 163.204 37.7617 162.937 37.7617 160.936C37.7617 158.934 42.5651 155.065 42.5651 155.065V123.042L65.3062 122.108L65.3813 122.111L88.0478 123.042V155.065C88.0478 155.065 92.8173 159.451 92.8173 161.452Z" fill="#6C6377"/>
<path d="M56.796 155.188L43.6757 155.074C43.6757 155.071 43.6757 155.068 43.6757 155.065V147.476C44.7127 149.342 46.4839 150.104 49.0217 150.104C49.5091 150.104 50.0238 150.076 50.5681 150.023C55.9801 149.488 55.9356 139.348 55.9356 139.348C54.3065 142.016 51.0823 142.662 51.0823 142.662C54.2067 139.834 56.6307 132.849 56.6307 132.849C53.1327 130.72 47.1941 129.447 43.6757 128.84V127.169C46.0052 127.865 49.6191 128.677 53.809 128.676C57.3505 128.676 61.3031 128.097 65.2391 126.378C69.6013 127.986 73.555 128.546 76.9494 128.546C81.3164 128.545 84.7548 127.617 86.934 126.802V128.851C83.4086 129.462 77.5178 130.732 74.0402 132.849C74.0402 132.849 76.4642 139.834 79.5886 142.662C79.5886 142.662 76.3643 142.016 74.7353 139.348C74.7353 139.348 74.6907 149.488 80.1028 150.023C80.6465 150.076 81.1623 150.104 81.6492 150.104C84.1386 150.104 85.8895 149.372 86.934 147.583V153.962L73.6408 154.078L69.9287 132.063C69.875 131.744 69.685 131.464 69.4075 131.297C69.232 131.191 69.0328 131.136 68.8321 131.136C68.7156 131.136 68.5992 131.155 68.4864 131.192C67.37 131.557 66.2917 131.74 65.2364 131.74C64.1897 131.74 63.1651 131.56 62.1485 131.2C62.0282 131.157 61.9026 131.136 61.7776 131.136C61.5817 131.136 61.3868 131.188 61.214 131.29C60.9306 131.457 60.7357 131.74 60.681 132.063L56.8116 155.013C56.8019 155.071 56.7965 155.13 56.796 155.188Z" fill="#595360"/>
<path d="M92.8163 161.452C92.8163 163.454 88.7134 163.203 82.442 163.203C76.1711 163.203 73.636 162.136 72.7021 161.335C71.7681 160.535 72.7021 155.198 72.7021 155.198L88.0462 155.065C88.0462 155.065 92.8163 159.451 92.8163 161.452Z" fill="#544963"/>
<path d="M73.5056 160.556C74.0762 160.99 76.1497 162.092 82.442 162.092C83.0963 162.092 83.727 162.094 84.3319 162.097C86.5111 162.107 88.3935 162.114 89.7579 161.983C91.3939 161.826 91.6763 161.519 91.7036 161.484C91.7031 161.482 91.7042 161.471 91.7042 161.452C91.7042 160.563 89.3795 157.803 87.2932 155.883C87.0645 155.672 86.9341 155.375 86.9341 155.065V124.109L65.3052 123.22L43.6757 124.109V155.065C43.6757 155.401 43.5233 155.719 43.2613 155.93C41.1857 157.604 38.8723 160.071 38.8723 160.935C38.8723 161.117 39.3865 161.478 40.803 161.725C42.6543 162.047 45.4362 162.092 48.1678 162.092C54.4612 162.092 56.5346 160.989 57.1047 160.556C57.3269 159.943 57.1975 157.587 56.8127 155.389C56.7912 155.265 56.7907 155.138 56.8116 155.013L60.681 132.063C60.7358 131.74 60.9306 131.457 61.214 131.29C61.4969 131.123 61.8388 131.09 62.1485 131.2C64.1898 131.923 66.2627 131.92 68.4865 131.192C68.794 131.091 69.1306 131.129 69.4075 131.297C69.685 131.464 69.875 131.744 69.9287 132.063L73.7982 155.013C73.8191 155.138 73.8191 155.265 73.7971 155.389C73.4133 157.588 73.2834 159.944 73.5056 160.556ZM85.9593 164.326C85.4403 164.326 84.8949 164.324 84.3222 164.321C83.72 164.318 83.0931 164.315 82.442 164.315C75.8528 164.315 73.1149 163.154 71.978 162.18C71.0548 161.388 70.9185 159.039 71.5739 155.196L67.9411 133.648C66.1446 134.057 64.3787 134.062 62.6665 133.665L59.0359 155.196C59.6913 159.039 59.5555 161.388 58.6317 162.18C57.4949 163.154 54.7569 164.315 48.1678 164.315C41.423 164.315 36.6486 164.073 36.6486 160.935C36.6486 158.806 39.9244 155.816 41.4519 154.539V123.041C41.4519 122.445 41.9221 121.955 42.5185 121.93L65.2595 120.996C65.2896 120.995 65.3202 120.995 65.3508 120.996L88.0918 121.93C88.6876 121.955 89.1584 122.445 89.1584 123.041V154.582C90.6376 155.982 93.9285 159.337 93.9285 161.452C93.9285 162.077 93.6982 162.636 93.2634 163.069C92.1282 164.2 89.7617 164.326 85.9593 164.326Z" fill="#2D2D2D"/>
<path d="M73.5056 160.556C74.0761 160.99 76.1496 162.092 82.4419 162.092C83.0962 162.092 83.7269 162.094 84.3318 162.097C86.5105 162.107 88.3934 162.115 89.7579 161.983C91.3939 161.826 91.6762 161.519 91.7036 161.484C91.703 161.482 91.7041 161.471 91.7041 161.452C91.7041 160.608 89.6086 158.077 87.6114 156.18L73.6532 156.301C73.3843 158.204 73.314 160.028 73.5056 160.556ZM85.9593 164.326C85.4402 164.326 84.8949 164.324 84.3222 164.321C83.7199 164.318 83.093 164.315 82.4419 164.315C75.8528 164.315 73.1148 163.154 71.978 162.18C71.0392 161.375 70.9147 158.961 71.6065 155.006C71.6989 154.477 72.1556 154.09 72.6924 154.086L88.0365 153.952C88.3253 153.94 88.591 154.055 88.7987 154.246C90.0021 155.352 93.9284 159.142 93.9284 161.452C93.9284 162.077 93.6981 162.636 93.2634 163.069C92.1281 164.2 89.7621 164.326 85.9593 164.326Z" fill="#2D2D2D"/>
<path d="M37.7601 160.935C37.7601 162.937 41.8969 163.203 48.1677 163.203C54.4391 163.203 56.9742 162.136 57.9081 161.335C58.8421 160.535 57.9081 155.198 57.9081 155.198L42.5635 155.065C42.5635 155.065 37.7601 158.934 37.7601 160.935Z" fill="#544963"/>
<path d="M48.1687 163.204C45.2348 163.204 42.7685 163.145 40.9741 162.878C42.7685 163.145 45.2349 163.203 48.1677 163.203C54.4391 163.203 56.9741 162.136 57.9081 161.335C58.8388 160.538 57.9145 155.236 57.9081 155.198H57.9092C57.9092 155.198 58.8431 160.535 57.9092 161.336C56.9752 162.136 54.4401 163.204 48.1687 163.204Z" fill="#2D2D2D"/>
<path d="M48.1677 163.203C45.2349 163.203 42.7685 163.145 40.9742 162.878C38.9329 162.574 37.7617 162.001 37.7617 160.936C37.7617 160.413 38.0897 159.762 38.5733 159.087C40.3939 159.518 43.243 159.601 46.7679 159.601C53.0393 159.601 55.5743 158.534 56.5083 157.733C56.8862 157.411 56.9586 156.343 56.9087 155.19L57.9081 155.198C57.9146 155.236 58.8388 160.538 57.9081 161.335C56.9742 162.136 54.4391 163.203 48.1677 163.203Z" fill="#605869"/>
<path d="M85.9131 162.102C85.4075 162.102 84.8788 162.099 84.3318 162.097C83.7269 162.095 83.0962 162.092 82.4419 162.092C76.1496 162.092 74.0761 160.99 73.5056 160.556C73.505 160.555 73.5045 160.554 73.504 160.552C73.504 160.552 73.504 160.551 73.504 160.551C73.5034 160.55 73.5034 160.55 73.5029 160.549C73.5029 160.549 73.5029 160.548 73.5024 160.548C73.5024 160.547 73.5018 160.546 73.5018 160.545C73.5018 160.545 73.5013 160.544 73.5013 160.544C73.5013 160.543 73.5007 160.543 73.5007 160.542C73.5002 160.542 73.5002 160.541 73.5002 160.541C73.4997 160.54 73.4997 160.539 73.4997 160.538C73.4991 160.538 73.4991 160.537 73.4991 160.537C73.4986 160.536 73.4986 160.536 73.4981 160.535C73.4981 160.534 73.4975 160.533 73.497 160.532C73.497 160.531 73.497 160.53 73.4965 160.53C73.4965 160.529 73.4964 160.529 73.4959 160.528C73.4959 160.527 73.4954 160.527 73.4954 160.526C73.4954 160.526 73.4948 160.525 73.4948 160.525C73.4948 160.524 73.4943 160.523 73.4943 160.522C73.4943 160.522 73.4938 160.521 73.4938 160.521C73.4938 160.52 73.4932 160.52 73.4932 160.519C73.4932 160.518 73.4927 160.518 73.4927 160.517C73.4922 160.516 73.4922 160.516 73.4922 160.515C73.4916 160.515 73.4916 160.514 73.4916 160.513C73.4911 160.513 73.4911 160.512 73.4911 160.512C73.49 160.509 73.4895 160.506 73.4884 160.504C73.4884 160.503 73.4884 160.503 73.4884 160.502C73.4879 160.501 73.4879 160.501 73.4873 160.5C73.4873 160.499 73.4873 160.499 73.4873 160.498C73.4868 160.498 73.4868 160.497 73.4863 160.496C73.4863 160.496 73.4863 160.495 73.4857 160.494C73.4857 160.494 73.4857 160.493 73.4852 160.492C73.4852 160.492 73.4852 160.491 73.4846 160.49C73.4846 160.49 73.4846 160.489 73.4841 160.489C73.4841 160.488 73.4841 160.487 73.4836 160.486C73.4836 160.485 73.4836 160.485 73.483 160.484C73.483 160.483 73.4825 160.482 73.4825 160.481C73.482 160.481 73.482 160.48 73.482 160.479C73.4814 160.478 73.4814 160.477 73.4809 160.476C73.4809 160.476 73.4809 160.475 73.4809 160.475C73.4803 160.474 73.4803 160.473 73.4798 160.472C73.4798 160.472 73.4798 160.471 73.4798 160.47C73.4793 160.47 73.4793 160.469 73.4787 160.468C73.4787 160.468 73.4787 160.467 73.4787 160.467C73.4782 160.465 73.4782 160.465 73.4777 160.464C73.4777 160.463 73.4777 160.463 73.4777 160.462C73.4771 160.461 73.4771 160.46 73.4766 160.46C73.4766 160.459 73.4766 160.459 73.4766 160.458C73.4755 160.455 73.475 160.452 73.4744 160.449C73.4744 160.449 73.4744 160.449 73.4739 160.448C73.4739 160.447 73.4734 160.446 73.4734 160.445C73.4734 160.445 73.4734 160.444 73.4728 160.443C73.4728 160.442 73.4723 160.441 73.4723 160.441C73.4723 160.44 73.4723 160.44 73.4718 160.439C73.4718 160.438 73.4718 160.437 73.4712 160.436C73.4712 160.435 73.4712 160.435 73.4707 160.435C73.4707 160.433 73.4701 160.432 73.4701 160.431C73.4701 160.431 73.4701 160.431 73.4701 160.431C73.4685 160.424 73.4669 160.418 73.4659 160.411C73.3311 159.77 73.3993 158.176 73.6274 156.489C73.6274 156.488 73.628 156.485 73.628 156.484C73.6285 156.482 73.6285 156.48 73.6285 156.479C73.629 156.476 73.6296 156.474 73.6296 156.472C73.6301 156.47 73.6301 156.468 73.6306 156.466C73.6306 156.463 73.6312 156.461 73.6317 156.459C73.6317 156.458 73.6317 156.457 73.6317 156.456C73.6322 156.453 73.6328 156.45 73.6328 156.447C73.6333 156.446 73.6333 156.446 73.6333 156.445C73.6398 156.397 73.6462 156.349 73.6532 156.301H73.6838C73.7192 156.978 73.8357 157.519 74.0863 157.733C75.0203 158.534 77.5554 159.601 83.8262 159.601C86.4923 159.601 88.7713 159.554 90.5115 159.344C91.0718 160.063 91.4862 160.702 91.6392 161.139H91.6397C91.6402 161.141 91.6408 161.143 91.6418 161.145V161.146C91.6424 161.148 91.6435 161.15 91.644 161.151C91.644 161.152 91.644 161.152 91.6445 161.153C91.6451 161.155 91.6456 161.156 91.6461 161.158C91.6461 161.158 91.6467 161.159 91.6467 161.16C91.6472 161.161 91.6477 161.163 91.6488 161.165C91.6488 161.165 91.6488 161.166 91.6488 161.166C91.6494 161.168 91.6499 161.17 91.651 161.172C91.651 161.172 91.651 161.172 91.651 161.173C91.652 161.175 91.6526 161.177 91.6531 161.178C91.6531 161.179 91.6531 161.179 91.6531 161.18C91.6542 161.182 91.6547 161.184 91.6553 161.185C91.6553 161.186 91.6553 161.186 91.6553 161.186C91.6558 161.189 91.6569 161.19 91.6574 161.192V161.193C91.658 161.195 91.6585 161.197 91.6596 161.199V161.199C91.6649 161.216 91.6692 161.233 91.6741 161.249C91.6741 161.25 91.6741 161.25 91.6741 161.25C91.6746 161.252 91.6751 161.253 91.6751 161.255C91.6757 161.256 91.6757 161.256 91.6757 161.257C91.6762 161.258 91.6767 161.26 91.6767 161.261C91.6773 161.262 91.6773 161.263 91.6773 161.263C91.6778 161.265 91.6783 161.266 91.6783 161.267C91.6789 161.268 91.6789 161.268 91.6789 161.27C91.6794 161.271 91.6794 161.272 91.68 161.273C91.68 161.274 91.6805 161.275 91.6805 161.276C91.681 161.277 91.681 161.278 91.6816 161.28C91.6816 161.28 91.6821 161.281 91.6821 161.282C91.6821 161.284 91.6826 161.285 91.6832 161.286C91.6832 161.287 91.6832 161.287 91.6837 161.288C91.6837 161.289 91.6843 161.29 91.6843 161.292C91.6848 161.293 91.6848 161.294 91.6848 161.294C91.6853 161.296 91.6853 161.297 91.6859 161.298C91.6859 161.299 91.6859 161.3 91.6864 161.301C91.6864 161.302 91.6869 161.303 91.6869 161.304C91.6875 161.305 91.6875 161.306 91.6875 161.307C91.688 161.308 91.688 161.309 91.6885 161.31C91.6885 161.311 91.6885 161.312 91.6885 161.312C91.6891 161.314 91.6891 161.315 91.6896 161.316C91.6896 161.317 91.6896 161.318 91.6902 161.319C91.6902 161.32 91.6907 161.321 91.6907 161.322C91.6907 161.323 91.6912 161.324 91.6912 161.325C91.6912 161.326 91.6918 161.327 91.6918 161.329C91.6918 161.329 91.6923 161.33 91.6923 161.331C91.6923 161.332 91.6928 161.333 91.6928 161.334C91.6928 161.335 91.6934 161.336 91.6934 161.336C91.6934 161.338 91.6939 161.339 91.6939 161.34C91.6939 161.34 91.6939 161.341 91.6939 161.341C91.6944 161.344 91.695 161.347 91.6955 161.35C91.6955 161.351 91.6955 161.351 91.6961 161.352C91.6961 161.353 91.6961 161.354 91.6961 161.355C91.6966 161.355 91.6966 161.357 91.6966 161.358C91.6971 161.359 91.6971 161.359 91.6971 161.36C91.6971 161.361 91.6977 161.362 91.6977 161.363C91.6977 161.364 91.6977 161.365 91.6982 161.366C91.6982 161.367 91.6982 161.368 91.6982 161.369C91.6987 161.37 91.6987 161.371 91.6987 161.372C91.6987 161.373 91.6987 161.374 91.6993 161.375C91.6993 161.375 91.6993 161.376 91.6993 161.377C91.6998 161.379 91.6998 161.379 91.6998 161.38C91.6998 161.381 91.6998 161.382 91.7004 161.383C91.7004 161.384 91.7004 161.385 91.7004 161.386C91.7004 161.387 91.7009 161.388 91.7009 161.389C91.7009 161.39 91.7009 161.39 91.7009 161.391C91.7009 161.392 91.7014 161.394 91.7014 161.394C91.7014 161.395 91.7014 161.396 91.7014 161.397C91.702 161.398 91.702 161.399 91.702 161.399C91.702 161.401 91.702 161.402 91.702 161.403C91.702 161.403 91.7025 161.404 91.7025 161.405C91.7025 161.406 91.7025 161.407 91.7025 161.408C91.7025 161.409 91.7025 161.41 91.7025 161.411C91.703 161.411 91.703 161.412 91.703 161.413C91.703 161.414 91.703 161.415 91.703 161.416C91.703 161.417 91.703 161.418 91.7036 161.419C91.7036 161.42 91.7036 161.42 91.7036 161.421C91.7036 161.422 91.7036 161.423 91.7036 161.424C91.7036 161.425 91.7036 161.426 91.7036 161.427C91.7036 161.427 91.7036 161.428 91.7041 161.43C91.7041 161.43 91.7041 161.431 91.7041 161.432C91.7041 161.433 91.7041 161.434 91.7041 161.435C91.7041 161.435 91.7041 161.436 91.7041 161.437C91.7041 161.438 91.7041 161.439 91.7041 161.44C91.7041 161.441 91.7041 161.441 91.7041 161.442C91.7041 161.443 91.7041 161.445 91.7041 161.446C91.7041 161.446 91.7041 161.447 91.7041 161.447C91.7041 161.449 91.7041 161.451 91.7041 161.453C91.7041 161.469 91.7036 161.479 91.7036 161.483C91.7036 161.483 91.7036 161.484 91.7036 161.484C91.6762 161.519 91.3939 161.826 89.7579 161.983C88.7359 162.082 87.4235 162.102 85.9131 162.102Z" fill="#605869"/>
<path d="M85.9271 162.102C85.4166 162.102 84.8836 162.099 84.3318 162.097C84.8788 162.099 85.4075 162.102 85.9131 162.102C87.4235 162.102 88.7359 162.082 89.7579 161.983C88.7391 162.082 87.4316 162.102 85.9271 162.102ZM91.7041 161.453C91.7041 161.451 91.7041 161.449 91.7041 161.447C91.7041 161.449 91.7041 161.451 91.7041 161.453ZM91.651 161.173C91.651 161.172 91.651 161.172 91.651 161.172C91.651 161.172 91.651 161.173 91.651 161.173ZM73.5024 160.548C73.5024 160.547 73.5018 160.546 73.5018 160.545C73.5018 160.546 73.5024 160.547 73.5024 160.548ZM73.4659 160.411C73.3311 159.77 73.3993 158.176 73.6274 156.489C73.3993 158.176 73.3311 159.77 73.4659 160.411Z" fill="#2D2D2D"/>
<path d="M82.4254 163.204C76.1545 163.204 73.6194 162.136 72.6855 161.336C71.751 160.535 72.6855 155.198 72.6855 155.198L73.686 155.19C73.6693 155.578 73.6661 155.957 73.6838 156.301H73.6532C73.6463 156.349 73.6398 156.397 73.6334 156.445C73.6334 156.446 73.6334 156.446 73.6328 156.447C73.6328 156.45 73.6323 156.453 73.6318 156.456C73.6318 156.456 73.6318 156.457 73.6318 156.459C73.6312 156.461 73.6307 156.463 73.6307 156.466C73.6302 156.468 73.6302 156.47 73.6296 156.472C73.6296 156.474 73.6291 156.476 73.6285 156.478C73.6285 156.48 73.6285 156.482 73.628 156.484C73.628 156.485 73.6275 156.487 73.6275 156.489C73.3993 158.176 73.3312 159.77 73.4659 160.411C73.467 160.418 73.4686 160.424 73.4702 160.43C73.4702 160.43 73.4702 160.43 73.4702 160.431C73.4702 160.432 73.4707 160.433 73.4707 160.435C73.4713 160.435 73.4713 160.435 73.4713 160.436C73.4718 160.437 73.4718 160.438 73.4718 160.439C73.4723 160.44 73.4724 160.44 73.4724 160.441C73.4724 160.441 73.4729 160.442 73.4729 160.443C73.4734 160.444 73.4734 160.444 73.4734 160.445C73.4734 160.446 73.474 160.447 73.474 160.448C73.4745 160.449 73.4745 160.449 73.4745 160.449C73.475 160.452 73.4756 160.455 73.4766 160.458C73.4766 160.458 73.4766 160.459 73.4766 160.459C73.4772 160.46 73.4772 160.461 73.4777 160.462C73.4777 160.463 73.4777 160.463 73.4777 160.464C73.4783 160.465 73.4783 160.465 73.4788 160.466C73.4788 160.467 73.4788 160.468 73.4788 160.468C73.4793 160.469 73.4793 160.47 73.4799 160.47C73.4799 160.471 73.4799 160.472 73.4799 160.472C73.4804 160.473 73.4804 160.474 73.4809 160.474C73.4809 160.475 73.4809 160.476 73.4809 160.476C73.4815 160.477 73.4815 160.478 73.482 160.479C73.482 160.48 73.482 160.48 73.4825 160.481C73.4825 160.482 73.4831 160.483 73.4831 160.484C73.4836 160.485 73.4836 160.485 73.4836 160.486C73.4842 160.487 73.4842 160.487 73.4842 160.488C73.4847 160.489 73.4847 160.49 73.4847 160.49C73.4852 160.491 73.4852 160.492 73.4852 160.492C73.4858 160.493 73.4858 160.494 73.4858 160.494C73.4863 160.495 73.4863 160.495 73.4863 160.496C73.4868 160.496 73.4868 160.498 73.4874 160.498C73.4874 160.499 73.4874 160.499 73.4874 160.5C73.4879 160.501 73.4879 160.501 73.4885 160.502C73.4885 160.502 73.4885 160.503 73.4885 160.503C73.4895 160.506 73.4901 160.509 73.4911 160.512C73.4911 160.512 73.4911 160.513 73.4917 160.513C73.4917 160.514 73.4917 160.515 73.4922 160.515C73.4922 160.516 73.4922 160.516 73.4927 160.517C73.4927 160.517 73.4933 160.518 73.4933 160.519C73.4933 160.52 73.4938 160.52 73.4938 160.521C73.4938 160.521 73.4944 160.522 73.4944 160.522C73.4944 160.523 73.4949 160.524 73.4949 160.524C73.4949 160.525 73.4954 160.525 73.4954 160.526C73.4954 160.527 73.496 160.527 73.496 160.528C73.4965 160.529 73.4965 160.529 73.4965 160.53C73.497 160.53 73.497 160.531 73.497 160.531C73.4976 160.532 73.4981 160.534 73.4981 160.535C73.4986 160.536 73.4987 160.536 73.4992 160.537C73.4992 160.537 73.4992 160.538 73.4997 160.538C73.4997 160.539 73.4997 160.539 73.5003 160.541C73.5003 160.541 73.5003 160.542 73.5008 160.542C73.5008 160.543 73.5013 160.543 73.5013 160.544C73.5013 160.544 73.5019 160.545 73.5019 160.545C73.5019 160.546 73.5024 160.546 73.5024 160.547C73.5029 160.548 73.5029 160.549 73.5029 160.549C73.5035 160.55 73.5035 160.55 73.504 160.551C73.504 160.551 73.504 160.552 73.504 160.552C73.5045 160.553 73.5051 160.554 73.5056 160.556C74.0762 160.99 76.1497 162.092 82.442 162.092C83.0963 162.092 83.727 162.094 84.3319 162.097C84.8837 162.099 85.4167 162.102 85.9271 162.102C87.4316 162.102 88.7392 162.082 89.7579 161.983C91.3939 161.826 91.6763 161.519 91.7036 161.484C91.7036 161.484 91.7036 161.483 91.7036 161.482C91.7036 161.479 91.7042 161.469 91.7042 161.452C91.7042 161.451 91.7042 161.449 91.7042 161.447C91.7042 161.447 91.7042 161.446 91.7042 161.445C91.7042 161.444 91.7042 161.443 91.7042 161.442C91.7042 161.441 91.7042 161.441 91.7042 161.44C91.7042 161.439 91.7042 161.438 91.7042 161.437C91.7042 161.436 91.7042 161.435 91.7042 161.435C91.7042 161.434 91.7042 161.433 91.7042 161.432C91.7042 161.431 91.7042 161.43 91.7042 161.429C91.7036 161.428 91.7036 161.427 91.7036 161.427C91.7036 161.426 91.7036 161.425 91.7036 161.424C91.7036 161.423 91.7036 161.422 91.7036 161.421C91.7036 161.42 91.7036 161.42 91.7036 161.419C91.7031 161.418 91.7031 161.416 91.7031 161.416C91.7031 161.415 91.7031 161.414 91.7031 161.413C91.7031 161.412 91.7031 161.411 91.7026 161.411C91.7026 161.41 91.7026 161.408 91.7026 161.408C91.7026 161.407 91.7026 161.406 91.7026 161.405C91.7026 161.404 91.702 161.403 91.702 161.403C91.702 161.401 91.702 161.4 91.702 161.399C91.702 161.399 91.702 161.398 91.7015 161.397C91.7015 161.396 91.7015 161.395 91.7015 161.394C91.7015 161.393 91.7009 161.392 91.7009 161.391C91.7009 161.39 91.7009 161.39 91.7009 161.389C91.7009 161.387 91.7004 161.386 91.7004 161.386C91.7004 161.385 91.7004 161.384 91.7004 161.383C91.6999 161.382 91.6999 161.381 91.6999 161.38C91.6999 161.379 91.6999 161.378 91.6993 161.377C91.6993 161.376 91.6993 161.375 91.6993 161.375C91.6988 161.374 91.6988 161.372 91.6988 161.371C91.6988 161.371 91.6988 161.37 91.6983 161.369C91.6983 161.368 91.6983 161.367 91.6983 161.366C91.6977 161.365 91.6977 161.364 91.6977 161.363C91.6977 161.362 91.6972 161.361 91.6972 161.36C91.6972 161.359 91.6972 161.359 91.6966 161.357C91.6966 161.356 91.6967 161.355 91.6961 161.355C91.6961 161.354 91.6961 161.353 91.6961 161.352C91.6956 161.351 91.6956 161.35 91.6956 161.349C91.695 161.347 91.6945 161.344 91.694 161.341C91.694 161.341 91.694 161.34 91.694 161.34C91.694 161.339 91.6934 161.338 91.6934 161.336C91.6934 161.335 91.6929 161.335 91.6929 161.334C91.6929 161.333 91.6924 161.332 91.6924 161.331C91.6924 161.33 91.6918 161.329 91.6918 161.328C91.6918 161.327 91.6913 161.326 91.6913 161.325C91.6913 161.324 91.6907 161.323 91.6907 161.322C91.6907 161.321 91.6902 161.32 91.6902 161.319C91.6897 161.318 91.6897 161.317 91.6897 161.316C91.6891 161.315 91.6891 161.314 91.6886 161.312C91.6886 161.312 91.6886 161.311 91.6886 161.31C91.6881 161.309 91.6881 161.308 91.6875 161.306C91.6875 161.306 91.6875 161.305 91.687 161.304C91.687 161.303 91.6864 161.302 91.6864 161.301C91.6859 161.299 91.6859 161.299 91.6859 161.298C91.6854 161.297 91.6854 161.296 91.6848 161.294C91.6848 161.294 91.6848 161.292 91.6843 161.292C91.6843 161.29 91.6838 161.289 91.6838 161.288C91.6832 161.287 91.6832 161.287 91.6832 161.286C91.6827 161.284 91.6822 161.283 91.6822 161.282C91.6822 161.281 91.6816 161.28 91.6816 161.28C91.6811 161.278 91.6811 161.277 91.6805 161.276C91.6805 161.275 91.68 161.274 91.68 161.273C91.6795 161.272 91.6795 161.27 91.6789 161.269C91.6789 161.268 91.6789 161.268 91.6784 161.267C91.6784 161.266 91.6779 161.265 91.6773 161.263C91.6773 161.262 91.6773 161.262 91.6768 161.261C91.6768 161.26 91.6763 161.258 91.6757 161.257C91.6757 161.256 91.6757 161.255 91.6752 161.255C91.6752 161.253 91.6746 161.252 91.6741 161.25C91.6741 161.25 91.6741 161.25 91.6741 161.249C91.6693 161.233 91.665 161.216 91.6596 161.199V161.199C91.6585 161.196 91.658 161.195 91.6575 161.193V161.192C91.6569 161.19 91.6559 161.188 91.6553 161.186C91.6553 161.186 91.6553 161.186 91.6553 161.185C91.6548 161.184 91.6542 161.181 91.6532 161.18C91.6532 161.179 91.6532 161.179 91.6532 161.178C91.6526 161.177 91.6521 161.175 91.651 161.173C91.651 161.173 91.651 161.172 91.651 161.172C91.65 161.17 91.6494 161.168 91.6489 161.166C91.6489 161.166 91.6489 161.165 91.6489 161.165C91.6478 161.163 91.6473 161.161 91.6467 161.159C91.6467 161.159 91.6462 161.158 91.6462 161.158C91.6457 161.156 91.6451 161.155 91.6446 161.152C91.6441 161.152 91.6441 161.152 91.6441 161.151C91.6435 161.15 91.6424 161.148 91.6419 161.145V161.145C91.6408 161.143 91.6403 161.141 91.6398 161.138H91.6392C91.4862 160.702 91.0719 160.063 90.5115 159.344C91.0724 159.276 91.5775 159.192 92.0214 159.087C92.505 159.762 92.833 160.413 92.833 160.936C92.833 162.937 88.6968 163.204 82.4254 163.204Z" fill="#2D2D2D"/>
<path d="M42.957 156.18C40.9656 157.84 38.8723 160.113 38.8723 160.935C38.8723 161.117 39.3865 161.478 40.8036 161.725C42.6543 162.047 45.4368 162.092 48.1678 162.092C54.4612 162.092 56.5341 160.99 57.1047 160.556C57.2958 160.028 57.226 158.204 56.9565 156.301L42.957 156.18ZM48.1678 164.316C41.423 164.316 36.6486 164.073 36.6486 160.935C36.6486 158.585 40.642 155.184 41.8663 154.198C42.0665 154.037 42.3209 153.949 42.5738 153.953L57.9179 154.086C58.4541 154.091 58.9108 154.478 59.0032 155.006C59.6956 158.962 59.5705 161.375 58.6317 162.18C57.4949 163.154 54.7569 164.316 48.1678 164.316Z" fill="#2D2D2D"/>
<path d="M57.6747 130.146C60.1062 130.762 62.2618 131.522 64.6948 131.718C65.2058 131.739 65.7549 131.743 66.2632 131.678C68.6137 131.436 70.7129 130.698 73.0853 130.146C71.1767 132.381 68.3512 133.859 65.383 133.956C62.4056 133.911 59.5517 132.412 57.6747 130.146Z" fill="#2D2D2D"/>
<path d="M113.007 100.773C111.539 101.783 109.802 102.433 107.812 102.361C107.812 102.361 107.411 106.497 102.475 106.363C102.475 106.363 94.0686 110.233 88.9984 104.629V124.643C88.9984 124.643 79.1689 130.514 65.2032 125.177C53.5509 130.514 41.3645 125.177 41.3645 125.177L41.6312 108.632C36.3577 109.424 31.8656 105.266 35.6212 91.7834C35.6212 91.7834 35.6212 91.7808 35.6239 91.7722C35.6685 91.6111 35.713 91.4501 35.7603 91.2859C39.7633 77.4093 54.3066 73.8066 65.3063 73.8066C75.8502 73.8066 86.6968 74.5575 96.098 91.9531C96.1174 91.989 96.1254 92.0057 96.1254 92.0057C96.4201 92.5478 96.7121 93.1092 97.0041 93.6878L99.8059 93.0207C99.8059 93.0207 100.74 89.6627 103.275 89.8737C103.275 89.8737 107.011 84.6146 108.479 85.4149C109.908 86.1932 108.554 88.6204 108.485 88.7454C108.637 88.5925 111.325 85.9624 112.882 86.4825C114.441 87.0021 112.963 89.7266 112.888 89.8683C113.043 89.7513 115.973 87.5721 116.751 88.3504C117.552 89.1512 115.817 92.3535 115.817 92.3535C115.817 92.3535 118.62 90.8855 118.886 91.8194C119.081 92.5032 117.052 97.999 113.007 100.773Z" fill="#6C6377"/>
<path d="M38.9957 86.5725C41.213 82.8856 44.3799 80.3473 47.821 78.6082C47.507 79.3054 47.2354 80.0182 47.0008 80.7332C43.3171 82.4782 40.7482 84.6311 38.9957 86.5725ZM91.038 86.098C89.1819 84.4867 86.7596 82.7771 83.684 81.2973C83.3893 80.3183 83.0281 79.3393 82.5864 78.3897C85.4386 80.0445 88.2829 82.4884 91.038 86.098Z" fill="#C4C1C9"/>
<path d="M107.81 102.36C107.81 102.36 107.41 106.497 102.473 106.363C96.0019 105.295 93.4045 99.3896 94.4007 96.7563C95.3347 94.2878 97.0024 93.6871 97.0024 93.6871L99.8047 93.0199C95.9353 101.893 107.81 102.36 107.81 102.36Z" fill="white"/>
<path d="M53.8708 126.423C48.5188 126.423 44.1174 125.019 42.4873 124.422L42.7412 108.649C42.7428 108.551 42.7316 108.455 42.7085 108.363C45.528 107.566 47.7062 106.194 49.3808 104.629C50.0308 104.022 50.6052 103.386 51.1119 102.744C51.91 103.677 52.7731 104.54 53.6657 105.333C53.1993 106.395 52.5466 107.5 51.6599 108.631L52.1913 115.83C52.3442 117.904 53.9185 119.596 55.978 119.885C56.5797 119.969 57.2464 120.023 57.9672 120.023C60.0123 120.023 62.4963 119.591 65.2032 118.205C65.2032 118.205 68.1972 119.531 74.0848 119.531C76.1744 119.531 78.6279 119.364 81.4431 118.911C83.3121 118.611 84.7935 117.172 85.1215 115.307L88.9979 93.2927C88.9979 93.2927 89.0038 102.712 96.4329 103.153C97.4533 104.279 98.8269 105.265 100.562 105.876C99.5037 106.197 97.9659 106.548 96.2961 106.548C94.1061 106.548 91.6875 105.945 89.8212 103.882C89.6065 103.644 89.3049 103.517 88.9968 103.517C88.8626 103.517 88.7274 103.541 88.5975 103.591C88.1681 103.756 87.8852 104.168 87.8852 104.628V123.969C86.4929 124.642 82.5123 126.289 76.8662 126.289C73.606 126.289 69.7908 125.74 65.5988 124.138C65.471 124.089 65.3363 124.065 65.2021 124.065C65.0438 124.065 64.8859 124.098 64.7389 124.166C61.0428 125.858 57.2657 126.423 53.8708 126.423ZM40.4262 107.612C39.269 107.612 37.955 107.293 36.9567 106.153C35.2584 104.214 34.903 100.463 35.896 95.401C36.3152 98.1406 37.2809 100.393 39.2845 100.679C39.5395 100.715 39.7988 100.732 40.0607 100.732C40.3119 100.732 40.5658 100.716 40.8218 100.686L41.518 107.525C41.5003 107.527 41.4825 107.529 41.4648 107.532C41.1444 107.58 40.7933 107.612 40.4262 107.612ZM106.626 102.244C106.068 102.167 105.356 102.041 104.594 101.838C104.684 101.808 104.775 101.778 104.864 101.747C105.561 101.919 106.202 102.026 106.708 102.093C106.687 102.136 106.659 102.186 106.626 102.244Z" fill="#595360"/>
<path d="M100.562 105.876C98.8268 105.265 97.4532 104.279 96.4329 103.153C96.4334 103.153 96.4334 103.153 96.4334 103.153C96.7238 103.169 97.0163 103.178 97.3094 103.178C99.7725 103.178 102.314 102.6 104.594 101.838C105.356 102.041 106.068 102.167 106.626 102.243C106.23 102.937 105.006 104.625 102.219 105.281C102.146 105.298 102.076 105.322 102.008 105.353C101.988 105.362 101.44 105.609 100.562 105.876Z" fill="#D7CCE4"/>
<path d="M107.811 102.199C107.811 102.199 95.9364 101.732 99.8058 92.8589C99.8058 92.8589 100.039 92.0226 100.59 91.2078C101.14 90.3936 102.008 89.6067 103.275 89.7125C103.275 89.7125 107.011 84.4528 108.479 85.2537C109.907 86.032 108.554 88.4586 108.485 88.5837C108.637 88.4307 111.325 85.8012 112.882 86.3213C114.441 86.8408 112.963 89.5649 112.888 89.7066C113.043 89.5901 115.973 87.4109 116.751 88.1892C117.552 88.9895 115.817 92.1917 115.817 92.1917C115.817 92.1917 118.127 90.9797 118.753 91.4607C118.816 91.5079 118.861 91.5718 118.886 91.6582C119.153 92.5921 115.284 102.466 107.811 102.199Z" fill="#FFD8BF"/>
<path d="M106.708 102.093C104.356 101.782 99.0587 100.588 99.0308 96.1504C99.0308 96.1391 99.0308 96.1273 99.0308 96.116C99.0308 95.5583 99.1134 94.9491 99.2959 94.2841L100.062 94.1016C100.415 94.0178 100.703 93.765 100.837 93.4328C101.35 95.1482 102.751 97.0086 106.099 98.2244C106.887 98.5104 107.665 98.6387 108.426 98.6387C112 98.6387 115.208 95.8074 117.42 93.173C116.391 95.7897 113.215 101.254 108.114 101.254C108.027 101.254 107.938 101.252 107.85 101.249C107.834 101.248 107.818 101.248 107.802 101.248C107.356 101.248 106.952 101.529 106.78 101.941C106.774 101.955 106.751 102.008 106.708 102.093Z" fill="#D7ADB0"/>
<path d="M42.4873 124.422C45.1517 125.398 55.2153 128.528 64.7388 124.165C65.0104 124.041 65.3201 124.031 65.5987 124.138C77.0514 128.514 85.6893 125.031 87.8851 123.968V104.628C87.8851 104.168 88.168 103.756 88.5974 103.591C89.0263 103.425 89.5131 103.541 89.8212 103.882C94.2923 108.824 101.931 105.388 102.008 105.353C102.076 105.322 102.146 105.298 102.219 105.281C105.693 104.463 106.737 102.044 106.78 101.941C106.959 101.513 107.385 101.227 107.85 101.249C113.361 101.451 116.687 95.2737 117.557 92.8057C117.177 92.9394 116.727 93.1316 116.331 93.3382C115.898 93.5653 115.367 93.4815 115.024 93.1332C114.681 92.7848 114.605 92.2534 114.838 91.8235C115.287 90.9921 115.667 90.0227 115.802 89.4199C115.223 89.6534 114.317 90.1843 113.554 90.757C113.138 91.0699 112.56 91.0516 112.164 90.7135C111.768 90.3753 111.66 89.8075 111.904 89.3475C112.342 88.5246 112.51 87.8022 112.48 87.5273C111.931 87.4501 110.391 88.4081 109.269 89.531C108.877 89.9234 108.256 89.9663 107.814 89.633C107.371 89.2992 107.241 88.6899 107.511 88.2047C107.86 87.5767 108.076 86.821 108.005 86.4866C107.269 86.7974 105.535 88.6127 104.18 90.5176C103.952 90.838 103.572 91.0141 103.181 90.9813C101.608 90.8514 100.882 93.2969 100.875 93.3221C100.764 93.708 100.453 94.0086 100.062 94.1015L97.26 94.7692C96.7587 94.8889 96.2413 94.6473 96.0094 94.1873C86.3076 74.918 74.6623 74.918 65.3051 74.918C58.1889 74.918 41.1685 76.5433 36.8272 91.5938C34.8107 98.5849 34.8563 103.755 36.9566 106.153C38.2716 107.654 40.1342 107.732 41.4648 107.532C41.7884 107.484 42.1164 107.579 42.3622 107.795C42.608 108.01 42.7465 108.323 42.7412 108.649L42.4873 124.422ZM53.809 128.676C46.7056 128.677 41.257 126.344 40.9167 126.195C40.5061 126.015 40.2437 125.607 40.2512 125.158L40.4981 109.835C38.3919 109.853 36.5696 109.086 35.2835 107.618C33.4328 105.505 31.8274 100.903 34.6904 90.9776C36.5884 84.3981 40.8738 79.4734 47.4286 76.3393C53.7285 73.3265 60.6273 72.6942 65.3051 72.6942C70.9979 72.6942 76.5672 72.9159 82.1151 75.59C88.1664 78.5072 93.236 84.0116 97.595 92.4032L98.9503 92.0806C99.5053 90.6802 100.719 88.9438 102.702 88.7662C104.636 86.1339 107.188 83.4459 109.01 84.4383C109.568 84.7421 109.956 85.2252 110.133 85.835C110.151 85.8956 110.166 85.9568 110.179 86.0185C111.155 85.4625 112.258 85.1012 113.233 85.4276C113.84 85.6299 114.301 86.0583 114.531 86.6347C114.635 86.8961 114.687 87.1747 114.7 87.4592C115.965 86.909 116.915 86.9428 117.536 87.5638C118.2 88.2273 118.172 89.3024 117.843 90.4387C118.305 90.371 118.737 90.3898 119.095 90.5428C119.522 90.7264 119.828 91.071 119.954 91.5138C120.289 92.6855 118.755 96.1578 116.797 98.659C114.422 101.694 111.559 103.346 108.481 103.469C107.823 104.556 106.183 106.599 102.832 107.42C101.874 107.838 95.2832 110.497 90.1089 107.052V124.643C90.1089 125.034 89.9028 125.397 89.5673 125.597C89.2802 125.769 84.5052 128.545 76.9494 128.545C73.555 128.545 69.6013 127.985 65.2391 126.378C61.3031 128.097 57.3505 128.676 53.809 128.676Z" fill="#2D2D2D"/>
<path d="M63.179 85.3235L59.0068 84.9843C58.4051 84.9344 58.3579 84.0627 58.944 83.9435L63.0448 83.104C64.727 82.8582 64.8805 85.3638 63.179 85.3235Z" fill="#2D2D2D"/>
<path d="M63.245 88.4308L58.6419 87.6707C58.249 87.6106 58.2522 87.025 58.6419 86.967L63.245 86.207C64.1124 86.1195 64.5461 86.7191 64.5461 87.3186C64.5467 87.9182 64.113 88.5177 63.245 88.4308Z" fill="#2D2D2D"/>
<path d="M63.3433 90.981L59.0187 90.7373C58.4562 90.704 58.3896 89.894 58.9323 89.7663L63.1469 88.7658C64.8285 88.47 65.0518 90.9761 63.3433 90.981Z" fill="#2D2D2D"/>
<path d="M87.8851 104.628L88.285 91.8192C88.3328 90.9121 89.6586 90.9078 89.7085 91.8192L90.1089 104.628C90.1041 106.141 87.8916 106.147 87.8851 104.628Z" fill="#2D2D2D"/>
<path d="M97.3458 94.7484C97.1446 94.844 96.0984 95.4103 95.4404 97.1499C95.1575 97.8981 95.2842 99.3677 96.2047 100.965C97.4859 103.188 99.7618 104.736 102.469 105.234C104.374 104.868 105.455 104.012 106.052 103.283C103.934 102.941 100.42 101.994 98.7897 99.3951C97.925 98.0162 97.7012 96.3973 98.1177 94.5649L97.3458 94.7484ZM102.473 107.475C102.413 107.475 102.352 107.471 102.292 107.46C98.8434 106.891 95.9224 104.929 94.2778 102.076C93.1313 100.086 92.7802 97.8976 93.3605 96.363C94.4447 93.4978 96.406 92.7206 96.6261 92.6412C96.6647 92.6272 96.7044 92.6154 96.7447 92.6057L99.5471 91.9385C99.9566 91.8403 100.387 91.9836 100.658 92.3068C100.928 92.6299 100.992 93.0786 100.824 93.4645C99.9732 95.4151 99.9222 97.0119 100.672 98.2099C102.115 100.518 106.347 101.186 107.855 101.249C108.189 101.263 108.5 101.427 108.7 101.695C108.9 101.962 108.97 102.306 108.889 102.631C108.848 102.792 107.842 106.575 102.66 107.459C102.598 107.47 102.536 107.475 102.473 107.475Z" fill="#2D2D2D"/>
<path d="M97.5311 94.6656L91.4793 97.3419C90.8126 97.6242 90.3177 96.7037 90.9178 96.3038L96.4743 92.7092C96.9912 92.3742 97.682 92.5224 98.0164 93.0398C98.3905 93.6061 98.1532 94.3962 97.5311 94.6656Z" fill="#2D2D2D"/>
<path d="M109.405 89.3673L107.131 91.8713C106.895 92.1311 106.493 92.1504 106.233 91.9142C106.02 91.7205 105.969 91.414 106.088 91.1671L107.561 88.1226C108.391 86.6342 110.476 88.041 109.405 89.3673Z" fill="#2D2D2D"/>
<path d="M113.754 90.5628L110.695 93.2873C110.34 93.6115 109.791 93.1649 110.029 92.7532L112.018 89.1731C112.963 87.6992 114.986 89.3175 113.754 90.5628Z" fill="#2D2D2D"/>
<path d="M116.629 93.1112L113.859 95.1428C113.436 95.4546 112.89 94.9378 113.17 94.4998L115.003 91.5949C116.058 90.1494 117.997 91.9561 116.629 93.1112Z" fill="#2D2D2D"/>
<path d="M65.3057 111.068C65.3057 111.068 76.9886 106.664 81.1913 98.058L78.4126 93.5219L83.793 92.1875C83.793 92.1875 84.59 81.5996 79.4882 75.5187C79.4882 75.5187 75.2382 101.861 65.3057 111.068Z" fill="#6C6377"/>
<path d="M80.0948 78.3893C78.9177 84.38 75.5925 98.8567 69.5133 107.78C72.9769 105.806 77.5232 102.553 79.9171 98.1063L77.4641 94.1022C77.2795 93.8 77.2494 93.4275 77.3836 93.1C77.5184 92.7716 77.8012 92.5279 78.1453 92.4425L82.7163 91.3089C82.764 89.1555 82.6459 83.0612 80.0948 78.3893ZM65.3057 112.18C64.9294 112.18 64.5676 111.988 64.3599 111.653C64.0803 111.2 64.1597 110.614 64.5499 110.252C74.0912 101.408 78.3487 75.6014 78.3906 75.3416C78.4598 74.9122 78.7733 74.5623 79.193 74.4469C79.6122 74.3309 80.0604 74.4705 80.3401 74.8038C85.6716 81.1584 84.9357 91.8199 84.9019 92.2708C84.8659 92.7495 84.5267 93.151 84.0608 93.2664L80.1538 94.2353L82.1398 97.4773C82.3384 97.8014 82.3572 98.2045 82.1902 98.5465C77.8436 107.447 66.1918 111.922 65.698 112.108C65.5692 112.157 65.4366 112.18 65.3057 112.18Z" fill="#2D2D2D"/>
<path d="M65.202 111.068C65.202 111.068 53.5191 106.664 49.3158 98.058L52.0945 93.5219L46.7141 92.1875C46.7141 92.1875 45.917 81.5996 51.0189 75.5187C51.0189 75.5187 55.2689 101.861 65.202 111.068Z" fill="#6C6377"/>
<path d="M79.528 75.6969C78.7943 79.7274 74.255 102.841 65.2043 111.233C55.9501 102.655 51.6304 79.2078 51.0829 76.0415C55.7778 74.4012 60.8373 73.8065 65.3068 73.8065C70.0382 73.8065 74.8304 73.9568 79.528 75.6969Z" fill="white"/>
<path d="M80.0948 78.3893C78.9177 84.38 75.5925 98.8567 69.5133 107.78C72.9769 105.806 77.5232 102.553 79.9171 98.1063L77.4641 94.1022C77.2795 93.8 77.2494 93.4275 77.3836 93.1C77.5184 92.7716 77.8012 92.5279 78.1453 92.4425L82.7163 91.3089C82.764 89.1555 82.6459 83.0612 80.0948 78.3893ZM65.3057 112.18C64.9294 112.18 64.5676 111.988 64.3599 111.653C64.0803 111.2 64.1597 110.614 64.5499 110.252C74.0912 101.408 78.3487 75.6014 78.3906 75.3416C78.4598 74.9122 78.7733 74.5623 79.193 74.4469C79.6122 74.3309 80.0604 74.4705 80.3401 74.8038C85.6716 81.1584 84.9357 91.8199 84.9019 92.2708C84.8659 92.7495 84.5267 93.151 84.0608 93.2664L80.1538 94.2353L82.1398 97.4773C82.3384 97.8014 82.3572 98.2045 82.1902 98.5465C77.8436 107.447 66.1918 111.922 65.698 112.108C65.5692 112.157 65.4366 112.18 65.3057 112.18Z" fill="#2D2D2D"/>
<path d="M50.5907 98.1063C52.9846 102.553 57.5304 105.806 60.994 107.78C54.9148 98.8562 51.5891 84.3778 50.4125 78.3882C47.8544 83.0649 47.7406 89.1555 47.7905 91.3084L52.3625 92.4425C52.7066 92.5279 52.9894 92.7716 53.1236 93.1C53.2584 93.4275 53.2283 93.8 53.0431 94.1022L50.5907 98.1063ZM65.2016 112.18C65.0706 112.18 64.9381 112.157 64.8098 112.108C64.316 111.922 52.6636 107.447 48.317 98.5465C48.1501 98.2045 48.1694 97.8014 48.368 97.4773L50.354 94.2353L46.4465 93.2664C45.9806 93.151 45.6413 92.7495 45.6054 92.2708C45.5716 91.8199 44.8357 81.1584 50.1672 74.8038C50.4469 74.4705 50.895 74.3309 51.3148 74.4469C51.734 74.5623 52.0474 74.9117 52.1167 75.3416C52.1586 75.6014 56.4214 101.413 65.9579 110.252C66.3476 110.614 66.427 111.2 66.1474 111.653C65.9402 111.988 65.5779 112.18 65.2016 112.18Z" fill="#2D2D2D"/>
<path d="M52.348 76.7918C53.2814 81.8088 57.3473 101.421 65.2032 109.67C72.985 101.469 77.2731 81.4964 78.258 76.4311C74.0054 75.0398 69.7022 74.918 65.3068 74.918C62.0256 74.918 57.1938 75.2524 52.348 76.7918ZM65.2043 112.345C64.9327 112.345 64.6616 112.246 64.448 112.048C55.0785 103.363 50.7581 80.6881 49.9874 76.2309C49.8945 75.6952 50.2031 75.1708 50.7163 74.9915C56.1514 73.093 61.651 72.6942 65.3068 72.6942C70.0216 72.6942 75.0327 72.8456 79.9145 74.6539C80.4206 74.8412 80.7185 75.3651 80.6224 75.896C79.7969 80.4277 75.2125 103.469 65.96 112.048C65.7469 112.246 65.4753 112.345 65.2043 112.345Z" fill="#2D2D2D"/>
<path d="M70.8847 102.861C70.8847 102.861 68.8278 107.864 65.2032 111.067C61.5785 107.864 59.5211 102.861 59.5211 102.861C59.7546 99.4444 60.7192 92.4978 61.3531 88.1393C61.6837 85.8651 61.9231 84.2973 61.9231 84.2973L60.9 83.5109C60.052 82.8577 59.6408 81.7847 59.8324 80.7338L61.089 73.8177L69.2835 73.6401L70.5734 80.7338C70.7623 81.7847 70.3511 82.8577 69.5036 83.5109L68.4833 84.2973C68.4833 84.2973 68.611 85.14 68.8112 86.4824C69.4032 90.4935 70.6179 98.9688 70.8847 102.861Z" fill="#FF4242"/>
<path d="M65.2021 109.536C62.7567 107.054 61.1652 103.804 60.6945 102.769L61.9644 96.9715C62.0433 97.9216 62.1834 98.8797 62.4056 99.8125C62.754 101.275 63.974 102.006 65.1962 102.006C66.4211 102.006 67.6475 101.273 68.0029 99.8088C68.3501 98.3778 68.6373 96.5722 68.7913 94.3006C69.2111 97.4369 69.6008 100.622 69.7554 102.67C69.3512 103.575 67.7409 106.962 65.2021 109.536Z" fill="#D13543"/>
<path d="M60.6488 102.669C61.0546 103.575 62.6707 106.967 65.2021 109.536C67.7409 106.962 69.3511 103.575 69.7553 102.67C69.3576 97.3983 67.4033 84.5974 67.3829 84.4669C67.3217 84.0671 67.4827 83.665 67.8032 83.4181L68.8251 82.6302C69.3458 82.2287 69.5959 81.5782 69.4783 80.9319L68.3587 74.7732L62.0207 74.9106L60.9258 80.9319C60.8082 81.5782 61.0583 82.2287 61.579 82.6302L62.601 83.4181C62.9214 83.665 63.0824 84.0671 63.0212 84.4669C63.0008 84.5974 61.0471 97.3978 60.6488 102.669ZM65.2021 112.18C64.9391 112.18 64.676 112.087 64.4656 111.901C60.6907 108.565 58.5802 103.499 58.4916 103.284C58.4272 103.127 58.3993 102.956 58.4111 102.786C58.7251 98.1992 60.3069 87.5468 60.7245 84.7793L60.221 84.3913C59.0396 83.4804 58.4707 82.0022 58.738 80.5342L59.995 73.6197C60.0895 73.1002 60.5366 72.7185 61.0648 72.7073L69.2588 72.5291C69.8154 72.5173 70.2792 72.9043 70.3769 73.4421L71.6662 80.5342C71.9335 82.0022 71.365 83.4804 70.1831 84.3913L69.6796 84.7793C70.0972 87.5468 71.679 98.1992 71.993 102.786C72.0048 102.956 71.9775 103.127 71.9125 103.284C71.8245 103.499 69.7134 108.565 65.9385 111.901C65.7281 112.087 65.4651 112.179 65.2021 112.18Z" fill="#2D2D2D"/>
<path d="M79.4872 75.5198C79.4872 75.5198 76.4432 83.0478 72.2625 85.5496L65.5746 79.2921L58.8834 85.5496C54.7032 83.0478 51.6593 75.5198 51.6593 75.5198C57.6838 73.8108 64.3438 73.5999 65.522 73.6433C65.5467 73.6407 65.5665 73.6407 65.5832 73.6407C65.5971 73.6407 65.6105 73.6407 65.6245 73.6433C66.5418 73.6573 73.4305 73.8189 79.4872 75.5198Z" fill="white"/>
<path d="M53.2068 76.2599C54.1305 78.2207 56.2104 82.1717 58.7729 84.1303L64.8151 78.4799C65.2424 78.08 65.9069 78.08 66.3341 78.4799L72.3736 84.1303C74.9345 82.1728 77.0128 78.226 77.9381 76.2642C72.306 74.8966 66.3175 74.7662 65.6079 74.7554C65.5961 74.7549 65.5848 74.7549 65.573 74.7543C65.5424 74.7559 65.5113 74.7559 65.4807 74.7543C64.58 74.7221 58.7938 74.8794 53.2068 76.2599ZM72.2631 86.6616C71.9877 86.6616 71.7145 86.5591 71.503 86.361L65.5746 80.8148L59.643 86.3616C59.2807 86.6997 58.738 86.7582 58.3129 86.5033C53.8632 83.841 50.7581 76.2583 50.6282 75.9368C50.5102 75.6437 50.5214 75.3147 50.6604 75.0313C50.7989 74.7474 51.0517 74.5364 51.3555 74.45C57.5443 72.6948 64.2451 72.4989 65.5011 72.5306C65.5682 72.5274 65.6165 72.5274 65.6911 72.5327C66.6937 72.5499 73.671 72.7313 79.7878 74.4495C80.0926 74.5348 80.346 74.7458 80.4855 75.0297C80.6246 75.3136 80.6369 75.6437 80.5183 75.9368C80.3879 76.2583 77.2833 83.841 72.8336 86.5033C72.6565 86.6096 72.4595 86.6616 72.2631 86.6616Z" fill="#2D2D2D"/>
<path d="M68.4822 85.4105H61.922C61.308 85.4105 60.8104 84.9124 60.8104 84.2984C60.8104 83.6843 61.308 83.1862 61.922 83.1862H68.4822C69.0962 83.1862 69.5944 83.6843 69.5944 84.2984C69.5944 84.9124 69.0962 85.4105 68.4822 85.4105Z" fill="#2D2D2D"/>
<path d="M65.5219 74.9213C65.2503 74.9213 64.9868 74.822 64.7818 74.6395C64.545 74.4285 64.4098 74.1263 64.4098 73.8091C64.4098 73.1951 64.9079 72.6943 65.5219 72.6943H65.5831C66.1972 72.6943 66.6947 73.1924 66.6947 73.8064C66.6947 74.413 66.2084 74.9062 65.6046 74.918C65.5767 74.9202 65.5493 74.9213 65.5219 74.9213Z" fill="#2D2D2D"/>
<path d="M65.6244 74.9213C65.5922 74.9213 65.56 74.9197 65.5273 74.917C64.939 74.888 64.4709 74.4017 64.4709 73.8064C64.4709 73.1978 64.9599 72.7034 65.567 72.6948L65.5702 72.6943H65.5724H65.5804H65.5831H65.6244C66.2385 72.6943 66.7366 73.1924 66.7366 73.8064V73.8091C66.7366 74.1441 66.5857 74.4607 66.3265 74.6717C66.1263 74.8343 65.8778 74.9213 65.6244 74.9213Z" fill="#2D2D2D"/>
<path d="M50.9561 113.31C47.5461 113.31 45.777 112.835 45.6686 112.805L46.2595 110.661C46.2955 110.67 49.9486 111.623 57.0198 110.632L57.3284 112.835C54.7928 113.19 52.6678 113.31 50.9561 113.31Z" fill="#2D2D2D"/>
<path d="M78.9139 113.31C75.504 113.31 73.7354 112.835 73.627 112.805L74.2179 110.661C74.2539 110.67 77.907 111.623 84.9782 110.632L85.2863 112.835C82.7512 113.19 80.6256 113.31 78.9139 113.31Z" fill="#2D2D2D"/>
<path d="M65.2021 126.288C64.5881 126.288 64.09 125.79 64.09 125.176V111.233C64.09 110.619 64.5881 110.121 65.2021 110.121C65.8162 110.121 66.3143 110.619 66.3143 111.233V125.176C66.3143 125.79 65.8162 126.288 65.2021 126.288Z" fill="#2D2D2D"/>
<path d="M41.4353 58.516C39.5653 61.2159 35.508 61.6437 32.3734 59.472C29.2382 57.3008 28.213 53.3519 30.0831 50.6526C31.9526 47.9533 36.0099 47.5249 39.1445 49.6966C42.2796 51.8678 43.3048 55.8167 41.4353 58.516Z" fill="#FFD8BF"/>
<path d="M36.6775 59.7468C36.1977 59.7468 35.7055 59.6862 35.2149 59.5649C35.3899 59.1446 35.5079 58.7055 35.5702 58.2573C35.7645 58.2471 35.9572 58.216 36.144 58.165C36.2181 58.1441 36.2841 58.0936 36.3217 58.0201C36.3995 57.8714 36.3276 57.6895 36.174 57.6256C35.9926 57.5365 35.8005 57.4302 35.6223 57.3057C35.6088 56.8328 35.5385 56.3567 35.4135 55.8865C36.0527 55.6724 36.7897 55.5462 37.4435 55.3514C37.4569 55.3471 37.4708 55.3428 37.4848 55.3385C37.6281 56.7995 37.8364 58.2074 38.109 59.5563C37.6544 59.683 37.1724 59.7468 36.6775 59.7468ZM34.4017 53.7052C34.078 53.235 33.6937 52.7905 33.2509 52.3858C33.8478 52.5501 34.436 52.8104 34.9293 53.1443C35.042 53.2173 35.1499 53.2951 35.2541 53.3777C34.961 53.4615 34.6728 53.5678 34.4017 53.7052ZM35.9824 51.9328C35.1392 51.5737 34.2294 51.4014 33.3105 51.4014C33.0555 51.4014 32.799 51.4148 32.5435 51.4411C32.4109 51.4556 32.3159 51.5222 32.2579 51.6118C31.9139 51.3837 31.5591 51.1862 31.1984 51.0193C31.8698 50.2012 32.8435 49.6666 33.99 49.4884C34.6878 50.4482 35.3711 51.264 35.9824 51.9328Z" fill="#D1ADA7"/>
<path d="M88.9759 58.516C90.8459 61.2159 94.9032 61.6437 98.0378 59.472C101.172 57.3008 102.198 53.3519 100.328 50.6526C98.4581 47.9533 94.4014 47.5249 91.2662 49.6966C88.1316 51.8678 87.1058 55.8167 88.9759 58.516Z" fill="#FFD8BF"/>
<path d="M93.7475 59.7462C93.5473 59.7462 93.3477 59.736 93.1491 59.7151C92.8098 59.6791 92.484 59.6131 92.1754 59.5186C92.4781 58.1123 92.7004 56.7055 92.8576 55.3223C93.5812 55.5322 94.3745 55.6723 95.0631 55.9106C94.9467 56.355 94.8796 56.8054 94.8624 57.2525C94.6563 57.406 94.4255 57.5343 94.2118 57.6384C93.9864 57.7447 94.0208 58.1054 94.2666 58.1649C94.4883 58.2251 94.7046 58.2573 94.9134 58.2648C94.9756 58.7049 95.0916 59.1365 95.2617 59.5503C94.762 59.6797 94.2532 59.7462 93.7475 59.7462ZM96.0572 53.7405C95.7625 53.5886 95.4668 53.4689 95.1673 53.3766C95.7759 52.8919 96.5091 52.5484 97.2643 52.3568C96.7968 52.7792 96.3932 53.2456 96.0572 53.7405ZM94.5908 51.8646C95.1093 51.0557 95.5908 50.2479 96.0352 49.4422C96.0749 49.446 96.1152 49.4497 96.1549 49.4535C97.4281 49.5882 98.5091 50.1491 99.2326 51.0433C98.8714 51.2135 98.5171 51.4142 98.1736 51.6461C98.113 51.5361 98.0018 51.4561 97.8671 51.4411C97.6068 51.4132 97.3497 51.3997 97.0953 51.3997C96.3266 51.3997 95.5811 51.5253 94.8313 51.7792C94.7507 51.8055 94.6702 51.8345 94.5908 51.8646Z" fill="#D1ADA7"/>
<path d="M34.852 49.4224C34.6523 49.4224 34.4537 49.4326 34.2557 49.4536C32.8714 49.5996 31.7141 50.2506 30.9965 51.2855C30.2794 52.3209 30.077 53.6332 30.4275 54.981C30.7931 56.3889 31.7088 57.6594 33.0061 58.5579C35.6319 60.377 39.0032 60.0743 40.5211 57.8832C41.2382 56.8479 41.4401 55.5355 41.0901 54.1877C40.7246 52.7798 39.8089 51.5093 38.5116 50.6108C37.3914 49.8347 36.1117 49.4224 34.852 49.4224ZM36.6673 61.9636C35.0082 61.9636 33.2739 61.4489 31.7399 60.3861C30.0051 59.1843 28.7744 57.4635 28.2746 55.5398C27.7594 53.556 28.0771 51.5952 29.1689 50.0193C30.2601 48.4434 31.9841 47.4574 34.0227 47.2422C35.9996 47.0339 38.043 47.5809 39.7777 48.7826C41.5125 49.9844 42.7433 51.7052 43.243 53.629C43.7583 55.6128 43.4405 57.5735 42.3493 59.1494C41.0686 60.998 38.9383 61.9636 36.6673 61.9636Z" fill="#2D2D2D"/>
<path d="M32.5435 51.4412C34.1141 51.2796 35.7018 51.6081 37.027 52.4991C37.4956 52.7981 37.8981 53.1953 38.2792 53.6172C38.6571 53.9897 38.6603 54.5983 38.2878 54.9757C38.0957 55.199 37.706 55.266 37.4435 55.3514C36.6706 55.5817 35.7812 55.7164 35.0748 56.0132C35.0426 56.0207 35.0652 56.0084 35.0539 55.9966C35.0491 55.9832 35.0442 55.9874 35.0373 55.9917C35.0335 55.9939 35.0281 55.9966 35.0217 55.995C34.9707 56.0062 34.9186 56.0567 34.8993 56.1807C34.8762 56.8559 35.5815 57.3358 36.1741 57.6256C36.3276 57.6895 36.3995 57.8714 36.3217 58.0201C36.2841 58.0937 36.2181 58.1441 36.144 58.165C35.4103 58.3653 34.5928 58.2574 33.9316 57.7958C32.9735 57.1882 32.5381 55.7303 33.2338 54.6992C33.9192 53.6982 35.1328 53.3348 36.231 53.1727C36.5799 53.1346 36.8976 53.1078 37.2766 53.1335L36.4403 54.8678C36.1033 54.177 35.5939 53.5747 34.9294 53.1443C34.237 52.6757 33.3567 52.3526 32.5296 52.2345C32.0712 52.1663 32.0857 51.4911 32.5435 51.4412Z" fill="#2D2D2D"/>
<path d="M95.5591 49.4223C94.2988 49.4223 93.0197 49.8346 91.8995 50.6107C90.6022 51.5092 89.686 52.7797 89.3205 54.1876C88.9705 55.5354 89.1728 56.8478 89.8899 57.8831C90.607 58.9185 91.7648 59.5691 93.1491 59.7151C94.5967 59.8686 96.1071 59.4569 97.4045 58.5578C98.7023 57.6593 99.618 56.3888 99.9835 54.9809C100.334 53.6331 100.131 52.3208 99.4141 51.2859C98.697 50.2506 97.5397 49.5995 96.1549 49.4535C95.9574 49.4325 95.7582 49.4223 95.5591 49.4223ZM93.7444 61.97C93.4674 61.97 93.191 61.9555 92.9162 61.9265C90.8776 61.7112 89.1535 60.7252 88.0618 59.1493C86.9706 57.5734 86.6528 55.6127 87.1681 53.6289C87.6678 51.7057 88.898 49.9843 90.6333 48.7825C92.3681 47.5808 94.4121 47.0338 96.3884 47.2421C98.427 47.4573 100.15 48.4433 101.242 50.0192C102.334 51.5951 102.651 53.5559 102.136 55.5397C101.637 57.4634 100.406 59.1842 98.6712 60.386C97.1774 61.4203 95.4555 61.97 93.7444 61.97Z" fill="#2D2D2D"/>
<path d="M97.8413 52.2409C96.2606 52.477 94.6562 53.3868 93.9708 54.8677H93.9703L93.1345 53.1335C94.2719 53.0943 95.2896 53.2902 96.3035 53.8747C98.8896 55.4566 96.9557 58.8993 94.2666 58.165C94.0207 58.1054 93.9864 57.7447 94.2118 57.6384C94.8097 57.3481 95.5354 56.8661 95.5118 56.1806C95.4925 56.0566 95.4399 56.0062 95.3894 55.9949C95.3825 55.9965 95.3776 55.9938 95.3733 55.9917C95.3664 55.9874 95.3621 55.9831 95.3567 55.9965C95.346 56.0083 95.3685 56.0207 95.3363 56.0132C94.4904 55.668 93.4303 55.5237 92.5302 55.2204C92.0224 55.0679 91.7342 54.5323 91.8866 54.0245C91.9344 53.8662 92.0219 53.7261 92.1314 53.6171C92.8549 52.7787 93.7947 52.1212 94.8312 51.7793C95.8296 51.4411 96.8204 51.3305 97.8671 51.4411C98.0871 51.4653 98.2449 51.6633 98.2208 51.8834C98.1988 52.0841 98.0329 52.2264 97.8413 52.2409Z" fill="#2D2D2D"/>
<path d="M90.9983 38.1812C90.9983 38.1812 99.9481 79.4106 65.523 79.4106C26.5522 79.4106 40.9624 31.9764 40.9624 31.9764C40.9624 31.9764 72.3849 27.173 90.9983 38.1812Z" fill="#FFD8BF"/>
<path d="M41.8362 32.979C40.7611 36.9788 35.8149 57.6319 44.659 69.5548C48.9621 75.3565 55.9818 78.2985 65.523 78.2985C74.1368 78.2985 80.6648 75.6206 84.9255 70.339C93.404 59.8299 90.5812 42.0103 90.0037 38.8886C73.4353 29.4149 46.528 32.3719 41.8362 32.979ZM65.523 80.5222C55.2367 80.5222 47.6149 77.2765 42.8689 70.8747C38.5272 65.0182 36.6426 56.3609 37.4193 45.8406C37.9995 37.9729 39.8213 31.9076 39.8986 31.6532C40.0231 31.2437 40.3714 30.942 40.7944 30.8776C40.8738 30.8652 48.8601 29.6656 59.0198 29.839C72.7273 30.0746 83.677 32.5592 91.564 37.2241C91.8308 37.3814 92.0192 37.6428 92.0847 37.945C92.2742 38.8156 96.5982 59.4043 86.6614 71.7292C81.9573 77.5637 74.8453 80.5222 65.523 80.5222Z" fill="#2D2D2D"/>
<path d="M56.1003 51.1888C56.1003 54.338 54.0821 56.8907 51.5922 56.8907C49.1022 56.8907 47.084 54.338 47.084 51.1888C47.084 48.0392 49.1022 45.4864 51.5922 45.4864C54.0821 45.4864 56.1003 48.0392 56.1003 51.1888Z" fill="#2D2D2D"/>
<path d="M54.3135 50.1024C54.3135 51.2146 53.7043 52.1163 52.9528 52.1163C52.2014 52.1163 51.5922 51.2146 51.5922 50.1024C51.5922 48.9903 52.2014 48.0891 52.9528 48.0891C53.7043 48.0891 54.3135 48.9903 54.3135 50.1024Z" fill="white"/>
<path d="M50.7517 55.1464C50.2649 55.1464 49.7276 54.7073 49.4517 54.0369C49.1205 53.2312 49.2933 52.3961 49.8376 52.1722C49.9294 52.1347 50.0255 52.1164 50.1242 52.1164C50.6105 52.1164 51.1484 52.5555 51.4237 53.2259C51.7554 54.0321 51.5826 54.8667 51.0378 55.0911C50.946 55.1286 50.8499 55.1464 50.7517 55.1464Z" fill="#202020"/>
<path d="M74.6602 51.1888C74.6602 54.338 76.6783 56.8907 79.1683 56.8907C81.6583 56.8907 83.6765 54.338 83.6765 51.1888C83.6765 48.0392 81.6583 45.4864 79.1683 45.4864C76.6783 45.4864 74.6602 48.0392 74.6602 51.1888Z" fill="#2D2D2D"/>
<path d="M76.447 50.1024C76.447 51.2146 77.0562 52.1163 77.8077 52.1163C78.5591 52.1163 79.1683 51.2146 79.1683 50.1024C79.1683 48.9903 78.5591 48.0891 77.8077 48.0891C77.0562 48.0891 76.447 48.9903 76.447 50.1024Z" fill="white"/>
<path d="M80.0088 55.1464C79.9106 55.1464 79.814 55.1286 79.7227 55.0911C79.1779 54.8667 79.0051 54.0321 79.3368 53.2259C79.6122 52.5555 80.15 52.1164 80.6363 52.1164C80.7345 52.1164 80.8311 52.1347 80.9229 52.1722C81.4672 52.3961 81.64 53.2312 81.3088 54.0369C81.033 54.7073 80.4957 55.1464 80.0088 55.1464Z" fill="#202020"/>
<path d="M68.9438 62.7516C68.1462 63.7521 66.9589 64.4666 65.2021 64.4666C63.4201 64.4666 62.2446 63.7301 61.4744 62.7071C59.7203 60.3856 60.0429 56.594 60.0429 56.594C60.0429 56.594 65.3803 58.1951 70.5836 56.594C70.5836 56.594 70.8004 60.4361 68.9438 62.7516Z" fill="#2D2D2D"/>
<path d="M68.9438 62.7516C68.1462 63.7521 66.9589 64.4666 65.2021 64.4666C63.4201 64.4666 62.2446 63.7301 61.4744 62.7071C61.9247 61.2391 63.4233 60.1634 65.2021 60.1634C66.9981 60.1634 68.5101 61.2616 68.9438 62.7516Z" fill="#FF70A2"/>
<path d="M61.1507 57.9959C61.2151 59.1612 61.4722 60.8595 62.3616 62.0366C63.0293 62.9238 63.9584 63.3543 65.2021 63.3543C66.4393 63.3543 67.3786 62.9303 68.0742 62.0581L68.0764 62.0559C69.006 60.896 69.3248 59.2144 69.43 58.0362C66.0861 58.7291 62.9144 58.3389 61.1507 57.9959ZM65.2021 65.5786C63.2671 65.5786 61.6708 64.8164 60.586 63.3758C58.599 60.7462 58.9205 56.6723 58.935 56.5C58.9634 56.1661 59.1405 55.8629 59.4175 55.675C59.6945 55.4866 60.0412 55.433 60.3622 55.529C60.4116 55.5435 65.4543 57.0094 70.2566 55.5312C70.5824 55.4313 70.9383 55.4861 71.219 55.6815C71.4992 55.8768 71.6747 56.1903 71.6941 56.5317C71.7037 56.7056 71.9109 60.8284 69.8117 63.4461C68.699 64.8411 67.1048 65.5786 65.2021 65.5786Z" fill="#2D2D2D"/>
<path d="M45.566 40.8329C45.566 40.8329 46.8167 37.5308 50.319 38.031C54.0489 38.564 53.9216 41.9836 53.9216 41.9836C53.9216 41.9836 52.9211 40.8329 49.7441 40.2827C47.3835 39.8737 45.566 40.8329 45.566 40.8329Z" fill="#2D2D2D"/>
<path d="M84.0168 40.8329C84.0168 40.8329 82.7662 37.5308 79.2633 38.031C75.534 38.564 75.6607 41.9836 75.6607 41.9836C75.6607 41.9836 76.6617 40.8329 79.8382 40.2827C82.1994 39.8737 84.0168 40.8329 84.0168 40.8329Z" fill="#2D2D2D"/>
<path d="M91.6333 55.9718C91.6333 55.9718 92.6006 45.5862 90.9994 38.1812C90.9994 38.1812 71.1853 39.3819 64.1801 35.7792V38.3728C64.1801 38.3728 48.9692 39.7823 40.9635 31.9769C40.9635 31.9769 37.1553 47.3875 38.3592 54.1925C38.3592 54.1925 30.156 47.9882 28.7551 36.1796C28.6435 35.2484 28.5603 34.337 28.5045 33.4471C27.8405 23.0733 30.7508 15.8599 35.3598 16.9661C35.3598 16.9661 42.3644 0.154011 66.5821 1.15505C83.7608 1.86356 100.067 15.54 100.367 33.0831C100.492 40.2713 97.9262 48.1105 91.6333 55.9718Z" fill="#6B5454"/>
<path d="M91.6333 55.9718C91.6333 55.9718 91.9226 52.8656 91.9226 48.84C91.9231 45.5041 91.7245 41.5364 90.9994 38.1812C90.9994 38.1812 90.2082 38.229 88.8873 38.2773C87.5631 38.325 85.7054 38.3733 83.5766 38.3733C82.9782 38.3733 82.3588 38.3696 81.7232 38.361C80.6111 38.3454 79.4512 38.3154 78.2741 38.2649C72.956 38.0352 67.2991 37.3836 64.1801 35.7792V38.3728C64.1801 38.3728 63.1087 38.4721 61.3868 38.4721C56.9007 38.4721 47.9938 37.8001 42.0563 32.9511C41.6795 32.6435 41.3145 32.3188 40.9634 31.9769C40.9634 31.9769 38.1224 43.4746 38.1235 50.9929C38.124 52.1791 38.1949 53.2655 38.3591 54.1925C38.3591 54.1925 36.2513 52.5983 33.99 49.4884C33.552 48.8856 33.1076 48.226 32.6723 47.5099C31.6642 45.8524 30.7013 43.8928 29.9606 41.6379C30.1222 42.1295 30.2945 42.6072 30.4753 43.071C30.0722 41.6754 29.7556 40.1768 29.5666 38.573C29.39 37.0862 29.2832 35.6504 29.2419 34.2779C30.2188 35.2232 31.5397 35.9381 33.297 35.9381C33.5955 35.9381 33.9068 35.9177 34.231 35.8742C40.1519 35.0734 36.5964 24.9465 36.5964 24.9465C36.5964 24.9465 49.1822 33.4841 58.3252 34.1309C58.3467 34.1325 58.3676 34.1335 58.3885 34.1335C59.1561 34.1335 59.4964 33.1282 58.8566 32.6612C55.672 30.3371 49.873 25.3684 48.9691 19.462C48.9691 19.462 62.3766 28.5835 80.4039 30.6994C80.5086 30.7118 80.6122 30.7177 80.7152 30.7177C82.0013 30.7177 83.1263 29.7805 83.3136 28.4783C83.7522 25.4285 83.772 20.1539 79.8387 16.2597C79.8387 16.2597 91.3772 19.0063 93.3842 28.5411C94.5516 34.0906 95.9734 36.4781 97.3969 36.4781C98.4173 36.4781 99.4382 35.2516 100.367 33.0831C100.37 33.2517 100.372 33.4202 100.372 33.5898C100.371 37.9885 99.3609 42.6239 97.1087 47.3527C96.778 48.0477 96.4206 48.7439 96.0352 49.4422C94.8404 51.608 93.3804 53.7888 91.6333 55.9718ZM28.755 36.1796C28.6563 35.3547 28.5795 34.5452 28.5248 33.753C28.5806 34.5447 28.6568 35.3547 28.755 36.1796Z" fill="#544651"/>
<path d="M29.9606 41.6378C29.4142 39.9776 28.9886 38.157 28.7551 36.1796C28.9896 38.1575 29.4148 39.9776 29.9606 41.6378ZM28.5248 33.7529C28.2441 29.767 28.4878 26.2347 29.1517 23.4436C28.505 26.1633 28.2575 29.5861 28.5044 33.447C28.5109 33.549 28.5178 33.651 28.5248 33.7529ZM99.2273 25.561C99.2256 25.5573 99.2246 25.553 99.223 25.5492C98.6454 23.5697 97.8623 21.668 96.9015 19.8608C97.865 21.6718 98.6492 23.5767 99.2273 25.561ZM29.1523 23.4403C29.1534 23.4361 29.1544 23.4318 29.1555 23.4275C29.1544 23.4323 29.1534 23.4361 29.1523 23.4403ZM29.1577 23.4178C29.1582 23.4151 29.1587 23.413 29.1598 23.4103C29.1593 23.413 29.1582 23.4151 29.1577 23.4178ZM29.163 23.3947C29.1636 23.3937 29.1641 23.3926 29.1641 23.391C29.1641 23.392 29.1636 23.3937 29.163 23.3947ZM77.5908 3.39325C77.5881 3.39217 77.5876 3.39216 77.5849 3.39109C77.5865 3.39162 77.5892 3.39271 77.5908 3.39325ZM77.571 3.38572C77.5635 3.38303 77.5565 3.38035 77.5484 3.37767C77.5559 3.38035 77.5635 3.38303 77.571 3.38572ZM77.5474 3.37714C77.5398 3.37446 77.5334 3.37178 77.5253 3.36909C77.5329 3.37178 77.5398 3.37446 77.5474 3.37714ZM77.5237 3.36855C74.0295 2.08088 70.3404 1.31279 66.6078 1.15552C70.3393 1.31279 74.0306 2.08142 77.5237 3.36855ZM66.6068 1.15552C66.5982 1.15552 66.5901 1.15499 66.5821 1.15499C66.5901 1.15499 66.5987 1.15552 66.6068 1.15552Z" fill="#FEF4DC"/>
<path d="M29.2419 34.278C28.9703 34.0155 28.725 33.7348 28.5044 33.4471C28.2575 29.5862 28.505 26.1634 29.1517 23.4436C29.1517 23.4426 29.1523 23.4415 29.1523 23.4404C29.1534 23.4361 29.1544 23.4324 29.1555 23.4275C29.156 23.4249 29.1571 23.4211 29.1577 23.4179C29.1582 23.4152 29.1593 23.413 29.1598 23.4104C29.1609 23.4055 29.1619 23.3996 29.163 23.3948C29.1636 23.3937 29.1641 23.3921 29.1641 23.391C30.1404 19.3311 32.0089 16.854 34.4446 16.854C34.7415 16.854 35.0463 16.891 35.3598 16.9661C35.3598 16.9661 41.9672 1.11213 64.5247 1.11213C65.1967 1.11213 65.8811 1.12609 66.5821 1.15507C66.5901 1.15507 66.5982 1.1556 66.6068 1.1556C66.6073 1.1556 66.6073 1.1556 66.6078 1.1556C70.3404 1.31286 74.0295 2.08096 77.5237 3.36862C77.5243 3.36862 77.5243 3.36863 77.5253 3.36917C77.5334 3.37185 77.5398 3.37454 77.5474 3.37722L77.5484 3.37774C77.5565 3.38043 77.5635 3.38311 77.571 3.3858C77.5763 3.38794 77.5796 3.38902 77.5849 3.39116C77.5876 3.39224 77.5881 3.39225 77.5908 3.39332C77.5978 3.39601 77.6037 3.39814 77.6101 3.40028L77.6107 3.40083C85.7972 6.43991 92.8947 12.3291 96.9015 19.8608C97.8623 21.6681 98.6454 23.5698 99.223 25.5493C94.3632 13.0103 81.1575 4.11792 67.3936 3.54789C66.6959 3.51944 66.012 3.5055 65.3427 3.5055C62.7829 3.5055 60.4293 3.71 58.2678 4.07338C58.373 4.1818 58.4401 4.30418 58.4707 4.43783C58.679 5.37177 56.9554 6.55316 54.6179 7.07864C53.8691 7.24611 53.1488 7.32555 52.5085 7.32555C51.2605 7.32555 50.3164 7.02337 50.0587 6.48339C39.6238 11.0731 36.1714 19.3595 36.1714 19.3595C35.8585 19.2844 35.553 19.2473 35.2562 19.2473C31.4061 19.2473 28.9741 25.4339 29.2419 34.278Z" fill="#C4BBBB"/>
<path d="M30.4753 43.071C30.2945 42.6073 30.1222 42.1296 29.9606 41.6379C29.4147 39.9778 28.9896 38.1576 28.7551 36.1797C28.6568 35.3547 28.5806 34.5448 28.5248 33.7531C28.5178 33.6511 28.5108 33.5491 28.5044 33.4471C28.725 33.7348 28.9703 34.0155 29.2419 34.278C29.2832 35.6505 29.39 37.0863 29.5666 38.5731C29.7556 40.1769 30.0722 41.6755 30.4753 43.071Z" fill="#C0B4BD"/>
<path d="M90.9988 37.069C91.519 37.069 91.9741 37.4319 92.0852 37.9461C93.1126 42.6974 93.1163 48.5453 92.9714 52.2945C99.7683 42.3013 101.118 31.6672 96.7276 22.0234C91.5909 10.7393 79.4576 2.79966 66.5348 2.26559C43.3563 1.30695 36.4521 17.2324 36.385 17.3934C36.1751 17.8974 35.6298 18.1749 35.0989 18.0471C34.2058 17.8324 33.4162 18.045 32.683 18.6966C30.4839 20.6515 28.7578 26.7747 29.8581 36.0487C30.7539 43.5997 34.5971 48.8035 37.0157 51.3992C36.9121 43.8428 39.745 32.2678 39.883 31.7101C39.9785 31.3231 40.2743 31.0166 40.6575 30.9077C41.0413 30.7982 41.4535 30.9023 41.7385 31.1804C48.1226 37.4045 59.6107 37.4603 63.0674 37.3235V35.7792C63.0674 35.3917 63.2692 35.0321 63.5999 34.8303C63.931 34.6279 64.3427 34.6134 64.6878 34.7905C71.3446 38.2139 90.7364 37.083 90.9312 37.0712C90.9538 37.0696 90.9763 37.069 90.9988 37.069ZM91.6338 57.0829C91.4937 57.0829 91.3526 57.0566 91.2173 57.0018C90.7621 56.8177 90.4814 56.3572 90.5265 55.8677C90.5356 55.77 91.3805 46.4117 90.0955 39.3417C86.2722 39.5209 72.4058 39.9675 65.2912 37.4555V38.3728C65.2912 38.9477 64.8537 39.4275 64.2815 39.4801C63.6755 39.5365 50.107 40.7029 41.6274 34.0337C40.6865 38.2526 38.5422 48.8416 39.453 53.9993C39.5325 54.449 39.3285 54.9021 38.9383 55.1409C38.5486 55.3792 38.0516 55.3551 37.6877 55.0792C37.3372 54.814 29.09 48.4498 27.6499 36.3106C26.5828 27.319 27.9456 19.9327 31.2059 17.0343C32.2418 16.1132 33.4398 15.6763 34.7103 15.7493C35.4687 14.2877 37.4263 11.0313 41.1664 7.8392C45.6772 3.98909 53.7575 -0.489017 66.6266 0.0434418C80.3663 0.611324 93.2763 9.07428 98.7517 21.1023C103.946 32.5131 101.727 45.1434 92.5017 56.6658C92.286 56.9353 91.9639 57.0829 91.6338 57.0829Z" fill="#2D2D2D"/>
<path d="M40.3982 32.9346C38.4273 31.3538 37.2824 28.9379 36.7038 26.5365C36.466 25.5145 36.3441 24.4142 36.2926 23.3702C36.9694 25.9026 38.1965 28.4087 40.2087 30.1279C40.6102 30.4661 41.0606 30.8117 41.527 31.0189C42.769 31.8015 41.6886 33.6426 40.3982 32.9346Z" fill="#2D2D2D"/>
<path d="M88.964 21.2451C92.7416 24.2949 95.1366 29.2604 94.4646 34.1738C94.3374 35.1603 93.55 36.0433 92.4996 35.528C91.5533 34.9784 91.0917 33.9832 90.5726 33.1003C90.1448 32.3005 89.7707 31.5153 89.4154 30.6774C88.9522 29.2963 90.9231 28.5481 91.4937 29.8884C92.01 31.2582 92.3004 32.6666 92.419 34.1212C92.542 35.5704 92.4303 37.0422 92.0739 38.4624C91.9338 39.0598 91.3359 39.4307 90.7385 39.2912C90.1185 39.1479 89.7503 38.5086 89.9226 37.8994C90.213 36.7287 90.3064 35.5076 90.2023 34.2951C90.1067 33.0928 89.855 31.8593 89.4353 30.7295L91.5087 29.9259C91.9784 31.278 92.4314 32.7584 93.2698 33.9221C93.3036 33.9639 93.3364 33.9897 93.3101 33.9795C93.2242 33.9435 93.0658 33.9323 92.9445 33.9811C92.7631 34.052 92.7352 34.1378 92.7411 34.1303C92.9692 33.7229 93.0122 33.1948 93.0615 32.6768C93.5344 28.5562 91.7041 24.3684 88.7627 21.493C88.6097 21.3701 88.7954 21.112 88.964 21.2451Z" fill="#2D2D2D"/>
<path d="M55.3876 76.2325C55.3876 76.232 55.3876 76.232 55.3876 76.232V76.2325ZM55.3876 76.2229C55.3876 76.2229 55.3876 76.2223 55.3876 76.2218C55.3876 76.2223 55.3876 76.2223 55.3876 76.2229ZM55.387 76.2138C55.387 76.2132 55.387 76.2121 55.387 76.2116C55.387 76.2127 55.387 76.2127 55.387 76.2138ZM55.386 76.1434C55.386 76.1424 55.386 76.1413 55.3854 76.1397C55.386 76.1408 55.386 76.1424 55.386 76.1434ZM55.3854 76.1134C55.3854 76.1118 55.3854 76.1102 55.3854 76.108C55.3854 76.1096 55.3854 76.1118 55.3854 76.1134ZM55.3854 76.093C55.3849 76.0914 55.3849 76.0892 55.3849 76.0876C55.3849 76.0892 55.3849 76.0908 55.3854 76.093ZM55.3849 76.0726C55.3849 76.0704 55.3849 76.0683 55.3849 76.0667C55.3849 76.0688 55.3849 76.0704 55.3849 76.0726ZM55.3849 76.0517C55.3849 76.0484 55.3849 76.0447 55.3849 76.0415C55.3849 76.0452 55.3849 76.0484 55.3849 76.0517ZM55.3849 76.0227C55.3849 76.0178 55.3849 76.0119 55.3849 76.0071C55.3849 76.0125 55.3849 76.0173 55.3849 76.0227ZM55.3865 75.8965C55.3865 75.8922 55.3865 75.8874 55.387 75.8831C55.3865 75.888 55.3865 75.8922 55.3865 75.8965ZM55.3892 75.8037C55.3892 75.8015 55.3892 75.7999 55.3892 75.7983C55.3892 75.7999 55.3892 75.8021 55.3892 75.8037ZM55.3908 75.7699C55.3908 75.7693 55.3908 75.7683 55.3908 75.7677C55.3908 75.7683 55.3908 75.7688 55.3908 75.7699ZM55.3913 75.7495C55.3913 75.7489 55.3913 75.7479 55.3913 75.7479C55.3913 75.7484 55.3913 75.7489 55.3913 75.7495ZM55.4445 75.158C55.445 75.1553 55.4455 75.1526 55.4455 75.1494C55.4455 75.1521 55.445 75.1553 55.4445 75.158Z" fill="#EFDEDF"/>
<path d="M56.8412 71.9417H56.8401C58.0301 70.4779 59.8437 69.5413 61.8753 69.537C61.5748 69.5375 61.2796 69.5596 60.9924 69.6009C60.3778 69.6841 59.7938 69.8537 59.249 70.0984C58.307 70.5171 57.4837 71.1526 56.8412 71.9417Z" fill="#FFEFE5"/>
<path d="M55.4487 75.1263C55.6173 73.9294 56.1122 72.8371 56.84 71.9418H56.8411C56.3145 72.5886 55.9103 73.3384 55.6629 74.1564C55.6624 74.157 55.6624 74.158 55.6618 74.1591C55.6613 74.1618 55.6607 74.1639 55.6597 74.1666C55.5663 74.4774 55.4954 74.7979 55.4487 75.1263Z" fill="#EFDEDF"/>
<path d="M66.6658 71.6257C66.6653 71.6252 66.6642 71.6241 66.6637 71.6236C66.6647 71.6241 66.6653 71.6247 66.6658 71.6257ZM66.6486 71.6069C66.0459 70.9607 65.3132 70.4379 64.492 70.0788C64.3889 70.0337 64.2848 69.9913 64.1791 69.9511C65.1275 70.308 65.9707 70.8796 66.6486 71.6069ZM63.645 69.7766C63.3567 69.6961 63.0599 69.6355 62.7572 69.5952C62.6182 69.5759 62.4792 69.5619 62.3401 69.5539C62.1952 69.5431 62.0503 69.5372 61.9054 69.5372C62.5081 69.5383 63.0916 69.622 63.645 69.7766Z" fill="#FFEFE5"/>
<path d="M56.9275 80.2469C56.7294 80.0135 56.548 79.7666 56.3843 79.5062C56.3843 79.5068 56.3848 79.5068 56.3854 79.5068C56.5491 79.766 56.7305 80.0124 56.928 80.2453L56.9275 80.2469Z" fill="#D1CCDA"/>
<path d="M56.3854 79.5068C56.3848 79.5068 56.3843 79.5068 56.3843 79.5063C55.9023 78.743 55.5749 77.8719 55.446 76.9379C55.5137 77.4248 55.6344 77.8939 55.8035 78.3399C55.9586 78.7506 56.154 79.1408 56.3854 79.5068Z" fill="#1B1B1B"/>
<path d="M55.386 76.1601C55.386 76.1585 55.386 76.1564 55.386 76.1542C55.386 76.1564 55.386 76.158 55.386 76.1601ZM55.3854 76.1188C55.3854 76.1167 55.3854 76.1156 55.3854 76.1134C55.3854 76.115 55.3854 76.1172 55.3854 76.1188ZM55.3849 76.0775C55.3849 76.0759 55.3849 76.0737 55.3849 76.0726C55.3849 76.0742 55.3849 76.0759 55.3849 76.0775ZM55.3849 76.056C55.3849 76.0549 55.3849 76.0533 55.3849 76.0517C55.3849 76.0533 55.3849 76.0544 55.3849 76.056ZM55.3849 76.0072C55.3849 76.0061 55.3849 76.005 55.3849 76.0039C55.3849 76.0055 55.3849 76.0061 55.3849 76.0072ZM55.3854 75.9545C55.3854 75.9529 55.3854 75.9513 55.3854 75.9503C55.3854 75.9513 55.3854 75.9535 55.3854 75.9545ZM55.386 75.9358C55.386 75.9347 55.386 75.9331 55.386 75.932C55.386 75.9331 55.386 75.9342 55.386 75.9358ZM55.387 75.8832C55.387 75.8816 55.387 75.8794 55.387 75.8773C55.387 75.8794 55.387 75.881 55.387 75.8832ZM55.387 75.8676C55.3876 75.8649 55.3876 75.8617 55.3876 75.859C55.3876 75.8622 55.3876 75.8644 55.387 75.8676ZM55.3903 75.7796C55.3903 75.7763 55.3903 75.7731 55.3908 75.7699C55.3903 75.7731 55.3903 75.7758 55.3903 75.7796ZM55.3908 75.7678C55.3908 75.7619 55.3913 75.7554 55.3913 75.7495C55.3913 75.7554 55.3908 75.7613 55.3908 75.7678ZM55.4455 75.1494C55.4461 75.1473 55.4461 75.1457 55.4466 75.1435C55.4461 75.1451 55.4461 75.1478 55.4455 75.1494Z" fill="#605459"/>
<path d="M64.4624 82.0177C64.4855 82.0075 64.5086 81.9978 64.5316 81.9876C64.5091 81.9978 64.4855 82.0075 64.4624 82.0177ZM58.7063 81.715C58.0294 81.3344 57.4272 80.8358 56.9275 80.247L56.928 80.2453C57.1739 80.5347 57.4444 80.8025 57.7369 81.0451C58.0391 81.2968 58.3638 81.5212 58.7084 81.715C58.7079 81.715 58.7074 81.715 58.7063 81.715Z" fill="#1B1B1B"/>
<path d="M55.4466 76.9377C55.4461 76.9377 55.4466 76.9383 55.4461 76.9377C55.4144 76.7064 55.3945 76.4708 55.3876 76.2325V76.2319C55.3876 76.2287 55.3876 76.226 55.3876 76.2228C55.3876 76.2223 55.3876 76.2223 55.3876 76.2217C55.3876 76.219 55.387 76.2164 55.387 76.2137C55.387 76.2126 55.387 76.2126 55.387 76.2115C55.387 76.2088 55.387 76.2062 55.387 76.2035C55.387 76.2029 55.387 76.2019 55.387 76.2013C55.387 76.1986 55.387 76.1965 55.3865 76.1938C55.3865 76.1927 55.3865 76.1922 55.3865 76.1911C55.3865 76.1884 55.3865 76.1863 55.3865 76.1836C55.3865 76.1825 55.3865 76.182 55.3865 76.1809C55.3865 76.1788 55.3865 76.1766 55.3865 76.1739C55.3865 76.1729 55.3865 76.1713 55.386 76.1702C55.386 76.168 55.386 76.1659 55.386 76.1637C55.386 76.1627 55.386 76.1616 55.386 76.16C55.386 76.1578 55.386 76.1562 55.386 76.1541C55.386 76.1525 55.386 76.1514 55.386 76.1498C55.386 76.1476 55.386 76.1455 55.386 76.1434C55.386 76.1423 55.386 76.1407 55.3854 76.1396C55.3854 76.1374 55.3854 76.1358 55.3854 76.1337C55.3854 76.1321 55.3854 76.1305 55.3854 76.1289C55.3854 76.1272 55.3854 76.1251 55.3854 76.1235C55.3854 76.1219 55.3854 76.1203 55.3854 76.1187C55.3854 76.1171 55.3854 76.1149 55.3854 76.1133C55.3854 76.1117 55.3854 76.1095 55.3854 76.1079C55.3854 76.1063 55.3854 76.1047 55.3854 76.1031C55.3854 76.1015 55.3854 76.0999 55.3854 76.0983C55.3854 76.0961 55.3854 76.0945 55.3854 76.0929C55.3849 76.0908 55.3849 76.0891 55.3849 76.0875C55.3849 76.0859 55.3849 76.0843 55.3849 76.0827C55.3849 76.0806 55.3849 76.0789 55.3849 76.0773C55.3849 76.0757 55.3849 76.0741 55.3849 76.0725C55.3849 76.0704 55.3849 76.0687 55.3849 76.0666C55.3849 76.065 55.3849 76.0634 55.3849 76.0618C55.3849 76.0602 55.3849 76.058 55.3849 76.0559C55.3849 76.0543 55.3849 76.0532 55.3849 76.0516C55.3849 76.0484 55.3849 76.0451 55.3849 76.0414C55.3849 76.036 55.3849 76.0306 55.3849 76.0253C55.3849 76.0242 55.3849 76.0237 55.3849 76.0226C55.3849 76.0172 55.3849 76.0124 55.3849 76.007C55.3849 76.0059 55.3849 76.0054 55.3849 76.0038C55.3849 75.999 55.3849 75.9936 55.3854 75.9882C55.3854 75.9877 55.3854 75.9872 55.3854 75.9861C55.3854 75.9813 55.3854 75.977 55.3854 75.9721C55.3854 75.9711 55.3854 75.97 55.3854 75.9689C55.3854 75.9641 55.3854 75.9592 55.3854 75.9544C55.3854 75.9533 55.3854 75.9512 55.3854 75.9501C55.3854 75.9453 55.386 75.9405 55.386 75.9356C55.386 75.934 55.386 75.933 55.386 75.9319C55.386 75.9276 55.386 75.9233 55.386 75.9195C55.386 75.9179 55.386 75.9168 55.386 75.9158C55.3865 75.9109 55.3865 75.9061 55.3865 75.9013C55.3865 75.8997 55.3865 75.8981 55.3865 75.8965C55.3865 75.8922 55.3865 75.8879 55.387 75.883C55.387 75.8809 55.387 75.8793 55.387 75.8771C55.387 75.8739 55.387 75.8707 55.387 75.8675C55.3876 75.8642 55.3876 75.8621 55.3876 75.8589C55.3876 75.8557 55.3876 75.853 55.3876 75.8497C55.3876 75.8476 55.3881 75.8449 55.3881 75.8428C55.3881 75.839 55.3881 75.8347 55.3881 75.831C55.3886 75.8283 55.3886 75.8261 55.3886 75.8235C55.3886 75.8208 55.3886 75.8186 55.3886 75.8165C55.3892 75.8122 55.3892 75.8079 55.3892 75.8036C55.3892 75.802 55.3892 75.7998 55.3892 75.7982C55.3897 75.7929 55.3897 75.7875 55.3903 75.7827C55.3903 75.7816 55.3903 75.7805 55.3903 75.7794C55.3903 75.7757 55.3903 75.773 55.3908 75.7698C55.3908 75.7687 55.3908 75.7682 55.3908 75.7676C55.3908 75.7612 55.3913 75.7553 55.3913 75.7494C55.3913 75.7488 55.3913 75.7483 55.3913 75.7478C55.3999 75.554 55.4171 75.3629 55.4423 75.174C55.4423 75.1724 55.4429 75.1708 55.4429 75.1692C55.4434 75.1654 55.4439 75.1616 55.4445 75.1579C55.445 75.1552 55.4455 75.152 55.4455 75.1493C55.4461 75.1477 55.4461 75.145 55.4466 75.1434C55.4472 75.1391 55.4477 75.1343 55.4482 75.13C55.4488 75.1289 55.4488 75.1278 55.4488 75.1262C55.4955 74.7977 55.5663 74.4773 55.6597 74.1665C55.4815 74.7601 55.3854 75.3892 55.3854 76.0414C55.3854 76.3457 55.4064 76.6452 55.4466 76.9377Z" fill="#C4B2C0"/>
<path d="M55.8035 78.3398C55.6344 77.8938 55.5137 77.4247 55.446 76.9379C55.4466 76.9384 55.446 76.9379 55.4466 76.9379C55.5137 77.4247 55.635 77.8938 55.8035 78.3398Z" fill="#5B5265"/>
<path d="M60.4701 80.8149C59.3344 80.8149 58.11 80.6969 56.8003 80.4194C56.6699 80.392 56.5867 80.2637 56.6141 80.1333C56.642 80.0023 56.7703 79.9191 56.9007 79.947C61.8302 80.9899 65.5097 79.7119 67.7281 78.4549C67.8445 78.3894 67.9916 78.4302 68.0576 78.5461C68.1236 78.6626 68.0823 78.8102 67.9664 78.8757C66.266 79.8386 63.7368 80.8149 60.4701 80.8149Z" fill="#2D2D2D"/>
<path d="M64.4415 83.2994C64.1103 83.6778 63.6739 84.0278 63.1125 84.214C63.1125 84.214 64.8473 86.1571 63.2462 87.3191C63.2462 87.3191 65.2477 88.4613 63.2462 89.8735C63.2462 89.8735 65.2477 91.1526 62.4453 92.8868C59.6435 94.6216 54.6732 95.2888 54.6732 95.2888C54.6732 95.2888 54.5288 96.0698 54.1091 97.2597C53.4338 99.1717 52.0436 102.144 49.3808 104.629C47.499 106.388 44.98 107.903 41.6307 108.631L40.8218 100.684L40.0295 92.8868C40.0295 92.8868 41.7031 91.6469 43.8158 90.2514C43.8324 90.2407 43.8491 90.2294 43.8657 90.2181C44.3354 89.9095 44.8216 89.5955 45.3192 89.2842C45.3418 89.2702 45.3611 89.2595 45.3831 89.2455C47.4378 87.9611 49.6116 86.7657 50.9707 86.4823C50.9707 86.4823 54.1729 81.9457 57.1084 81.8126C59.0321 81.7262 61.959 81.7514 63.7437 81.782C64.522 81.7927 64.9557 82.7159 64.4415 83.2994Z" fill="#6C6377"/>
<path d="M54.6726 95.2884C54.6726 95.2884 53.6995 100.595 49.3797 104.628C43.6869 101.026 43.8453 90.456 43.8608 90.4437C46.0787 88.6295 50.9696 86.4825 50.9696 86.4825C49.0464 94.6658 54.6726 95.2884 54.6726 95.2884Z" fill="white"/>
<path d="M41.6307 108.631L40.8218 100.684C42.2957 100.511 43.8372 99.863 45.2908 99.023C46.1061 101.244 47.383 103.365 49.3797 104.628C52.0426 102.142 53.4333 99.1722 54.109 97.2592C54.109 97.2597 54.109 97.2592 54.109 97.2597C53.7618 98.2425 53.2261 99.5055 52.4253 100.838C52.049 101.465 51.6132 102.108 51.1118 102.744C50.6051 103.386 50.0308 104.022 49.3808 104.629C47.499 106.388 44.98 107.903 41.6307 108.631ZM52.8493 94.5679C52.5272 94.3559 52.1977 94.0822 51.8933 93.7311C51.9143 93.7091 51.9341 93.6887 51.9524 93.67C52.173 93.9228 52.4269 94.1573 52.7199 94.3672C52.7618 94.4305 52.8047 94.4976 52.8493 94.5679Z" fill="#544C61"/>
<path d="M49.3797 104.628C47.383 103.365 46.1061 101.244 45.2908 99.0231C48.4254 97.21 51.1494 94.5005 51.8933 93.7313C52.1977 94.0823 52.5272 94.3561 52.8493 94.5681C53.2524 95.2106 53.7403 96.1274 54.1091 97.2594C53.4333 99.1723 52.0426 102.142 49.3797 104.628Z" fill="#D1CCDA"/>
<path d="M64.4999 83.2467C64.1688 83.6246 63.7324 83.9751 63.1709 84.1613C63.1709 84.1613 64.9057 86.1044 63.3046 87.2659C63.3046 87.2659 63.7549 87.5219 64.0131 87.9444C64.3024 88.4087 64.3577 89.0785 63.3046 89.8208C63.3046 89.8208 65.3056 91.0994 62.5038 92.8342C59.7019 94.5684 54.7316 95.2356 54.7316 95.2356C54.7316 95.2356 54.7289 95.2356 54.7203 95.2329C51.663 94.5378 50.7843 92.1949 50.6453 90.1016C50.6426 90.0377 50.64 89.9765 50.6373 89.9153C50.6314 89.8348 50.6287 89.7543 50.6287 89.6706C50.5927 87.961 51.0039 86.5182 51.0264 86.4323L51.0291 86.4291C51.0291 86.4291 51.51 85.7485 52.269 84.909C53.4697 83.5774 55.3682 81.8399 57.1669 81.7594C59.09 81.6735 62.0175 81.6982 63.8022 81.7288C64.5805 81.7401 65.0141 82.6627 64.4999 83.2467Z" fill="#FFD8BF"/>
<path d="M54.7317 95.2356C54.7317 95.2356 54.729 95.2356 54.7204 95.2329C53.9088 95.0488 53.2513 94.7482 52.7199 94.3671C52.4268 94.1573 52.173 93.9227 51.9524 93.6699C51.0651 92.6517 50.727 91.3334 50.6454 90.1016C50.6427 90.0377 50.64 89.9765 50.6373 89.9153C50.6314 89.8348 50.6287 89.7543 50.6287 89.6706C50.6271 89.597 50.6266 89.524 50.6266 89.4521C50.6271 87.8397 51.005 86.5145 51.0265 86.4323L51.0292 86.4291C51.0292 86.4291 51.5101 85.7485 52.269 84.909H52.6276C51.2932 88.6448 52.8944 91.0468 54.7623 91.5138C54.9576 91.5626 55.1739 91.5852 55.4058 91.5852C57.388 91.5852 60.5259 89.9341 61.8898 88.9787C62.6096 88.4725 63.3905 88.1473 64.0132 87.9444C64.1194 88.1151 64.194 88.3131 64.194 88.5321C64.1935 88.9105 63.9713 89.3512 63.3046 89.8208C63.3046 89.8208 63.996 90.2626 63.9971 90.9792C63.9976 91.4816 63.6584 92.1192 62.5038 92.8342C59.702 94.5684 54.7317 95.2356 54.7317 95.2356Z" fill="#D7ADB0"/>
<path d="M39.6088 92.32C42.0966 90.2385 44.6998 88.3464 47.5323 86.7453C48.5403 86.2048 49.6235 85.6632 50.7426 85.3927L50.0609 85.8403C50.5542 85.1554 51.0458 84.5693 51.6073 83.9585C52.9256 82.5758 54.4172 81.2066 56.393 80.7573C57.0167 80.6333 57.6715 80.6537 58.3017 80.6269C60.139 80.5845 61.9569 80.592 63.783 80.6151C65.4292 80.6279 66.4383 82.6129 65.4367 83.929C64.9343 84.5731 64.2805 85.0594 63.4851 85.3342L63.9923 83.4271C64.1522 83.6064 64.2328 83.7277 64.3589 83.9059C65.3449 85.2714 65.4721 87.1951 63.9472 88.2852L63.8366 86.2826C65.8033 87.4495 65.7899 89.6223 63.9386 90.8563L63.893 88.8596C64.1313 89.02 64.2215 89.1102 64.4013 89.289C65.4372 90.3415 65.3395 91.8992 64.2923 92.9394C63.3294 93.9292 62.053 94.4965 60.9435 94.9377C58.9393 95.6956 56.9372 96.1545 54.8316 96.4739L55.8487 95.504C54.6947 100.637 51.4447 105.372 46.79 107.921C45.243 108.767 43.5678 109.352 41.8663 109.718C41.2657 109.847 40.6748 109.464 40.5454 108.864C40.4166 108.266 40.7977 107.676 41.3935 107.545C44.3955 106.864 47.1641 105.351 49.2596 103.098C50.8231 101.416 52.0351 99.3809 52.8483 97.2259C53.0522 96.6875 53.2299 96.1395 53.3753 95.5861C53.4226 95.4101 53.4693 95.2056 53.4967 95.0703C53.5997 94.5523 54.0195 94.1766 54.5133 94.1031C56.3651 93.8218 58.3253 93.3715 60.0751 92.7016C60.9129 92.3742 61.8163 91.9507 62.4609 91.3834C62.4958 91.3399 62.5758 91.2594 62.6144 91.2191C62.6504 91.1762 62.6708 91.1284 62.7068 91.0881C62.7111 91.0672 62.7191 91.0484 62.7331 91.0329L62.7288 91.0286C62.725 91.0275 62.739 91.0227 62.7331 91.027C62.7336 91.0441 62.7422 91.0742 62.7223 91.0302C62.7046 90.9964 62.6493 90.9336 62.6101 90.9008C62.6016 90.8917 62.5554 90.859 62.5978 90.8869L62.5516 88.8907C62.667 88.8 62.7985 88.6964 62.8946 88.5847C62.9553 88.5042 62.9268 88.5091 62.9301 88.5815C62.9327 88.6572 62.9639 88.6642 62.9064 88.5869C62.8694 88.5252 62.7025 88.3878 62.6536 88.3566L62.5431 86.354C62.6332 86.267 62.71 86.2096 62.7111 86.1753C62.8055 85.7808 62.4341 85.259 62.1797 84.9338C61.7803 84.4201 61.8732 83.6804 62.3869 83.2811C62.7411 83.0406 63.1625 82.9821 63.4625 82.6263L63.5301 82.5554C63.5377 82.5463 63.5602 82.5232 63.5559 82.5259C63.419 82.6746 63.5033 82.9472 63.7223 82.9483C61.5576 82.9091 59.3864 82.8759 57.2335 82.9505C56.9619 82.9591 56.7107 83.0095 56.4466 83.1018C54.6034 83.8286 53.0823 85.5607 51.8789 87.1237C51.567 87.5719 51.0469 87.5832 50.5735 87.7506C48.908 88.3582 47.368 89.2707 45.8227 90.1547C44.0171 91.2197 42.2168 92.3409 40.4418 93.4579C39.7124 93.9007 38.955 92.8954 39.6088 92.32Z" fill="#2D2D2D"/>
<path d="M41.7729 107.984C43.1964 107.764 44.5055 106.9 45.7314 106.15C47.0336 105.286 48.2944 104.368 49.3572 103.215C51.3136 101.077 52.7446 98.4228 53.4832 95.6151C53.5288 95.4385 53.5766 95.2324 53.6029 95.0923C53.6909 94.6243 54.065 94.2824 54.5105 94.2131C55.4445 94.0714 56.4278 93.8712 57.3676 93.635C58.7557 93.2802 60.1083 92.853 61.3611 92.2046C61.8393 91.933 62.4099 91.6126 62.7201 91.181C62.7861 91.0833 62.7931 91.0286 62.791 91.0318C62.7883 91.0361 62.7974 91.0549 62.77 91.0039C62.7561 90.9808 62.7309 90.9481 62.6971 90.9126C62.6761 90.8879 62.6423 90.8611 62.6165 90.8396L62.6079 90.8332C62.6101 90.8343 62.5956 90.8251 62.6246 90.8439L62.5811 88.932C62.7394 88.8193 62.8758 88.6985 62.9364 88.6153C62.9885 88.5595 62.9917 88.4946 62.9799 88.5821C62.9805 88.6459 63.0051 88.6422 62.9423 88.5606C62.8849 88.4871 62.776 88.3899 62.6869 88.3319C62.6804 88.3271 62.6471 88.3067 62.6724 88.3217L62.5666 86.3841C62.7663 86.2075 62.7781 86.2139 62.7572 85.9627C62.7174 85.7029 62.5108 85.3202 62.3256 85.083C61.8291 84.5763 61.8281 83.754 62.3992 83.3042C62.7013 83.0777 63.0465 83.0546 63.3347 82.7701C63.4066 82.7062 63.4748 82.6386 63.5398 82.5672L63.5677 82.5356L63.5585 82.5468C63.5274 82.5849 63.4995 82.6644 63.5032 82.7207C63.507 82.8453 63.5993 82.936 63.7228 82.9429C61.9349 82.9166 60.1271 82.9043 58.351 82.929C57.7074 82.9623 57.0665 82.8882 56.4503 83.1104C54.6098 83.8372 53.0892 85.5682 51.8783 87.1232C51.7157 87.3518 51.4704 87.5418 51.1966 87.5703C49.2708 87.9423 47.4286 89.0055 45.6729 89.9153C43.8485 90.9196 41.9731 92.0285 40.227 93.1546C39.8948 93.3758 39.503 92.8965 39.8298 92.6184C41.4471 91.269 43.1926 89.9261 44.9059 88.6905C46.7604 87.4232 48.5376 86.0765 50.7425 85.3938L50.0614 85.8409C51.0399 84.4974 52.0909 83.3171 53.3978 82.2715C54.3983 81.4782 55.7531 80.6972 57.1352 80.6585C59.2565 80.5673 61.3745 80.5823 63.4861 80.6156C63.7867 80.6226 64.1178 80.6204 64.4104 80.7337C65.7071 81.1486 66.2579 82.8517 65.4243 83.9241C64.9197 84.5591 64.2676 85.0459 63.4764 85.3127L63.9756 83.4427C65.2139 84.8248 65.6519 87.0464 63.9235 88.2536L63.8178 86.3159C64.6202 86.7995 65.2906 87.6014 65.2869 88.6003C65.2998 89.5348 64.5939 90.3517 63.9096 90.8149L63.8656 88.9025L63.96 88.9674L64.0266 89.0174C65.1323 89.8268 65.4302 91.3812 64.5966 92.4816C63.1001 94.409 60.1335 95.1873 57.8937 95.7793C56.8744 96.0225 55.8787 96.2157 54.817 96.366L55.7418 95.4847C55.554 96.3789 55.2883 97.1889 54.9694 98.0316C53.8659 100.874 52.1875 103.527 49.8564 105.532C47.996 107.044 43.8995 109.659 41.4868 109.279C40.7638 109.104 40.8486 108.045 41.5909 107.995L41.7729 107.984Z" fill="#2D2D2D"/>
<path d="M51.9926 86.9648C51.8155 87.683 51.2192 90.5391 52.3566 92.4676C52.8573 93.3168 53.6335 93.8712 54.7247 94.1568C55.6549 94.0135 59.5979 93.3414 61.8592 91.9411C62.7749 91.3743 62.8259 91.0361 62.8259 91.0334C62.8216 90.9894 62.7234 90.8654 62.6289 90.7989C62.317 90.5992 62.1335 90.2632 62.1249 89.8934C62.1163 89.523 62.3015 89.1784 62.6042 88.9648C62.8753 88.7737 62.9767 88.6384 63.0111 88.5821C62.9595 88.4951 62.8103 88.3545 62.6836 88.2788C62.3643 88.0861 62.1566 87.7426 62.1404 87.3701C62.1243 86.9976 62.2902 86.638 62.5919 86.419C62.7921 86.2741 62.8033 86.171 62.8092 86.1221C62.8479 85.7818 62.5151 85.2209 62.2784 84.9499C62.0336 84.6692 61.9435 84.2822 62.0417 83.9231C62.1394 83.564 62.4088 83.2752 62.762 83.1582C62.9375 83.1002 63.1061 83.009 63.2671 82.8861C61.784 82.8641 59.0123 82.8399 57.1573 82.9231C55.4799 82.9993 53.1569 85.3771 51.9926 86.9648ZM54.6726 96.4004C54.59 96.4004 54.5079 96.3913 54.4273 96.373C52.6244 95.9656 51.2814 95.0285 50.4355 93.5878C48.646 90.5401 49.851 86.3449 49.9031 86.1678C49.938 86.0508 49.9911 85.9402 50.0614 85.8409C50.421 85.331 53.6754 80.855 57.0569 80.7015C59.1894 80.606 62.4566 80.6473 63.762 80.6698C64.5655 80.6811 65.2713 81.1486 65.5998 81.8899C65.9224 82.6188 65.7979 83.44 65.2751 84.0342C65.0877 84.2478 64.8881 84.4389 64.6777 84.6064C64.9101 85.1002 65.0899 85.7126 65.0207 86.3578C64.9874 86.6632 64.9026 86.9525 64.7678 87.2198C65.0158 87.5526 65.2198 87.9761 65.2445 88.4844C65.2633 88.8767 65.1752 89.3969 64.77 89.9443C64.9342 90.2481 65.0529 90.6174 65.0496 91.049C65.0421 92.071 64.3626 93.0071 63.0299 93.832C60.06 95.6709 55.0328 96.3617 54.8202 96.3907C54.7714 96.3972 54.722 96.4004 54.6726 96.4004Z" fill="#2D2D2D"/>
<path d="M53.7967 95.9399C53.926 96.1509 54.283 96.3538 54.5025 96.3672C54.4816 96.3639 54.4284 96.3564 54.407 96.3521C52.2455 95.992 50.3958 94.2288 49.8295 92.1542C49.2482 90.1768 49.4683 88.1624 49.9068 86.2322L51.4087 87.4818C49.0663 88.5725 46.6724 89.6691 44.6402 91.245C44.388 91.4462 44.7771 91.1623 44.8592 90.9369C44.9666 90.7554 44.9779 90.4189 44.9703 90.5118C44.965 91.6749 45.0696 92.9212 45.2317 94.0994C45.7567 97.6334 46.9021 101.694 49.9637 103.706L48.6347 103.831C50.9578 101.651 52.6164 98.7428 53.4607 95.6699C53.4993 95.5186 53.5643 95.2663 53.5938 95.1155C53.5374 95.2953 53.6217 95.7553 53.7967 95.9399ZM55.5486 94.6367C55.736 94.8734 55.8138 95.2894 55.7241 95.5953C55.7156 95.6576 55.6737 95.8111 55.6613 95.8744C54.7457 99.4905 52.8541 102.856 50.1248 105.426C49.7587 105.781 49.2037 105.82 48.7958 105.551C47.8296 104.939 47.0009 104.145 46.3289 103.268C44.3778 100.708 43.497 97.497 43.0396 94.4086C42.8577 93.0925 42.7401 91.7839 42.7477 90.4457L42.7498 90.3947C42.7428 90.4844 42.7541 90.1441 42.862 89.9584C42.9221 89.7748 43.2323 89.5134 43.1583 89.5816L43.169 89.5735C43.7712 89.1006 44.4341 88.6718 45.0782 88.2858C46.8597 87.214 48.661 86.3267 50.5311 85.4824C51.3346 85.0992 52.2632 85.8807 52.0324 86.732C51.3298 89.4844 51.3555 93.4354 54.7177 94.189C55.0382 94.2218 55.3645 94.3823 55.5486 94.6367Z" fill="#2D2D2D"/>
<path d="M18.751 38.4727C19.8095 36.7406 20.3312 34.6617 20.1079 32.4868C19.5663 27.2073 14.8467 23.3669 9.56775 23.909C4.28837 24.4511 0.448027 29.1702 0.990092 34.4497C1.53216 39.7287 6.25127 43.5691 11.5306 43.027C12.9992 42.8762 14.3556 42.4017 15.538 41.6824L19.985 42.6797L18.751 38.4727Z" fill="white"/>
<path d="M2.38086 30.5637C3.47068 27.5139 6.23307 25.1957 9.66393 24.8436C9.96344 24.813 10.2608 24.7979 10.5555 24.7979C13.6375 24.7979 16.4173 26.4409 17.9567 28.9642C16.1801 26.9449 13.5822 25.6965 10.7498 25.6965C10.4213 25.6965 10.0901 25.7136 9.75679 25.7475C6.54353 26.0776 3.86406 27.9546 2.38086 30.5637Z" fill="white"/>
<path d="M10.5555 24.7979C10.2608 24.7979 9.96342 24.8129 9.66391 24.8435C4.90803 25.3319 1.43627 29.598 1.92455 34.3536C2.16104 36.6574 3.2806 38.7308 5.07678 40.1929C6.87313 41.6545 9.13145 42.3303 11.4346 42.0925C12.7288 41.9599 13.9456 41.552 15.0497 40.88C15.2574 40.7533 15.5064 40.712 15.7437 40.7657L18.6346 41.414L17.8494 38.7373C17.7753 38.4829 17.8112 38.2091 17.9497 37.9831C18.9459 36.353 19.3689 34.4857 19.1735 32.5823C18.7162 28.1268 14.9418 24.7979 10.5555 24.7979ZM10.5297 44.0178C8.11382 44.0178 5.79028 43.1955 3.8911 41.6497C1.70555 39.8714 0.34355 37.3482 0.0557439 34.5458C-0.538439 28.7596 3.68563 23.5687 9.47175 22.9745C15.259 22.3803 20.4488 26.6051 21.0425 32.3907C21.2658 34.5651 20.8251 36.7014 19.7661 38.5966L20.8863 42.4151C20.9802 42.7345 20.8976 43.0796 20.6705 43.3222C20.4429 43.5648 20.1037 43.6689 19.7795 43.5959L15.6927 42.6797C14.4378 43.3823 13.0717 43.8133 11.6268 43.9615C11.2597 43.999 10.8936 44.0178 10.5297 44.0178Z" fill="#2D2D2D"/>
<path d="M10.5308 42.1392C8.54656 42.1392 6.63728 41.4629 5.07679 40.1929C3.64887 39.0308 2.64858 37.4818 2.17957 35.7384C3.64865 38.1221 6.01422 39.9557 8.94628 40.6856C9.84587 40.9095 10.7471 41.0163 11.6338 41.0163C13.922 41.0163 16.1146 40.3029 17.9395 39.0432L18.6346 41.414L15.7437 40.7656C15.6755 40.7506 15.6063 40.7425 15.5376 40.7425C15.3669 40.7425 15.1978 40.7898 15.0497 40.8799C13.9456 41.552 12.7288 41.9599 11.4347 42.0925C11.1325 42.1236 10.8308 42.1392 10.5308 42.1392Z" fill="#D7CCE4"/>
<path d="M10.5377 43.078C5.67198 43.078 1.49794 39.3954 0.990172 34.4497C0.938591 33.9468 0.927213 33.4498 0.952547 32.9602C1.23375 33.9409 1.64791 34.8754 2.17956 35.7385C2.64857 37.4818 3.64886 39.0309 5.07678 40.193C6.63728 41.4629 8.54655 42.1392 10.5308 42.1392C10.8308 42.1392 11.1325 42.1237 11.4346 42.0925C12.7288 41.96 13.9456 41.552 15.0497 40.88C15.1978 40.7898 15.3669 40.7426 15.5376 40.7426C15.6063 40.7426 15.6755 40.7507 15.7437 40.7657L18.6346 41.4141L17.9395 39.0433C18.238 38.8366 18.5273 38.6155 18.8048 38.3804C18.7865 38.411 18.7694 38.4426 18.7511 38.4727L19.9851 42.6797L15.5381 41.6825C14.3556 42.4017 12.9993 42.8762 11.5307 43.027C11.1969 43.0614 10.8662 43.078 10.5377 43.078Z" fill="#2D2D2D"/>
<path d="M13.622 30.7697C12.7906 29.9383 11.4422 30.087 10.6103 30.919L10.4809 31.0483L10.3516 30.919C9.52013 30.087 8.17171 29.9383 7.34012 30.7697C6.50853 31.6012 6.50853 32.9495 7.34012 33.7815L7.46953 33.9108L10.0843 36.5253C10.3033 36.7443 10.6586 36.7443 10.8781 36.5253L13.4926 33.9108L13.622 33.7815C14.4534 32.9495 14.4534 31.6012 13.622 30.7697Z" fill="#FF0068"/>
</svg>
