<svg width="342" height="338" viewBox="0 0 342 338" fill="none" xmlns="http://www.w3.org/2000/svg">
<mask id="mask0_157_55" style="mask-type:alpha" maskUnits="userSpaceOnUse" x="0" y="0" width="342" height="338">
<rect width="341.497" height="338" fill="#F6F6F6"/>
</mask>
<g mask="url(#mask0_157_55)">
<path d="M311.948 287.062C308.122 289.692 303.595 291.385 298.409 291.198C298.409 291.198 297.366 301.976 284.502 301.627C284.502 301.627 262.599 311.71 249.387 297.108V349.26C249.387 349.26 223.774 364.557 187.384 350.65C157.021 364.557 125.267 350.65 125.267 350.65L125.962 307.538C112.22 309.602 100.515 298.767 110.301 263.637C110.301 263.637 110.301 263.63 110.308 263.607C110.425 263.188 110.541 262.768 110.664 262.34C121.095 226.182 158.99 216.794 187.652 216.794C215.127 216.794 243.39 218.751 267.887 264.079C267.937 264.172 267.958 264.216 267.958 264.216C268.726 265.628 269.487 267.091 270.248 268.599L277.549 266.86C277.549 266.86 279.982 258.111 286.588 258.66C286.588 258.66 296.324 244.957 300.147 247.042C303.871 249.07 300.343 255.395 300.163 255.72C300.56 255.322 307.564 248.469 311.62 249.824C315.685 251.178 311.832 258.277 311.636 258.646C312.041 258.341 319.675 252.663 321.703 254.691C323.79 256.778 319.269 265.122 319.269 265.122C319.269 265.122 326.572 261.297 327.267 263.73C327.773 265.512 322.486 279.833 311.948 287.062Z" fill="#6C6377"/>
<path d="M119.095 250.059C124.872 240.452 133.124 233.838 142.091 229.306C141.273 231.123 140.565 232.981 139.954 234.843C130.355 239.39 123.661 245 119.095 250.059ZM254.702 248.823C249.866 244.624 243.554 240.169 235.54 236.313C234.772 233.762 233.83 231.211 232.679 228.737C240.112 233.049 247.523 239.417 254.702 248.823Z" fill="#C4C1C9"/>
<path d="M298.406 291.197C298.406 291.197 297.363 301.976 284.498 301.627C267.636 298.846 260.869 283.457 263.464 276.595C265.898 270.163 270.243 268.598 270.243 268.598L277.546 266.859C267.463 289.98 298.406 291.197 298.406 291.197Z" fill="white"/>
<path d="M157.855 353.898C143.909 353.897 132.44 350.241 128.193 348.684L128.854 307.584C128.858 307.329 128.829 307.079 128.769 306.837C136.116 304.762 141.791 301.187 146.155 297.108C147.849 295.527 149.345 293.871 150.666 292.196C152.745 294.629 154.994 296.876 157.32 298.942C156.105 301.711 154.404 304.59 152.094 307.538L153.478 326.296C153.877 331.7 157.979 336.109 163.346 336.861C164.913 337.081 166.65 337.221 168.529 337.221C173.858 337.221 180.33 336.096 187.384 332.484C187.384 332.484 195.185 335.938 210.527 335.938C215.971 335.938 222.365 335.503 229.7 334.324C234.57 333.542 238.43 329.791 239.285 324.933L249.386 267.57C249.386 267.57 249.401 292.114 268.76 293.262C271.418 296.196 274.997 298.766 279.518 300.357C276.761 301.195 272.754 302.11 268.403 302.11C262.697 302.11 256.394 300.538 251.531 295.163C250.972 294.543 250.186 294.21 249.383 294.21C249.033 294.21 248.681 294.273 248.342 294.403C247.224 294.834 246.487 295.908 246.487 297.107V347.502C242.859 349.257 232.486 353.548 217.774 353.548C209.279 353.548 199.338 352.118 188.414 347.943C188.082 347.815 187.73 347.752 187.381 347.752C186.968 347.752 186.557 347.841 186.174 348.015C176.543 352.427 166.701 353.898 157.855 353.898ZM122.822 304.882C119.806 304.882 116.383 304.05 113.781 301.08C109.356 296.029 108.43 286.252 111.018 273.063C112.11 280.202 114.626 286.072 119.847 286.816C120.511 286.91 121.187 286.954 121.869 286.954C122.524 286.954 123.186 286.914 123.853 286.834L125.667 304.655C125.621 304.66 125.574 304.665 125.528 304.672C124.693 304.798 123.779 304.882 122.822 304.882ZM295.321 290.893C293.865 290.693 292.01 290.366 290.024 289.837C290.261 289.759 290.496 289.679 290.729 289.598C292.545 290.047 294.216 290.326 295.533 290.501C295.477 290.612 295.406 290.743 295.321 290.893Z" fill="#595360"/>
<path d="M279.518 300.357C274.997 298.766 271.418 296.197 268.76 293.262C268.761 293.262 268.761 293.262 268.761 293.262C269.518 293.306 270.28 293.328 271.044 293.328C277.462 293.328 284.084 291.822 290.024 289.837C292.01 290.366 293.865 290.693 295.321 290.893C294.287 292.701 291.1 297.099 283.835 298.808C283.647 298.851 283.463 298.915 283.287 298.995C283.234 299.02 281.807 299.662 279.518 300.357Z" fill="#D7CCE4"/>
<path d="M298.409 290.777C298.409 290.777 267.466 289.56 277.549 266.44C277.549 266.44 278.157 264.261 279.592 262.138C281.025 260.016 283.286 257.965 286.588 258.241C286.588 258.241 296.324 244.536 300.147 246.623C303.871 248.651 300.343 254.974 300.163 255.3C300.56 254.901 307.564 248.049 311.62 249.405C315.685 250.758 311.831 257.856 311.636 258.226C312.041 257.922 319.675 252.244 321.703 254.272C323.79 256.357 319.269 264.701 319.269 264.701C319.269 264.701 325.289 261.543 326.918 262.796C327.085 262.919 327.201 263.086 327.267 263.311C327.962 265.745 317.879 291.474 298.409 290.777Z" fill="#FFD8BF"/>
<path d="M295.533 290.501C289.405 289.69 275.602 286.578 275.529 275.016C275.529 274.987 275.529 274.956 275.529 274.926C275.529 273.473 275.744 271.886 276.22 270.153L278.217 269.677C279.135 269.459 279.886 268.8 280.235 267.935C281.572 272.405 285.223 277.252 293.947 280.42C296 281.166 298.028 281.5 300.01 281.5C309.324 281.5 317.683 274.122 323.446 267.258C320.764 274.076 312.489 288.314 299.196 288.314C298.97 288.314 298.739 288.31 298.51 288.301C298.468 288.299 298.426 288.299 298.384 288.299C297.221 288.299 296.17 289.03 295.722 290.106C295.707 290.141 295.647 290.28 295.533 290.501Z" fill="#D7ADB0"/>
<path d="M128.193 348.684C135.135 351.228 161.358 359.382 186.174 348.016C186.882 347.691 187.689 347.666 188.414 347.943C218.257 359.347 240.765 350.272 246.487 347.502V297.107C246.487 295.909 247.224 294.834 248.342 294.404C249.46 293.973 250.729 294.275 251.531 295.163C263.182 308.04 283.087 299.088 283.287 298.995C283.463 298.916 283.646 298.851 283.835 298.808C292.889 296.678 295.61 290.374 295.722 290.106C296.187 288.991 297.298 288.245 298.51 288.301C312.869 288.827 321.537 272.732 323.804 266.301C322.812 266.649 321.641 267.15 320.609 267.689C319.479 268.28 318.097 268.062 317.204 267.154C316.308 266.247 316.111 264.862 316.718 263.742C317.889 261.575 318.879 259.049 319.229 257.479C317.722 258.087 315.36 259.47 313.371 260.963C312.287 261.778 310.783 261.73 309.75 260.849C308.718 259.968 308.437 258.488 309.072 257.29C310.213 255.146 310.651 253.263 310.574 252.547C309.142 252.346 305.131 254.842 302.208 257.768C301.187 258.791 299.568 258.902 298.415 258.034C297.261 257.164 296.924 255.576 297.626 254.312C298.535 252.676 299.097 250.707 298.914 249.835C296.996 250.645 292.476 255.375 288.946 260.339C288.353 261.174 287.363 261.633 286.344 261.547C282.245 261.209 280.353 267.581 280.335 267.647C280.046 268.652 279.235 269.435 278.217 269.677L270.915 271.417C269.609 271.729 268.26 271.1 267.656 269.901C242.376 219.691 212.032 219.691 187.649 219.691C169.106 219.691 124.756 223.926 113.444 263.143C108.19 281.36 108.308 294.833 113.781 301.081C117.208 304.991 122.061 305.194 125.528 304.672C126.372 304.548 127.226 304.797 127.867 305.358C128.507 305.918 128.868 306.734 128.854 307.584L128.193 348.684ZM157.694 359.77C139.184 359.771 124.987 353.693 124.1 353.304C123.03 352.835 122.346 351.771 122.366 350.603L123.009 310.674C117.521 310.723 112.773 308.723 109.422 304.899C104.599 299.392 100.416 287.401 107.876 261.537C112.822 244.393 123.988 231.561 141.068 223.394C157.484 215.544 175.46 213.896 187.649 213.896C202.483 213.896 216.995 214.474 231.451 221.442C247.219 229.043 260.429 243.386 271.788 265.252L275.319 264.412C276.765 260.763 279.929 256.238 285.094 255.775C290.133 248.916 296.784 241.912 301.532 244.498C302.985 245.29 303.998 246.548 304.459 248.137C304.506 248.295 304.545 248.455 304.578 248.616C307.122 247.167 309.995 246.225 312.535 247.076C314.117 247.603 315.318 248.719 315.918 250.221C316.19 250.902 316.325 251.628 316.359 252.369C319.655 250.936 322.13 251.024 323.749 252.642C325.478 254.371 325.405 257.172 324.548 260.133C325.752 259.957 326.878 260.006 327.809 260.405C328.924 260.883 329.72 261.781 330.049 262.935C330.921 265.988 326.924 275.035 321.823 281.553C315.633 289.462 308.173 293.767 300.153 294.088C298.438 296.918 294.166 302.241 285.434 304.383C282.939 305.471 265.764 312.398 252.281 303.422V349.259C252.281 350.278 251.744 351.224 250.87 351.747C250.122 352.193 237.679 359.427 217.991 359.428C209.146 359.428 198.844 357.97 187.477 353.781C177.221 358.26 166.922 359.77 157.694 359.77Z" fill="#2D2D2D"/>
<path d="M182.109 246.804L171.238 245.92C169.67 245.79 169.547 243.519 171.074 243.209L181.76 241.021C186.143 240.381 186.543 246.909 182.109 246.804Z" fill="#2D2D2D"/>
<path d="M182.281 254.901L170.287 252.92C169.263 252.764 169.272 251.238 170.287 251.087L182.281 249.106C184.542 248.878 185.672 250.441 185.672 252.003C185.673 253.565 184.543 255.127 182.281 254.901Z" fill="#2D2D2D"/>
<path d="M182.537 261.546L171.269 260.911C169.803 260.824 169.63 258.714 171.044 258.381L182.026 255.774C186.407 255.003 186.989 261.533 182.537 261.546Z" fill="#2D2D2D"/>
<path d="M246.487 297.107L247.528 263.73C247.653 261.367 251.108 261.356 251.238 263.73L252.281 297.107C252.268 301.048 246.503 301.064 246.487 297.107Z" fill="#2D2D2D"/>
<path d="M271.139 271.363C270.614 271.612 267.888 273.087 266.173 277.62C265.436 279.57 265.766 283.399 268.165 287.562C271.504 293.355 277.434 297.388 284.488 298.685C289.451 297.732 292.269 295.501 293.826 293.601C288.305 292.711 279.148 290.241 274.901 283.471C272.648 279.878 272.064 275.659 273.15 270.884L271.139 271.363ZM284.498 304.525C284.342 304.525 284.184 304.513 284.027 304.486C275.041 303.004 267.429 297.89 263.144 290.455C260.157 285.272 259.242 279.568 260.754 275.57C263.579 268.104 268.69 266.079 269.263 265.872C269.364 265.835 269.467 265.805 269.572 265.779L276.874 264.041C277.941 263.785 279.063 264.158 279.768 265C280.473 265.842 280.639 267.012 280.202 268.017C277.985 273.1 277.852 277.261 279.804 280.382C283.567 286.396 294.592 288.138 298.524 288.301C299.394 288.338 300.203 288.764 300.725 289.462C301.247 290.16 301.429 291.057 301.216 291.901C301.111 292.321 298.489 302.179 284.986 304.483C284.825 304.511 284.662 304.525 284.498 304.525Z" fill="#2D2D2D"/>
<path d="M271.621 271.147L255.852 278.121C254.115 278.857 252.825 276.458 254.389 275.416L268.867 266.049C270.214 265.177 272.014 265.563 272.886 266.911C273.86 268.387 273.242 270.445 271.621 271.147Z" fill="#2D2D2D"/>
<path d="M302.56 257.342L296.635 263.866C296.02 264.543 294.973 264.593 294.296 263.978C293.74 263.473 293.607 262.675 293.918 262.031L297.757 254.098C299.918 250.22 305.352 253.886 302.56 257.342Z" fill="#2D2D2D"/>
<path d="M313.894 260.456L305.924 267.556C304.998 268.4 303.567 267.237 304.187 266.164L309.37 256.835C311.831 252.994 317.104 257.211 313.894 260.456Z" fill="#2D2D2D"/>
<path d="M321.385 267.097L314.167 272.39C313.064 273.203 311.643 271.856 312.371 270.715L317.148 263.146C319.897 259.379 324.951 264.087 321.385 267.097Z" fill="#2D2D2D"/>
<path d="M187.651 313.886C187.651 313.886 218.093 302.412 229.044 279.986L221.804 268.167L235.823 264.69C235.823 264.69 237.9 237.101 224.606 221.256C224.606 221.256 213.532 289.896 187.651 313.886Z" fill="#6C6377"/>
<path d="M226.187 228.736C223.12 244.346 214.455 282.068 198.615 305.32C207.64 300.176 219.486 291.699 225.724 280.113L219.332 269.679C218.851 268.892 218.773 267.921 219.123 267.068C219.474 266.212 220.211 265.577 221.107 265.355L233.018 262.401C233.142 256.789 232.835 240.91 226.187 228.736ZM187.651 316.785C186.67 316.785 185.728 316.285 185.186 315.411C184.458 314.232 184.665 312.703 185.682 311.762C210.543 288.717 221.637 221.471 221.746 220.795C221.927 219.676 222.744 218.764 223.837 218.463C224.93 218.161 226.097 218.525 226.826 219.393C240.719 235.951 238.801 263.732 238.713 264.907C238.619 266.155 237.735 267.201 236.521 267.501L226.341 270.026L231.516 278.474C232.033 279.318 232.082 280.369 231.647 281.26C220.321 304.452 189.96 316.113 188.673 316.597C188.338 316.725 187.992 316.785 187.651 316.785Z" fill="#2D2D2D"/>
<path d="M187.381 313.886C187.381 313.886 156.938 302.412 145.986 279.986L153.227 268.167L139.207 264.69C139.207 264.69 137.13 237.101 150.424 221.256C150.424 221.256 161.498 289.896 187.381 313.886Z" fill="#6C6377"/>
<path d="M224.71 221.72C222.798 232.223 210.97 292.45 187.386 314.317C163.273 291.965 152.017 230.869 150.59 222.618C162.824 218.344 176.007 216.794 187.654 216.794C199.982 216.794 212.469 217.186 224.71 221.72Z" fill="white"/>
<path d="M226.187 228.736C223.12 244.346 214.455 282.068 198.615 305.32C207.64 300.176 219.486 291.699 225.724 280.113L219.332 269.679C218.851 268.892 218.773 267.921 219.123 267.068C219.474 266.212 220.211 265.577 221.107 265.355L233.018 262.401C233.142 256.789 232.835 240.91 226.187 228.736ZM187.651 316.785C186.67 316.785 185.728 316.285 185.186 315.411C184.458 314.232 184.665 312.703 185.682 311.762C210.543 288.717 221.637 221.471 221.746 220.795C221.927 219.676 222.744 218.764 223.837 218.463C224.93 218.161 226.097 218.525 226.826 219.393C240.719 235.951 238.801 263.732 238.713 264.907C238.619 266.155 237.735 267.201 236.521 267.501L226.341 270.026L231.516 278.474C232.033 279.318 232.082 280.369 231.647 281.26C220.321 304.452 189.96 316.113 188.673 316.597C188.338 316.725 187.992 316.785 187.651 316.785Z" fill="#2D2D2D"/>
<path d="M149.308 280.113C155.545 291.699 167.39 300.176 176.416 305.32C160.575 282.067 151.909 244.34 148.843 228.733C142.177 240.919 141.881 256.789 142.011 262.399L153.924 265.355C154.821 265.577 155.558 266.212 155.908 267.068C156.259 267.921 156.18 268.892 155.698 269.679L149.308 280.113ZM187.379 316.785C187.038 316.785 186.693 316.725 186.358 316.597C185.072 316.113 154.709 304.452 143.383 281.26C142.948 280.369 142.998 279.318 143.516 278.474L148.691 270.026L138.509 267.501C137.295 267.201 136.411 266.155 136.317 264.907C136.229 263.732 134.312 235.951 148.204 219.393C148.933 218.525 150.101 218.161 151.194 218.463C152.287 218.764 153.103 219.674 153.284 220.795C153.393 221.471 164.501 288.73 189.35 311.762C190.366 312.703 190.573 314.232 189.844 315.411C189.304 316.285 188.36 316.785 187.379 316.785Z" fill="#2D2D2D"/>
<path d="M153.887 224.573C156.319 237.646 166.913 288.749 187.384 310.244C207.661 288.876 218.834 236.832 221.401 223.633C210.32 220.008 199.107 219.69 187.654 219.69C179.104 219.69 166.513 220.562 153.887 224.573ZM187.386 317.215C186.679 317.215 185.972 316.958 185.416 316.441C161.001 293.809 149.744 234.726 147.736 223.111C147.494 221.716 148.298 220.349 149.635 219.882C163.797 214.935 178.128 213.896 187.654 213.896C199.939 213.896 212.997 214.29 225.717 219.002C227.036 219.49 227.812 220.855 227.562 222.239C225.411 234.047 213.465 294.087 189.356 316.441C188.8 316.958 188.093 317.215 187.386 317.215Z" fill="#2D2D2D"/>
<path d="M202.188 292.501C202.188 292.501 196.829 305.539 187.384 313.883C177.939 305.539 172.578 292.501 172.578 292.501C173.186 283.599 175.7 265.498 177.351 254.141C178.213 248.215 178.837 244.13 178.837 244.13L176.171 242.081C173.961 240.379 172.89 237.583 173.389 234.844L176.663 216.823L198.016 216.36L201.377 234.844C201.869 237.583 200.798 240.379 198.589 242.081L195.931 244.13C195.931 244.13 196.264 246.326 196.785 249.824C198.328 260.276 201.493 282.36 202.188 292.501Z" fill="#FF4242"/>
<path d="M187.381 309.895C181.009 303.427 176.862 294.96 175.635 292.264L178.944 277.156C179.15 279.631 179.515 282.128 180.094 284.559C181.002 288.37 184.181 290.273 187.365 290.273C190.557 290.273 193.753 288.364 194.679 284.549C195.584 280.82 196.332 276.115 196.733 270.196C197.827 278.368 198.843 286.668 199.245 292.003C198.192 294.363 193.996 303.187 187.381 309.895Z" fill="#D13543"/>
<path d="M175.516 292.001C176.574 294.362 180.785 303.201 187.381 309.895C193.996 303.187 198.192 294.363 199.245 292.004C198.209 278.268 193.117 244.912 193.063 244.572C192.904 243.531 193.324 242.483 194.159 241.84L196.822 239.786C198.178 238.74 198.83 237.045 198.524 235.361L195.606 219.313L179.091 219.671L176.238 235.361C175.932 237.045 176.583 238.74 177.94 239.786L180.603 241.84C181.438 242.483 181.858 243.531 181.698 244.572C181.645 244.912 176.554 278.267 175.516 292.001ZM187.381 316.785C186.696 316.785 186.01 316.541 185.462 316.057C175.625 307.366 170.126 294.163 169.895 293.605C169.727 293.194 169.655 292.749 169.686 292.306C170.504 280.355 174.625 252.598 175.714 245.386L174.402 244.375C171.323 242.002 169.841 238.15 170.537 234.325L173.813 216.308C174.059 214.954 175.224 213.959 176.6 213.93L197.952 213.466C199.402 213.435 200.61 214.443 200.865 215.845L204.224 234.325C204.921 238.15 203.44 242.002 200.36 244.375L199.048 245.386C200.136 252.598 204.258 280.355 205.076 292.306C205.107 292.749 205.036 293.194 204.866 293.605C204.637 294.163 199.136 307.366 189.3 316.057C188.751 316.541 188.066 316.783 187.381 316.785Z" fill="#2D2D2D"/>
<path d="M224.604 221.258C224.604 221.258 216.672 240.874 205.778 247.393L188.351 231.088L170.916 247.393C160.024 240.874 152.092 221.258 152.092 221.258C167.79 216.805 185.144 216.256 188.214 216.369C188.279 216.362 188.33 216.362 188.374 216.362C188.41 216.362 188.445 216.362 188.482 216.369C190.872 216.405 208.822 216.826 224.604 221.258Z" fill="white"/>
<path d="M156.124 223.187C158.532 228.296 163.951 238.592 170.628 243.695L186.372 228.972C187.486 227.93 189.217 227.93 190.331 228.972L206.068 243.695C212.741 238.594 218.156 228.31 220.567 223.198C205.892 219.635 190.287 219.295 188.438 219.267C188.407 219.265 188.378 219.265 188.347 219.264C188.268 219.268 188.186 219.268 188.107 219.264C185.76 219.18 170.683 219.59 156.124 223.187ZM205.78 250.291C205.062 250.291 204.35 250.024 203.799 249.508L188.352 235.056L172.895 249.509C171.951 250.39 170.537 250.543 169.43 249.878C157.835 242.941 149.744 223.183 149.406 222.345C149.098 221.582 149.127 220.724 149.489 219.986C149.85 219.246 150.509 218.696 151.301 218.471C167.427 213.898 184.887 213.387 188.16 213.47C188.335 213.461 188.461 213.461 188.655 213.475C191.268 213.52 209.448 213.993 225.387 218.47C226.181 218.692 226.842 219.242 227.205 219.982C227.567 220.721 227.6 221.582 227.291 222.345C226.951 223.183 218.861 242.941 207.266 249.878C206.805 250.155 206.292 250.291 205.78 250.291Z" fill="#2D2D2D"/>
<path d="M195.928 247.031H178.834C177.234 247.031 175.937 245.733 175.937 244.133C175.937 242.533 177.234 241.235 178.834 241.235H195.928C197.528 241.235 198.826 242.533 198.826 244.133C198.826 245.733 197.528 247.031 195.928 247.031Z" fill="#2D2D2D"/>
<path d="M188.214 219.699C187.507 219.699 186.82 219.44 186.286 218.965C185.669 218.415 185.316 217.628 185.316 216.801C185.316 215.201 186.614 213.896 188.214 213.896H188.374C189.974 213.896 191.27 215.194 191.27 216.794C191.27 218.375 190.003 219.66 188.43 219.691C188.357 219.696 188.286 219.699 188.214 219.699Z" fill="#2D2D2D"/>
<path d="M188.482 219.699C188.398 219.699 188.314 219.695 188.228 219.688C186.696 219.613 185.476 218.345 185.476 216.794C185.476 215.208 186.75 213.92 188.332 213.898L188.34 213.896H188.346H188.367H188.374H188.482C190.082 213.896 191.38 215.194 191.38 216.794V216.801C191.38 217.674 190.987 218.499 190.311 219.049C189.789 219.473 189.142 219.699 188.482 219.699Z" fill="#2D2D2D"/>
<path d="M150.26 319.729C141.375 319.729 136.765 318.492 136.482 318.414L138.022 312.826C138.116 312.851 147.635 315.333 166.06 312.752L166.864 318.491C160.257 319.417 154.72 319.729 150.26 319.729Z" fill="#2D2D2D"/>
<path d="M223.11 319.729C214.225 319.729 209.616 318.492 209.334 318.414L210.873 312.826C210.967 312.851 220.486 315.333 238.912 312.752L239.714 318.491C233.109 319.417 227.57 319.729 223.11 319.729Z" fill="#2D2D2D"/>
<path d="M187.381 353.547C185.781 353.547 184.483 352.249 184.483 350.649V314.317C184.483 312.717 185.781 311.421 187.381 311.421C188.981 311.421 190.279 312.717 190.279 314.317V350.649C190.279 352.249 188.981 353.547 187.381 353.547Z" fill="#2D2D2D"/>
<path d="M125.451 176.952C120.579 183.987 110.006 185.102 101.838 179.443C93.6691 173.785 90.9977 163.496 95.8705 156.462C100.742 149.428 111.314 148.312 119.482 153.971C127.651 159.628 130.323 169.918 125.451 176.952Z" fill="#FFD8BF"/>
<path d="M113.054 180.159C111.804 180.159 110.521 180.001 109.243 179.685C109.699 178.589 110.006 177.445 110.169 176.278C110.675 176.251 111.177 176.17 111.664 176.037C111.857 175.982 112.029 175.851 112.127 175.659C112.329 175.272 112.142 174.798 111.742 174.631C111.269 174.399 110.769 174.122 110.304 173.798C110.269 172.566 110.086 171.325 109.76 170.1C111.426 169.542 113.346 169.213 115.05 168.705C115.085 168.694 115.121 168.683 115.157 168.672C115.531 172.479 116.074 176.147 116.784 179.662C115.599 179.992 114.343 180.159 113.054 180.159ZM107.124 164.416C106.28 163.191 105.279 162.033 104.125 160.978C105.68 161.406 107.213 162.084 108.499 162.954C108.792 163.144 109.073 163.347 109.345 163.563C108.581 163.781 107.83 164.058 107.124 164.416ZM111.243 159.798C109.046 158.862 106.675 158.413 104.28 158.413C103.616 158.413 102.948 158.448 102.282 158.516C101.936 158.554 101.689 158.728 101.538 158.961C100.641 158.367 99.7167 157.852 98.7768 157.417C100.527 155.286 103.064 153.893 106.051 153.428C107.869 155.929 109.65 158.055 111.243 159.798Z" fill="#D1ADA7"/>
<path d="M249.329 176.952C254.201 183.987 264.774 185.102 272.941 179.443C281.109 173.785 283.782 163.496 278.909 156.462C274.037 149.428 263.466 148.312 255.296 153.971C247.129 159.628 244.456 169.918 249.329 176.952Z" fill="#FFD8BF"/>
<path d="M261.762 180.157C261.241 180.157 260.72 180.131 260.203 180.076C259.319 179.982 258.47 179.81 257.666 179.564C258.455 175.9 259.034 172.234 259.443 168.63C261.329 169.177 263.396 169.542 265.19 170.163C264.887 171.321 264.712 172.494 264.667 173.659C264.13 174.059 263.529 174.394 262.972 174.665C262.385 174.942 262.474 175.882 263.115 176.037C263.692 176.194 264.256 176.277 264.8 176.297C264.962 177.444 265.264 178.568 265.708 179.647C264.406 179.984 263.08 180.157 261.762 180.157ZM267.781 164.508C267.013 164.112 266.242 163.8 265.462 163.56C267.048 162.297 268.958 161.402 270.926 160.902C269.708 162.003 268.656 163.219 267.781 164.508ZM263.96 159.62C265.311 157.512 266.565 155.407 267.723 153.308C267.827 153.318 267.932 153.327 268.035 153.337C271.353 153.688 274.169 155.15 276.055 157.48C275.114 157.923 274.19 158.446 273.295 159.051C273.137 158.764 272.848 158.556 272.497 158.516C271.818 158.444 271.148 158.409 270.485 158.409C268.483 158.409 266.54 158.736 264.586 159.397C264.376 159.466 264.167 159.542 263.96 159.62Z" fill="#D1ADA7"/>
<path d="M108.297 153.256C107.777 153.256 107.259 153.283 106.743 153.337C103.136 153.718 100.121 155.414 98.2509 158.111C96.3824 160.809 95.8551 164.228 96.7684 167.74C97.7209 171.409 100.107 174.72 103.487 177.061C110.329 181.801 119.114 181.012 123.069 175.303C124.938 172.605 125.464 169.185 124.552 165.673C123.6 162.005 121.214 158.694 117.833 156.353C114.914 154.33 111.58 153.256 108.297 153.256ZM113.027 185.935C108.704 185.935 104.185 184.594 100.188 181.825C95.6677 178.693 92.4607 174.209 91.1585 169.196C89.8159 164.027 90.6438 158.918 93.4886 154.812C96.332 150.705 100.824 148.136 106.136 147.575C111.287 147.032 116.612 148.458 121.132 151.589C125.653 154.721 128.86 159.205 130.162 164.217C131.505 169.387 130.677 174.496 127.833 178.602C124.496 183.419 118.945 185.935 113.027 185.935Z" fill="#2D2D2D"/>
<path d="M102.282 158.516C106.374 158.095 110.511 158.951 113.964 161.273C115.185 162.052 116.234 163.087 117.227 164.186C118.212 165.157 118.22 166.743 117.25 167.726C116.749 168.308 115.734 168.483 115.05 168.705C113.036 169.305 110.718 169.656 108.878 170.43C108.794 170.449 108.852 170.417 108.823 170.386C108.811 170.351 108.798 170.363 108.78 170.374C108.77 170.379 108.756 170.386 108.739 170.382C108.606 170.412 108.471 170.543 108.42 170.866C108.36 172.626 110.198 173.876 111.742 174.631C112.142 174.798 112.329 175.272 112.127 175.659C112.029 175.851 111.857 175.982 111.664 176.037C109.752 176.558 107.622 176.277 105.899 175.075C103.402 173.491 102.268 169.693 104.08 167.006C105.866 164.397 109.029 163.451 111.89 163.028C112.799 162.929 113.627 162.859 114.615 162.926L112.436 167.445C111.557 165.645 110.23 164.076 108.499 162.954C106.694 161.733 104.401 160.891 102.245 160.583C101.051 160.406 101.089 158.646 102.282 158.516Z" fill="#2D2D2D"/>
<path d="M266.483 153.256C263.199 153.256 259.866 154.33 256.947 156.353C253.566 158.694 251.179 162.004 250.226 165.673C249.315 169.185 249.842 172.605 251.71 175.303C253.579 178 256.596 179.696 260.203 180.076C263.975 180.476 267.911 179.403 271.291 177.061C274.673 174.719 277.059 171.409 278.011 167.74C278.923 164.228 278.396 160.809 276.528 158.112C274.659 155.414 271.644 153.718 268.035 153.337C267.52 153.283 267.001 153.256 266.483 153.256ZM261.754 185.952C261.032 185.952 260.312 185.914 259.596 185.838C254.284 185.278 249.791 182.708 246.947 178.602C244.103 174.496 243.275 169.386 244.618 164.217C245.92 159.206 249.126 154.72 253.647 151.589C258.168 148.457 263.494 147.032 268.643 147.575C273.955 148.136 278.446 150.705 281.291 154.811C284.136 158.918 284.963 164.027 283.62 169.196C282.319 174.209 279.112 178.693 274.592 181.824C270.699 184.519 266.213 185.952 261.754 185.952Z" fill="#2D2D2D"/>
<path d="M272.43 160.6C268.311 161.215 264.13 163.586 262.344 167.445H262.343L260.165 162.926C263.129 162.824 265.781 163.334 268.423 164.857C275.161 168.979 270.122 177.95 263.115 176.037C262.474 175.881 262.385 174.942 262.972 174.665C264.53 173.908 266.421 172.652 266.36 170.866C266.309 170.543 266.172 170.411 266.041 170.382C266.022 170.386 266.01 170.379 265.999 170.374C265.981 170.362 265.969 170.351 265.955 170.386C265.927 170.417 265.986 170.449 265.902 170.43C263.698 169.53 260.936 169.154 258.59 168.364C257.267 167.967 256.516 166.571 256.913 165.248C257.038 164.835 257.266 164.47 257.551 164.186C259.436 162.002 261.885 160.288 264.586 159.397C267.188 158.516 269.769 158.228 272.497 158.516C273.07 158.579 273.481 159.095 273.418 159.669C273.361 160.192 272.929 160.562 272.43 160.6Z" fill="#2D2D2D"/>
<path d="M254.599 123.965C254.599 123.965 277.919 231.397 188.217 231.397C86.6704 231.397 124.219 107.797 124.219 107.797C124.219 107.797 206.097 95.2809 254.599 123.965Z" fill="#FFD8BF"/>
<path d="M126.496 110.41C123.695 120.832 110.806 174.648 133.851 205.716C145.064 220.834 163.355 228.499 188.217 228.499C210.662 228.499 227.672 221.522 238.775 207.759C260.867 180.376 253.512 133.943 252.007 125.809C208.834 101.123 138.721 108.828 126.496 110.41ZM188.217 234.294C161.414 234.294 141.554 225.837 129.187 209.155C117.874 193.895 112.963 171.336 114.987 143.924C116.499 123.423 121.246 107.618 121.447 106.955C121.772 105.888 122.679 105.102 123.781 104.934C123.988 104.902 144.798 101.776 171.272 102.228C206.989 102.842 235.521 109.316 256.073 121.471C256.768 121.881 257.259 122.562 257.429 123.35C257.923 125.618 269.19 179.267 243.298 211.382C231.04 226.585 212.508 234.294 188.217 234.294Z" fill="#2D2D2D"/>
<path d="M163.664 157.859C163.664 166.064 158.406 172.716 151.917 172.716C145.429 172.716 140.17 166.064 140.17 157.859C140.17 149.652 145.429 143 151.917 143C158.406 143 163.664 149.652 163.664 157.859Z" fill="#2D2D2D"/>
<path d="M159.008 155.028C159.008 157.926 157.421 160.276 155.463 160.276C153.505 160.276 151.917 157.926 151.917 155.028C151.917 152.13 153.505 149.782 155.463 149.782C157.421 149.782 159.008 152.13 159.008 155.028Z" fill="white"/>
<path d="M149.727 168.171C148.459 168.171 147.059 167.027 146.34 165.28C145.477 163.181 145.927 161.004 147.345 160.421C147.585 160.323 147.835 160.276 148.092 160.276C149.359 160.276 150.761 161.42 151.478 163.167C152.343 165.267 151.892 167.442 150.473 168.027C150.233 168.125 149.983 168.171 149.727 168.171Z" fill="#202020"/>
<path d="M212.026 157.859C212.026 166.064 217.285 172.716 223.773 172.716C230.261 172.716 235.52 166.064 235.52 157.859C235.52 149.652 230.261 143 223.773 143C217.285 143 212.026 149.652 212.026 157.859Z" fill="#2D2D2D"/>
<path d="M216.682 155.028C216.682 157.926 218.269 160.276 220.227 160.276C222.185 160.276 223.773 157.926 223.773 155.028C223.773 152.13 222.185 149.782 220.227 149.782C218.269 149.782 216.682 152.13 216.682 155.028Z" fill="white"/>
<path d="M225.963 168.171C225.707 168.171 225.455 168.125 225.218 168.027C223.798 167.442 223.348 165.267 224.212 163.167C224.93 161.42 226.331 160.276 227.598 160.276C227.854 160.276 228.106 160.323 228.345 160.421C229.763 161.004 230.214 163.181 229.351 165.28C228.632 167.027 227.232 168.171 225.963 168.171Z" fill="#202020"/>
<path d="M197.131 187.988C195.052 190.595 191.959 192.457 187.381 192.457C182.737 192.457 179.674 190.538 177.667 187.872C173.097 181.823 173.937 171.943 173.937 171.943C173.937 171.943 187.845 176.116 201.403 171.943C201.403 171.943 201.968 181.955 197.131 187.988Z" fill="#2D2D2D"/>
<path d="M197.131 187.988C195.052 190.595 191.959 192.457 187.381 192.457C182.737 192.457 179.674 190.538 177.667 187.872C178.841 184.047 182.746 181.244 187.381 181.244C192.061 181.244 196.001 184.106 197.131 187.988Z" fill="#FF70A2"/>
<path d="M176.824 175.596C176.992 178.633 177.662 183.058 179.979 186.125C181.719 188.437 184.14 189.559 187.381 189.559C190.605 189.559 193.052 188.454 194.865 186.181L194.87 186.175C197.293 183.153 198.124 178.771 198.398 175.701C189.684 177.507 181.42 176.49 176.824 175.596ZM187.381 195.354C182.339 195.354 178.179 193.368 175.353 189.615C170.175 182.763 171.013 172.147 171.051 171.698C171.125 170.828 171.586 170.038 172.308 169.549C173.03 169.058 173.933 168.918 174.769 169.168C174.898 169.206 188.038 173.026 200.552 169.174C201.401 168.914 202.328 169.056 203.059 169.565C203.789 170.074 204.247 170.891 204.297 171.781C204.322 172.234 204.862 182.977 199.392 189.798C196.493 193.433 192.339 195.354 187.381 195.354Z" fill="#2D2D2D"/>
<path d="M136.215 130.874C136.215 130.874 139.474 122.27 148.6 123.574C158.319 124.962 157.987 133.873 157.987 133.873C157.987 133.873 155.38 130.874 147.102 129.441C140.951 128.375 136.215 130.874 136.215 130.874Z" fill="#2D2D2D"/>
<path d="M236.407 130.874C236.407 130.874 233.148 122.27 224.02 123.574C214.303 124.962 214.633 133.873 214.633 133.873C214.633 133.873 217.241 130.874 225.518 129.441C231.671 128.375 236.407 130.874 236.407 130.874Z" fill="#2D2D2D"/>
<path d="M256.253 170.322C256.253 170.322 258.773 143.26 254.601 123.965C254.601 123.965 202.971 127.094 184.718 117.706V124.464C184.718 124.464 145.082 128.137 124.222 107.798C124.222 107.798 114.299 147.954 117.436 165.686C117.436 165.686 96.0607 149.519 92.4103 118.75C92.1194 116.323 91.9026 113.948 91.7572 111.629C90.0271 84.598 97.6104 65.8019 109.62 68.6845C109.62 68.6845 127.872 24.8769 190.977 27.4854C235.74 29.3315 278.228 64.9684 279.01 110.681C279.337 129.411 272.651 149.838 256.253 170.322Z" fill="#6B5454"/>
<path d="M256.253 170.322C256.253 170.322 257.007 162.228 257.007 151.739C257.008 143.046 256.491 132.708 254.601 123.965C254.601 123.965 252.54 124.089 249.098 124.215C245.647 124.34 240.807 124.466 235.26 124.466C233.7 124.466 232.086 124.456 230.43 124.434C227.532 124.393 224.51 124.315 221.443 124.183C207.585 123.585 192.845 121.887 184.718 117.706V124.464C184.718 124.464 181.926 124.723 177.439 124.723C165.75 124.723 142.541 122.972 127.07 110.337C126.088 109.535 125.137 108.689 124.222 107.798C124.222 107.798 116.819 137.758 116.822 157.349C116.823 160.44 117.008 163.27 117.436 165.686C117.436 165.686 111.943 161.532 106.051 153.428C104.91 151.858 103.752 150.139 102.617 148.273C99.9908 143.954 97.4817 138.848 95.5516 132.972C95.9726 134.253 96.4216 135.498 96.8929 136.706C95.8425 133.07 95.0173 129.165 94.525 124.986C94.0649 121.112 93.7866 117.37 93.6789 113.794C96.2244 116.257 99.6664 118.12 104.245 118.12C105.023 118.12 105.834 118.067 106.679 117.954C122.107 115.867 112.843 89.4792 112.843 89.4792C112.843 89.4792 145.638 111.726 169.462 113.411C169.518 113.415 169.572 113.418 169.627 113.418C171.627 113.418 172.514 110.798 170.846 109.582C162.548 103.526 147.438 90.5785 145.082 75.1881C145.082 75.1881 180.019 98.9562 226.993 104.47C227.265 104.502 227.535 104.517 227.804 104.517C231.155 104.517 234.086 102.075 234.575 98.6821C235.717 90.7351 235.769 76.9909 225.52 66.8439C225.52 66.8439 255.586 74.0007 260.815 98.8458C263.857 113.306 267.562 119.527 271.272 119.527C273.93 119.527 276.59 116.331 279.01 110.681C279.018 111.12 279.023 111.559 279.023 112.001C279.02 123.463 276.389 135.541 270.52 147.863C269.659 149.674 268.727 151.488 267.723 153.308C264.61 158.951 260.806 164.634 256.253 170.322ZM92.4103 118.75C92.153 116.6 91.953 114.491 91.8103 112.426C91.9558 114.489 92.1544 116.6 92.4103 118.75Z" fill="#544651"/>
<path d="M95.5516 132.972C94.1278 128.646 93.0187 123.902 92.4103 118.75C93.0215 123.904 94.1292 128.646 95.5516 132.972ZM91.8103 112.426C91.0788 102.04 91.7138 92.8359 93.4439 85.5631C91.7585 92.6499 91.1138 101.569 91.7571 111.629C91.7739 111.895 91.7921 112.161 91.8103 112.426ZM276.041 91.0807C276.037 91.0709 276.034 91.0597 276.03 91.0499C274.525 85.8918 272.484 80.9365 269.981 76.2273C272.491 80.9463 274.534 85.91 276.041 91.0807ZM93.4453 85.5547C93.4481 85.5435 93.4509 85.5323 93.4536 85.5211C93.4509 85.5337 93.4481 85.5435 93.4453 85.5547ZM93.4592 85.496C93.4606 85.489 93.462 85.4834 93.4648 85.4764C93.4634 85.4834 93.4606 85.489 93.4592 85.496ZM93.4732 85.4358C93.4746 85.433 93.476 85.4303 93.476 85.4261C93.476 85.4289 93.4746 85.433 93.4732 85.4358ZM219.662 33.3177C219.655 33.3149 219.654 33.3148 219.647 33.312C219.651 33.3134 219.658 33.3163 219.662 33.3177ZM219.611 33.298C219.591 33.2911 219.573 33.2841 219.552 33.2771C219.571 33.2841 219.591 33.2911 219.611 33.298ZM219.549 33.2757C219.53 33.2687 219.513 33.2617 219.492 33.2547C219.511 33.2617 219.53 33.2687 219.549 33.2757ZM219.488 33.2533C210.383 29.898 200.77 27.8966 191.044 27.4868C200.767 27.8966 210.385 29.8994 219.488 33.2533ZM191.041 27.4868C191.019 27.4868 190.998 27.4854 190.977 27.4854C190.998 27.4854 191.02 27.4868 191.041 27.4868Z" fill="#FEF4DC"/>
<path d="M93.6788 113.794C92.9711 113.11 92.332 112.379 91.7571 111.629C91.1138 101.569 91.7585 92.6496 93.4439 85.5628C93.4439 85.56 93.4453 85.5572 93.4453 85.5544C93.4481 85.5432 93.4509 85.5334 93.4537 85.5208C93.4551 85.5138 93.4579 85.5041 93.4593 85.4957C93.4607 85.4887 93.4634 85.4831 93.4648 85.4761C93.4676 85.4635 93.4704 85.4481 93.4732 85.4355C93.4746 85.4327 93.476 85.4285 93.476 85.4257C96.0201 74.8466 100.889 68.3919 107.236 68.3919C108.009 68.3919 108.804 68.4884 109.62 68.6843C109.62 68.6843 126.837 27.3732 185.616 27.3732C187.367 27.3732 189.15 27.4096 190.977 27.4851C190.998 27.4851 191.019 27.4865 191.041 27.4865C191.042 27.4865 191.042 27.4865 191.044 27.4865C200.77 27.8963 210.383 29.8977 219.488 33.253C219.489 33.253 219.489 33.253 219.492 33.2544C219.513 33.2614 219.53 33.2684 219.549 33.2754L219.552 33.2768C219.573 33.2838 219.591 33.2907 219.611 33.2977C219.625 33.3033 219.633 33.3061 219.647 33.3117C219.654 33.3145 219.655 33.3146 219.662 33.3174C219.681 33.3243 219.696 33.3299 219.713 33.3355L219.714 33.3369C241.046 41.2559 259.54 56.6016 269.981 76.227C272.484 80.9362 274.525 85.8915 276.03 91.0496C263.366 58.3764 228.956 35.2054 193.091 33.7201C191.273 33.646 189.491 33.6096 187.747 33.6096C181.077 33.6096 174.944 34.1425 169.312 35.0894C169.586 35.3719 169.761 35.6908 169.841 36.039C170.383 38.4726 165.892 41.551 159.801 42.9202C157.85 43.3566 155.973 43.5636 154.305 43.5636C151.053 43.5636 148.593 42.7762 147.922 41.3692C120.731 53.3288 111.735 74.9207 111.735 74.9207C110.92 74.7249 110.124 74.6284 109.35 74.6284C99.3181 74.6284 92.9809 90.7489 93.6788 113.794Z" fill="#C4BBBB"/>
<path d="M96.8929 136.707C96.4216 135.498 95.9726 134.253 95.5516 132.972C94.1292 128.646 93.0215 123.904 92.4103 118.75C92.1544 116.6 91.9558 114.489 91.8103 112.426C91.7921 112.161 91.774 111.895 91.7572 111.629C92.332 112.379 92.9712 113.11 93.6789 113.794C93.7866 117.371 94.0649 121.112 94.525 124.986C95.0174 129.165 95.8425 133.07 96.8929 136.707Z" fill="#C0B4BD"/>
<path d="M254.6 121.067C255.955 121.067 257.141 122.012 257.431 123.352C260.108 135.733 260.117 150.971 259.74 160.74C277.451 134.701 280.967 106.991 269.527 81.8622C256.143 52.459 224.527 31.7706 190.854 30.3789C130.457 27.881 112.467 69.3781 112.292 69.7977C111.745 71.111 110.324 71.834 108.941 71.5012C106.613 70.9417 104.556 71.4956 102.645 73.1935C96.9153 78.2873 92.4173 94.2428 95.2845 118.408C97.6188 138.084 107.633 151.644 113.935 158.407C113.665 138.718 121.047 108.556 121.407 107.103C121.655 106.095 122.426 105.296 123.425 105.012C124.425 104.727 125.499 104.998 126.242 105.723C142.877 121.941 172.811 122.086 181.819 121.73V117.706C181.819 116.696 182.344 115.759 183.206 115.233C184.069 114.706 185.142 114.668 186.041 115.13C203.387 124.05 253.916 121.103 254.424 121.072C254.482 121.068 254.541 121.067 254.6 121.067ZM256.255 173.217C255.889 173.217 255.522 173.149 255.169 173.006C253.983 172.526 253.252 171.326 253.369 170.051C253.393 169.796 255.594 145.411 252.246 126.989C242.284 127.456 206.152 128.619 187.613 122.074V124.464C187.613 125.962 186.473 127.212 184.982 127.35C183.403 127.496 148.047 130.536 125.952 113.158C123.5 124.151 117.913 151.743 120.286 165.182C120.493 166.354 119.962 167.535 118.945 168.157C117.93 168.778 116.634 168.715 115.686 167.996C114.773 167.305 93.283 150.722 89.5305 119.091C86.7501 95.661 90.3012 76.4145 98.7964 68.862C101.496 66.462 104.617 65.3235 107.928 65.5137C109.904 61.7052 115.005 53.2198 124.751 44.9022C136.505 34.8699 157.559 23.2012 191.093 24.5887C226.895 26.0684 260.534 48.1205 274.802 79.4621C288.337 109.195 282.554 142.106 258.516 172.131C257.954 172.833 257.115 173.217 256.255 173.217Z" fill="#2D2D2D"/>
<path d="M122.749 110.293C117.613 106.174 114.63 99.8793 113.122 93.6218C112.503 90.9589 112.185 88.0917 112.051 85.3714C113.815 91.9701 117.012 98.5002 122.255 102.98C123.302 103.861 124.475 104.762 125.69 105.302C128.927 107.341 126.111 112.138 122.749 110.293Z" fill="#2D2D2D"/>
<path d="M249.298 79.834C259.141 87.781 265.382 100.72 263.631 113.523C263.299 116.093 261.248 118.394 258.51 117.051C256.045 115.619 254.842 113.026 253.489 110.725C252.375 108.641 251.4 106.595 250.474 104.412C249.267 100.813 254.403 98.8636 255.889 102.356C257.235 105.925 257.992 109.595 258.301 113.386C258.621 117.162 258.33 120.997 257.401 124.698C257.036 126.254 255.478 127.221 253.922 126.857C252.306 126.484 251.347 124.818 251.796 123.23C252.552 120.18 252.796 116.998 252.524 113.839C252.275 110.706 251.619 107.492 250.526 104.548L255.929 102.454C257.152 105.977 258.333 109.834 260.517 112.867C260.606 112.976 260.691 113.043 260.622 113.016C260.399 112.923 259.986 112.893 259.67 113.02C259.197 113.205 259.124 113.429 259.14 113.409C259.734 112.348 259.846 110.972 259.975 109.622C261.207 98.8846 256.438 87.9726 248.773 80.4802C248.375 80.1599 248.859 79.4871 249.298 79.834Z" fill="#2D2D2D"/>
<path d="M161.807 223.116C161.807 223.115 161.807 223.115 161.807 223.115V223.116ZM161.807 223.091C161.807 223.091 161.807 223.09 161.807 223.088C161.807 223.09 161.807 223.09 161.807 223.091ZM161.806 223.067C161.806 223.066 161.806 223.063 161.806 223.062C161.806 223.064 161.806 223.064 161.806 223.067ZM161.803 222.884C161.803 222.881 161.803 222.878 161.801 222.874C161.803 222.877 161.803 222.881 161.803 222.884ZM161.801 222.806C161.801 222.802 161.801 222.797 161.801 222.792C161.801 222.796 161.801 222.802 161.801 222.806ZM161.801 222.753C161.8 222.748 161.8 222.743 161.8 222.739C161.8 222.743 161.8 222.747 161.801 222.753ZM161.8 222.699C161.8 222.694 161.8 222.688 161.8 222.684C161.8 222.69 161.8 222.694 161.8 222.699ZM161.8 222.645C161.8 222.636 161.8 222.627 161.8 222.618C161.8 222.628 161.8 222.636 161.8 222.645ZM161.8 222.569C161.8 222.557 161.8 222.541 161.8 222.529C161.8 222.543 161.8 222.555 161.8 222.569ZM161.804 222.241C161.804 222.229 161.804 222.217 161.806 222.206C161.804 222.218 161.804 222.229 161.804 222.241ZM161.811 221.999C161.811 221.993 161.811 221.989 161.811 221.985C161.811 221.989 161.811 221.995 161.811 221.999ZM161.815 221.911C161.815 221.909 161.815 221.906 161.815 221.905C161.815 221.906 161.815 221.908 161.815 221.911ZM161.817 221.857C161.817 221.856 161.817 221.853 161.817 221.853C161.817 221.855 161.817 221.856 161.817 221.857ZM161.955 220.316C161.957 220.309 161.958 220.302 161.958 220.294C161.958 220.301 161.957 220.309 161.955 220.316Z" fill="#EFDEDF"/>
<path d="M165.595 211.935H165.592C168.692 208.121 173.418 205.68 178.712 205.669C177.929 205.671 177.16 205.728 176.411 205.836C174.81 206.052 173.288 206.494 171.869 207.132C169.414 208.223 167.269 209.879 165.595 211.935Z" fill="#FFEFE5"/>
<path d="M161.966 220.233C162.406 217.114 163.695 214.268 165.592 211.935H165.595C164.222 213.621 163.169 215.575 162.525 217.706C162.523 217.707 162.523 217.71 162.522 217.713C162.52 217.72 162.519 217.726 162.516 217.733C162.273 218.542 162.088 219.377 161.966 220.233Z" fill="#EFDEDF"/>
<path d="M191.195 211.112C191.193 211.11 191.191 211.108 191.189 211.106C191.192 211.108 191.193 211.109 191.195 211.112ZM191.15 211.063C189.579 209.379 187.67 208.017 185.53 207.081C185.262 206.964 184.991 206.853 184.715 206.748C187.186 207.678 189.384 209.168 191.15 211.063ZM183.323 206.294C182.572 206.084 181.799 205.926 181.01 205.821C180.648 205.771 180.286 205.734 179.923 205.713C179.546 205.685 179.168 205.67 178.791 205.67C180.361 205.673 181.881 205.891 183.323 206.294Z" fill="#FFEFE5"/>
<path d="M165.82 233.576C165.304 232.968 164.831 232.324 164.404 231.646C164.404 231.647 164.406 231.647 164.407 231.647C164.834 232.323 165.306 232.965 165.821 233.572L165.82 233.576Z" fill="#D1CCDA"/>
<path d="M164.407 231.647C164.406 231.647 164.404 231.647 164.404 231.646C163.148 229.657 162.295 227.387 161.96 224.954C162.136 226.222 162.45 227.445 162.891 228.607C163.295 229.677 163.804 230.694 164.407 231.647Z" fill="#1B1B1B"/>
<path d="M161.803 222.927C161.803 222.923 161.803 222.918 161.803 222.912C161.803 222.918 161.803 222.922 161.803 222.927ZM161.801 222.82C161.801 222.814 161.801 222.811 161.801 222.806C161.801 222.81 161.801 222.815 161.801 222.82ZM161.8 222.712C161.8 222.708 161.8 222.702 161.8 222.699C161.8 222.704 161.8 222.708 161.8 222.712ZM161.8 222.656C161.8 222.653 161.8 222.649 161.8 222.645C161.8 222.649 161.8 222.652 161.8 222.656ZM161.8 222.529C161.8 222.526 161.8 222.523 161.8 222.52C161.8 222.525 161.8 222.526 161.8 222.529ZM161.801 222.392C161.801 222.387 161.801 222.383 161.801 222.38C161.801 222.383 161.801 222.389 161.801 222.392ZM161.803 222.343C161.803 222.34 161.803 222.336 161.803 222.333C161.803 222.336 161.803 222.338 161.803 222.343ZM161.806 222.206C161.806 222.201 161.806 222.196 161.806 222.19C161.806 222.196 161.806 222.2 161.806 222.206ZM161.806 222.165C161.807 222.158 161.807 222.15 161.807 222.143C161.807 222.151 161.807 222.157 161.806 222.165ZM161.814 221.936C161.814 221.927 161.814 221.919 161.815 221.911C161.814 221.919 161.814 221.926 161.814 221.936ZM161.815 221.905C161.815 221.89 161.817 221.873 161.817 221.857C161.817 221.873 161.815 221.888 161.815 221.905ZM161.958 220.294C161.96 220.288 161.959 220.284 161.961 220.278C161.959 220.283 161.96 220.29 161.958 220.294Z" fill="#605459"/>
<path d="M185.454 238.19C185.514 238.164 185.574 238.139 185.634 238.112C185.575 238.139 185.514 238.164 185.454 238.19ZM170.455 237.402C168.691 236.41 167.122 235.111 165.82 233.576L165.821 233.572C166.462 234.326 167.167 235.024 167.929 235.656C168.716 236.312 169.562 236.897 170.46 237.402C170.459 237.402 170.458 237.402 170.455 237.402Z" fill="#1B1B1B"/>
<path d="M161.961 224.953C161.959 224.953 161.961 224.955 161.959 224.953C161.877 224.351 161.825 223.737 161.807 223.116V223.114C161.807 223.106 161.807 223.099 161.807 223.091C161.807 223.089 161.807 223.089 161.807 223.088C161.807 223.081 161.806 223.074 161.806 223.067C161.806 223.064 161.806 223.064 161.806 223.061C161.806 223.054 161.806 223.047 161.806 223.04C161.806 223.039 161.806 223.036 161.806 223.035C161.806 223.028 161.806 223.022 161.804 223.015C161.804 223.012 161.804 223.011 161.804 223.008C161.804 223.001 161.804 222.995 161.804 222.988C161.804 222.986 161.804 222.984 161.804 222.981C161.804 222.976 161.804 222.97 161.804 222.963C161.804 222.96 161.804 222.956 161.803 222.953C161.803 222.948 161.803 222.942 161.803 222.937C161.803 222.934 161.803 222.931 161.803 222.927C161.803 222.921 161.803 222.917 161.803 222.911C161.803 222.907 161.803 222.904 161.803 222.9C161.803 222.895 161.803 222.889 161.803 222.884C161.803 222.881 161.803 222.877 161.801 222.874C161.801 222.868 161.801 222.864 161.801 222.858C161.801 222.854 161.801 222.85 161.801 222.846C161.801 222.842 161.801 222.836 161.801 222.832C161.801 222.828 161.801 222.823 161.801 222.819C161.801 222.815 161.801 222.809 161.801 222.805C161.801 222.801 161.801 222.795 161.801 222.791C161.801 222.787 161.801 222.783 161.801 222.779C161.801 222.774 161.801 222.77 161.801 222.766C161.801 222.76 161.801 222.756 161.801 222.752C161.8 222.746 161.8 222.742 161.8 222.738C161.8 222.734 161.8 222.73 161.8 222.725C161.8 222.72 161.8 222.716 161.8 222.711C161.8 222.707 161.8 222.703 161.8 222.699C161.8 222.693 161.8 222.689 161.8 222.684C161.8 222.679 161.8 222.675 161.8 222.671C161.8 222.667 161.8 222.661 161.8 222.656C161.8 222.651 161.8 222.649 161.8 222.644C161.8 222.636 161.8 222.628 161.8 222.618C161.8 222.604 161.8 222.59 161.8 222.576C161.8 222.573 161.8 222.572 161.8 222.569C161.8 222.555 161.8 222.542 161.8 222.528C161.8 222.525 161.8 222.524 161.8 222.52C161.8 222.507 161.8 222.493 161.801 222.479C161.801 222.478 161.801 222.477 161.801 222.474C161.801 222.461 161.801 222.45 161.801 222.437C161.801 222.435 161.801 222.432 161.801 222.429C161.801 222.416 161.801 222.404 161.801 222.391C161.801 222.388 161.801 222.383 161.801 222.38C161.801 222.367 161.803 222.355 161.803 222.342C161.803 222.338 161.803 222.335 161.803 222.332C161.803 222.321 161.803 222.31 161.803 222.3C161.803 222.296 161.803 222.293 161.803 222.291C161.804 222.278 161.804 222.265 161.804 222.253C161.804 222.249 161.804 222.244 161.804 222.24C161.804 222.229 161.804 222.218 161.806 222.205C161.806 222.2 161.806 222.195 161.806 222.19C161.806 222.181 161.806 222.173 161.806 222.165C161.807 222.156 161.807 222.151 161.807 222.142C161.807 222.134 161.807 222.127 161.807 222.118C161.807 222.113 161.808 222.106 161.808 222.1C161.808 222.091 161.808 222.079 161.808 222.07C161.81 222.063 161.81 222.057 161.81 222.05C161.81 222.043 161.81 222.037 161.81 222.032C161.811 222.021 161.811 222.009 161.811 221.998C161.811 221.994 161.811 221.988 161.811 221.984C161.813 221.97 161.813 221.956 161.814 221.944C161.814 221.941 161.814 221.938 161.814 221.935C161.814 221.925 161.814 221.918 161.815 221.91C161.815 221.907 161.815 221.906 161.815 221.904C161.815 221.888 161.817 221.872 161.817 221.857C161.817 221.856 161.817 221.854 161.817 221.853C161.839 221.348 161.884 220.85 161.95 220.358C161.95 220.353 161.951 220.349 161.951 220.345C161.953 220.335 161.954 220.325 161.955 220.316C161.957 220.309 161.958 220.3 161.958 220.293C161.96 220.289 161.959 220.282 161.961 220.278C161.962 220.267 161.964 220.254 161.965 220.243C161.966 220.24 161.966 220.237 161.966 220.233C162.088 219.377 162.273 218.542 162.516 217.732C162.052 219.279 161.801 220.918 161.801 222.618C161.801 223.411 161.856 224.191 161.961 224.953Z" fill="#C4B2C0"/>
<path d="M162.891 228.607C162.45 227.445 162.136 226.222 161.96 224.954C161.961 224.955 161.96 224.954 161.961 224.954C162.136 226.222 162.452 227.445 162.891 228.607Z" fill="#5B5265"/>
<path d="M175.051 235.056C172.091 235.056 168.901 234.748 165.488 234.025C165.148 233.954 164.932 233.62 165.003 233.28C165.076 232.939 165.41 232.722 165.75 232.795C178.595 235.512 188.182 232.182 193.963 228.906C194.266 228.736 194.649 228.842 194.821 229.144C194.994 229.448 194.886 229.832 194.584 230.003C190.153 232.512 183.563 235.056 175.051 235.056Z" fill="#2D2D2D"/>
<path d="M185.399 241.53C184.536 242.516 183.399 243.428 181.936 243.913C181.936 243.913 186.456 248.976 182.284 252.004C182.284 252.004 187.5 254.981 182.284 258.661C182.284 258.661 187.5 261.993 180.198 266.512C172.897 271.033 159.945 272.771 159.945 272.771C159.945 272.771 159.569 274.806 158.476 277.907C156.716 282.889 153.094 290.633 146.155 297.109C141.252 301.693 134.688 305.64 125.96 307.538L123.853 286.83L121.788 266.512C121.788 266.512 126.149 263.282 131.654 259.645C131.698 259.617 131.741 259.588 131.784 259.558C133.008 258.754 134.275 257.936 135.572 257.125C135.63 257.088 135.681 257.06 135.738 257.024C141.092 253.677 146.756 250.562 150.298 249.824C150.298 249.824 158.642 238.003 166.291 237.656C171.304 237.431 178.93 237.497 183.581 237.576C185.609 237.604 186.739 240.01 185.399 241.53Z" fill="#6C6377"/>
<path d="M159.944 272.77C159.944 272.77 157.408 286.598 146.152 297.107C131.319 287.72 131.731 260.178 131.772 260.146C137.551 255.419 150.295 249.824 150.295 249.824C145.284 271.148 159.944 272.77 159.944 272.77Z" fill="white"/>
<path d="M125.96 307.538L123.853 286.83C127.693 286.38 131.71 284.69 135.498 282.501C137.622 288.289 140.949 293.815 146.152 297.107C153.091 290.629 156.715 282.89 158.476 277.906C158.476 277.907 158.476 277.906 158.476 277.907C157.571 280.468 156.175 283.759 154.088 287.232C153.108 288.865 151.972 290.539 150.666 292.197C149.345 293.871 147.849 295.527 146.155 297.109C141.252 301.693 134.688 305.64 125.96 307.538ZM155.193 270.893C154.354 270.34 153.495 269.627 152.702 268.712C152.757 268.655 152.808 268.602 152.856 268.553C153.431 269.212 154.092 269.823 154.856 270.37C154.965 270.535 155.077 270.71 155.193 270.893Z" fill="#544C61"/>
<path d="M146.152 297.107C140.949 293.815 137.622 288.289 135.498 282.502C143.666 277.777 150.764 270.717 152.702 268.713C153.495 269.627 154.354 270.341 155.193 270.893C156.243 272.567 157.515 274.956 158.476 277.906C156.715 282.89 153.091 290.629 146.152 297.107Z" fill="#D1CCDA"/>
<path d="M185.551 241.393C184.689 242.378 183.551 243.291 182.088 243.776C182.088 243.776 186.609 248.839 182.437 251.866C182.437 251.866 183.61 252.533 184.283 253.634C185.037 254.844 185.181 256.589 182.437 258.524C182.437 258.524 187.651 261.855 180.35 266.375C173.049 270.894 160.098 272.633 160.098 272.633C160.098 272.633 160.091 272.633 160.069 272.626C152.102 270.815 149.813 264.71 149.45 259.255C149.443 259.089 149.436 258.929 149.429 258.77C149.414 258.56 149.407 258.35 149.407 258.132C149.313 253.677 150.385 249.918 150.443 249.694L150.45 249.686C150.45 249.686 151.703 247.912 153.681 245.725C156.81 242.255 161.757 237.727 166.444 237.518C171.455 237.294 179.083 237.358 183.733 237.438C185.761 237.467 186.891 239.872 185.551 241.393Z" fill="#FFD8BF"/>
<path d="M160.098 272.633C160.098 272.633 160.091 272.633 160.069 272.626C157.954 272.146 156.241 271.363 154.856 270.37C154.092 269.823 153.431 269.212 152.856 268.553C150.544 265.9 149.663 262.465 149.45 259.255C149.443 259.089 149.436 258.929 149.429 258.77C149.414 258.56 149.407 258.35 149.407 258.132C149.403 257.94 149.401 257.75 149.401 257.563C149.403 253.361 150.387 249.908 150.443 249.694L150.45 249.686C150.45 249.686 151.703 247.912 153.681 245.725H154.615C151.138 255.459 155.31 261.718 160.178 262.935C160.687 263.062 161.25 263.121 161.855 263.121C167.02 263.121 175.196 258.819 178.75 256.329C180.626 255.01 182.661 254.163 184.283 253.634C184.56 254.079 184.754 254.595 184.754 255.165C184.753 256.151 184.174 257.3 182.437 258.524C182.437 258.524 184.238 259.675 184.241 261.542C184.242 262.851 183.358 264.512 180.35 266.375C173.049 270.894 160.098 272.633 160.098 272.633Z" fill="#D7ADB0"/>
<path d="M120.692 265.035C127.174 259.612 133.958 254.682 141.338 250.509C143.965 249.101 146.787 247.69 149.703 246.985L147.927 248.151C149.212 246.367 150.494 244.839 151.957 243.248C155.392 239.645 159.278 236.077 164.427 234.906C166.052 234.583 167.758 234.636 169.4 234.567C174.188 234.456 178.925 234.476 183.683 234.536C187.972 234.569 190.602 239.741 187.992 243.171C186.683 244.849 184.979 246.116 182.907 246.832L184.228 241.863C184.645 242.33 184.855 242.646 185.184 243.111C187.753 246.669 188.084 251.681 184.111 254.522L183.823 249.304C188.947 252.344 188.912 258.006 184.088 261.221L183.97 256.019C184.591 256.437 184.826 256.672 185.294 257.137C187.993 259.88 187.739 263.939 185.01 266.65C182.501 269.229 179.175 270.707 176.284 271.857C171.062 273.831 165.845 275.027 160.358 275.859L163.008 273.332C160.001 286.709 151.533 299.044 139.404 305.686C135.373 307.891 131.008 309.417 126.574 310.369C125.009 310.705 123.469 309.709 123.132 308.145C122.797 306.586 123.79 305.049 125.342 304.707C133.165 302.933 140.379 298.99 145.839 293.12C149.913 288.737 153.071 283.434 155.19 277.819C155.722 276.416 156.185 274.988 156.564 273.546C156.687 273.087 156.808 272.554 156.88 272.202C157.148 270.852 158.242 269.873 159.529 269.682C164.354 268.949 169.462 267.775 174.021 266.03C176.204 265.177 178.558 264.073 180.238 262.595C180.329 262.482 180.537 262.272 180.638 262.167C180.732 262.055 180.785 261.931 180.879 261.826C180.89 261.771 180.911 261.722 180.947 261.682L180.936 261.67C180.926 261.668 180.963 261.655 180.947 261.666C180.949 261.711 180.971 261.789 180.919 261.675C180.873 261.587 180.729 261.423 180.627 261.338C180.605 261.314 180.484 261.228 180.595 261.301L180.474 256.1C180.775 255.863 181.118 255.593 181.368 255.303C181.526 255.093 181.452 255.105 181.46 255.294C181.467 255.491 181.549 255.509 181.399 255.308C181.302 255.147 180.867 254.789 180.74 254.708L180.452 249.49C180.687 249.263 180.887 249.114 180.89 249.024C181.136 247.996 180.168 246.637 179.505 245.789C178.465 244.451 178.707 242.523 180.045 241.483C180.968 240.856 182.066 240.704 182.848 239.776L183.024 239.592C183.044 239.568 183.102 239.508 183.091 239.515C182.735 239.902 182.954 240.613 183.525 240.616C177.884 240.513 172.227 240.427 166.617 240.621C165.909 240.644 165.255 240.775 164.567 241.016C159.764 242.909 155.8 247.423 152.664 251.495C151.852 252.663 150.496 252.693 149.263 253.129C144.923 254.712 140.91 257.09 136.884 259.393C132.179 262.168 127.488 265.09 122.862 268.001C120.962 269.154 118.988 266.535 120.692 265.035Z" fill="#2D2D2D"/>
<path d="M126.331 305.851C130.04 305.279 133.451 303.026 136.646 301.072C140.039 298.822 143.324 296.43 146.094 293.426C151.192 287.852 154.92 280.938 156.845 273.621C156.964 273.161 157.088 272.624 157.157 272.259C157.386 271.039 158.361 270.149 159.522 269.968C161.955 269.599 164.518 269.077 166.967 268.462C170.583 267.537 174.108 266.424 177.372 264.734C178.619 264.027 180.105 263.192 180.914 262.067C181.086 261.813 181.104 261.67 181.098 261.679C181.091 261.69 181.115 261.739 181.044 261.606C181.007 261.546 180.942 261.46 180.854 261.368C180.799 261.304 180.711 261.234 180.644 261.178L180.621 261.161C180.627 261.164 180.589 261.14 180.665 261.189L180.551 256.207C180.964 255.913 181.319 255.599 181.477 255.382C181.613 255.236 181.621 255.067 181.591 255.295C181.592 255.462 181.656 255.452 181.493 255.239C181.343 255.048 181.059 254.794 180.827 254.643C180.81 254.631 180.723 254.578 180.789 254.617L180.514 249.568C181.034 249.108 181.065 249.125 181.01 248.47C180.907 247.793 180.368 246.796 179.886 246.178C178.592 244.857 178.589 242.715 180.077 241.543C180.865 240.952 181.764 240.892 182.515 240.151C182.702 239.985 182.88 239.808 183.049 239.622L183.122 239.54L183.098 239.569C183.017 239.668 182.944 239.875 182.954 240.022C182.964 240.347 183.205 240.583 183.526 240.601C178.867 240.533 174.157 240.501 169.529 240.565C167.852 240.652 166.182 240.459 164.576 241.038C159.78 242.931 155.818 247.442 152.663 251.494C152.239 252.09 151.6 252.585 150.887 252.659C145.868 253.628 141.068 256.399 136.493 258.769C131.74 261.386 126.853 264.276 122.303 267.21C121.437 267.786 120.416 266.537 121.268 265.813C125.482 262.297 130.03 258.797 134.495 255.578C139.327 252.276 143.958 248.766 149.703 246.987L147.929 248.152C150.478 244.652 153.217 241.576 156.622 238.852C159.229 236.784 162.76 234.749 166.361 234.649C171.888 234.411 177.407 234.45 182.909 234.537C183.693 234.555 184.556 234.549 185.318 234.845C188.697 235.926 190.132 240.364 187.96 243.158C186.645 244.813 184.946 246.081 182.884 246.776L184.185 241.903C187.412 245.505 188.553 251.294 184.049 254.439L183.774 249.39C185.865 250.65 187.612 252.74 187.602 255.343C187.635 257.778 185.796 259.906 184.013 261.113L183.898 256.13L184.144 256.299L184.318 256.43C187.199 258.539 187.975 262.589 185.803 265.456C181.904 270.479 174.174 272.507 168.337 274.049C165.681 274.683 163.087 275.186 160.32 275.578L162.73 273.281C162.241 275.612 161.548 277.722 160.718 279.918C157.842 287.325 153.469 294.238 147.394 299.461C142.547 303.401 131.872 310.215 125.586 309.225C123.702 308.769 123.923 306.011 125.857 305.879L126.331 305.851Z" fill="#2D2D2D"/>
<path d="M152.961 251.081C152.499 252.952 150.945 260.395 153.909 265.42C155.214 267.632 157.236 269.077 160.08 269.821C162.504 269.448 172.778 267.697 178.67 264.048C181.056 262.571 181.189 261.69 181.189 261.683C181.178 261.568 180.922 261.245 180.676 261.071C179.863 260.551 179.385 259.676 179.363 258.712C179.34 257.747 179.823 256.849 180.612 256.292C181.318 255.794 181.582 255.442 181.672 255.295C181.537 255.069 181.149 254.702 180.819 254.505C179.986 254.003 179.445 253.108 179.403 252.137C179.361 251.166 179.793 250.229 180.579 249.659C181.101 249.281 181.13 249.013 181.146 248.885C181.246 247.999 180.379 246.537 179.763 245.831C179.125 245.099 178.89 244.091 179.146 243.155C179.4 242.219 180.102 241.467 181.023 241.162C181.48 241.011 181.919 240.773 182.339 240.453C178.474 240.396 171.252 240.333 166.418 240.55C162.048 240.748 155.994 246.944 152.961 251.081ZM159.944 275.667C159.729 275.667 159.515 275.644 159.305 275.596C154.607 274.535 151.108 272.093 148.903 268.339C144.24 260.397 147.38 249.466 147.516 249.004C147.607 248.699 147.745 248.411 147.929 248.152C148.866 246.824 157.345 235.161 166.157 234.761C171.713 234.512 180.227 234.619 183.628 234.678C185.722 234.707 187.561 235.926 188.417 237.857C189.258 239.756 188.933 241.896 187.571 243.445C187.083 244.001 186.563 244.499 186.014 244.936C186.62 246.222 187.089 247.818 186.908 249.499C186.821 250.295 186.6 251.049 186.249 251.745C186.896 252.613 187.427 253.716 187.491 255.041C187.54 256.063 187.311 257.418 186.255 258.845C186.683 259.636 186.992 260.599 186.984 261.723C186.964 264.386 185.193 266.825 181.721 268.975C173.982 273.767 160.883 275.567 160.329 275.642C160.201 275.659 160.073 275.667 159.944 275.667Z" fill="#2D2D2D"/>
<path d="M157.662 274.468C157.999 275.018 158.929 275.546 159.501 275.581C159.446 275.573 159.308 275.553 159.252 275.542C153.62 274.604 148.8 270.009 147.324 264.603C145.81 259.451 146.383 254.202 147.526 249.172L151.439 252.428C145.336 255.27 139.098 258.128 133.803 262.234C133.145 262.759 134.159 262.019 134.373 261.431C134.653 260.959 134.682 260.082 134.663 260.324C134.649 263.354 134.921 266.602 135.344 269.672C136.712 278.88 139.696 289.461 147.674 294.703L144.211 295.029C150.264 289.349 154.586 281.771 156.786 273.764C156.887 273.37 157.056 272.713 157.133 272.32C156.986 272.788 157.206 273.987 157.662 274.468ZM162.227 271.072C162.715 271.689 162.918 272.773 162.684 273.57C162.662 273.732 162.553 274.132 162.52 274.297C160.134 283.72 155.206 292.489 148.094 299.187C147.14 300.11 145.694 300.212 144.631 299.512C142.113 297.916 139.954 295.847 138.203 293.563C133.119 286.892 130.823 278.525 129.632 270.478C129.158 267.048 128.851 263.638 128.871 260.152L128.877 260.019C128.858 260.252 128.888 259.366 129.169 258.882C129.326 258.403 130.134 257.722 129.941 257.9L129.969 257.879C131.538 256.647 133.265 255.529 134.944 254.524C139.586 251.73 144.28 249.419 149.152 247.219C151.246 246.22 153.666 248.256 153.064 250.475C151.234 257.647 151.301 267.942 160.062 269.906C160.897 269.991 161.747 270.409 162.227 271.072Z" fill="#2D2D2D"/>
<path d="M66.3428 124.724C69.1009 120.211 70.4604 114.794 69.8785 109.127C68.4673 95.3701 56.1692 85.363 42.4138 86.7756C28.6573 88.1882 18.6504 100.485 20.0629 114.242C21.4753 127.997 33.772 138.004 47.5286 136.592C51.3552 136.199 54.8895 134.962 57.9707 133.088L69.5582 135.687L66.3428 124.724Z" fill="white"/>
<path d="M23.6866 104.116C26.5263 96.1688 33.7243 90.1281 42.6642 89.2106C43.4446 89.1309 44.2194 89.0918 44.9873 89.0918C53.0182 89.0918 60.2616 93.3729 64.2729 99.9478C59.6434 94.6862 52.8741 91.433 45.4936 91.433C44.6376 91.433 43.7747 91.4778 42.9061 91.5659C34.5333 92.4261 27.5514 97.317 23.6866 104.116Z" fill="white"/>
<path d="M44.9873 89.0916C44.2194 89.0916 43.4446 89.1307 42.6642 89.2104C30.2717 90.4832 21.2253 101.599 22.4976 113.991C23.1138 119.994 26.0311 125.397 30.7114 129.207C35.3922 133.015 41.2767 134.776 47.2782 134.156C50.6503 133.811 53.821 132.748 56.6979 130.997C57.2392 130.667 57.8881 130.559 58.5063 130.699L66.0393 132.389L63.9931 125.414C63.8001 124.751 63.8938 124.037 64.2547 123.449C66.8505 119.201 67.9526 114.335 67.4435 109.376C66.2519 97.7658 56.4168 89.0916 44.9873 89.0916ZM44.9201 139.173C38.6251 139.173 32.5706 137.031 27.6219 133.003C21.9269 128.369 18.378 121.794 17.628 114.492C16.0797 99.4148 27.0865 85.8887 42.1634 84.3404C57.2434 82.7921 70.7666 93.8007 72.3135 108.876C72.8953 114.542 71.7471 120.109 68.9876 125.047L71.9065 134.997C72.1513 135.829 71.9359 136.729 71.3443 137.361C70.7513 137.993 69.8673 138.264 69.0226 138.074L58.3735 135.687C55.1035 137.517 51.544 138.64 47.7789 139.026C46.8223 139.124 45.8684 139.173 44.9201 139.173Z" fill="#2D2D2D"/>
<path d="M44.9229 134.278C39.7527 134.278 34.7776 132.516 30.7114 129.207C26.9907 126.179 24.3842 122.142 23.1621 117.6C26.9901 123.811 33.1541 128.589 40.7942 130.491C43.1383 131.074 45.4866 131.352 47.7971 131.352C53.7594 131.352 59.4728 129.494 64.2281 126.211L66.0393 132.389L58.5063 130.699C58.3287 130.66 58.1483 130.639 57.9693 130.639C57.5245 130.639 57.0839 130.762 56.6979 130.997C53.821 132.748 50.6503 133.811 47.2782 134.157C46.4908 134.238 45.7048 134.278 44.9229 134.278Z" fill="#D7CCE4"/>
<path d="M44.9411 136.725C32.2623 136.725 21.386 127.129 20.0629 114.242C19.9285 112.931 19.8988 111.636 19.9648 110.361C20.6976 112.916 21.7767 115.351 23.1621 117.6C24.3842 122.143 26.9907 126.179 30.7114 129.207C34.7776 132.516 39.7527 134.278 44.9229 134.278C45.7048 134.278 46.4908 134.238 47.2782 134.157C50.6503 133.811 53.821 132.748 56.6979 130.997C57.0839 130.762 57.5245 130.639 57.9693 130.639C58.1483 130.639 58.3287 130.66 58.5063 130.699L66.0393 132.389L64.2281 126.211C65.0057 125.673 65.7596 125.096 66.4827 124.484C66.4351 124.564 66.3904 124.646 66.3428 124.724L69.5582 135.687L57.9707 133.088C54.8895 134.962 51.3552 136.199 47.5286 136.592C46.6586 136.681 45.7971 136.725 44.9411 136.725Z" fill="#2D2D2D"/>
<path d="M52.9776 104.653C50.8111 102.486 47.2978 102.874 45.1299 105.042L44.7929 105.379L44.4558 105.042C42.2893 102.874 38.7757 102.486 36.6088 104.653C34.442 106.819 34.442 110.333 36.6088 112.5L36.946 112.837L43.7593 119.65C44.3299 120.221 45.2558 120.221 45.8278 119.65L52.6405 112.837L52.9776 112.5C55.1441 110.333 55.1441 106.819 52.9776 104.653Z" fill="#FF0068"/>
</g>
</svg>
