<svg width="55" height="89" viewBox="0 0 55 89" fill="none" xmlns="http://www.w3.org/2000/svg">
<path d="M45.7004 66.1041C45.7004 66.1041 46.6876 72.0418 43.3413 72.9336L41.9717 73.4529C41.0667 73.656 40.6819 72.9472 40.6819 72.9472C40.6819 72.9472 39.6587 73.5095 39.242 72.3567C39.242 72.3567 38.201 72.3649 38.1216 71.6383C38.0422 70.9131 38.3566 70.7342 38.6743 70.1167C38.6743 70.1167 37.2028 68.8954 38.902 65.6536L45.7004 66.1041Z" fill="#FFC6B4"/>
<path d="M41.9742 42.4223C39.9291 41.8938 40.3084 42.9203 39.3344 48.4768C38.3605 54.0352 38.0739 66.2383 38.0739 66.2383C38.0739 66.2383 41.6835 67.3263 46.267 66.3528C46.267 66.3528 45.885 51.2494 45.5783 49.0072C45.2721 46.7644 44.0193 42.9508 41.9742 42.4223Z" fill="#2A7EC9"/>
<path d="M44.4751 69.187C44.4751 69.187 44.1333 71.8679 43.0042 72.9765" stroke="#2D1700" stroke-width="0.786" stroke-linecap="round" stroke-linejoin="round"/>
<path d="M42.5002 68.9666C42.5002 68.9666 42.298 71.4713 40.7089 72.9537" stroke="#2D1700" stroke-width="0.786" stroke-linecap="round" stroke-linejoin="round"/>
<path d="M40.913 68.5696C40.913 68.5696 40.573 71.0473 39.2622 72.2768" stroke="#2D1700" stroke-width="0.786" stroke-linecap="round" stroke-linejoin="round"/>
<path opacity="0.3952" d="M54.8228 85.1394C54.8228 83.0071 42.5504 82.4896 27.4114 82.4896C12.2724 82.4896 0 83.0076 0 85.1394C0 87.2716 12.2724 89 27.4114 89C42.5504 89 54.8228 87.2716 54.8228 85.1394Z" fill="#2D1700"/>
<path d="M11.4373 79.6845C13.4062 80.5184 15.3938 81.0259 17.3686 81.2312C19.092 81.4101 20.6652 81.3563 22.0389 81.1559L21.8919 84.9226C21.8919 84.9226 10.2795 87.0051 5.03963 85.0193C-0.200223 83.034 11.4419 79.722 11.4419 79.722L11.4373 79.6845Z" fill="#2D1700"/>
<path d="M41.5353 78.8694V78.9151C41.5353 78.9151 48.4018 82.3791 48.3324 83.9044C48.263 85.431 43.6575 87.3223 31.5193 83.9231L31.455 81.3956C32.1432 81.3915 32.8602 81.3458 33.6201 81.2395C35.4584 80.9853 37.4241 80.4554 39.4213 79.7302C40.1753 79.4573 40.8557 79.1615 41.5353 78.8694Z" fill="#2D1700"/>
<path d="M25.4607 40.1787C33.652 40.3147 41.7457 42.012 41.7457 42.012L41.6152 65.1826C41.2468 65.2283 40.9324 65.2725 40.5139 65.3173C36.7587 65.7061 32.381 65.8485 27.5331 65.5984C21.9045 65.3077 16.1502 64.5049 10.3655 63.1019L8.97803 41.4648C8.97803 41.4648 17.2689 40.0427 25.4607 40.1787Z" fill="white"/>
<path d="M10.5134 62.5798C16.2526 63.9627 21.962 64.755 27.5465 65.0443C32.3952 65.2945 37.0098 64.8668 40.5272 64.7618C44.0446 64.6582 41.251 64.6728 41.6157 64.6272L41.5486 79.12C40.8686 79.4134 40.1863 79.7078 39.43 79.9821C37.4338 80.7059 35.4704 81.2358 33.6334 81.4914C32.8744 81.5964 32.1574 81.642 31.4687 81.6461L31.3532 71.6164C31.3532 71.6164 26.672 72.4019 22.5157 71.3905L22.0529 81.4065C20.68 81.6082 19.111 81.6621 17.3867 81.4818C15.4114 81.276 13.4211 80.7662 11.4513 79.931L10.5134 62.5798Z" fill="#EEAE53"/>
<path d="M10.687 61.5278C16.4713 62.9321 22.226 63.7354 27.8547 64.0257C32.7034 64.2758 37.0798 64.1334 40.8354 63.7431C41.253 63.7002 41.5684 63.6542 41.9367 63.6085L41.9239 65.6732C41.5593 65.7175 41.2489 65.7645 40.835 65.8079C37.0798 66.1967 32.702 66.3391 27.8542 66.089C22.2694 65.801 16.5603 65.0087 10.8212 63.6259L10.687 61.5278Z" fill="#2D1700"/>
<path d="M27.8974 44.8116L26.9079 49.229C26.9079 49.229 23.7246 49.2062 21.7164 48.3386" stroke="#CFCFCF" stroke-width="0.786" stroke-linecap="round" stroke-linejoin="round"/>
<path d="M31.1116 44.393L32.3489 49.3097L35.4984 48.1692" stroke="#CFCFCF" stroke-width="0.786" stroke-linecap="round" stroke-linejoin="round"/>
<path d="M41.0334 30.6629C41.0334 30.6629 46.825 31.206 46.4531 28.3056C46.0811 25.4052 45.4987 23.2305 36.2454 13.6878C30.5071 7.77021 14.7379 14.4249 8.82939 20.5529L8.823 41.6254C8.823 41.6254 28.7729 50.3152 41.4245 42.0558L41.0334 30.6629Z" fill="#FFC6B4"/>
<path opacity="0.3952" d="M31.0183 45.6978L31.917 48.0989L30.7541 49.0811L32.0566 59.7913C32.0566 59.7913 30.9558 64.0526 29.6076 63.9399C28.2599 63.8281 26.8113 59.4631 26.8113 59.4631L28.1321 48.9145L27.2873 48.1409L27.7624 45.838L31.0183 45.6978Z" fill="#2D1700"/>
<path d="M31.241 45.3428L31.8461 47.9027L30.9767 48.7247L32.2793 59.4362C32.2793 59.4362 31.1784 63.6975 29.8303 63.5848C28.4821 63.4716 27.0339 59.1067 27.0339 59.1067L28.3292 48.6749L27.358 47.8233L27.8367 45.4318L31.241 45.3428Z" fill="#FF3547"/>
<path d="M30.9475 48.7593C30.9475 48.7593 30.3131 49.2705 29.6641 49.2559C29.0152 49.2413 28.3516 48.7018 28.3516 48.7018" stroke="#94131E" stroke-width="0.786" stroke-linecap="round" stroke-linejoin="round"/>
<path d="M31.8495 64.1389L31.8628 66.2442C31.8628 66.2442 27.6033 66.1274 26.1565 65.9791L26.313 63.9413L31.8495 64.1389Z" fill="#CFCFCF"/>
<path d="M17.8345 16.1829C17.8345 16.1829 34.5814 21.6094 40.3023 13.5221C45.2769 6.48958 39.2101 1.472 39.2101 1.472C39.2101 1.472 30.3013 -3.91298 27.5963 5.91636C27.5963 5.91636 23.721 2.20406 18.2617 9.05589C18.2617 9.05589 13.5038 8.25034 11.6353 12.5619C11.6353 12.5619 6.1143 13.4313 6.7779 21.9508C7.44149 30.4703 7.38809 30.6478 8.02339 34.1192C8.5665 37.0862 9.22827 36.539 9.81885 34.0571C10.4099 31.5757 10.3866 24.1926 10.3866 24.1926L14.2641 30.9408C15.1418 31.2786 16.6241 30.7683 16.8354 29.1897L15.0121 24.4623C15.0121 24.4623 18.7655 22.3209 17.8345 16.1829Z" fill="#2D1700"/>
<path d="M12.9711 29.4507C12.9711 29.4507 12.5379 24.3382 10.025 24.1214C7.51215 23.9046 6.47203 26.1145 7.94526 28.6274C9.4185 31.1403 11.6279 31.8335 11.6279 31.8335L12.9711 29.4507Z" fill="#FFC6B4"/>
<path d="M8.99811 25.1159C9.18204 25.1195 9.32991 25.272 9.3258 25.4563C9.3258 25.4563 9.32762 25.6238 9.33447 25.7507C9.34497 25.9479 9.36551 26.1637 9.39745 26.3938C9.48645 27.0323 9.64801 27.663 9.90177 28.2518C10.0939 28.6972 10.3331 29.102 10.6206 29.4539C10.7374 29.5967 10.7128 29.808 10.5699 29.9249C10.4275 30.0417 10.2199 30.0212 10.1035 29.8788C9.77489 29.4763 9.50334 29.0167 9.28792 28.5169C9.00815 27.8684 8.8297 27.1801 8.73294 26.4864C8.69826 26.2372 8.67727 25.9999 8.66586 25.7845C8.6581 25.643 8.65673 25.5339 8.65718 25.4568C8.65718 25.4486 8.65718 25.4472 8.65718 25.444C8.66129 25.2596 8.81373 25.1122 8.99811 25.1159Z" fill="#2D1700"/>
<path opacity="0.3952" d="M34.2391 44.8613C34.2391 44.8613 31.21 73.9102 41.5747 73.0746L42.0909 45.8366L40.8162 43.1398L34.2391 44.8613Z" fill="#2D1700"/>
<path d="M34.6777 44.0795C34.6777 44.0795 31.7838 70.8684 42.1484 70.0332L42.7646 42.7883L41.4356 41.9905L34.6777 44.0795Z" fill="#2A7EC9"/>
<path d="M42.7129 63.6154L42.7864 65.6358L38.5949 65.2739L38.5187 63.2859L42.7129 63.6154Z" fill="#0046A2"/>
<path d="M41.4034 41.9905L42.7042 42.7372L38.1959 46.9798C38.1959 46.9798 40.6157 48.3883 40.0096 49.4927C39.4035 50.5986 34.4549 56.7955 34.4549 56.7955C33.9706 50.3937 34.6438 44.0795 34.6438 44.0795L41.4034 41.9905Z" fill="#0046A2"/>
<path opacity="0.3952" d="M23.3564 45.2766C23.3564 45.2766 31.675 77.4487 10.9986 70.7068C10.9986 70.7068 9.73941 61.6689 9.93019 54.7869C10.1214 47.905 9.43591 42.3292 9.43591 42.3292L23.3564 45.2766Z" fill="#2D1700"/>
<path d="M22.2131 44.3798C22.2131 44.3798 29.3972 75.9051 8.72123 69.1628C6.82401 68.544 7.83766 60.3088 8.02843 53.4273C8.21966 46.5454 8.3333 41.0883 8.3333 41.0883L22.2131 44.3798Z" fill="#2A7EC9"/>
<path d="M8.21289 41.0988L22.2497 44.3784C22.2497 44.3784 23.995 51.7487 23.2319 58.5686C22.938 58.297 22.1228 57.7211 21.8545 57.4682C20.8454 56.5198 19.8368 55.5473 18.8952 54.6016C18.6323 54.3378 18.3795 54.0768 18.1344 53.8239C15.7416 51.358 14.4198 49.6712 14.612 49.1281C14.7863 48.6357 15.1021 48.1879 15.5243 47.7831C15.7566 47.5613 16.0072 47.3687 16.2555 47.2035C16.3426 47.1455 16.4225 47.0944 16.4951 47.0529C16.5384 47.0273 16.5699 47.01 16.5872 46.9894C16.5872 46.9894 14.3395 46.8279 12.246 45.3551C10.1526 43.8819 8.21289 41.0988 8.21289 41.0988Z" fill="#0046A2"/>
<path d="M16.4 62.2206L10.7452 61.6205L10.6458 63.7245L16.4004 64.4022L16.4 62.2206Z" fill="#0046A2"/>
<path opacity="0.3952" d="M31.3383 71.4549L32.8804 71.1413L33.1762 81.5745C33.1762 81.5745 32.6426 81.6876 31.4802 81.6269L31.3383 71.4549Z" fill="#2D1700"/>
<path opacity="0.3952" d="M9.02429 44.0498C10.1575 45.9265 11.5481 47.7772 11.168 50.0318C10.6404 53.1608 10.7705 66.3551 10.7705 66.3551C10.5888 66.393 10.3734 66.44 10.1945 66.472C10.2538 66.9037 10.377 68.2154 10.1771 69.5768C9.70021 69.4559 11.8982 70.0031 12.3838 70.0355C12.3838 70.0355 12.4454 67.2579 12.3847 66.8165C12.5636 66.7841 12.7325 66.7668 12.9146 66.7289C12.9146 66.7289 13.0104 57.1364 12.6668 51.3562C12.3345 45.7718 9.02429 44.0498 9.02429 44.0498Z" fill="#2D1700"/>
<path opacity="0.3952" d="M42.1497 70.0359L42.2578 65.5957L42.7863 65.6372L42.7106 63.6154L42.2441 63.583L42.0515 47.0173C44.5288 58.0556 45.0852 71.5731 45.0852 71.5731C44.3353 73.0837 41.5782 73.5748 41.5782 73.5748L41.5951 70.0587L42.1497 70.0359Z" fill="#2D1700"/>
<path d="M11.2548 66.1041C11.2548 66.1041 12.242 72.0418 8.89529 72.9336L7.52565 73.4529C6.62062 73.656 6.23588 72.9472 6.23588 72.9472C6.23588 72.9472 5.21265 73.5095 4.79596 72.3567C4.79596 72.3567 3.75493 72.3649 3.67551 71.6383C3.5961 70.9131 3.91056 70.7342 4.22821 70.1167C4.22821 70.1167 2.7568 68.8954 4.45595 65.6536L11.2548 66.1041Z" fill="#FFC6B4"/>
<path d="M8.88603 42.3215C6.84139 41.793 5.86243 42.9203 4.88849 48.4769C3.91454 54.0353 3.62793 66.2383 3.62793 66.2383C3.62793 66.2383 7.23754 67.3264 11.8206 66.3529C11.8206 66.3529 11.8544 51.6867 11.5482 49.444C11.2419 47.2017 10.9307 42.85 8.88603 42.3215Z" fill="#2A7EC9"/>
<path d="M10.0288 69.187C10.0288 69.187 9.68698 71.8679 8.55786 72.9765" stroke="#2D1700" stroke-width="0.786" stroke-linecap="round" stroke-linejoin="round"/>
<path d="M8.0538 68.9666C8.0538 68.9666 7.85207 71.4713 6.26245 72.9537" stroke="#2D1700" stroke-width="0.786" stroke-linecap="round" stroke-linejoin="round"/>
<path d="M6.46706 68.5696C6.46706 68.5696 6.1275 71.0473 4.81628 72.2768" stroke="#2D1700" stroke-width="0.786" stroke-linecap="round" stroke-linejoin="round"/>
<path d="M22.4295 25.3683C22.4295 25.3683 22.7791 26.9059 22.1151 27.9191C21.451 28.9323 21.4163 29.4567 21.7655 30.7843C22.1151 32.1119 22.1498 31.7277 21.4163 32.9508C20.6825 34.1739 20.0184 33.8942 20.3329 35.6768C20.6473 37.4577 21.2415 37.0396 20.4725 38.5069C19.7039 39.9733 18.9002 38.7853 18.9701 40.4977C19.0399 42.2101 19.41 42.619 19.096 43.6331L22.247 44.3999L22.4099 45.0776C22.4099 45.0776 24.2692 45.4582 25.449 45.4222C25.449 45.4222 25.7566 44.3634 25.449 43.3776C25.1414 42.3918 24.9516 41.478 25.7201 40.4922C26.4891 39.5064 27.1149 38.6644 26.47 36.5307C25.8255 34.3967 26.5809 34.6413 27.1144 33.8855C27.6479 33.1297 28.0477 32.8184 27.7588 31.9298C27.4699 31.0408 27.0473 30.8628 27.5366 29.463C28.0254 28.0628 28.2394 27.3107 28.3284 26.5106C28.3284 26.5106 26.904 26.9387 25.4294 26.653C23.9548 26.3669 22.4295 25.3683 22.4295 25.3683Z" fill="#00DEF8"/>
<path d="M22.2789 24.8279C22.2789 24.8279 24.5819 27.5097 28.715 26.3107" stroke="#2D1700" stroke-width="3.3875" stroke-linecap="round" stroke-linejoin="round"/>
<path d="M32.6033 26.8046C32.6033 26.8046 32.8151 27.5247 32.5185 28.8592C32.2218 30.1937 32.3911 30.3631 33.0693 31.698C33.7471 33.0325 33.9803 32.9266 33.1967 34.1767C32.413 35.4267 31.5445 35.5326 32.1374 36.6763C32.7307 37.821 33.1752 37.5239 33.1332 39.197C33.0908 40.8706 32.9215 40.7008 32.3916 42.0353C31.8622 43.3712 31.8832 43.7089 32.1798 44.451C32.4765 45.1922 32.4756 45.2177 32.4756 45.2177C32.4756 45.2177 34.3171 44.8978 34.585 44.775L34.6589 44.0982L38.4461 42.9038C38.4461 42.9038 37.3225 41.2882 37.3754 40.7113C37.4279 40.1331 38.5136 39.4672 38.5488 38.6087C38.5839 37.7507 38.3735 37.1373 37.971 36.3313C37.568 35.5267 37.7081 34.8608 38.0235 34.1424C38.3388 33.4245 39.08 32.6427 38.7642 31.8304C38.4479 31.018 38.0029 31.0513 38.1412 29.7109C38.2795 28.3704 38.6542 26.7667 38.6542 26.7667C38.6542 26.7667 37.4188 27.1327 35.9063 27.1423C34.3929 27.1519 32.6033 26.8046 32.6033 26.8046Z" fill="#00DEF8"/>
<path d="M32.3473 26.3901C32.3473 26.3901 35.5968 27.9674 38.7833 26.5161" stroke="#2D1700" stroke-width="3.3875" stroke-linecap="round" stroke-linejoin="round"/>
<path d="M21.4581 38.3627C21.4581 38.3627 23.0039 36.3112 24.1084 36.5951C25.2129 36.8804 25.5282 38.3303 26.4429 38.0464C27.3579 37.7626 27.7993 36.1227 28.9667 36.2172C30.1342 36.3112 29.4715 37.3847 30.8913 37.6361C32.3112 37.889 32.1218 36.3436 33.3837 36.2802C34.6456 36.2168 34.4877 37.4157 35.939 37.6051C37.3904 37.795 37.2324 36.4377 38.3999 36.0274C39.5674 35.6171 39.6997 36.8507 40.4824 37.0374C41.1451 37.1948 41.7129 36.942 42.2176 36.533" stroke="#2D1700" stroke-width="3.3875" stroke-linecap="round" stroke-linejoin="round"/>
</svg>
