<svg width="92" height="72" viewBox="0 0 92 72" fill="none" xmlns="http://www.w3.org/2000/svg">
<g filter="url(#filter0_f_239_461)">
<path d="M80.645 20.5476L28.1472 3.61285C21.9267 1.60622 15.2443 4.94701 13.1167 11.1272L4.11137 37.2855C1.87557 43.78 5.53689 50.8225 12.1372 52.7231L65.8338 68.1855C72.086 69.9859 78.6341 66.4758 80.5959 60.2723L88.4025 35.5864C90.3927 29.2931 86.9267 22.574 80.645 20.5476Z" fill="#F8F8F8"/>
<path d="M34.6161 31.4738L35.5215 31.0493L35.0862 30.1206L34.1688 30.5793L34.6161 31.4738ZM39.8854 42.715L38.9799 43.1395L39.4255 44.09L40.3533 43.5988L39.8854 42.715ZM57.8012 33.2302L58.6492 32.7002L58.1559 31.9109L57.3333 32.3464L57.8012 33.2302ZM63.0705 41.6612L62.2225 42.1912L62.7837 43.089L63.648 42.4776L63.0705 41.6612ZM77.4734 31.4738L65.9753 32.5348L72.6433 41.962L77.4734 31.4738ZM18.2014 40.7991L35.0633 32.3682L34.1688 30.5793L17.3069 39.0103L18.2014 40.7991ZM33.7106 31.8982L38.9799 43.1395L40.7909 42.2906L35.5215 31.0493L33.7106 31.8982ZM40.3533 43.5988L58.2691 34.114L57.3333 32.3464L39.4175 41.8313L40.3533 43.5988ZM56.9532 33.7602L62.2225 42.1912L63.9185 41.1312L58.6492 32.7002L56.9532 33.7602ZM63.648 42.4776L70.7031 37.4874L69.5482 35.8545L62.4931 40.8448L63.648 42.4776Z" fill="#F2641A"/>
</g>
<defs>
<filter id="filter0_f_239_461" x="1.45386" y="1.03034" width="89.5103" height="69.6265" filterUnits="userSpaceOnUse" color-interpolation-filters="sRGB">
<feFlood flood-opacity="0" result="BackgroundImageFix"/>
<feBlend mode="normal" in="SourceGraphic" in2="BackgroundImageFix" result="shape"/>
<feGaussianBlur stdDeviation="1" result="effect1_foregroundBlur_239_461"/>
</filter>
</defs>
</svg>
