<svg width="480" height="232" viewBox="0 0 480 232" fill="none" xmlns="http://www.w3.org/2000/svg">
<rect width="480" height="232" fill="#0A0A0A"/>
<g clip-path="url(#clip0_471_804)">
<path d="M134 116.967C137.585 116.967 140.778 115.29 142.836 112.677C143.754 115.623 145.24 118.319 147.165 120.637C143.657 123.736 139.048 125.616 134 125.616C128.952 125.616 124.343 123.736 120.835 120.637C122.761 118.319 124.246 115.623 125.164 112.677C127.222 115.29 130.415 116.967 134 116.967Z" fill="#33658A"/>
<path d="M131.405 86C121.645 87.2714 114.108 95.6176 114.108 105.724C114.108 106.014 114.114 106.302 114.127 106.589H122.79C122.768 106.304 122.757 106.015 122.757 105.724C122.757 100.408 126.447 95.9531 131.405 94.7818V86Z" fill="#33658A"/>
<path d="M136.595 94.7818C141.553 95.9531 145.243 100.408 145.243 105.724C145.243 106.015 145.232 106.304 145.21 106.589H153.873C153.886 106.302 153.892 106.014 153.892 105.724C153.892 95.6176 146.355 87.2714 136.595 86V94.7818Z" fill="#33658A"/>
<path d="M166 116.935C165.715 116.956 165.426 116.967 165.135 116.967C159.217 116.967 154.366 112.394 153.925 106.589H145.262C145.715 117.174 154.439 125.616 165.135 125.616C165.425 125.616 165.713 125.61 166 125.598V116.935Z" fill="#33658A"/>
<path d="M102 125.598C102.287 125.61 102.575 125.616 102.865 125.616C113.561 125.616 122.286 117.174 122.738 106.589H114.075C113.634 112.394 108.783 116.967 102.865 116.967C102.574 116.967 102.285 116.956 102 116.935V125.598Z" fill="#33658A"/>
<g filter="url(#filter0_dddddddd_471_804)">
<path d="M134 116.967C137.585 116.967 140.778 115.29 142.836 112.677C143.754 115.623 145.24 118.319 147.165 120.637C143.657 123.736 139.048 125.616 134 125.616C128.952 125.616 124.343 123.736 120.835 120.637C122.761 118.319 124.246 115.623 125.164 112.677C127.222 115.29 130.415 116.967 134 116.967Z" fill="#33658A"/>
<path d="M131.405 86C121.645 87.2714 114.108 95.6176 114.108 105.724C114.108 106.014 114.114 106.302 114.127 106.589H122.79C122.768 106.304 122.757 106.015 122.757 105.724C122.757 100.408 126.447 95.9531 131.405 94.7818V86Z" fill="#33658A"/>
<path d="M136.595 94.7818C141.553 95.9531 145.243 100.408 145.243 105.724C145.243 106.015 145.232 106.304 145.21 106.589H153.873C153.886 106.302 153.892 106.014 153.892 105.724C153.892 95.6176 146.355 87.2714 136.595 86V94.7818Z" fill="#33658A"/>
<path d="M166 116.935C165.715 116.956 165.426 116.967 165.135 116.967C159.217 116.967 154.366 112.394 153.925 106.589H145.262C145.715 117.174 154.439 125.616 165.135 125.616C165.425 125.616 165.713 125.61 166 125.598V116.935Z" fill="#33658A"/>
<path d="M102 125.598C102.287 125.61 102.575 125.616 102.865 125.616C113.561 125.616 122.286 117.174 122.738 106.589H114.075C113.634 112.394 108.783 116.967 102.865 116.967C102.574 116.967 102.285 116.956 102 116.935V125.598Z" fill="#33658A"/>
</g>
<g filter="url(#filter1_dddddddd_471_804)">
<path d="M172 116.808L179.168 97.2241C179.573 96.1574 180.235 95.3574 181.152 94.8241C182.091 94.2694 183.147 93.9921 184.32 93.9921C185.493 93.9921 186.539 94.2588 187.456 94.7921C188.395 95.3254 189.067 96.1254 189.472 97.1921L196.64 116.808H189.312L188.096 112.904H180.448L179.168 116.808H172ZM181.888 107.624H186.656L184.576 100.424C184.555 100.36 184.523 100.317 184.48 100.296C184.437 100.253 184.384 100.232 184.32 100.232C184.277 100.232 184.235 100.253 184.192 100.296C184.149 100.317 184.117 100.36 184.096 100.424L181.888 107.624ZM214.62 117.224C213.255 117.224 211.964 116.947 210.748 116.392C209.554 115.837 208.583 115.016 207.836 113.928C207.09 112.84 206.716 111.507 206.716 109.928V101.256C206.716 100.979 206.652 100.744 206.524 100.552C206.418 100.339 206.268 100.179 206.076 100.072C205.884 99.9654 205.66 99.9121 205.404 99.9121C205.148 99.9121 204.914 99.9654 204.7 100.072C204.508 100.179 204.348 100.339 204.22 100.552C204.114 100.744 204.06 100.979 204.06 101.256V116.808H197.468V101.32C197.468 99.7628 197.831 98.4401 198.556 97.3521C199.303 96.2641 200.284 95.4321 201.5 94.8561C202.716 94.2801 204.018 93.9921 205.404 93.9921C206.791 93.9921 208.082 94.2801 209.276 94.8561C210.471 95.4321 211.442 96.2641 212.188 97.3521C212.935 98.4401 213.308 99.7628 213.308 101.32V109.992C213.308 110.269 213.372 110.515 213.5 110.728C213.628 110.92 213.788 111.069 213.98 111.176C214.172 111.283 214.375 111.336 214.588 111.336C214.823 111.336 215.047 111.283 215.26 111.176C215.474 111.069 215.644 110.92 215.772 110.728C215.9 110.515 215.964 110.269 215.964 109.992V101.32C215.964 99.7628 216.338 98.4401 217.084 97.3521C217.831 96.2641 218.802 95.4321 219.996 94.8561C221.212 94.2801 222.503 93.9921 223.868 93.9921C225.234 93.9921 226.514 94.2801 227.708 94.8561C228.903 95.4321 229.874 96.2641 230.62 97.3521C231.367 98.4401 231.74 99.7628 231.74 101.32V116.808H225.18V101.16C225.18 100.904 225.116 100.691 224.988 100.52C224.86 100.328 224.7 100.179 224.508 100.072C224.316 99.9654 224.103 99.9121 223.868 99.9121C223.634 99.9121 223.41 99.9654 223.196 100.072C222.983 100.179 222.812 100.328 222.684 100.52C222.578 100.691 222.524 100.904 222.524 101.16V109.928C222.524 111.507 222.14 112.84 221.372 113.928C220.626 115.016 219.655 115.837 218.46 116.392C217.266 116.947 215.986 117.224 214.62 117.224ZM233.062 116.808L240.231 97.2241C240.636 96.1574 241.297 95.3574 242.215 94.8241C243.153 94.2694 244.209 93.9921 245.383 93.9921C246.556 93.9921 247.601 94.2588 248.519 94.7921C249.457 95.3254 250.129 96.1254 250.535 97.1921L257.703 116.808H250.375L249.159 112.904H241.51L240.231 116.808H233.062ZM242.951 107.624H247.719L245.639 100.424C245.617 100.36 245.585 100.317 245.543 100.296C245.5 100.253 245.447 100.232 245.383 100.232C245.34 100.232 245.297 100.253 245.255 100.296C245.212 100.317 245.18 100.36 245.159 100.424L242.951 107.624ZM259.48 116.808V111.4H268.984C269.346 111.4 269.645 111.325 269.88 111.176C270.136 111.027 270.328 110.835 270.456 110.6C270.605 110.344 270.68 110.077 270.68 109.8C270.68 109.501 270.605 109.235 270.456 109C270.328 108.744 270.136 108.541 269.88 108.392C269.645 108.243 269.346 108.168 268.984 108.168H266.104C264.717 108.168 263.458 107.901 262.328 107.368C261.197 106.835 260.29 106.067 259.608 105.064C258.946 104.04 258.616 102.813 258.616 101.384C258.616 99.9761 258.936 98.7494 259.576 97.7041C260.216 96.6588 261.08 95.8481 262.168 95.2721C263.256 94.6961 264.461 94.4081 265.784 94.4081H275.992V99.8161H266.712C266.413 99.8161 266.146 99.8801 265.911 100.008C265.698 100.136 265.528 100.307 265.4 100.52C265.293 100.733 265.24 100.968 265.24 101.224C265.24 101.48 265.293 101.715 265.4 101.928C265.528 102.141 265.698 102.323 265.911 102.472C266.146 102.6 266.413 102.664 266.712 102.664H269.816C271.33 102.664 272.653 102.952 273.784 103.528C274.914 104.083 275.789 104.861 276.408 105.864C277.026 106.867 277.336 108.051 277.336 109.416C277.336 110.973 277.005 112.307 276.344 113.416C275.704 114.525 274.84 115.368 273.752 115.944C272.664 116.52 271.458 116.808 270.136 116.808H259.48ZM280.011 116.808V111.4H289.515C289.877 111.4 290.176 111.325 290.411 111.176C290.667 111.027 290.859 110.835 290.987 110.6C291.136 110.344 291.211 110.077 291.211 109.8C291.211 109.501 291.136 109.235 290.987 109C290.859 108.744 290.667 108.541 290.411 108.392C290.176 108.243 289.877 108.168 289.515 108.168H286.635C285.248 108.168 283.989 107.901 282.859 107.368C281.728 106.835 280.821 106.067 280.139 105.064C279.477 104.04 279.147 102.813 279.147 101.384C279.147 99.9761 279.467 98.7494 280.107 97.7041C280.747 96.6588 281.611 95.8481 282.699 95.2721C283.787 94.6961 284.992 94.4081 286.315 94.4081H296.523V99.8161H287.243C286.944 99.8161 286.677 99.8801 286.443 100.008C286.229 100.136 286.059 100.307 285.931 100.52C285.824 100.733 285.771 100.968 285.771 101.224C285.771 101.48 285.824 101.715 285.931 101.928C286.059 102.141 286.229 102.323 286.443 102.472C286.677 102.6 286.944 102.664 287.243 102.664H290.347C291.861 102.664 293.184 102.952 294.315 103.528C295.445 104.083 296.32 104.861 296.939 105.864C297.557 106.867 297.867 108.051 297.867 109.416C297.867 110.973 297.536 112.307 296.875 113.416C296.235 114.525 295.371 115.368 294.283 115.944C293.195 116.52 291.989 116.808 290.667 116.808H280.011ZM300.158 116.808V94.4081H310.238C311.838 94.4081 313.299 94.7601 314.622 95.4641C315.945 96.1468 317.001 97.1068 317.79 98.3441C318.579 99.5601 318.974 100.979 318.974 102.6C318.974 104.221 318.579 105.661 317.79 106.92C317.001 108.157 315.945 109.128 314.622 109.832C313.299 110.536 311.838 110.888 310.238 110.888H307.07V116.808H300.158ZM307.07 105.48H309.502C309.95 105.48 310.355 105.373 310.718 105.16C311.102 104.925 311.411 104.605 311.646 104.2C311.881 103.773 311.998 103.261 311.998 102.664C311.998 102.067 311.881 101.555 311.646 101.128C311.411 100.701 311.102 100.381 310.718 100.168C310.355 99.9334 309.95 99.8161 309.502 99.8161H307.07V105.48ZM318.188 116.808L325.356 97.2241C325.761 96.1574 326.422 95.3574 327.34 94.8241C328.278 94.2694 329.334 93.9921 330.508 93.9921C331.681 93.9921 332.726 94.2588 333.644 94.7921C334.582 95.3254 335.254 96.1254 335.66 97.1921L342.828 116.808H335.5L334.284 112.904H326.635L325.356 116.808H318.188ZM328.076 107.624H332.844L330.764 100.424C330.742 100.36 330.71 100.317 330.668 100.296C330.625 100.253 330.572 100.232 330.508 100.232C330.465 100.232 330.422 100.253 330.38 100.296C330.337 100.317 330.305 100.36 330.284 100.424L328.076 107.624ZM355.412 116.808C353.406 116.808 351.614 116.541 350.036 116.008C348.457 115.475 347.124 114.707 346.036 113.704C344.948 112.701 344.116 111.517 343.54 110.152C342.964 108.787 342.676 107.272 342.676 105.608C342.676 103.944 342.964 102.429 343.54 101.064C344.116 99.6988 344.948 98.5148 346.036 97.5121C347.145 96.5094 348.478 95.7414 350.036 95.2081C351.614 94.6748 353.406 94.4081 355.412 94.4081H358.804V99.8161H355.636C354.654 99.8161 353.79 99.9654 353.044 100.264C352.297 100.563 351.678 100.979 351.188 101.512C350.697 102.024 350.324 102.632 350.068 103.336C349.833 104.04 349.716 104.797 349.716 105.608C349.716 106.419 349.833 107.176 350.068 107.88C350.324 108.584 350.697 109.203 351.188 109.736C351.678 110.248 352.297 110.653 353.044 110.952C353.79 111.251 354.654 111.4 355.636 111.4H358.804V116.808H355.412ZM367.372 116.808C366.092 116.808 364.919 116.531 363.852 115.976C362.807 115.421 361.975 114.664 361.356 113.704C360.737 112.723 360.428 111.592 360.428 110.312C360.428 109.309 360.652 108.371 361.1 107.496C361.569 106.6 362.209 105.853 363.02 105.256C362.316 104.701 361.751 104.029 361.324 103.24C360.897 102.429 360.684 101.597 360.684 100.744C360.684 99.4854 360.983 98.3868 361.58 97.4481C362.199 96.4881 363.02 95.7414 364.044 95.2081C365.089 94.6748 366.231 94.4081 367.468 94.4081H377.42V99.8161H369.004C368.663 99.8161 368.353 99.8801 368.076 100.008C367.799 100.115 367.575 100.285 367.404 100.52C367.255 100.733 367.18 101.011 367.18 101.352C367.18 101.672 367.255 101.949 367.404 102.184C367.575 102.397 367.799 102.568 368.076 102.696C368.353 102.803 368.663 102.856 369.004 102.856H376.3V108.232H369.036C368.673 108.232 368.353 108.296 368.076 108.424C367.799 108.552 367.575 108.733 367.404 108.968C367.255 109.203 367.18 109.491 367.18 109.832C367.18 110.152 367.255 110.429 367.404 110.664C367.575 110.899 367.799 111.08 368.076 111.208C368.353 111.315 368.673 111.368 369.036 111.368H377.42V116.808H367.372Z" fill="#33658A"/>
</g>
<g filter="url(#filter2_dddddddd_471_804)">
<path d="M172 116.808L179.168 97.2241C179.573 96.1574 180.235 95.3574 181.152 94.8241C182.091 94.2694 183.147 93.9921 184.32 93.9921C185.493 93.9921 186.539 94.2588 187.456 94.7921C188.395 95.3254 189.067 96.1254 189.472 97.1921L196.64 116.808H189.312L188.096 112.904H180.448L179.168 116.808H172ZM181.888 107.624H186.656L184.576 100.424C184.555 100.36 184.523 100.317 184.48 100.296C184.437 100.253 184.384 100.232 184.32 100.232C184.277 100.232 184.235 100.253 184.192 100.296C184.149 100.317 184.117 100.36 184.096 100.424L181.888 107.624ZM214.62 117.224C213.255 117.224 211.964 116.947 210.748 116.392C209.554 115.837 208.583 115.016 207.836 113.928C207.09 112.84 206.716 111.507 206.716 109.928V101.256C206.716 100.979 206.652 100.744 206.524 100.552C206.418 100.339 206.268 100.179 206.076 100.072C205.884 99.9654 205.66 99.9121 205.404 99.9121C205.148 99.9121 204.914 99.9654 204.7 100.072C204.508 100.179 204.348 100.339 204.22 100.552C204.114 100.744 204.06 100.979 204.06 101.256V116.808H197.468V101.32C197.468 99.7628 197.831 98.4401 198.556 97.3521C199.303 96.2641 200.284 95.4321 201.5 94.8561C202.716 94.2801 204.018 93.9921 205.404 93.9921C206.791 93.9921 208.082 94.2801 209.276 94.8561C210.471 95.4321 211.442 96.2641 212.188 97.3521C212.935 98.4401 213.308 99.7628 213.308 101.32V109.992C213.308 110.269 213.372 110.515 213.5 110.728C213.628 110.92 213.788 111.069 213.98 111.176C214.172 111.283 214.375 111.336 214.588 111.336C214.823 111.336 215.047 111.283 215.26 111.176C215.474 111.069 215.644 110.92 215.772 110.728C215.9 110.515 215.964 110.269 215.964 109.992V101.32C215.964 99.7628 216.338 98.4401 217.084 97.3521C217.831 96.2641 218.802 95.4321 219.996 94.8561C221.212 94.2801 222.503 93.9921 223.868 93.9921C225.234 93.9921 226.514 94.2801 227.708 94.8561C228.903 95.4321 229.874 96.2641 230.62 97.3521C231.367 98.4401 231.74 99.7628 231.74 101.32V116.808H225.18V101.16C225.18 100.904 225.116 100.691 224.988 100.52C224.86 100.328 224.7 100.179 224.508 100.072C224.316 99.9654 224.103 99.9121 223.868 99.9121C223.634 99.9121 223.41 99.9654 223.196 100.072C222.983 100.179 222.812 100.328 222.684 100.52C222.578 100.691 222.524 100.904 222.524 101.16V109.928C222.524 111.507 222.14 112.84 221.372 113.928C220.626 115.016 219.655 115.837 218.46 116.392C217.266 116.947 215.986 117.224 214.62 117.224ZM233.062 116.808L240.231 97.2241C240.636 96.1574 241.297 95.3574 242.215 94.8241C243.153 94.2694 244.209 93.9921 245.383 93.9921C246.556 93.9921 247.601 94.2588 248.519 94.7921C249.457 95.3254 250.129 96.1254 250.535 97.1921L257.703 116.808H250.375L249.159 112.904H241.51L240.231 116.808H233.062ZM242.951 107.624H247.719L245.639 100.424C245.617 100.36 245.585 100.317 245.543 100.296C245.5 100.253 245.447 100.232 245.383 100.232C245.34 100.232 245.297 100.253 245.255 100.296C245.212 100.317 245.18 100.36 245.159 100.424L242.951 107.624ZM259.48 116.808V111.4H268.984C269.346 111.4 269.645 111.325 269.88 111.176C270.136 111.027 270.328 110.835 270.456 110.6C270.605 110.344 270.68 110.077 270.68 109.8C270.68 109.501 270.605 109.235 270.456 109C270.328 108.744 270.136 108.541 269.88 108.392C269.645 108.243 269.346 108.168 268.984 108.168H266.104C264.717 108.168 263.458 107.901 262.328 107.368C261.197 106.835 260.29 106.067 259.608 105.064C258.946 104.04 258.616 102.813 258.616 101.384C258.616 99.9761 258.936 98.7494 259.576 97.7041C260.216 96.6588 261.08 95.8481 262.168 95.2721C263.256 94.6961 264.461 94.4081 265.784 94.4081H275.992V99.8161H266.712C266.413 99.8161 266.146 99.8801 265.911 100.008C265.698 100.136 265.528 100.307 265.4 100.52C265.293 100.733 265.24 100.968 265.24 101.224C265.24 101.48 265.293 101.715 265.4 101.928C265.528 102.141 265.698 102.323 265.911 102.472C266.146 102.6 266.413 102.664 266.712 102.664H269.816C271.33 102.664 272.653 102.952 273.784 103.528C274.914 104.083 275.789 104.861 276.408 105.864C277.026 106.867 277.336 108.051 277.336 109.416C277.336 110.973 277.005 112.307 276.344 113.416C275.704 114.525 274.84 115.368 273.752 115.944C272.664 116.52 271.458 116.808 270.136 116.808H259.48ZM280.011 116.808V111.4H289.515C289.877 111.4 290.176 111.325 290.411 111.176C290.667 111.027 290.859 110.835 290.987 110.6C291.136 110.344 291.211 110.077 291.211 109.8C291.211 109.501 291.136 109.235 290.987 109C290.859 108.744 290.667 108.541 290.411 108.392C290.176 108.243 289.877 108.168 289.515 108.168H286.635C285.248 108.168 283.989 107.901 282.859 107.368C281.728 106.835 280.821 106.067 280.139 105.064C279.477 104.04 279.147 102.813 279.147 101.384C279.147 99.9761 279.467 98.7494 280.107 97.7041C280.747 96.6588 281.611 95.8481 282.699 95.2721C283.787 94.6961 284.992 94.4081 286.315 94.4081H296.523V99.8161H287.243C286.944 99.8161 286.677 99.8801 286.443 100.008C286.229 100.136 286.059 100.307 285.931 100.52C285.824 100.733 285.771 100.968 285.771 101.224C285.771 101.48 285.824 101.715 285.931 101.928C286.059 102.141 286.229 102.323 286.443 102.472C286.677 102.6 286.944 102.664 287.243 102.664H290.347C291.861 102.664 293.184 102.952 294.315 103.528C295.445 104.083 296.32 104.861 296.939 105.864C297.557 106.867 297.867 108.051 297.867 109.416C297.867 110.973 297.536 112.307 296.875 113.416C296.235 114.525 295.371 115.368 294.283 115.944C293.195 116.52 291.989 116.808 290.667 116.808H280.011ZM300.158 116.808V94.4081H310.238C311.838 94.4081 313.299 94.7601 314.622 95.4641C315.945 96.1468 317.001 97.1068 317.79 98.3441C318.579 99.5601 318.974 100.979 318.974 102.6C318.974 104.221 318.579 105.661 317.79 106.92C317.001 108.157 315.945 109.128 314.622 109.832C313.299 110.536 311.838 110.888 310.238 110.888H307.07V116.808H300.158ZM307.07 105.48H309.502C309.95 105.48 310.355 105.373 310.718 105.16C311.102 104.925 311.411 104.605 311.646 104.2C311.881 103.773 311.998 103.261 311.998 102.664C311.998 102.067 311.881 101.555 311.646 101.128C311.411 100.701 311.102 100.381 310.718 100.168C310.355 99.9334 309.95 99.8161 309.502 99.8161H307.07V105.48ZM318.188 116.808L325.356 97.2241C325.761 96.1574 326.422 95.3574 327.34 94.8241C328.278 94.2694 329.334 93.9921 330.508 93.9921C331.681 93.9921 332.726 94.2588 333.644 94.7921C334.582 95.3254 335.254 96.1254 335.66 97.1921L342.828 116.808H335.5L334.284 112.904H326.635L325.356 116.808H318.188ZM328.076 107.624H332.844L330.764 100.424C330.742 100.36 330.71 100.317 330.668 100.296C330.625 100.253 330.572 100.232 330.508 100.232C330.465 100.232 330.422 100.253 330.38 100.296C330.337 100.317 330.305 100.36 330.284 100.424L328.076 107.624ZM355.412 116.808C353.406 116.808 351.614 116.541 350.036 116.008C348.457 115.475 347.124 114.707 346.036 113.704C344.948 112.701 344.116 111.517 343.54 110.152C342.964 108.787 342.676 107.272 342.676 105.608C342.676 103.944 342.964 102.429 343.54 101.064C344.116 99.6988 344.948 98.5148 346.036 97.5121C347.145 96.5094 348.478 95.7414 350.036 95.2081C351.614 94.6748 353.406 94.4081 355.412 94.4081H358.804V99.8161H355.636C354.654 99.8161 353.79 99.9654 353.044 100.264C352.297 100.563 351.678 100.979 351.188 101.512C350.697 102.024 350.324 102.632 350.068 103.336C349.833 104.04 349.716 104.797 349.716 105.608C349.716 106.419 349.833 107.176 350.068 107.88C350.324 108.584 350.697 109.203 351.188 109.736C351.678 110.248 352.297 110.653 353.044 110.952C353.79 111.251 354.654 111.4 355.636 111.4H358.804V116.808H355.412ZM367.372 116.808C366.092 116.808 364.919 116.531 363.852 115.976C362.807 115.421 361.975 114.664 361.356 113.704C360.737 112.723 360.428 111.592 360.428 110.312C360.428 109.309 360.652 108.371 361.1 107.496C361.569 106.6 362.209 105.853 363.02 105.256C362.316 104.701 361.751 104.029 361.324 103.24C360.897 102.429 360.684 101.597 360.684 100.744C360.684 99.4854 360.983 98.3868 361.58 97.4481C362.199 96.4881 363.02 95.7414 364.044 95.2081C365.089 94.6748 366.231 94.4081 367.468 94.4081H377.42V99.8161H369.004C368.663 99.8161 368.353 99.8801 368.076 100.008C367.799 100.115 367.575 100.285 367.404 100.52C367.255 100.733 367.18 101.011 367.18 101.352C367.18 101.672 367.255 101.949 367.404 102.184C367.575 102.397 367.799 102.568 368.076 102.696C368.353 102.803 368.663 102.856 369.004 102.856H376.3V108.232H369.036C368.673 108.232 368.353 108.296 368.076 108.424C367.799 108.552 367.575 108.733 367.404 108.968C367.255 109.203 367.18 109.491 367.18 109.832C367.18 110.152 367.255 110.429 367.404 110.664C367.575 110.899 367.799 111.08 368.076 111.208C368.353 111.315 368.673 111.368 369.036 111.368H377.42V116.808H367.372Z" fill="#33658A"/>
</g>
<g filter="url(#filter3_dd_471_804)">
<path d="M172 116.808L179.168 97.2241C179.573 96.1574 180.235 95.3574 181.152 94.8241C182.091 94.2694 183.147 93.9921 184.32 93.9921C185.493 93.9921 186.539 94.2588 187.456 94.7921C188.395 95.3254 189.067 96.1254 189.472 97.1921L196.64 116.808H189.312L188.096 112.904H180.448L179.168 116.808H172ZM181.888 107.624H186.656L184.576 100.424C184.555 100.36 184.523 100.317 184.48 100.296C184.437 100.253 184.384 100.232 184.32 100.232C184.277 100.232 184.235 100.253 184.192 100.296C184.149 100.317 184.117 100.36 184.096 100.424L181.888 107.624ZM214.62 117.224C213.255 117.224 211.964 116.947 210.748 116.392C209.554 115.837 208.583 115.016 207.836 113.928C207.09 112.84 206.716 111.507 206.716 109.928V101.256C206.716 100.979 206.652 100.744 206.524 100.552C206.418 100.339 206.268 100.179 206.076 100.072C205.884 99.9654 205.66 99.9121 205.404 99.9121C205.148 99.9121 204.914 99.9654 204.7 100.072C204.508 100.179 204.348 100.339 204.22 100.552C204.114 100.744 204.06 100.979 204.06 101.256V116.808H197.468V101.32C197.468 99.7628 197.831 98.4401 198.556 97.3521C199.303 96.2641 200.284 95.4321 201.5 94.8561C202.716 94.2801 204.018 93.9921 205.404 93.9921C206.791 93.9921 208.082 94.2801 209.276 94.8561C210.471 95.4321 211.442 96.2641 212.188 97.3521C212.935 98.4401 213.308 99.7628 213.308 101.32V109.992C213.308 110.269 213.372 110.515 213.5 110.728C213.628 110.92 213.788 111.069 213.98 111.176C214.172 111.283 214.375 111.336 214.588 111.336C214.823 111.336 215.047 111.283 215.26 111.176C215.474 111.069 215.644 110.92 215.772 110.728C215.9 110.515 215.964 110.269 215.964 109.992V101.32C215.964 99.7628 216.338 98.4401 217.084 97.3521C217.831 96.2641 218.802 95.4321 219.996 94.8561C221.212 94.2801 222.503 93.9921 223.868 93.9921C225.234 93.9921 226.514 94.2801 227.708 94.8561C228.903 95.4321 229.874 96.2641 230.62 97.3521C231.367 98.4401 231.74 99.7628 231.74 101.32V116.808H225.18V101.16C225.18 100.904 225.116 100.691 224.988 100.52C224.86 100.328 224.7 100.179 224.508 100.072C224.316 99.9654 224.103 99.9121 223.868 99.9121C223.634 99.9121 223.41 99.9654 223.196 100.072C222.983 100.179 222.812 100.328 222.684 100.52C222.578 100.691 222.524 100.904 222.524 101.16V109.928C222.524 111.507 222.14 112.84 221.372 113.928C220.626 115.016 219.655 115.837 218.46 116.392C217.266 116.947 215.986 117.224 214.62 117.224ZM233.062 116.808L240.231 97.2241C240.636 96.1574 241.297 95.3574 242.215 94.8241C243.153 94.2694 244.209 93.9921 245.383 93.9921C246.556 93.9921 247.601 94.2588 248.519 94.7921C249.457 95.3254 250.129 96.1254 250.535 97.1921L257.703 116.808H250.375L249.159 112.904H241.51L240.231 116.808H233.062ZM242.951 107.624H247.719L245.639 100.424C245.617 100.36 245.585 100.317 245.543 100.296C245.5 100.253 245.447 100.232 245.383 100.232C245.34 100.232 245.297 100.253 245.255 100.296C245.212 100.317 245.18 100.36 245.159 100.424L242.951 107.624ZM259.48 116.808V111.4H268.984C269.346 111.4 269.645 111.325 269.88 111.176C270.136 111.027 270.328 110.835 270.456 110.6C270.605 110.344 270.68 110.077 270.68 109.8C270.68 109.501 270.605 109.235 270.456 109C270.328 108.744 270.136 108.541 269.88 108.392C269.645 108.243 269.346 108.168 268.984 108.168H266.104C264.717 108.168 263.458 107.901 262.328 107.368C261.197 106.835 260.29 106.067 259.608 105.064C258.946 104.04 258.616 102.813 258.616 101.384C258.616 99.9761 258.936 98.7494 259.576 97.7041C260.216 96.6588 261.08 95.8481 262.168 95.2721C263.256 94.6961 264.461 94.4081 265.784 94.4081H275.992V99.8161H266.712C266.413 99.8161 266.146 99.8801 265.911 100.008C265.698 100.136 265.528 100.307 265.4 100.52C265.293 100.733 265.24 100.968 265.24 101.224C265.24 101.48 265.293 101.715 265.4 101.928C265.528 102.141 265.698 102.323 265.911 102.472C266.146 102.6 266.413 102.664 266.712 102.664H269.816C271.33 102.664 272.653 102.952 273.784 103.528C274.914 104.083 275.789 104.861 276.408 105.864C277.026 106.867 277.336 108.051 277.336 109.416C277.336 110.973 277.005 112.307 276.344 113.416C275.704 114.525 274.84 115.368 273.752 115.944C272.664 116.52 271.458 116.808 270.136 116.808H259.48ZM280.011 116.808V111.4H289.515C289.877 111.4 290.176 111.325 290.411 111.176C290.667 111.027 290.859 110.835 290.987 110.6C291.136 110.344 291.211 110.077 291.211 109.8C291.211 109.501 291.136 109.235 290.987 109C290.859 108.744 290.667 108.541 290.411 108.392C290.176 108.243 289.877 108.168 289.515 108.168H286.635C285.248 108.168 283.989 107.901 282.859 107.368C281.728 106.835 280.821 106.067 280.139 105.064C279.477 104.04 279.147 102.813 279.147 101.384C279.147 99.9761 279.467 98.7494 280.107 97.7041C280.747 96.6588 281.611 95.8481 282.699 95.2721C283.787 94.6961 284.992 94.4081 286.315 94.4081H296.523V99.8161H287.243C286.944 99.8161 286.677 99.8801 286.443 100.008C286.229 100.136 286.059 100.307 285.931 100.52C285.824 100.733 285.771 100.968 285.771 101.224C285.771 101.48 285.824 101.715 285.931 101.928C286.059 102.141 286.229 102.323 286.443 102.472C286.677 102.6 286.944 102.664 287.243 102.664H290.347C291.861 102.664 293.184 102.952 294.315 103.528C295.445 104.083 296.32 104.861 296.939 105.864C297.557 106.867 297.867 108.051 297.867 109.416C297.867 110.973 297.536 112.307 296.875 113.416C296.235 114.525 295.371 115.368 294.283 115.944C293.195 116.52 291.989 116.808 290.667 116.808H280.011ZM300.158 116.808V94.4081H310.238C311.838 94.4081 313.299 94.7601 314.622 95.4641C315.945 96.1468 317.001 97.1068 317.79 98.3441C318.579 99.5601 318.974 100.979 318.974 102.6C318.974 104.221 318.579 105.661 317.79 106.92C317.001 108.157 315.945 109.128 314.622 109.832C313.299 110.536 311.838 110.888 310.238 110.888H307.07V116.808H300.158ZM307.07 105.48H309.502C309.95 105.48 310.355 105.373 310.718 105.16C311.102 104.925 311.411 104.605 311.646 104.2C311.881 103.773 311.998 103.261 311.998 102.664C311.998 102.067 311.881 101.555 311.646 101.128C311.411 100.701 311.102 100.381 310.718 100.168C310.355 99.9334 309.95 99.8161 309.502 99.8161H307.07V105.48ZM318.188 116.808L325.356 97.2241C325.761 96.1574 326.422 95.3574 327.34 94.8241C328.278 94.2694 329.334 93.9921 330.508 93.9921C331.681 93.9921 332.726 94.2588 333.644 94.7921C334.582 95.3254 335.254 96.1254 335.66 97.1921L342.828 116.808H335.5L334.284 112.904H326.635L325.356 116.808H318.188ZM328.076 107.624H332.844L330.764 100.424C330.742 100.36 330.71 100.317 330.668 100.296C330.625 100.253 330.572 100.232 330.508 100.232C330.465 100.232 330.422 100.253 330.38 100.296C330.337 100.317 330.305 100.36 330.284 100.424L328.076 107.624ZM355.412 116.808C353.406 116.808 351.614 116.541 350.036 116.008C348.457 115.475 347.124 114.707 346.036 113.704C344.948 112.701 344.116 111.517 343.54 110.152C342.964 108.787 342.676 107.272 342.676 105.608C342.676 103.944 342.964 102.429 343.54 101.064C344.116 99.6988 344.948 98.5148 346.036 97.5121C347.145 96.5094 348.478 95.7414 350.036 95.2081C351.614 94.6748 353.406 94.4081 355.412 94.4081H358.804V99.8161H355.636C354.654 99.8161 353.79 99.9654 353.044 100.264C352.297 100.563 351.678 100.979 351.188 101.512C350.697 102.024 350.324 102.632 350.068 103.336C349.833 104.04 349.716 104.797 349.716 105.608C349.716 106.419 349.833 107.176 350.068 107.88C350.324 108.584 350.697 109.203 351.188 109.736C351.678 110.248 352.297 110.653 353.044 110.952C353.79 111.251 354.654 111.4 355.636 111.4H358.804V116.808H355.412ZM367.372 116.808C366.092 116.808 364.919 116.531 363.852 115.976C362.807 115.421 361.975 114.664 361.356 113.704C360.737 112.723 360.428 111.592 360.428 110.312C360.428 109.309 360.652 108.371 361.1 107.496C361.569 106.6 362.209 105.853 363.02 105.256C362.316 104.701 361.751 104.029 361.324 103.24C360.897 102.429 360.684 101.597 360.684 100.744C360.684 99.4854 360.983 98.3868 361.58 97.4481C362.199 96.4881 363.02 95.7414 364.044 95.2081C365.089 94.6748 366.231 94.4081 367.468 94.4081H377.42V99.8161H369.004C368.663 99.8161 368.353 99.8801 368.076 100.008C367.799 100.115 367.575 100.285 367.404 100.52C367.255 100.733 367.18 101.011 367.18 101.352C367.18 101.672 367.255 101.949 367.404 102.184C367.575 102.397 367.799 102.568 368.076 102.696C368.353 102.803 368.663 102.856 369.004 102.856H376.3V108.232H369.036C368.673 108.232 368.353 108.296 368.076 108.424C367.799 108.552 367.575 108.733 367.404 108.968C367.255 109.203 367.18 109.491 367.18 109.832C367.18 110.152 367.255 110.429 367.404 110.664C367.575 110.899 367.799 111.08 368.076 111.208C368.353 111.315 368.673 111.368 369.036 111.368H377.42V116.808H367.372Z" fill="#33658A"/>
</g>
</g>
<path d="M104.42 148V139.48H101.06V137.5H110.21V139.48H106.85V148H104.42ZM111.352 148V139.93H113.692V148H111.352ZM112.522 138.805C112.092 138.805 111.742 138.68 111.472 138.43C111.202 138.18 111.067 137.87 111.067 137.5C111.067 137.13 111.202 136.82 111.472 136.57C111.742 136.32 112.092 136.195 112.522 136.195C112.952 136.195 113.302 136.315 113.572 136.555C113.842 136.785 113.977 137.085 113.977 137.455C113.977 137.845 113.842 138.17 113.572 138.43C113.312 138.68 112.962 138.805 112.522 138.805ZM120.634 148.12C119.954 148.12 119.359 147.97 118.849 147.67C118.339 147.37 117.939 146.915 117.649 146.305C117.369 145.685 117.229 144.905 117.229 143.965C117.229 143.015 117.364 142.235 117.634 141.625C117.904 141.015 118.294 140.56 118.804 140.26C119.314 139.96 119.924 139.81 120.634 139.81C121.394 139.81 122.074 139.985 122.674 140.335C123.284 140.675 123.764 141.155 124.114 141.775C124.474 142.395 124.654 143.125 124.654 143.965C124.654 144.815 124.474 145.55 124.114 146.17C123.764 146.79 123.284 147.27 122.674 147.61C122.074 147.95 121.394 148.12 120.634 148.12ZM115.864 150.91V139.93H118.099V141.58L118.054 143.98L118.204 146.365V150.91H115.864ZM120.229 146.2C120.619 146.2 120.964 146.11 121.264 145.93C121.574 145.75 121.819 145.495 121.999 145.165C122.189 144.825 122.284 144.425 122.284 143.965C122.284 143.495 122.189 143.095 121.999 142.765C121.819 142.435 121.574 142.18 121.264 142C120.964 141.82 120.619 141.73 120.229 141.73C119.839 141.73 119.489 141.82 119.179 142C118.869 142.18 118.624 142.435 118.444 142.765C118.264 143.095 118.174 143.495 118.174 143.965C118.174 144.425 118.264 144.825 118.444 145.165C118.624 145.495 118.869 145.75 119.179 145.93C119.489 146.11 119.839 146.2 120.229 146.2ZM128.936 148.12C128.246 148.12 127.581 148.04 126.941 147.88C126.311 147.71 125.811 147.5 125.441 147.25L126.221 145.57C126.591 145.8 127.026 145.99 127.526 146.14C128.036 146.28 128.536 146.35 129.026 146.35C129.566 146.35 129.946 146.285 130.166 146.155C130.396 146.025 130.511 145.845 130.511 145.615C130.511 145.425 130.421 145.285 130.241 145.195C130.071 145.095 129.841 145.02 129.551 144.97C129.261 144.92 128.941 144.87 128.591 144.82C128.251 144.77 127.906 144.705 127.556 144.625C127.206 144.535 126.886 144.405 126.596 144.235C126.306 144.065 126.071 143.835 125.891 143.545C125.721 143.255 125.636 142.88 125.636 142.42C125.636 141.91 125.781 141.46 126.071 141.07C126.371 140.68 126.801 140.375 127.361 140.155C127.921 139.925 128.591 139.81 129.371 139.81C129.921 139.81 130.481 139.87 131.051 139.99C131.621 140.11 132.096 140.285 132.476 140.515L131.696 142.18C131.306 141.95 130.911 141.795 130.511 141.715C130.121 141.625 129.741 141.58 129.371 141.58C128.851 141.58 128.471 141.65 128.231 141.79C127.991 141.93 127.871 142.11 127.871 142.33C127.871 142.53 127.956 142.68 128.126 142.78C128.306 142.88 128.541 142.96 128.831 143.02C129.121 143.08 129.436 143.135 129.776 143.185C130.126 143.225 130.476 143.29 130.826 143.38C131.176 143.47 131.491 143.6 131.771 143.77C132.061 143.93 132.296 144.155 132.476 144.445C132.656 144.725 132.746 145.095 132.746 145.555C132.746 146.055 132.596 146.5 132.296 146.89C131.996 147.27 131.561 147.57 130.991 147.79C130.431 148.01 129.746 148.12 128.936 148.12ZM141.902 148.18C141.132 148.18 140.447 148.055 139.847 147.805C139.247 147.555 138.772 147.215 138.422 146.785C138.072 146.355 137.897 145.86 137.897 145.3C137.897 144.78 138.012 144.315 138.242 143.905C138.472 143.485 138.837 143.095 139.337 142.735C139.837 142.365 140.472 142.005 141.242 141.655C141.802 141.395 142.242 141.165 142.562 140.965C142.882 140.765 143.107 140.575 143.237 140.395C143.367 140.205 143.432 140.015 143.432 139.825C143.432 139.565 143.342 139.355 143.162 139.195C142.992 139.035 142.737 138.955 142.397 138.955C142.037 138.955 141.757 139.045 141.557 139.225C141.357 139.405 141.257 139.635 141.257 139.915C141.257 140.065 141.287 140.215 141.347 140.365C141.407 140.505 141.522 140.67 141.692 140.86C141.862 141.04 142.102 141.275 142.412 141.565L147.947 146.695L146.672 148.18L140.567 142.51C140.217 142.19 139.937 141.89 139.727 141.61C139.517 141.33 139.362 141.055 139.262 140.785C139.172 140.515 139.127 140.235 139.127 139.945C139.127 139.435 139.262 138.985 139.532 138.595C139.802 138.205 140.182 137.905 140.672 137.695C141.162 137.475 141.737 137.365 142.397 137.365C143.007 137.365 143.532 137.465 143.972 137.665C144.422 137.855 144.772 138.13 145.022 138.49C145.282 138.85 145.412 139.28 145.412 139.78C145.412 140.22 145.302 140.625 145.082 140.995C144.862 141.355 144.517 141.695 144.047 142.015C143.587 142.335 142.982 142.66 142.232 142.99C141.722 143.22 141.317 143.445 141.017 143.665C140.727 143.875 140.517 144.09 140.387 144.31C140.257 144.53 140.192 144.775 140.192 145.045C140.192 145.295 140.267 145.52 140.417 145.72C140.577 145.92 140.797 146.075 141.077 146.185C141.357 146.295 141.687 146.35 142.067 146.35C142.677 146.35 143.237 146.21 143.747 145.93C144.257 145.64 144.687 145.215 145.037 144.655C145.397 144.085 145.652 143.395 145.802 142.585L147.677 143.17C147.467 144.19 147.092 145.075 146.552 145.825C146.012 146.575 145.347 147.155 144.557 147.565C143.767 147.975 142.882 148.18 141.902 148.18ZM155.939 148V139.48H152.579V137.5H161.729V139.48H158.369V148H155.939ZM162.695 148V139.93H164.93V142.21L164.615 141.55C164.855 140.98 165.24 140.55 165.77 140.26C166.3 139.96 166.945 139.81 167.705 139.81V141.97C167.605 141.96 167.515 141.955 167.435 141.955C167.355 141.945 167.27 141.94 167.18 141.94C166.54 141.94 166.02 142.125 165.62 142.495C165.23 142.855 165.035 143.42 165.035 144.19V148H162.695ZM169.111 148V139.93H171.451V148H169.111ZM170.281 138.805C169.851 138.805 169.501 138.68 169.231 138.43C168.961 138.18 168.826 137.87 168.826 137.5C168.826 137.13 168.961 136.82 169.231 136.57C169.501 136.32 169.851 136.195 170.281 136.195C170.711 136.195 171.061 136.315 171.331 136.555C171.601 136.785 171.736 137.085 171.736 137.455C171.736 137.845 171.601 138.17 171.331 138.43C171.071 138.68 170.721 138.805 170.281 138.805ZM177.523 148.12C176.653 148.12 175.878 147.945 175.198 147.595C174.518 147.235 173.983 146.74 173.593 146.11C173.213 145.48 173.023 144.765 173.023 143.965C173.023 143.155 173.213 142.44 173.593 141.82C173.983 141.19 174.518 140.7 175.198 140.35C175.878 139.99 176.653 139.81 177.523 139.81C178.373 139.81 179.113 139.99 179.743 140.35C180.373 140.7 180.838 141.205 181.138 141.865L179.323 142.84C179.113 142.46 178.848 142.18 178.528 142C178.218 141.82 177.878 141.73 177.508 141.73C177.108 141.73 176.748 141.82 176.428 142C176.108 142.18 175.853 142.435 175.663 142.765C175.483 143.095 175.393 143.495 175.393 143.965C175.393 144.435 175.483 144.835 175.663 145.165C175.853 145.495 176.108 145.75 176.428 145.93C176.748 146.11 177.108 146.2 177.508 146.2C177.878 146.2 178.218 146.115 178.528 145.945C178.848 145.765 179.113 145.48 179.323 145.09L181.138 146.08C180.838 146.73 180.373 147.235 179.743 147.595C179.113 147.945 178.373 148.12 177.523 148.12ZM184.376 146.35L184.436 143.5L188.201 139.93H190.991L187.376 143.605L186.161 144.595L184.376 146.35ZM182.441 148V136.87H184.781V148H182.441ZM188.456 148L185.726 144.61L187.196 142.795L191.291 148H188.456ZM194.795 148.12C194.105 148.12 193.44 148.04 192.8 147.88C192.17 147.71 191.67 147.5 191.3 147.25L192.08 145.57C192.45 145.8 192.885 145.99 193.385 146.14C193.895 146.28 194.395 146.35 194.885 146.35C195.425 146.35 195.805 146.285 196.025 146.155C196.255 146.025 196.37 145.845 196.37 145.615C196.37 145.425 196.28 145.285 196.1 145.195C195.93 145.095 195.7 145.02 195.41 144.97C195.12 144.92 194.8 144.87 194.45 144.82C194.11 144.77 193.765 144.705 193.415 144.625C193.065 144.535 192.745 144.405 192.455 144.235C192.165 144.065 191.93 143.835 191.75 143.545C191.58 143.255 191.495 142.88 191.495 142.42C191.495 141.91 191.64 141.46 191.93 141.07C192.23 140.68 192.66 140.375 193.22 140.155C193.78 139.925 194.45 139.81 195.23 139.81C195.78 139.81 196.34 139.87 196.91 139.99C197.48 140.11 197.955 140.285 198.335 140.515L197.555 142.18C197.165 141.95 196.77 141.795 196.37 141.715C195.98 141.625 195.6 141.58 195.23 141.58C194.71 141.58 194.33 141.65 194.09 141.79C193.85 141.93 193.73 142.11 193.73 142.33C193.73 142.53 193.815 142.68 193.985 142.78C194.165 142.88 194.4 142.96 194.69 143.02C194.98 143.08 195.295 143.135 195.635 143.185C195.985 143.225 196.335 143.29 196.685 143.38C197.035 143.47 197.35 143.6 197.63 143.77C197.92 143.93 198.155 144.155 198.335 144.445C198.515 144.725 198.605 145.095 198.605 145.555C198.605 146.055 198.455 146.5 198.155 146.89C197.855 147.27 197.42 147.57 196.85 147.79C196.29 148.01 195.605 148.12 194.795 148.12Z" fill="white"/>
<defs>
<filter id="filter0_dddddddd_471_804" x="93.5" y="77.5" width="81" height="56.6162" filterUnits="userSpaceOnUse" color-interpolation-filters="sRGB">
<feFlood flood-opacity="0" result="BackgroundImageFix"/>
<feColorMatrix in="SourceAlpha" type="matrix" values="0 0 0 0 0 0 0 0 0 0 0 0 0 0 0 0 0 0 127 0" result="hardAlpha"/>
<feOffset/>
<feGaussianBlur stdDeviation="4.25"/>
<feComposite in2="hardAlpha" operator="out"/>
<feColorMatrix type="matrix" values="0 0 0 0 0.2 0 0 0 0 0.396078 0 0 0 0 0.541176 0 0 0 0.17 0"/>
<feBlend mode="normal" in2="BackgroundImageFix" result="effect1_dropShadow_471_804"/>
<feColorMatrix in="SourceAlpha" type="matrix" values="0 0 0 0 0 0 0 0 0 0 0 0 0 0 0 0 0 0 127 0" result="hardAlpha"/>
<feOffset/>
<feGaussianBlur stdDeviation="4.25"/>
<feComposite in2="hardAlpha" operator="out"/>
<feColorMatrix type="matrix" values="0 0 0 0 0.2 0 0 0 0 0.396078 0 0 0 0 0.541176 0 0 0 0.17 0"/>
<feBlend mode="normal" in2="effect1_dropShadow_471_804" result="effect2_dropShadow_471_804"/>
<feColorMatrix in="SourceAlpha" type="matrix" values="0 0 0 0 0 0 0 0 0 0 0 0 0 0 0 0 0 0 127 0" result="hardAlpha"/>
<feOffset/>
<feGaussianBlur stdDeviation="4.25"/>
<feComposite in2="hardAlpha" operator="out"/>
<feColorMatrix type="matrix" values="0 0 0 0 0.2 0 0 0 0 0.396078 0 0 0 0 0.541176 0 0 0 0.17 0"/>
<feBlend mode="normal" in2="effect2_dropShadow_471_804" result="effect3_dropShadow_471_804"/>
<feColorMatrix in="SourceAlpha" type="matrix" values="0 0 0 0 0 0 0 0 0 0 0 0 0 0 0 0 0 0 127 0" result="hardAlpha"/>
<feOffset/>
<feGaussianBlur stdDeviation="4.25"/>
<feComposite in2="hardAlpha" operator="out"/>
<feColorMatrix type="matrix" values="0 0 0 0 0.2 0 0 0 0 0.396078 0 0 0 0 0.541176 0 0 0 0.17 0"/>
<feBlend mode="normal" in2="effect3_dropShadow_471_804" result="effect4_dropShadow_471_804"/>
<feColorMatrix in="SourceAlpha" type="matrix" values="0 0 0 0 0 0 0 0 0 0 0 0 0 0 0 0 0 0 127 0" result="hardAlpha"/>
<feOffset/>
<feGaussianBlur stdDeviation="4.25"/>
<feComposite in2="hardAlpha" operator="out"/>
<feColorMatrix type="matrix" values="0 0 0 0 0.2 0 0 0 0 0.396078 0 0 0 0 0.541176 0 0 0 0.17 0"/>
<feBlend mode="normal" in2="effect4_dropShadow_471_804" result="effect5_dropShadow_471_804"/>
<feColorMatrix in="SourceAlpha" type="matrix" values="0 0 0 0 0 0 0 0 0 0 0 0 0 0 0 0 0 0 127 0" result="hardAlpha"/>
<feOffset/>
<feGaussianBlur stdDeviation="4.25"/>
<feComposite in2="hardAlpha" operator="out"/>
<feColorMatrix type="matrix" values="0 0 0 0 0.2 0 0 0 0 0.396078 0 0 0 0 0.541176 0 0 0 0.17 0"/>
<feBlend mode="normal" in2="effect5_dropShadow_471_804" result="effect6_dropShadow_471_804"/>
<feColorMatrix in="SourceAlpha" type="matrix" values="0 0 0 0 0 0 0 0 0 0 0 0 0 0 0 0 0 0 127 0" result="hardAlpha"/>
<feOffset/>
<feGaussianBlur stdDeviation="4.25"/>
<feComposite in2="hardAlpha" operator="out"/>
<feColorMatrix type="matrix" values="0 0 0 0 0.2 0 0 0 0 0.396078 0 0 0 0 0.541176 0 0 0 0.17 0"/>
<feBlend mode="normal" in2="effect6_dropShadow_471_804" result="effect7_dropShadow_471_804"/>
<feColorMatrix in="SourceAlpha" type="matrix" values="0 0 0 0 0 0 0 0 0 0 0 0 0 0 0 0 0 0 127 0" result="hardAlpha"/>
<feOffset/>
<feGaussianBlur stdDeviation="4.25"/>
<feComposite in2="hardAlpha" operator="out"/>
<feColorMatrix type="matrix" values="0 0 0 0 0.2 0 0 0 0 0.396078 0 0 0 0 0.541176 0 0 0 0.17 0"/>
<feBlend mode="normal" in2="effect7_dropShadow_471_804" result="effect8_dropShadow_471_804"/>
<feBlend mode="normal" in="SourceGraphic" in2="effect8_dropShadow_471_804" result="shape"/>
</filter>
<filter id="filter1_dddddddd_471_804" x="172" y="93.9922" width="205.42" height="23.2319" filterUnits="userSpaceOnUse" color-interpolation-filters="sRGB">
<feFlood flood-opacity="0" result="BackgroundImageFix"/>
<feColorMatrix in="SourceAlpha" type="matrix" values="0 0 0 0 0 0 0 0 0 0 0 0 0 0 0 0 0 0 127 0" result="hardAlpha"/>
<feOffset/>
<feComposite in2="hardAlpha" operator="out"/>
<feColorMatrix type="matrix" values="0 0 0 0 0.2 0 0 0 0 0.396078 0 0 0 0 0.541176 0 0 0 1 0"/>
<feBlend mode="normal" in2="BackgroundImageFix" result="effect1_dropShadow_471_804"/>
<feColorMatrix in="SourceAlpha" type="matrix" values="0 0 0 0 0 0 0 0 0 0 0 0 0 0 0 0 0 0 127 0" result="hardAlpha"/>
<feOffset/>
<feComposite in2="hardAlpha" operator="out"/>
<feColorMatrix type="matrix" values="0 0 0 0 0.2 0 0 0 0 0.396078 0 0 0 0 0.541176 0 0 0 1 0"/>
<feBlend mode="normal" in2="effect1_dropShadow_471_804" result="effect2_dropShadow_471_804"/>
<feColorMatrix in="SourceAlpha" type="matrix" values="0 0 0 0 0 0 0 0 0 0 0 0 0 0 0 0 0 0 127 0" result="hardAlpha"/>
<feOffset/>
<feComposite in2="hardAlpha" operator="out"/>
<feColorMatrix type="matrix" values="0 0 0 0 0.2 0 0 0 0 0.396078 0 0 0 0 0.541176 0 0 0 1 0"/>
<feBlend mode="normal" in2="effect2_dropShadow_471_804" result="effect3_dropShadow_471_804"/>
<feColorMatrix in="SourceAlpha" type="matrix" values="0 0 0 0 0 0 0 0 0 0 0 0 0 0 0 0 0 0 127 0" result="hardAlpha"/>
<feOffset/>
<feComposite in2="hardAlpha" operator="out"/>
<feColorMatrix type="matrix" values="0 0 0 0 0.2 0 0 0 0 0.396078 0 0 0 0 0.541176 0 0 0 1 0"/>
<feBlend mode="normal" in2="effect3_dropShadow_471_804" result="effect4_dropShadow_471_804"/>
<feColorMatrix in="SourceAlpha" type="matrix" values="0 0 0 0 0 0 0 0 0 0 0 0 0 0 0 0 0 0 127 0" result="hardAlpha"/>
<feOffset/>
<feComposite in2="hardAlpha" operator="out"/>
<feColorMatrix type="matrix" values="0 0 0 0 0.2 0 0 0 0 0.396078 0 0 0 0 0.541176 0 0 0 1 0"/>
<feBlend mode="normal" in2="effect4_dropShadow_471_804" result="effect5_dropShadow_471_804"/>
<feColorMatrix in="SourceAlpha" type="matrix" values="0 0 0 0 0 0 0 0 0 0 0 0 0 0 0 0 0 0 127 0" result="hardAlpha"/>
<feOffset/>
<feComposite in2="hardAlpha" operator="out"/>
<feColorMatrix type="matrix" values="0 0 0 0 0.2 0 0 0 0 0.396078 0 0 0 0 0.541176 0 0 0 1 0"/>
<feBlend mode="normal" in2="effect5_dropShadow_471_804" result="effect6_dropShadow_471_804"/>
<feColorMatrix in="SourceAlpha" type="matrix" values="0 0 0 0 0 0 0 0 0 0 0 0 0 0 0 0 0 0 127 0" result="hardAlpha"/>
<feOffset/>
<feComposite in2="hardAlpha" operator="out"/>
<feColorMatrix type="matrix" values="0 0 0 0 0.2 0 0 0 0 0.396078 0 0 0 0 0.541176 0 0 0 1 0"/>
<feBlend mode="normal" in2="effect6_dropShadow_471_804" result="effect7_dropShadow_471_804"/>
<feColorMatrix in="SourceAlpha" type="matrix" values="0 0 0 0 0 0 0 0 0 0 0 0 0 0 0 0 0 0 127 0" result="hardAlpha"/>
<feOffset/>
<feComposite in2="hardAlpha" operator="out"/>
<feColorMatrix type="matrix" values="0 0 0 0 0.2 0 0 0 0 0.396078 0 0 0 0 0.541176 0 0 0 1 0"/>
<feBlend mode="normal" in2="effect7_dropShadow_471_804" result="effect8_dropShadow_471_804"/>
<feBlend mode="normal" in="SourceGraphic" in2="effect8_dropShadow_471_804" result="shape"/>
</filter>
<filter id="filter2_dddddddd_471_804" x="163.5" y="85.4922" width="222.42" height="40.2319" filterUnits="userSpaceOnUse" color-interpolation-filters="sRGB">
<feFlood flood-opacity="0" result="BackgroundImageFix"/>
<feColorMatrix in="SourceAlpha" type="matrix" values="0 0 0 0 0 0 0 0 0 0 0 0 0 0 0 0 0 0 127 0" result="hardAlpha"/>
<feOffset/>
<feGaussianBlur stdDeviation="4.25"/>
<feComposite in2="hardAlpha" operator="out"/>
<feColorMatrix type="matrix" values="0 0 0 0 0.2 0 0 0 0 0.396078 0 0 0 0 0.541176 0 0 0 0.16 0"/>
<feBlend mode="normal" in2="BackgroundImageFix" result="effect1_dropShadow_471_804"/>
<feColorMatrix in="SourceAlpha" type="matrix" values="0 0 0 0 0 0 0 0 0 0 0 0 0 0 0 0 0 0 127 0" result="hardAlpha"/>
<feOffset/>
<feGaussianBlur stdDeviation="4.25"/>
<feComposite in2="hardAlpha" operator="out"/>
<feColorMatrix type="matrix" values="0 0 0 0 0.2 0 0 0 0 0.396078 0 0 0 0 0.541176 0 0 0 0.16 0"/>
<feBlend mode="normal" in2="effect1_dropShadow_471_804" result="effect2_dropShadow_471_804"/>
<feColorMatrix in="SourceAlpha" type="matrix" values="0 0 0 0 0 0 0 0 0 0 0 0 0 0 0 0 0 0 127 0" result="hardAlpha"/>
<feOffset/>
<feGaussianBlur stdDeviation="4.25"/>
<feComposite in2="hardAlpha" operator="out"/>
<feColorMatrix type="matrix" values="0 0 0 0 0.2 0 0 0 0 0.396078 0 0 0 0 0.541176 0 0 0 0.16 0"/>
<feBlend mode="normal" in2="effect2_dropShadow_471_804" result="effect3_dropShadow_471_804"/>
<feColorMatrix in="SourceAlpha" type="matrix" values="0 0 0 0 0 0 0 0 0 0 0 0 0 0 0 0 0 0 127 0" result="hardAlpha"/>
<feOffset/>
<feGaussianBlur stdDeviation="4.25"/>
<feComposite in2="hardAlpha" operator="out"/>
<feColorMatrix type="matrix" values="0 0 0 0 0.2 0 0 0 0 0.396078 0 0 0 0 0.541176 0 0 0 0.16 0"/>
<feBlend mode="normal" in2="effect3_dropShadow_471_804" result="effect4_dropShadow_471_804"/>
<feColorMatrix in="SourceAlpha" type="matrix" values="0 0 0 0 0 0 0 0 0 0 0 0 0 0 0 0 0 0 127 0" result="hardAlpha"/>
<feOffset/>
<feGaussianBlur stdDeviation="4.25"/>
<feComposite in2="hardAlpha" operator="out"/>
<feColorMatrix type="matrix" values="0 0 0 0 0.2 0 0 0 0 0.396078 0 0 0 0 0.541176 0 0 0 0.16 0"/>
<feBlend mode="normal" in2="effect4_dropShadow_471_804" result="effect5_dropShadow_471_804"/>
<feColorMatrix in="SourceAlpha" type="matrix" values="0 0 0 0 0 0 0 0 0 0 0 0 0 0 0 0 0 0 127 0" result="hardAlpha"/>
<feOffset/>
<feGaussianBlur stdDeviation="4.25"/>
<feComposite in2="hardAlpha" operator="out"/>
<feColorMatrix type="matrix" values="0 0 0 0 0.2 0 0 0 0 0.396078 0 0 0 0 0.541176 0 0 0 0.16 0"/>
<feBlend mode="normal" in2="effect5_dropShadow_471_804" result="effect6_dropShadow_471_804"/>
<feColorMatrix in="SourceAlpha" type="matrix" values="0 0 0 0 0 0 0 0 0 0 0 0 0 0 0 0 0 0 127 0" result="hardAlpha"/>
<feOffset/>
<feGaussianBlur stdDeviation="4.25"/>
<feComposite in2="hardAlpha" operator="out"/>
<feColorMatrix type="matrix" values="0 0 0 0 0.2 0 0 0 0 0.396078 0 0 0 0 0.541176 0 0 0 0.16 0"/>
<feBlend mode="normal" in2="effect6_dropShadow_471_804" result="effect7_dropShadow_471_804"/>
<feColorMatrix in="SourceAlpha" type="matrix" values="0 0 0 0 0 0 0 0 0 0 0 0 0 0 0 0 0 0 127 0" result="hardAlpha"/>
<feOffset/>
<feGaussianBlur stdDeviation="4.25"/>
<feComposite in2="hardAlpha" operator="out"/>
<feColorMatrix type="matrix" values="0 0 0 0 0.2 0 0 0 0 0.396078 0 0 0 0 0.541176 0 0 0 0.16 0"/>
<feBlend mode="normal" in2="effect7_dropShadow_471_804" result="effect8_dropShadow_471_804"/>
<feBlend mode="normal" in="SourceGraphic" in2="effect8_dropShadow_471_804" result="shape"/>
</filter>
<filter id="filter3_dd_471_804" x="154" y="83.9922" width="241.42" height="59.2319" filterUnits="userSpaceOnUse" color-interpolation-filters="sRGB">
<feFlood flood-opacity="0" result="BackgroundImageFix"/>
<feColorMatrix in="SourceAlpha" type="matrix" values="0 0 0 0 0 0 0 0 0 0 0 0 0 0 0 0 0 0 127 0" result="hardAlpha"/>
<feOffset dy="4"/>
<feGaussianBlur stdDeviation="2"/>
<feColorMatrix type="matrix" values="0 0 0 0 0 0 0 0 0 0 0 0 0 0 0 0 0 0 0.3 0"/>
<feBlend mode="normal" in2="BackgroundImageFix" result="effect1_dropShadow_471_804"/>
<feColorMatrix in="SourceAlpha" type="matrix" values="0 0 0 0 0 0 0 0 0 0 0 0 0 0 0 0 0 0 127 0" result="hardAlpha"/>
<feMorphology radius="6" operator="dilate" in="SourceAlpha" result="effect2_dropShadow_471_804"/>
<feOffset dy="8"/>
<feGaussianBlur stdDeviation="6"/>
<feColorMatrix type="matrix" values="0 0 0 0 0 0 0 0 0 0 0 0 0 0 0 0 0 0 0.15 0"/>
<feBlend mode="normal" in2="effect1_dropShadow_471_804" result="effect2_dropShadow_471_804"/>
<feBlend mode="normal" in="SourceGraphic" in2="effect2_dropShadow_471_804" result="shape"/>
</filter>
<clipPath id="clip0_471_804">
<rect width="301" height="63.6161" fill="white" transform="translate(90 74)"/>
</clipPath>
</defs>
</svg>
